<svg width="28" height="28" viewBox="0 0 28 28" fill="none" xmlns="http://www.w3.org/2000/svg">
<circle cx="14" cy="14" r="14" fill="#009966"/>
<path d="M10.4817 14.4041C10.3972 14.4463 10.2705 14.573 10.1861 14.6575C10.1861 14.4886 10.2283 14.2352 10.2283 14.1507C10.2283 14.024 10.1861 13.9818 10.1016 14.1085C9.97493 14.3619 9.84824 14.6997 9.80601 14.9531C9.25703 15.3332 8.58136 15.7132 8.11683 15.9244C7.90568 16.0088 8.03237 16.0933 8.20129 16.0511C8.83473 15.8399 9.34148 15.671 9.80601 15.4598C9.84824 15.8399 9.97493 16.0933 10.3128 16.1778C10.9462 16.3467 11.5796 15.7977 12.2975 14.8264C12.4665 15.2909 12.8888 15.9244 13.9867 16.0933C14.4512 16.1777 14.409 16.1355 14.4935 15.8821C14.5357 15.671 14.6202 15.6288 14.2401 15.5443C13.7756 15.3754 13.6067 15.0376 14.0712 14.8264C14.5357 14.6153 15.1691 14.4463 15.5914 14.3619C15.887 14.3197 15.9715 14.3197 16.056 14.0663C16.1404 13.7707 16.1826 13.7284 15.887 13.7707C15.5492 13.8129 13.9445 13.8551 13.5222 13.8129C13.86 13.644 14.3246 13.4751 14.6624 13.3484C14.7891 13.4328 14.8313 13.3906 14.7891 13.3061C14.9158 13.2639 15.0425 13.2217 15.1691 13.1372C15.5492 12.9261 15.7181 12.4616 15.2958 12.1659C14.8735 11.8703 14.5357 11.7859 14.3246 12.0815C14.1556 12.3349 13.9867 12.5882 14.2401 12.9261C13.86 13.0528 13.5222 13.1795 13.1844 13.3061C12.931 13.3906 12.8043 13.4328 12.7198 13.7707C12.6354 14.1085 12.5931 14.1085 12.931 14.1507C13.3955 14.1507 13.8178 14.1507 14.1134 14.4041C13.6489 14.573 13.311 14.9109 13.48 15.3754C13.2688 15.3332 13.0577 15.2487 12.8888 15.0798C12.5509 14.7419 12.5509 14.1507 12.4242 13.4751C12.2975 12.7994 12.0019 12.2082 11.8752 11.9548C11.7908 11.7014 11.7486 11.8281 11.6641 11.997C11.5796 12.1659 11.4952 12.2504 11.5796 12.5038C11.7486 12.9261 12.0019 13.7707 12.1286 14.2774C11.8752 14.8686 11.1996 15.5865 10.6506 15.671C10.2283 15.7555 10.1016 15.5021 10.1438 15.2909C10.4394 15.122 10.6928 14.9109 10.9462 14.6575C11.453 14.1085 11.5374 13.6862 11.1996 12.7994C11.4107 12.8416 11.3685 12.6727 11.0729 12.2926C10.8617 12.0393 10.8195 12.0815 10.6928 12.3349C10.6084 12.546 10.5239 12.7149 10.7773 12.7994C10.8195 12.9261 10.904 13.095 11.0307 13.3061C11.284 13.8551 10.8617 14.0663 10.4817 14.4041ZM14.4935 12.546C14.4935 12.4193 14.5357 12.4193 14.7468 12.546C14.958 12.6727 15.1269 12.7149 14.8313 12.7572C14.7468 12.7994 14.6202 12.7994 14.5357 12.8416C14.5357 12.7149 14.5357 12.6305 14.4935 12.546Z" fill="white"/>
<path d="M4.7385 9.37889C4.90742 9.2522 4.90742 9.59004 4.7385 9.9701C4.82296 9.84342 4.99188 9.54781 4.94965 9.33666C4.90742 9.04105 4.7385 9.08328 4.61181 9.2522C4.52735 9.37889 4.56958 9.46335 4.7385 9.37889Z" fill="white"/>
<path d="M4.78076 11.786C4.99191 11.4059 4.90745 11.1103 5.07637 10.5613C5.20306 10.2235 5.20306 10.4768 5.20306 10.688C5.1186 11.237 5.16083 12.1238 5.92096 12.0816C5.96319 12.5883 6.08988 13.4751 6.08988 13.813C6.08988 14.1086 6.13211 14.0241 6.21656 13.8552C6.30102 13.6863 6.25879 13.4751 6.25879 13.2218C6.25879 12.9684 6.21656 12.5039 6.17433 11.8704C6.25879 11.786 6.38548 11.6593 6.42771 11.5748C6.51217 11.3637 6.5544 11.4059 6.59663 11.5748C6.68109 11.9126 7.01892 12.1238 7.44122 11.786C7.86351 11.4904 7.69459 10.8991 7.48345 10.2657C7.65236 10.3079 7.69459 10.1812 7.61013 10.0123C7.5679 9.92787 7.48345 9.84341 7.44122 9.75895C7.35676 9.67449 7.31453 9.59003 7.23007 9.67449C7.14561 9.75895 7.10338 9.84341 7.06115 9.88564C7.01892 9.92787 7.01892 10.0123 7.06115 10.139C7.23007 10.5191 7.31453 10.9414 7.35676 11.1525C7.39899 11.3637 7.31453 11.4059 7.14561 11.4059C7.01892 11.4059 6.80778 11.3637 6.72332 11.0258C6.63886 10.688 6.59663 10.5613 6.63886 10.3079C6.63886 10.0968 6.68109 9.92787 6.51217 9.71672C6.34325 9.50557 6.34325 9.5478 6.30102 9.63226C6.25879 9.75895 6.21656 9.92787 6.25879 10.139C6.34325 10.4346 6.38548 10.688 6.42771 10.8569C6.46994 10.9836 6.34325 11.237 6.1321 11.3637C6.08988 10.9414 6.04765 10.4346 6.00542 9.9701C6.25879 9.88564 6.1321 9.59003 5.92096 9.2522C5.79427 8.99882 5.70981 9.08328 5.62535 9.2522C5.54089 9.42112 5.58312 9.50557 5.66758 9.63226C5.62535 9.75895 5.70981 9.92787 5.75204 10.2235C5.79427 10.4346 5.8365 10.9836 5.8365 11.4481C5.66758 11.4481 5.54089 11.3214 5.45643 11.1525C5.32975 10.8147 5.32975 10.4769 5.4142 10.3079C5.49866 10.0968 5.54089 9.80118 5.4142 9.71672C5.28752 9.63226 5.16083 9.71672 5.07637 9.88564C4.90745 10.139 4.73853 10.4768 4.73853 10.8569C4.73853 10.9836 4.69631 11.2792 4.61185 11.4059C4.56962 11.5326 4.44293 11.5326 4.35847 11.3637C4.18955 11.1103 4.14732 10.4346 4.14732 10.0968C4.14732 9.92787 4.10509 9.88564 4.06286 10.0968C3.89395 10.7725 4.10509 11.4481 4.23178 11.7437C4.44293 12.1238 4.65408 12.0393 4.78076 11.786Z" fill="white"/>
<path d="M6.80735 9.5899C6.89181 9.50544 6.89181 9.50544 6.93404 9.5899C6.97626 9.67436 7.10295 9.67436 7.14518 9.5899C7.18741 9.50544 7.22964 9.46321 7.18741 9.33652C7.14518 9.25206 7.14518 9.29429 7.10295 9.37875C7.06072 9.54767 6.89181 9.50544 6.89181 9.29429C6.89181 9.08314 6.84958 9.20983 6.76512 9.33652C6.68066 9.54767 6.55397 9.50544 6.55397 9.29429C6.55397 9.1676 6.51174 9.04091 6.42728 9.20983C6.38505 9.33652 6.42728 9.46321 6.46951 9.54767C6.5962 9.67436 6.72289 9.67436 6.80735 9.5899Z" fill="white"/>
<path d="M5.5408 12.757C5.66749 12.7148 5.66749 12.7148 5.66749 12.5459C5.66749 12.377 5.58303 12.4614 5.41411 12.5036C5.16074 12.5881 4.65398 12.8415 4.27392 13.306C4.105 13.5172 4.23169 13.4327 4.35838 13.3482C4.56953 13.1793 5.20297 12.8415 5.5408 12.757Z" fill="white"/>
<path d="M4.69647 15.4598C4.56978 15.6709 4.31641 15.3753 4.48532 14.8263C4.52755 14.6997 4.56978 14.6152 4.56978 14.5307C4.56978 14.4463 4.56978 14.3618 4.56978 14.2351C4.56978 14.1507 4.48532 14.2774 4.44309 14.4463C4.40087 14.6997 4.23195 14.8263 4.27418 15.6287C4.31641 16.0932 4.86539 16.0932 4.90762 15.502C4.90762 15.2486 4.82316 15.2486 4.69647 15.4598Z" fill="white"/>
<path d="M8.45455 13.6862C8.45455 13.4751 8.41232 13.2639 8.41232 13.0528C8.45455 13.0528 8.45455 13.0105 8.49678 13.0105C8.62347 13.3906 9.17245 13.3061 9.34137 13.0528C9.42583 12.9261 9.42583 12.9261 9.51028 13.0528C9.63697 13.2217 10.0593 13.3061 10.1437 13.0528C10.2282 12.7994 10.2282 12.546 10.186 12.3771C10.1437 12.166 10.1015 12.2082 9.97481 12.2926C9.84812 12.3771 9.93258 12.4193 9.97481 12.546C10.017 13.0528 9.59474 13.0105 9.55251 12.5038C9.51028 12.166 9.46805 12.2926 9.42583 12.4616C9.21468 13.095 8.6657 13.2217 8.75015 12.4616C8.75015 12.2504 8.62347 12.3349 8.53901 12.4193C8.49678 12.4616 8.41232 12.546 8.37009 12.5882C8.32786 11.997 8.28563 11.3214 8.20117 10.4768C8.37009 10.6879 8.53901 10.4345 8.41232 10.2234C8.32786 10.0545 8.20117 9.63219 8.11671 9.42105C8.03225 9.2099 7.99003 9.25213 7.82111 9.46327C7.65219 9.63219 7.69442 9.67442 7.73665 9.88557C7.73665 10.1389 7.73665 10.3501 7.82111 10.8146C7.86334 11.1524 7.9478 11.8703 8.03225 12.7572C7.9478 12.7994 7.82111 12.8839 7.73665 12.9261C7.69442 12.7572 7.56773 12.6727 7.39881 12.5038C7.14544 12.2504 6.97652 12.2504 6.76537 12.546C6.55423 12.8416 6.59645 12.8839 6.59645 13.1795C6.59645 13.4328 6.55423 13.5173 6.76537 13.6018C6.97652 13.6862 7.06098 13.644 7.18767 13.6018C7.27213 13.5595 7.39881 13.5173 7.56773 13.4751C7.60996 13.6018 7.56773 13.7707 7.48327 13.8551C6.97652 14.4463 6.21639 14.9109 5.87855 14.4886C5.70964 14.2774 5.62518 13.9396 5.66741 13.5173C5.70964 13.1795 5.62518 13.3484 5.58295 13.4328C5.45626 13.8129 5.41403 14.4041 5.58295 14.6997C5.7941 15.122 6.17416 15.2909 6.76537 14.9953C7.35658 14.7419 7.90557 14.2774 7.90557 13.644C7.90557 13.5173 7.90557 13.4328 7.90557 13.3484C7.99003 13.3061 8.07448 13.2639 8.11671 13.2217C8.11671 13.4328 8.11671 13.7284 8.11671 13.9396C8.15894 14.6153 7.86334 14.8264 7.60996 15.0375C7.27213 15.2909 6.8076 15.5021 6.38531 15.5443C5.45626 15.671 5.24511 15.0798 5.24511 14.2774C5.24511 14.1507 5.28734 14.0663 5.28734 13.8974C5.28734 13.5595 5.24511 13.6018 5.11843 13.9396C5.03397 14.2774 4.90728 15.0375 5.20288 15.671C5.54072 16.3044 6.63868 16.1355 7.48327 15.7132C8.41232 15.2487 8.49678 14.4886 8.45455 13.6862ZM7.27213 13.0528C7.06098 13.1372 6.97652 13.0105 7.01875 12.8839C7.01875 12.7572 7.06098 12.6727 7.2299 12.7572C7.31435 12.7994 7.39881 12.8839 7.48327 13.0105C7.35658 13.0528 7.31435 13.0528 7.27213 13.0528Z" fill="white"/>
<path d="M9.426 14.4044C9.51046 14.2355 9.55269 14.0666 9.51046 13.8554C9.46823 13.7287 9.51046 13.6865 9.38377 13.6021C9.25708 13.5598 9.21486 13.6443 9.17263 13.7287C9.1304 13.8554 9.21486 14.0243 9.38377 13.9399C9.426 14.0243 9.38377 14.2355 9.34154 14.3622C9.29931 14.5311 9.34154 14.5733 9.426 14.4044Z" fill="white"/>
<path d="M9.76375 10.9836C9.59484 11.1947 9.46815 11.4903 9.72152 11.6593C9.84821 11.7437 10.1016 11.617 10.186 11.4481C10.2705 11.237 10.2283 11.1947 10.0594 11.4059C9.84821 11.6593 9.59484 11.4481 9.84821 11.068C10.0171 10.8147 9.89044 10.7724 9.76375 10.9836Z" fill="white"/>
<path d="M9.04567 11.026C9.63688 10.7726 9.97471 10.4348 10.1436 10.1392C10.3125 10.1814 10.3548 10.0547 10.2703 9.92805C10.3125 9.80136 10.3548 9.7169 10.397 9.63244C10.5237 9.08346 9.97471 9.04123 9.84803 9.46352C9.76357 9.67467 9.76357 9.88582 9.93248 10.0125C9.67911 10.3503 9.34127 10.6459 8.91898 10.8993C8.75006 11.0682 8.79229 11.1527 9.04567 11.026ZM10.0592 9.54798C10.1014 9.42129 10.1859 9.50575 10.1859 9.59021C10.1859 9.63244 10.1436 9.7169 10.1014 9.75913C10.0169 9.7169 10.0169 9.63244 10.0592 9.54798Z" fill="white"/>
<path d="M11.5375 11.3636C11.6642 11.068 11.7487 10.7724 11.8332 10.5612C11.9176 10.3501 12.0021 10.3923 11.9598 10.6035C11.9176 10.9835 11.9176 11.5748 12.2977 11.8281C12.6777 12.0393 13.269 11.6592 13.4801 11.2369C14.1135 12.0393 14.6625 11.6592 14.7048 10.8991C14.7048 10.6457 14.6203 10.139 14.5358 9.97003C14.4514 9.80112 14.5358 9.80112 14.6203 9.88557C14.7048 9.97003 14.8737 10.0545 14.7892 9.75889C14.7048 9.50551 14.5781 9.33659 14.4514 9.2099C14.3247 9.08322 14.2825 9.16767 14.2402 9.25213C14.198 9.33659 14.198 9.37882 14.1135 9.46328C14.0291 9.54774 14.0713 9.58997 14.1135 9.71666C14.3669 10.3079 14.5781 11.1947 14.198 11.2791C13.8602 11.3636 13.649 10.6035 13.649 10.2656C13.649 9.84334 13.5646 9.46328 13.4801 9.2099C13.3956 8.95653 13.3534 8.95653 13.269 9.08322C13.2267 9.16767 13.2267 9.25213 13.1423 9.33659C13.1 9.42105 13.1423 9.46328 13.1845 9.6322C13.3956 10.6035 13.3534 11.0258 12.9311 11.2791C12.5088 11.5325 12.2554 11.2791 12.2554 10.9835C12.2554 10.6879 12.2554 10.3079 12.2977 10.0545C12.3399 9.80112 12.3821 9.71666 12.2977 9.58997C12.2132 9.46328 12.1288 9.50551 12.0021 9.67443C11.7487 10.0545 11.4531 10.6879 11.3686 10.9835C11.2842 11.2791 11.073 11.1947 10.9463 10.9413C10.7774 10.6457 10.8196 10.0967 10.8619 9.84334C10.9041 9.6322 10.9041 9.54774 10.7774 9.75889C10.5663 10.3501 10.5663 10.9413 11.0308 11.4481C11.2419 11.8281 11.4109 11.6592 11.5375 11.3636Z" fill="white"/>
<path d="M12.7196 10.2233C12.7196 10.3499 12.7196 10.5189 12.804 10.2655C12.8462 10.0121 12.8462 9.67427 12.7618 9.46312C12.6773 9.25197 12.6351 9.20974 12.5506 9.2942C12.4662 9.37866 12.4662 9.42089 12.5506 9.50535C12.6351 9.63204 12.7618 9.92765 12.7196 10.2233Z" fill="white"/>
<path d="M13.6068 12.2082C13.6068 12.5461 13.5223 12.5461 13.3956 12.2082C13.3534 12.0815 13.3112 12.0815 13.269 12.2505C13.269 12.5461 13.1423 12.5883 13.0578 12.2927C13.0156 12.166 13.0156 12.0393 12.9734 12.2505C12.9311 12.4194 12.9734 12.5461 13.0578 12.6727C13.1423 12.7572 13.269 12.7572 13.3112 12.6305C13.3534 12.5038 13.3956 12.5038 13.4801 12.5883C13.5646 12.6727 13.9024 12.5883 13.7335 12.1238C13.649 11.9548 13.6068 11.9971 13.6068 12.2082Z" fill="white"/>
<path d="M17.0271 9.54776C17.1538 9.63222 17.2805 9.84337 17.2382 10.0967C17.196 10.3079 17.2382 10.4346 17.3649 10.139C17.4916 9.84337 17.4072 9.50553 17.2805 9.29438C17.1538 9.08324 17.1116 9.1677 17.0271 9.25216C16.9426 9.37884 16.9004 9.50553 17.0271 9.54776Z" fill="white"/>
<path d="M14.8734 9.67459C14.8734 9.80128 14.9156 9.88574 15.0845 9.92797C15.4224 10.3925 15.8024 10.8993 16.1403 11.3638C16.1825 11.7861 16.267 12.2084 16.3092 12.5884C16.3937 13.433 16.5626 14.5732 16.4359 15.08C16.3514 15.46 16.4359 15.5867 16.6048 15.0377C16.7737 14.4888 16.7737 13.9398 16.647 13.1374C16.6048 12.7996 16.6048 12.4195 16.5626 11.9972C17.1116 12.884 17.6605 13.7286 17.8717 14.3198C17.9984 14.6577 18.1251 14.6999 17.9984 14.2776C17.8717 13.6864 17.3227 12.6729 16.4781 11.406C16.4359 11.0682 16.4359 10.7303 16.4359 10.477C16.5626 10.6036 16.647 10.5192 16.6048 10.3503C16.5204 10.0124 16.3937 9.75905 16.267 9.42122C16.2247 9.2523 16.0558 9.2523 15.9714 9.46345C15.8869 9.71682 15.8869 9.75905 15.9714 9.92797C15.9714 10.1391 16.0136 10.4347 16.0558 10.7303C15.9291 10.5192 15.718 10.2236 15.5491 10.0124C15.7602 10.0969 15.9291 10.0547 15.718 9.80128C15.5068 9.59014 15.2112 9.33676 15.0423 9.16784C14.8734 8.99892 14.7889 9.12561 14.7889 9.2523C14.8734 9.46345 14.9156 9.54791 14.8734 9.67459Z" fill="white"/>
<path d="M17.2804 10.8569C17.2381 11.0681 17.1537 10.9836 17.1114 10.8147C17.0692 10.7302 17.027 10.7725 17.027 10.9414C17.0692 11.1103 17.1114 11.237 17.2381 11.1103C17.3226 11.0258 17.3226 11.0258 17.4493 11.1103C17.5337 11.1948 17.6182 11.1103 17.6604 11.0681C17.6604 11.0258 17.7026 10.9414 17.6604 10.7302C17.6182 10.5191 17.576 10.6458 17.5337 10.8147C17.4915 10.9836 17.407 11.0258 17.3648 10.8147C17.3648 10.6458 17.2804 10.688 17.2804 10.8569Z" fill="white"/>
<path d="M18.2519 13.6018C18.2941 14.3619 18.3786 14.6998 17.9141 15.2487C17.4073 15.7977 17.0695 15.9666 16.8583 16.0089C16.5627 16.0933 16.4783 16.22 16.9005 16.1778C17.534 16.1356 17.6184 16.1356 18.1674 15.5021C18.463 15.1643 18.5897 14.742 18.5897 13.7285C18.5475 11.9548 18.3363 11.1947 18.3363 10.2234C18.4208 10.3079 18.5475 10.3079 18.5053 10.139C18.4208 9.92783 18.3786 9.67445 18.3363 9.4633C18.2519 9.25216 18.2097 9.1677 18.1252 9.29439C18.0407 9.42108 17.9563 9.4633 17.9141 9.54776C17.8718 9.63222 17.8296 9.75891 17.9141 9.8856C18.1674 11.9548 18.2097 12.8417 18.2519 13.6018Z" fill="white"/>
<path d="M19.3496 13.8129C19.3918 14.2352 19.4763 14.5308 19.3496 15.0375C19.3073 15.1642 19.3918 15.2487 19.4763 15.0375C19.8563 14.3196 19.6029 13.6862 19.5607 13.2639C19.5185 12.6304 19.2651 10.9835 19.2229 10.3078L19.2651 10.3501C19.434 10.4345 19.6452 10.519 19.5185 10.2656C19.3918 10.0545 19.2651 9.67439 19.1807 9.42101C19.0962 9.16764 19.054 9.16764 18.9273 9.37878C18.6739 9.71662 18.8428 10.0545 18.9273 10.4767C19.0962 11.9125 19.3073 13.3906 19.3496 13.8129Z" fill="white"/>
<path d="M20.2364 11.4479C20.3631 11.5746 20.4476 11.828 20.532 11.9547C20.6165 12.1658 20.7009 11.9969 20.7009 11.8702C20.7009 11.7435 20.6587 11.3635 20.7009 11.2368C20.7854 11.0256 20.9121 11.3212 20.9543 11.1945C20.9965 11.1101 20.9121 11.0678 20.8698 10.9834C20.8276 10.8567 20.7854 10.8989 20.7009 10.9412C20.6165 11.0256 20.5742 11.1101 20.5742 11.1523C20.5742 11.279 20.5742 11.4057 20.5742 11.6168C20.5742 11.7857 20.532 11.7857 20.4898 11.7013C20.4476 11.5746 20.3209 11.279 20.2364 11.1945C20.152 11.1101 20.0253 11.1523 20.0253 11.279C20.0253 11.4057 20.0253 11.3635 20.0253 11.4901C20.0253 11.5746 20.1942 11.5746 20.2364 11.4479Z" fill="white"/>
<path d="M20.1522 13.0949C20.1522 13.2216 20.3211 13.0527 20.4478 12.9683C20.5745 12.8838 20.9546 12.6304 21.1235 12.546C21.2924 12.4615 21.2502 12.4193 21.208 12.2504C21.208 12.0814 21.0813 12.2081 20.9546 12.3348C20.8279 12.4615 20.4478 12.7149 20.3211 12.8416C20.1945 12.9683 20.1522 13.0105 20.1522 13.0949Z" fill="white"/>
<path d="M19.2653 15.3752C19.0964 15.0374 19.0964 14.6996 19.0964 14.404C19.0964 14.1506 19.0542 13.9394 18.9697 14.3617C18.7163 15.3752 18.8852 15.5864 19.1386 15.7975C19.4765 16.0931 19.6031 16.1354 19.7721 15.8398C20.1099 15.333 20.2366 14.9107 20.4055 14.6573C20.5744 14.4462 20.5744 14.6151 20.6589 14.6996C20.87 14.9529 21.0389 15.0374 21.3345 15.0796C21.6302 15.1219 22.1369 14.8685 22.0947 13.9394C22.0524 13.3482 22.0102 12.5881 21.968 11.7435C22.2636 12.1236 22.4747 12.4614 22.6859 12.757C22.7703 13.306 22.8126 13.8127 22.8126 14.1928C22.7703 14.6573 22.897 14.6573 22.9815 14.1928C23.0237 14.0239 23.0237 13.6016 22.9815 13.1371C23.3616 13.6438 23.5727 13.9394 23.6994 14.1928C23.8683 14.4884 23.9528 14.6996 23.9105 14.1506C23.9105 13.9394 23.8261 13.7705 23.5727 13.3905C23.3193 13.0526 23.1082 12.7148 22.897 12.3769C22.8126 11.5746 22.7281 10.6878 22.7281 10.2232C22.8548 10.3077 22.9393 10.2232 22.8548 10.0543C22.8126 9.88541 22.6859 9.37866 22.6014 9.20974C22.517 9.04082 22.4325 9.04082 22.348 9.25197C22.2636 9.42089 22.1791 9.50535 22.2214 9.63204C22.2636 10.4344 22.348 11.1945 22.4747 11.8702C22.2636 11.5746 22.0524 11.279 21.8835 11.0256C21.8835 10.73 21.8413 10.4344 21.8413 10.1388C21.968 10.2232 22.0102 10.2232 21.968 10.0121C21.9258 9.84318 21.7568 9.42089 21.6724 9.25197C21.5879 9.08305 21.5457 9.08305 21.4612 9.20974C21.3345 9.42089 21.2923 9.58981 21.419 9.80095C21.419 10.0121 21.4612 10.181 21.4612 10.3922C21.3345 10.2232 21.2501 10.0543 21.1234 9.92764C21.2501 9.96987 21.3345 9.88541 21.2079 9.75872C21.0812 9.63203 20.8278 9.42089 20.7011 9.2942C20.5744 9.12528 20.49 9.16751 20.49 9.2942C20.49 9.42089 20.49 9.54758 20.49 9.67426C20.49 9.80095 20.49 9.88541 20.6166 10.0966C20.9123 10.4766 21.2501 10.8567 21.5035 11.2368C21.6301 12.5881 21.6724 13.4749 21.6724 14.0239C21.6724 14.3617 21.5457 14.5306 21.3768 14.5729C21.2079 14.6151 21.0389 14.5306 20.87 14.2773C20.5744 13.855 20.4477 13.9394 20.2366 14.3195C20.0254 14.6996 19.8565 14.9952 19.7298 15.2485C19.6454 15.5019 19.4342 15.7131 19.2653 15.3752Z" fill="white"/>
<path d="M23.3197 10.688C23.3197 10.9413 23.4042 10.8991 23.4464 10.688C23.4886 10.4768 23.4886 10.0545 23.3619 9.80115C23.2352 9.50554 23.193 9.63223 23.1508 9.71669C23.0663 9.84338 23.0663 9.88561 23.193 10.0123C23.2352 10.139 23.3197 10.4346 23.3197 10.688Z" fill="white"/>
<path d="M24.4597 13.3064C24.3753 11.5327 24.1641 10.7726 24.2064 10.0969C24.3753 10.2236 24.4175 10.1814 24.3331 9.97024C24.2486 9.75909 24.1219 9.50571 24.0375 9.25234C23.953 9.04119 23.9108 9.08342 23.7841 9.25234C23.6574 9.42125 23.6574 9.54794 23.6996 9.6324C23.953 11.7861 24.0797 12.9263 24.1219 13.602C24.1641 14.531 23.953 15.08 23.024 15.7134C22.7283 15.9246 22.3905 16.1357 23.1084 15.9668C23.7841 15.7557 24.5442 15.2911 24.4597 13.3064Z" fill="white"/>
<path d="M22.0944 15.1643C21.9678 15.3332 22.2634 15.4177 22.3056 15.291C22.3901 15.4177 22.3056 15.6289 22.1789 15.7555C21.9678 15.9245 22.0944 15.9667 22.2211 15.84C22.3478 15.7555 22.6857 15.3755 22.4745 15.1221C22.3478 15.0376 22.1789 15.0376 22.0944 15.1643Z" fill="white"/>
<path d="M21.1656 18.2893C20.6166 18.2893 20.1099 18.2893 19.5609 18.3316V18.1626C19.7298 17.9515 19.6876 17.9515 19.5609 17.7403C19.5186 17.6559 19.4764 17.5714 19.3497 17.7403C19.223 17.9093 19.223 17.9515 19.392 18.1626V18.3316C15.2112 18.3738 10.6082 18.3316 6.63867 18.2893C7.06097 19.0072 8.49677 18.965 9.80588 18.965C10.9883 18.965 14.5356 18.965 19.3497 18.8383V19.0495C19.1808 19.2606 19.223 19.2606 19.3497 19.4718C19.4764 19.6407 19.5186 19.5562 19.5609 19.4718C19.6031 19.4295 19.6031 19.3873 19.6031 19.3873H20.2365C20.2365 19.4718 20.3632 19.514 20.4055 19.514C20.4477 19.514 20.5744 19.4718 20.5744 19.3873H21.2923C21.3767 19.514 21.4612 19.5562 21.5879 19.5562C21.8413 19.5562 21.9679 19.2606 21.9257 18.8805C21.8835 18.3316 21.6723 18.2471 21.1656 18.2893ZM20.5744 19.1339C20.5744 19.0495 20.4477 19.0072 20.4055 19.0072C20.3632 19.0072 20.2365 19.0495 20.2365 19.1339H19.6031C19.6031 19.0917 19.5609 19.0495 19.4764 18.965V18.7539C20.0254 18.7539 20.6166 18.7116 21.2078 18.7116C21.1656 18.8383 21.1656 18.965 21.1656 19.0917L20.5744 19.1339Z" fill="white"/>
</svg>
