<svg width="64" height="63" viewBox="0 0 64 63" fill="none" xmlns="http://www.w3.org/2000/svg">
<path fill-rule="evenodd" clip-rule="evenodd" d="M10.1077 19.0096C9 21.8296 9 25.3812 9 32.4844V51.4989C9 54.1435 9 55.4659 9.50639 56.0345C9.94512 56.5272 10.5986 56.7718 11.253 56.6883C12.0083 56.592 12.8766 55.5948 14.6133 53.6003L14.6133 53.6003L15.2884 52.825C16.4575 53.7179 17.7548 54.4535 19.1502 55.0016C21.9702 56.1094 25.5218 56.1094 32.625 56.1094H33.375C40.4782 56.1094 44.0298 56.1094 46.8498 55.0016C50.9898 53.3754 54.266 50.0992 55.8923 45.9592C57 43.1392 57 39.5876 57 32.4844C57 25.3812 57 21.8296 55.8923 19.0096C54.266 14.8696 50.9898 11.5933 46.8498 9.9671C44.0298 8.85938 40.4782 8.85938 33.375 8.85938H32.625C25.5218 8.85938 21.9702 8.85938 19.1502 9.9671C15.0102 11.5933 11.734 14.8696 10.1077 19.0096Z" fill="#08BC7B"/>
<path d="M20 27C22 24 27 24 29 27" stroke="white" stroke-width="3" stroke-linecap="round" stroke-linejoin="round"/>
<path d="M37 27C39 24 44 24 46 27" stroke="white" stroke-width="3" stroke-linecap="round" stroke-linejoin="round"/>
<path d="M38 41C36 44 31 44 29 41" stroke="white" stroke-width="3" stroke-linecap="round" stroke-linejoin="round"/>
</svg>
