<svg width="14" height="14" viewBox="0 0 14 14" fill="none" xmlns="http://www.w3.org/2000/svg">
<path d="M8.04208 7.00001L13.7842 1.25787C14.0719 0.970102 14.0719 0.503563 13.7842 0.215824C13.4964 -0.0719415 13.0299 -0.0719415 12.7421 0.215824L6.99998 5.95796L1.25786 0.215824C0.970099 -0.0719415 0.503561 -0.0719415 0.215824 0.215824C-0.0719139 0.50359 -0.0719412 0.97013 0.215824 1.25787L5.95794 7.00001L0.215824 12.7421C-0.0719412 13.0299 -0.0719412 13.4964 0.215824 13.7842C0.503589 14.072 0.970126 14.0719 1.25786 13.7842L6.99998 8.04205L12.7421 13.7842C13.0298 14.072 13.4964 14.0719 13.7841 13.7842C14.0719 13.4964 14.0719 13.0299 13.7841 12.7421L8.04208 7.00001Z" fill="black"/>
</svg>
