<svg width="10" height="12" viewBox="0 0 10 12" fill="none" xmlns="http://www.w3.org/2000/svg">
<path d="M4.64697 5.64709H5.35286V9.52945H4.64697V5.64709Z" fill="#08BC7B"/>
<path d="M3.23535 5.64709H3.94124V9.52945H3.23535V5.64709Z" fill="#08BC7B"/>
<path d="M6.05859 5.64709H6.76448V9.52945H6.05859V5.64709Z" fill="#08BC7B"/>
<path d="M9.58809 1.41176H6.76456V1.05882C6.76456 0.474988 6.2896 0 5.70574 0H4.29397C3.71012 0 3.23515 0.474988 3.23515 1.05882V1.41176H0.411621V3.52941H1.14687L1.7959 10.994C1.82393 11.5588 2.2868 12 2.85341 12H7.14628C7.71289 12 8.17576 11.5588 8.20379 10.994L8.85285 3.52941H9.58809V1.41176ZM3.94103 1.05882C3.94103 0.864212 4.09936 0.705882 4.29397 0.705882H5.70574C5.90037 0.705882 6.05868 0.864212 6.05868 1.05882V1.41176H3.94103V1.05882ZM1.1175 2.11765H8.88221V2.82353H1.1175V2.11765ZM7.49894 10.9559C7.49103 11.1455 7.33614 11.2941 7.1463 11.2941H2.85341C2.66357 11.2941 2.50868 11.1456 2.50077 10.9559C1.81023 3.00981 1.85746 3.55313 1.85539 3.52941H8.14433C8.14245 3.55071 8.1864 3.04544 7.49894 10.9559Z" fill="#08BC7B"/>
</svg>
