<svg width="28" height="28" viewBox="0 0 28 28" fill="none" xmlns="http://www.w3.org/2000/svg">
<path d="M14 28C21.732 28 28 21.732 28 14C28 6.26801 21.732 0 14 0C6.26801 0 0 6.26801 0 14C0 21.732 6.26801 28 14 28Z" fill="#F0F0F0"/>
<path d="M2.89371 5.47632C1.794 6.90711 0.96477 8.55621 0.481934 10.3477H7.76511L2.89371 5.47632Z" fill="#013B81"/>
<path d="M27.5178 10.3479C27.035 8.55646 26.2057 6.90735 25.106 5.47656L20.2347 10.3479H27.5178Z" fill="#013B81"/>
<path d="M0.481934 17.6521C0.964824 19.4436 1.79405 21.0927 2.89371 22.5234L7.76494 17.6521H0.481934Z" fill="#013B81"/>
<path d="M22.5232 2.89401C21.0924 1.7943 19.4434 0.965068 17.6519 0.482178V7.7653L22.5232 2.89401Z" fill="#013B81"/>
<path d="M5.47595 25.1059C6.90674 26.2056 8.55584 27.0348 10.3473 27.5177V20.2346L5.47595 25.1059Z" fill="#013B81"/>
<path d="M10.3472 0.482178C8.55579 0.965068 6.90669 1.79429 5.47595 2.89395L10.3472 7.76524V0.482178Z" fill="#013B81"/>
<path d="M17.652 27.5177C19.4434 27.0348 21.0925 26.2056 22.5233 25.1059L17.652 20.2346V27.5177Z" fill="#013B81"/>
<path d="M20.2347 17.6521L25.106 22.5234C26.2057 21.0927 27.035 19.4436 27.5178 17.6521H20.2347Z" fill="#013B81"/>
<path d="M27.8815 12.1739H15.8262L15.8261 0.118508C15.2283 0.0406875 14.6189 0 14 0C13.381 0 12.7717 0.0406875 12.1739 0.118508V12.1738L0.118508 12.1739C0.0406875 12.7717 0 13.3811 0 14C0 14.619 0.0406875 15.2283 0.118508 15.8261H12.1738L12.1739 27.8815C12.7717 27.9593 13.381 28 14 28C14.6189 28 15.2283 27.9594 15.8261 27.8815V15.8262L27.8815 15.8261C27.9593 15.2283 28 14.619 28 14C28 13.3811 27.9593 12.7717 27.8815 12.1739Z" fill="#B00020"/>
<path d="M17.652 17.6522L23.8993 23.8994C24.1866 23.6122 24.4607 23.3119 24.7222 23.0006L19.3737 17.6521H17.652V17.6522Z" fill="#B00020"/>
<path d="M10.3473 17.6523H10.3472L4.09998 23.8996C4.38719 24.1869 4.68748 24.461 4.99876 24.7225L10.3473 19.3739V17.6523Z" fill="#B00020"/>
<path d="M10.3482 10.3478V10.3477L4.10089 4.10034C3.81356 4.38756 3.53947 4.68785 3.27795 4.99913L8.62656 10.3477H10.3482V10.3478Z" fill="#B00020"/>
<path d="M17.652 10.3479L23.8993 4.10047C23.6121 3.81314 23.3118 3.53905 23.0005 3.27759L17.652 8.62619V10.3479Z" fill="#B00020"/>
</svg>
