<svg width="20" height="20" viewBox="0 0 20 20" fill="none" xmlns="http://www.w3.org/2000/svg">
<path d="M17.0508 2.9275C20.9831 6.8647 20.9831 13.1778 17.0508 17.0471C13.1864 20.9843 6.81356 20.9843 2.94915 17.0471C-0.983051 13.1099 -0.983051 6.79681 2.94915 2.9275C6.88136 -0.941817 13.1864 -1.0097 17.0508 2.9275ZM5.05085 12.8384C3.69491 14.196 5.79661 16.3004 7.15254 14.9427L10 12.0917L12.8475 14.8749C14.2034 16.2325 16.3051 14.1281 14.9492 12.7705L12.1017 9.91942L14.9492 7.06834C16.3051 5.71069 14.2034 3.60632 12.8475 4.96398L10 7.81505L7.15254 4.96398C5.79661 3.60632 3.69491 5.71069 5.05085 7.06834L7.8983 9.9873L5.05085 12.8384Z" fill="#BC0808"/>
</svg>
