<svg width="24" height="22" viewBox="0 0 24 22" fill="none" xmlns="http://www.w3.org/2000/svg">
<path d="M20.9854 3.60999C20.4731 3.099 19.8649 2.69364 19.1954 2.41708C18.526 2.14052 17.8085 1.99817 17.0838 1.99817C16.3592 1.99817 15.6416 2.14052 14.9722 2.41708C14.3028 2.69364 13.6945 3.099 13.1822 3.60999L12.1191 4.66999L11.0559 3.60999C10.0212 2.5783 8.61773 1.9987 7.15436 1.9987C5.69098 1.9987 4.28754 2.5783 3.25278 3.60999C2.21802 4.64169 1.63669 6.04096 1.63669 7.49999C1.63669 8.95903 2.21802 10.3583 3.25278 11.39L4.31593 12.45L12.1191 20.23L19.9222 12.45L20.9854 11.39C21.4979 10.8792 21.9045 10.2728 22.1819 9.60535C22.4592 8.93789 22.602 8.22248 22.602 7.49999C22.602 6.77751 22.4592 6.0621 22.1819 5.39464C21.9045 4.72718 21.4979 4.12075 20.9854 3.60999V3.60999Z" stroke="#08BC7B" stroke-width="2" stroke-linecap="round" stroke-linejoin="round"/>
</svg>
