<svg width="262" height="206" viewBox="0 0 262 206" fill="none" xmlns="http://www.w3.org/2000/svg">
<path d="M136.398 130.117C136.411 130.145 136.42 130.174 136.426 130.204L136.444 130.32L136.48 130.552L136.548 131.016L136.669 131.946C136.742 132.567 136.807 133.189 136.868 133.812C136.987 135.056 137.094 136.303 137.167 137.551C137.32 140.047 137.421 142.546 137.469 145.047C137.517 147.548 137.508 150.048 137.49 152.548C137.473 153.799 137.453 155.049 137.416 156.298L137.28 160.046L137.035 159.735L153.049 162.963L161.063 164.539L165.075 165.297L167.083 165.655L168.087 165.82L168.588 165.891L168.836 165.919L168.954 165.928L169.007 165.929C169.02 165.931 169.039 165.923 169.007 165.935L168.971 165.954C169.97 165.299 170.986 164.686 172.014 164.087C173.044 163.494 174.094 162.933 175.169 162.424C176.236 161.892 177.34 161.438 178.471 161.063C179.042 160.88 179.624 160.733 180.213 160.623C180.81 160.505 181.42 160.471 182.026 160.522L181.842 160.696C181.657 157.906 181.456 155.117 181.238 152.329L180.582 143.967C180.351 141.182 180.117 138.396 179.835 135.618C179.694 134.229 179.543 132.841 179.363 131.46C179.273 130.77 179.176 130.081 179.059 129.4C179 129.061 178.936 128.722 178.86 128.394C178.823 128.23 178.782 128.067 178.735 127.918C178.713 127.849 178.688 127.781 178.66 127.714C178.647 127.686 178.635 127.664 178.627 127.65C178.629 127.646 178.605 127.649 178.705 127.702L178.844 127.732C175.042 127.64 171.23 127.622 167.427 127.713C165.526 127.767 163.625 127.829 161.734 127.972C160.789 128.045 159.846 128.137 158.916 128.278C158.452 128.35 157.99 128.433 157.544 128.547C157.122 128.632 156.721 128.798 156.364 129.037L156.352 129.047C156.304 129.086 156.246 129.11 156.184 129.113C152.921 129.307 149.649 129.461 146.356 129.627L136.398 130.117ZM136.342 130.071L146.179 129.286C149.485 129.028 152.811 128.757 156.146 128.525L155.967 128.601C156.389 128.288 156.874 128.068 157.388 127.958C157.863 127.829 158.339 127.737 158.816 127.655C159.769 127.496 160.723 127.39 161.678 127.303C163.587 127.131 165.497 127.033 167.407 126.982C171.228 126.879 175.044 126.885 178.865 126.966L178.883 126.966C178.925 126.967 178.967 126.977 179.004 126.996C179.113 127.046 179.205 127.127 179.267 127.229C179.301 127.283 179.332 127.339 179.358 127.397C179.399 127.49 179.435 127.586 179.466 127.684C179.525 127.868 179.569 128.044 179.61 128.221C179.69 128.575 179.752 128.924 179.81 129.274C179.924 129.972 180.017 130.669 180.102 131.366C180.272 132.76 180.412 134.154 180.542 135.549C180.799 138.338 181.024 141.128 181.215 143.919C181.404 146.711 181.589 149.502 181.74 152.296L182.172 160.677C182.175 160.721 182.16 160.764 182.131 160.797C182.102 160.83 182.062 160.85 182.018 160.852C182.008 160.853 181.998 160.852 181.988 160.851C180.822 160.764 179.651 160.92 178.548 161.307C177.423 161.666 176.326 162.105 175.264 162.621C174.201 163.139 173.166 163.713 172.149 164.317C171.131 164.919 170.135 165.565 169.177 166.25L169.171 166.254C169.162 166.261 169.152 166.266 169.141 166.269C169.1 166.283 169.058 166.29 169.015 166.29L168.94 166.289L168.804 166.28L168.544 166.253L168.033 166.185L167.021 166.028L165.005 165.687L160.983 164.963L152.953 163.455C147.604 162.431 142.255 161.405 136.915 160.333C136.845 160.319 136.781 160.281 136.737 160.224C136.692 160.168 136.668 160.098 136.67 160.026L136.671 160.023L136.776 156.281L136.862 152.539C136.907 150.044 136.941 147.548 136.919 145.053C136.912 142.559 136.889 140.063 136.794 137.569C136.745 136.323 136.701 135.076 136.628 133.83C136.592 133.207 136.551 132.585 136.503 131.963L136.342 130.071Z" fill="#061E33"/>
<path d="M136.831 130.074C136.158 129.183 135.518 128.271 134.862 127.369C134.842 127.342 134.832 127.309 134.833 127.275C134.834 127.242 134.846 127.21 134.867 127.184L134.874 127.175C135.652 126.234 136.515 125.367 137.452 124.585C138.385 123.792 139.389 123.085 140.449 122.474C141.52 121.86 142.661 121.376 143.846 121.032C145.042 120.689 146.285 120.542 147.528 120.596L147.537 120.596C147.592 120.599 147.646 120.617 147.693 120.647C147.74 120.676 147.778 120.718 147.804 120.767C148.504 122.092 149.19 123.425 149.861 124.766C150.199 125.435 150.53 126.108 150.853 126.786C151.179 127.461 151.508 128.135 151.819 128.819C151.412 128.188 151.024 127.546 150.633 126.906C150.239 126.267 149.853 125.624 149.474 124.978C148.711 123.687 147.962 122.388 147.227 121.082L147.503 121.253C146.332 121.238 145.166 121.397 144.041 121.724C142.909 122.054 141.818 122.509 140.786 123.08C139.743 123.649 138.746 124.299 137.805 125.024C136.856 125.747 135.958 126.536 135.12 127.385L135.133 127.191C135.7 128.152 136.282 129.102 136.831 130.074Z" fill="#061E33"/>
<path d="M152.471 128.819C152.695 127.942 153.014 127.091 153.421 126.282C153.821 125.461 154.307 124.685 154.872 123.968L155.309 123.436C155.463 123.266 155.629 123.106 155.789 122.941C156.115 122.614 156.46 122.307 156.822 122.021C157.003 121.877 157.203 121.758 157.394 121.627C157.582 121.491 157.78 121.369 157.985 121.26C158.39 121.031 158.812 120.834 159.247 120.671L159.904 120.431C160.125 120.36 160.356 120.324 160.582 120.269L161.272 120.119C161.583 120.078 161.898 120.151 162.159 120.327C162.289 120.415 162.402 120.526 162.491 120.656C162.566 120.771 162.622 120.863 162.684 120.971C162.803 121.182 162.907 121.402 162.994 121.629C163.178 122.095 163.262 122.595 163.24 123.096C163.204 123.608 163.039 124.102 162.76 124.533C162.621 124.74 162.46 124.931 162.278 125.102C162.188 125.185 162.103 125.276 162.008 125.351L161.715 125.562C160.929 126.071 160.067 126.451 159.16 126.686L159.238 126.649C158.71 126.988 158.186 127.363 157.687 127.755C157.18 128.145 156.695 128.563 156.233 129.006C155.967 129.225 155.655 129.383 155.32 129.466C154.986 129.55 154.636 129.557 154.298 129.488C153.651 129.386 153.031 129.159 152.471 128.819ZM152.471 128.819C152.765 128.948 153.07 129.053 153.382 129.132C153.687 129.218 154.001 129.27 154.318 129.288C154.618 129.325 154.922 129.295 155.209 129.2C155.496 129.105 155.758 128.947 155.977 128.739C156.417 128.259 156.883 127.803 157.372 127.373C157.868 126.946 158.376 126.544 158.917 126.161C158.934 126.149 158.952 126.14 158.971 126.133L158.995 126.125C159.822 125.874 160.607 125.501 161.323 125.018L161.573 124.829C161.652 124.762 161.718 124.685 161.792 124.614C161.935 124.473 162.063 124.319 162.174 124.152C162.383 123.823 162.505 123.447 162.531 123.058C162.543 122.657 162.471 122.257 162.318 121.886C162.243 121.693 162.156 121.505 162.056 121.323C162.008 121.236 161.946 121.136 161.9 121.061C161.863 121.005 161.814 120.956 161.758 120.917C161.642 120.838 161.501 120.803 161.362 120.821L160.733 120.953C160.522 121.003 160.306 121.033 160.1 121.098L159.484 121.307C159.074 121.448 158.675 121.62 158.291 121.823C158.096 121.919 157.908 122.029 157.728 122.152C157.546 122.27 157.355 122.376 157.177 122.503C156.465 123.017 155.811 123.608 155.23 124.267C154.05 125.61 153.116 127.151 152.471 128.819Z" fill="#061E33"/>
<path d="M131.647 171.845C134.165 171.845 136.207 169.802 136.207 167.281C136.207 164.761 134.165 162.718 131.647 162.718C129.129 162.718 127.087 164.761 127.087 167.281C127.087 169.802 129.129 171.845 131.647 171.845Z" fill="#061E33"/>
<path d="M104.001 160.454C104.081 161.097 104.161 161.744 104.22 162.394C104.263 163.043 104.294 163.695 104.287 164.347C104.281 165.65 104.201 166.957 104.117 168.241C104.047 169.51 104.001 170.838 104.68 171.819C105.014 172.313 105.464 172.718 105.99 172.998C106.529 173.267 107.118 173.422 107.72 173.451C108.024 173.467 108.33 173.455 108.633 173.415C108.925 173.375 109.263 173.298 109.587 173.254C110.24 173.158 110.898 173.11 111.557 173.111C112.871 173.112 114.177 173.302 115.437 173.673C116.063 173.862 116.675 174.099 117.265 174.38C117.567 174.507 117.845 174.683 118.136 174.832C118.412 174.991 118.699 175.132 118.993 175.254C120.186 175.717 121.459 175.937 122.739 175.899C124.004 175.897 125.257 175.656 126.434 175.19C126.712 175.075 126.975 174.926 127.217 174.747C127.437 174.599 127.609 174.389 127.713 174.144C127.734 174.092 127.747 174.038 127.751 173.982C127.757 173.961 127.758 173.938 127.753 173.916C127.755 173.898 127.751 173.879 127.744 173.861C127.708 173.755 127.649 173.658 127.571 173.578C127.369 173.36 127.142 173.166 126.896 173.001C126.384 172.64 125.831 172.31 125.276 171.981C124.718 171.652 124.168 171.33 123.599 171.035C122.469 170.433 121.304 169.909 120.111 169.402C118.875 168.918 117.707 168.274 116.638 167.486C115.598 166.644 114.719 165.621 114.043 164.465C112.779 162.185 111.548 159.915 110.347 157.611C110.343 157.602 110.342 157.593 110.345 157.584C110.347 157.575 110.353 157.567 110.361 157.562C110.369 157.558 110.379 157.556 110.388 157.559C110.397 157.561 110.405 157.566 110.41 157.574C111.814 159.753 113.178 161.972 114.526 164.17C115.199 165.236 116.059 166.172 117.064 166.932C118.106 167.653 119.231 168.244 120.416 168.691C121.626 169.187 122.808 169.747 123.958 170.37C124.533 170.683 125.096 171.027 125.648 171.366C126.201 171.709 126.756 172.053 127.296 172.449C127.584 172.652 127.846 172.887 128.079 173.151C128.221 173.31 128.323 173.5 128.379 173.705C128.41 173.823 128.415 173.946 128.393 174.065C128.38 174.171 128.352 174.274 128.31 174.372C128.155 174.726 127.899 175.027 127.575 175.238C127.289 175.435 126.98 175.597 126.655 175.721C125.399 176.171 124.067 176.367 122.734 176.296C121.415 176.265 120.113 175.991 118.893 175.489C118.591 175.357 118.298 175.207 118.015 175.038C117.732 174.888 117.463 174.711 117.168 174.582C116.591 174.302 115.99 174.073 115.372 173.899C114.753 173.733 114.122 173.616 113.484 173.549C112.847 173.492 112.207 173.481 111.568 173.514C110.932 173.548 110.299 173.628 109.674 173.754C109.358 173.814 109.068 173.898 108.722 173.966C108.385 174.031 108.042 174.061 107.698 174.054C107 174.045 106.313 173.879 105.688 173.568C105.06 173.245 104.528 172.762 104.147 172.167C103.778 171.571 103.563 170.892 103.524 170.192C103.485 169.529 103.498 168.864 103.563 168.203C103.672 166.901 103.845 165.626 103.907 164.336C103.939 163.692 103.966 163.048 103.974 162.401L103.929 160.462L103.929 160.459C103.928 160.45 103.932 160.441 103.938 160.434C103.944 160.427 103.953 160.423 103.962 160.422C103.971 160.421 103.98 160.424 103.988 160.43C103.995 160.436 103.999 160.445 104.001 160.454V160.454Z" fill="#061E33"/>
<path d="M128.084 174.167C128.084 174.167 127.182 176.57 120.669 175.893C120.401 173.464 123.791 170.368 123.791 170.368C123.502 169.752 122.324 169.234 121.201 168.868C121.293 168.936 121.361 169.031 121.396 169.14C121.432 169.249 121.433 169.366 121.399 169.475C121.365 169.584 121.298 169.68 121.208 169.75C121.118 169.82 121.008 169.86 120.894 169.865C120.753 169.86 120.619 169.801 120.521 169.699C120.423 169.598 120.368 169.462 120.368 169.321C120.368 169.18 120.423 169.044 120.521 168.943C120.619 168.841 120.753 168.782 120.894 168.777H120.904C119.865 168.458 118.948 168.277 118.948 168.277C116.362 168.11 114.424 173.547 114.424 173.547C114.424 173.547 114.341 173.587 113.903 173.457C110.853 172.54 106.166 175.091 104.546 172.188C104.546 172.188 103.717 173.333 105.43 174.711L104.528 176.672H110.436L112.501 175.795V174.167C112.501 174.167 118.083 176.117 120.952 176.987C124.364 178.02 129.37 176.672 128.084 174.167ZM117.634 174.693C117.493 174.688 117.359 174.629 117.261 174.527C117.163 174.426 117.108 174.29 117.108 174.149C117.108 174.008 117.163 173.872 117.261 173.771C117.359 173.669 117.493 173.61 117.634 173.605C117.775 173.61 117.908 173.669 118.006 173.771C118.104 173.872 118.159 174.008 118.159 174.149C118.159 174.29 118.104 174.426 118.006 174.527C117.908 174.629 117.775 174.688 117.634 174.693ZM119.068 172.083C118.927 172.078 118.793 172.019 118.695 171.917C118.597 171.816 118.542 171.68 118.542 171.539C118.542 171.398 118.597 171.262 118.695 171.161C118.793 171.059 118.927 171 119.068 170.996C119.209 171 119.343 171.06 119.441 171.161C119.539 171.262 119.594 171.398 119.594 171.539C119.594 171.68 119.539 171.816 119.441 171.917C119.343 172.019 119.209 172.078 119.068 172.083V172.083Z" fill="#061E33"/>
<path d="M78.7207 166.762C78.2236 165.732 77.9437 164.61 77.8984 163.467V163.445C77.9093 163.188 77.9383 162.93 77.96 162.673C77.9818 162.412 78.0071 162.155 78.0361 161.897C78.0376 161.888 78.0425 161.88 78.0498 161.874C78.0572 161.868 78.0665 161.864 78.0759 161.865C78.0941 161.868 78.1085 161.879 78.1085 161.897C78.1411 162.155 78.1665 162.412 78.1918 162.669C78.2172 162.923 78.2462 163.173 78.2607 163.423C78.3667 164.497 78.6856 165.538 79.1988 166.486C79.6985 167.243 80.3203 167.912 81.0389 168.465C81.1657 168.571 81.2961 168.676 81.4265 168.781C81.93 169.176 82.4407 169.571 82.9514 169.963C82.8178 169.997 82.7026 170.082 82.6298 170.2C82.557 170.317 82.5321 170.458 82.5603 170.593C82.0314 170.173 81.5098 169.745 80.9955 169.299C80.7419 169.082 80.4883 168.857 80.242 168.621C79.6414 168.084 79.1281 167.457 78.7207 166.762Z" fill="#061E33"/>
<path d="M89.0441 176.491C89.0027 176.686 88.9186 176.869 88.7978 177.027C88.7065 177.154 88.598 177.267 88.4754 177.364C87.9725 177.717 87.3877 177.936 86.7766 177.999C85.6434 178.136 84.4954 178.084 83.3789 177.846C82.2747 177.626 81.2017 177.27 80.1841 176.788C79.9777 176.686 79.7712 176.578 79.572 176.462C79.2436 176.28 78.9278 176.077 78.6266 175.853C78.2051 175.549 77.8187 175.199 77.4747 174.809C76.7474 173.986 75.9057 173.272 74.9754 172.688C74.5075 172.408 74.0168 172.168 73.5084 171.971C72.9989 171.782 72.4741 171.638 71.94 171.539C71.4049 171.444 70.8639 171.384 70.3208 171.362C69.736 171.331 69.1605 171.202 68.6183 170.981C68.0689 170.754 67.5692 170.422 67.1477 170.002C66.7661 169.635 66.4693 169.188 66.2784 168.694C66.2516 168.62 66.2287 168.545 66.2096 168.469C66.0464 167.883 66.0327 167.264 66.1697 166.671C66.2988 166.101 66.5124 165.554 66.8036 165.047C67.3708 164.067 68.0938 163.185 68.9444 162.438C69.7401 161.699 70.2137 160.677 70.2628 159.592C70.2626 159.587 70.2633 159.582 70.265 159.578C70.2667 159.573 70.2694 159.569 70.2728 159.566C70.2762 159.562 70.2803 159.56 70.2849 159.558C70.2894 159.556 70.2942 159.556 70.2991 159.556C70.3034 159.555 70.3077 159.556 70.3119 159.557C70.316 159.558 70.3199 159.56 70.3233 159.563C70.3267 159.565 70.3295 159.569 70.3315 159.573C70.3336 159.576 70.3349 159.581 70.3353 159.585C70.4202 160.151 70.354 160.73 70.1433 161.263C69.94 161.802 69.6405 162.299 69.2595 162.731C68.4901 163.498 67.8361 164.372 67.318 165.326C66.8398 166.262 66.5247 167.331 66.8289 168.284C66.9766 168.765 67.2432 169.2 67.6041 169.549C67.9656 169.918 68.3916 170.216 68.861 170.43C69.3349 170.65 69.8413 170.792 70.3606 170.851C70.9217 170.906 71.4784 170.999 72.0268 171.13C72.5747 171.266 73.1102 171.448 73.6279 171.673C73.751 171.728 73.8705 171.786 73.9901 171.847C73.9965 171.849 74.0026 171.851 74.0082 171.855C74.3885 172.047 74.7544 172.253 75.1094 172.478C76.0382 173.099 76.8915 173.827 77.6521 174.646C78.3974 175.445 79.3104 176.069 80.3254 176.473C81.3306 176.895 82.3861 177.186 83.4658 177.339C83.7955 177.386 84.1251 177.426 84.4547 177.448C85.1954 177.513 85.9414 177.485 86.6751 177.364C87.1686 177.301 87.6396 177.119 88.048 176.835C88.2109 176.709 88.3234 176.528 88.3653 176.326C88.4071 176.124 88.3755 175.914 88.2762 175.733C88.061 175.276 87.7625 174.863 87.396 174.515C87.0112 174.139 86.6048 173.786 86.1789 173.457L84.9437 172.478L83.5817 171.402C83.426 171.278 83.2739 171.159 83.1181 171.035C83.1881 171.032 83.2567 171.014 83.3194 170.982C83.3822 170.951 83.4379 170.907 83.4831 170.854C83.5282 170.8 83.5619 170.737 83.582 170.67C83.6021 170.603 83.6082 170.532 83.5999 170.463C84.299 170.996 84.998 171.532 85.6899 172.076C86.0159 172.337 86.3383 172.594 86.6606 172.855C87.1115 173.203 87.5365 173.583 87.932 173.993C88.3607 174.419 88.7048 174.922 88.9463 175.476C89.0781 175.797 89.1122 176.15 89.0441 176.491Z" fill="#061E33"/>
<path d="M88.7966 177.027C88.793 176.991 88.7894 176.955 88.7822 176.918C88.7822 176.918 87.8042 178.172 84.4536 177.447C83.3335 177.193 82.2406 176.832 81.19 176.367C81.5196 174.667 83.7002 173.192 84.9426 172.478C85.2794 172.286 85.5439 172.148 85.6888 172.076C85.7648 172.036 85.8083 172.018 85.8083 172.018C85.6199 170.647 81.8021 168.585 81.8021 168.585C81.5582 168.493 81.2981 168.452 81.0378 168.465C80.7657 168.476 80.4969 168.528 80.2409 168.621C78.1219 169.339 75.9196 172.275 75.9196 172.275C75.9196 172.275 75.4668 172.652 75.0865 172.395C74.7489 172.173 74.3867 171.992 74.0071 171.854C74.0015 171.851 73.9953 171.849 73.989 171.847C71.2071 170.811 67.1248 171.256 66.5272 168.407C66.4298 168.49 66.3455 168.586 66.2772 168.694C66.0345 169.078 65.8027 169.865 66.6214 171.082L65.1797 172.688L70.8231 174.439L73.0544 174.214L73.5398 172.659C73.5398 172.659 76.2094 174.308 78.6254 175.853C78.9478 176.059 79.2629 176.262 79.5708 176.462C80.1468 176.835 80.6865 177.19 81.1356 177.495C84.0479 179.47 89.1335 179.688 88.7966 177.027ZM80.9907 172.735C80.8498 172.731 80.7161 172.671 80.618 172.57C80.5199 172.468 80.4651 172.333 80.4651 172.192C80.4651 172.05 80.5199 171.915 80.618 171.813C80.7161 171.712 80.8498 171.653 80.9907 171.648C81.1317 171.653 81.2654 171.712 81.3635 171.813C81.4616 171.915 81.5164 172.05 81.5164 172.192C81.5164 172.333 81.4616 172.468 81.3635 172.57C81.2654 172.671 81.1317 172.731 80.9907 172.735ZM82.954 169.962C82.9946 169.955 83.0358 169.951 83.0771 169.952C83.1453 169.949 83.2132 169.961 83.2768 169.986C83.3403 170.011 83.3982 170.048 83.4469 170.096C83.4956 170.143 83.5342 170.201 83.5603 170.264C83.5864 170.327 83.5995 170.394 83.5987 170.463C83.607 170.532 83.6009 170.603 83.5809 170.67C83.5608 170.737 83.5271 170.8 83.4819 170.853C83.4368 170.907 83.3811 170.951 83.3183 170.982C83.2555 171.014 83.187 171.032 83.117 171.035C83.1039 171.038 83.0905 171.04 83.0771 171.039C82.9506 171.043 82.827 171 82.7309 170.917C82.6349 170.835 82.5736 170.719 82.5592 170.593C82.531 170.458 82.5559 170.317 82.6287 170.199C82.7015 170.082 82.8167 169.997 82.9504 169.962H82.954ZM79.0347 173.475C79.1755 173.48 79.3088 173.539 79.4066 173.641C79.5044 173.742 79.559 173.878 79.559 174.018C79.559 174.159 79.5044 174.295 79.4066 174.396C79.3088 174.498 79.1755 174.557 79.0347 174.562C78.894 174.557 78.7607 174.498 78.6629 174.396C78.5651 174.295 78.5104 174.159 78.5104 174.018C78.5104 173.878 78.5651 173.742 78.6629 173.641C78.7607 173.539 78.894 173.48 79.0347 173.475H79.0347Z" fill="#061E33"/>
<path d="M86.186 41.8226L85.9728 41.9468C85.8956 41.9755 85.8135 41.9962 85.7323 42.02C85.6475 42.026 85.5623 42.0267 85.4774 42.0222C85.3929 42.0093 85.31 41.9873 85.2302 41.9566C84.922 41.8151 84.6636 41.584 84.4887 41.2933C84.1346 40.7186 83.9914 40.0386 84.0837 39.3698L84.1254 39.1196L84.1958 38.8749C84.2432 38.7 84.3223 38.5354 84.4293 38.3893C84.5524 38.2141 84.7393 38.0943 84.9498 38.0555C85.1501 38.0292 85.3538 38.0601 85.5373 38.1446C85.8495 38.2934 86.1338 38.4946 86.378 38.7397C86.6188 38.9681 86.8402 39.2162 87.04 39.4813L86.8873 39.3756C87.2329 39.4331 87.5877 39.3874 87.9074 39.2442C88.2615 39.0975 88.5983 38.9118 88.9114 38.6907C89.5568 38.2304 90.1602 37.7139 90.7145 37.1472C91.8424 36.0051 92.9044 34.7998 93.8955 33.5371L93.9083 33.521C93.9306 33.4929 93.9582 33.4696 93.9895 33.4522C94.0209 33.4348 94.0553 33.4238 94.0909 33.4197C94.1265 33.4157 94.1625 33.4187 94.1969 33.4285C94.2314 33.4384 94.2635 33.455 94.2915 33.4773C94.325 33.5041 94.3517 33.5383 94.3697 33.5773C94.5416 33.9529 94.6873 34.3233 94.8253 34.7041C94.9622 35.0834 95.0855 35.4682 95.1862 35.8606C95.2925 36.2536 95.369 36.654 95.4149 37.0585C95.4677 37.4711 95.4571 37.8894 95.3835 38.2989L95.3713 38.2021C95.5295 38.5359 95.73 38.848 95.9677 39.1307C96.2008 39.4173 96.4781 39.665 96.789 39.8643L96.7949 39.8681C96.8073 39.8759 96.818 39.8862 96.8263 39.8983C96.8346 39.9104 96.8403 39.9241 96.8431 39.9386C96.8743 40.0977 96.8756 40.2614 96.8468 40.421C96.8189 40.5864 96.7449 40.7405 96.6332 40.8657C96.5193 40.9871 96.3745 41.0754 96.2144 41.1209C96.138 41.1422 96.0605 41.1587 95.9821 41.1705L95.7504 41.1837L95.8591 41.0673C95.8827 41.5533 95.8618 42.0405 95.7968 42.5227C95.7364 43.0068 95.6247 43.4832 95.4634 43.9436C95.2949 44.4086 95.0608 44.847 94.7682 45.2455C94.4512 45.6383 94.0578 45.9626 93.6119 46.1987C93.5986 46.2058 93.5841 46.2106 93.5691 46.2127L93.5476 46.2157C93.1146 46.256 92.6955 46.3898 92.3191 46.6078C91.9428 46.8259 91.6182 47.1231 91.3677 47.4788C91.2626 47.6585 91.1843 47.8527 91.1353 48.0552C91.0894 48.2667 91.0636 48.4821 91.0582 48.6985L90.9966 50.0965L90.9347 49.8953C91.6522 50.8033 92.3306 51.7314 92.9718 52.6967C93.2894 53.1815 93.6031 53.6694 93.8871 54.185C94.0266 54.4455 94.1673 54.7041 94.2855 54.9868C94.4252 55.2863 94.5172 55.6058 94.5582 55.9337C94.5654 55.9944 94.5569 56.056 94.5335 56.1125C94.51 56.1689 94.4724 56.2184 94.4244 56.2562C94.3763 56.2939 94.3193 56.3187 94.2589 56.328C94.1985 56.3374 94.1367 56.331 94.0795 56.3095L94.065 56.304C92.9751 55.8663 91.9096 55.37 90.8733 54.8173C89.839 54.2891 88.8292 53.7192 87.8181 53.1537C86.8078 52.5867 85.8155 51.9892 84.8218 51.3957C83.8305 50.7981 82.8409 50.1984 81.8599 49.5847L81.8561 49.5823C81.827 49.5642 81.8018 49.5404 81.7819 49.5125C81.762 49.4846 81.7478 49.453 81.7401 49.4195C81.7324 49.3861 81.7313 49.3515 81.737 49.3176C81.7427 49.2838 81.7549 49.2514 81.7731 49.2223C81.7891 49.1968 81.8094 49.1742 81.833 49.1555C82.2705 48.8032 82.663 48.3984 83.0015 47.9501C83.3457 47.4991 83.6277 47.0037 83.8397 46.4774C84.0601 45.9513 84.188 45.3911 84.2178 44.8215C84.2466 44.245 84.1884 43.6674 84.045 43.1083L84.0443 43.1049C84.0423 43.0958 84.044 43.0863 84.0488 43.0784C84.0537 43.0705 84.0614 43.0647 84.0704 43.0623C84.0794 43.06 84.0889 43.0612 84.0971 43.0656C84.1052 43.0701 84.1113 43.0776 84.1141 43.0864C84.3145 43.645 84.4215 44.2328 84.4308 44.8262C84.4435 45.4268 84.3502 46.0249 84.1554 46.5931C83.9601 47.1626 83.689 47.7032 83.3494 48.2003C83.0095 48.7039 82.6076 49.1629 82.1533 49.5663L82.1264 49.1371L85.143 50.8401L88.176 52.5082C89.1874 53.0618 90.2093 53.5948 91.2282 54.1286C91.7393 54.3919 92.2516 54.6529 92.7679 54.9007C93.2792 55.1437 93.8124 55.4051 94.3061 55.5974L93.8129 55.9676C93.7786 55.7266 93.7109 55.4916 93.6116 55.2693C93.5136 55.0209 93.3848 54.7725 93.2583 54.5258C92.9981 54.0321 92.7003 53.5494 92.3985 53.0701C91.7847 52.1171 91.1313 51.1776 90.4601 50.262L90.4528 50.2521C90.4123 50.1968 90.3929 50.1289 90.3981 50.0606L90.5044 48.6586C90.5184 48.4079 90.5587 48.1594 90.6247 47.9172C90.6978 47.6679 90.8072 47.4308 90.9493 47.2135C91.2398 46.7927 91.6369 46.4567 92.0998 46.24C92.5465 46.0279 93.0271 45.8962 93.5195 45.851L93.4553 45.8681C93.8649 45.671 94.2307 45.3936 94.531 45.0524C94.8231 44.6923 95.055 44.2873 95.2177 43.853C95.3796 43.412 95.4941 42.955 95.5592 42.4897C95.6292 42.024 95.6568 41.553 95.6417 41.0823C95.6405 41.0526 95.6511 41.0236 95.6713 41.0018C95.6914 40.9799 95.7194 40.967 95.7491 40.9658L95.7504 40.9657C95.8851 40.9657 96.0192 40.9467 96.1486 40.9092C96.2697 40.8742 96.379 40.8068 96.4648 40.7144C96.542 40.6129 96.5955 40.4954 96.6212 40.3705C96.647 40.2455 96.6444 40.1164 96.6136 39.9926L96.6677 40.0667C96.3292 39.8612 96.0244 39.6047 95.7639 39.3064C95.5018 39.01 95.2744 38.6845 95.0863 38.3364C95.0726 38.3112 95.0676 38.2822 95.0719 38.2538L95.0741 38.2394C95.1204 37.8629 95.1094 37.4816 95.0415 37.1085C94.9779 36.7265 94.8855 36.3499 94.765 35.9819C94.6492 35.6106 94.5119 35.2447 94.3611 34.8845C94.2107 34.5259 94.0467 34.1648 93.871 33.8268L94.3452 33.8669C93.8721 34.5423 93.364 35.1776 92.8396 35.8073C92.3108 36.4346 91.7509 37.0349 91.1619 37.6059C90.5698 38.1875 89.9272 38.7153 89.2418 39.1832C88.8872 39.4228 88.5069 39.622 88.108 39.7769C87.6779 39.9549 87.2041 39.9989 86.7486 39.9031C86.6889 39.8882 86.6363 39.8528 86.6 39.803L86.5958 39.7973C86.2743 39.3005 85.8491 38.8794 85.3494 38.5628C85.1013 38.4457 84.9089 38.449 84.7533 38.6445C84.6683 38.7511 84.604 38.8727 84.5636 39.003L84.492 39.2116L84.4456 39.4279C84.3324 40.0209 84.4189 40.6347 84.6916 41.1732C84.8254 41.44 85.0361 41.6605 85.2963 41.8062C85.4292 41.8747 85.5778 41.9067 85.727 41.899C85.8762 41.8913 86.0208 41.8441 86.1458 41.7623L86.1486 41.7606C86.1568 41.7556 86.1666 41.754 86.1759 41.7562C86.1852 41.7584 86.1932 41.7641 86.1983 41.7723C86.2034 41.7804 86.205 41.7902 86.2029 41.7995C86.2008 41.8088 86.1951 41.8169 86.187 41.8221L86.186 41.8226Z" fill="#061E33"/>
<path d="M85.4439 41.9438C85.1866 42.4363 84.8085 42.8552 84.3451 43.1615C84.2177 43.2437 84.0743 43.298 83.9244 43.3207C83.7744 43.3434 83.6214 43.3341 83.4754 43.2933C83.3277 43.2434 83.1908 43.1659 83.0719 43.0651C82.9665 42.9623 82.8686 42.852 82.7789 42.7352C82.1299 41.8305 81.6453 40.8183 81.3475 39.7451C81.0316 38.6567 80.958 37.5122 81.1318 36.3922C81.3281 35.2608 81.8119 34.199 82.5367 33.3088C83.2504 32.4172 84.1589 31.7013 85.1924 31.2161C86.2352 30.7582 87.375 30.5657 88.5102 30.6558C89.6236 30.739 90.71 31.0392 91.7082 31.5397C91.9551 31.6637 92.195 31.8011 92.4268 31.9514L92.7725 32.1776L93.0972 32.4343C93.544 32.7589 93.8969 33.1963 94.1198 33.7019C93.8345 33.2458 93.4447 32.8641 92.9827 32.5886L92.6463 32.3733L92.2909 32.189C92.0544 32.0674 91.8114 31.9589 91.563 31.864C90.5831 31.4677 89.5404 31.2499 88.4839 31.2209C87.4471 31.1885 86.4173 31.4008 85.4776 31.8405C84.5525 32.2946 83.7409 32.9508 83.1029 33.7605C82.444 34.5541 81.9973 35.502 81.8046 36.5156C81.6218 37.541 81.652 38.5931 81.8933 39.6064C81.9388 39.8655 82.0303 40.1139 82.0964 40.3693C82.1867 40.6168 82.2625 40.8711 82.3667 41.1144C82.5591 41.6085 82.7948 42.0845 83.0711 42.5369C83.1365 42.642 83.2087 42.7427 83.2873 42.8384C83.3678 42.9211 83.4627 42.9884 83.5673 43.0372C83.679 43.0791 83.7983 43.0967 83.9173 43.0889C84.0363 43.081 84.1523 43.0479 84.2575 42.9917C84.7261 42.7353 85.1314 42.3772 85.4439 41.9438Z" fill="#061E33"/>
<path d="M81.987 49.3965C81.4505 49.386 80.9173 49.4833 80.419 49.6826C80.1739 49.7804 79.9361 49.8957 79.7075 50.0277C79.4868 50.1699 79.2749 50.3253 79.073 50.4931C78.6778 50.8388 78.3295 51.2348 78.037 51.671C77.9001 51.8968 77.7542 52.1157 77.6218 52.3429L77.288 53.0644C77.1774 53.3062 77.083 53.5551 77.0055 53.8094C76.9245 54.0634 76.8196 54.3084 76.7576 54.5691L76.5704 55.351C76.4975 55.6094 76.4413 55.8722 76.4021 56.1379C76.3212 56.6704 76.203 57.197 76.1409 57.735L75.9569 59.3526L75.9567 59.3303C75.98 60.5563 75.9916 61.7821 76.051 63.0055C76.1032 64.2293 76.1788 65.4519 76.2775 66.6733L76.5625 70.3402C76.6394 71.5648 76.7138 72.7871 76.7325 74.0235L76.7313 74.053L76.7305 74.0605C76.6752 74.5982 76.5986 75.1195 76.5013 75.6472C76.4073 76.1824 76.2716 76.7093 76.0954 77.2233L76.0847 77.249L76.0728 77.2735C76.0451 77.343 76.0293 77.4168 76.0261 77.4916C76.024 77.5703 76.0384 77.6485 76.0685 77.7212C76.1521 77.8907 76.2859 78.0302 76.4515 78.121C76.878 78.3536 77.3435 78.5056 77.825 78.5695C78.8619 78.7148 79.9099 78.765 80.9559 78.7194C82.0145 78.6805 83.0777 78.6032 84.1409 78.5065C85.2038 78.4051 86.2666 78.2806 87.333 78.1636C87.3425 78.1624 87.3522 78.1651 87.3597 78.171C87.3673 78.1769 87.3722 78.1856 87.3734 78.1952C87.3744 78.204 87.3722 78.2129 87.3671 78.2202C87.3621 78.2275 87.3545 78.2327 87.3459 78.2349C86.3032 78.4876 85.2555 78.729 84.195 78.9068C83.1343 79.1024 82.0643 79.244 80.9892 79.331C79.8983 79.4403 78.7988 79.4315 77.7098 79.3048C77.1254 79.2397 76.5592 79.0617 76.0426 78.7808C75.7393 78.6047 75.4987 78.338 75.3545 78.0183C75.2818 77.8408 75.2478 77.6498 75.2548 77.4581C75.2618 77.2664 75.3095 77.0785 75.3948 76.9067L75.3723 76.9567C75.5408 76.4815 75.6771 75.9954 75.7803 75.5019C75.8866 75.0025 75.9759 74.489 76.0412 73.9866L76.0393 74.0235C76.0441 72.8105 76.028 71.5847 76.0115 70.3619L75.9699 66.6883C75.9485 65.4635 75.8993 64.24 75.8224 63.0177C75.7515 61.7954 75.6283 60.5756 75.511 59.3563L75.5105 59.3413L75.5108 59.334L75.5753 57.6767C75.5846 57.3993 75.6119 57.1229 75.6569 56.849L75.7695 56.0227C75.8083 55.7465 75.8645 55.473 75.9375 55.2039L76.1414 54.3909C76.2117 54.1206 76.3267 53.8608 76.4175 53.5956C76.5035 53.3276 76.6099 53.0666 76.7357 52.8149C77.1903 51.7668 77.903 50.8512 78.8073 50.1536C79.0404 49.9903 79.2835 49.8417 79.5351 49.7085C79.7922 49.5882 80.0596 49.4913 80.334 49.419C80.8749 49.263 81.4441 49.2308 81.9991 49.325C82.008 49.3267 82.0159 49.3317 82.0213 49.339C82.0267 49.3463 82.0292 49.3553 82.0283 49.3643C82.0273 49.3733 82.023 49.3817 82.0162 49.3877C82.0094 49.3936 82.0006 49.3968 81.9915 49.3966L81.987 49.3965Z" fill="#061E33"/>
<path d="M78.8578 61.53C78.8612 62.4115 78.9804 63.2886 79.2121 64.1391C79.4252 64.9943 79.6657 65.8435 79.9591 66.6737C80.2389 67.4986 80.582 68.3006 80.9851 69.0727C81.0705 69.2384 81.18 69.3905 81.3103 69.5238C81.3245 69.5394 81.3276 69.5361 81.3276 69.5361C81.3309 69.5376 81.3218 69.5364 81.3346 69.5427L81.3859 69.5658C81.4553 69.5939 81.521 69.6302 81.5817 69.674C81.7004 69.7552 81.8037 69.8568 81.8868 69.9742C82.0364 70.1862 82.1448 70.4246 82.2062 70.6768C82.2696 70.9153 82.3067 71.16 82.3167 71.4065L82.3162 71.4288L82.3139 71.4517C82.2504 72.0998 82.2718 72.7534 82.3774 73.3959C82.4587 74.0163 82.7046 74.6036 83.0895 75.0968C83.1853 75.2095 83.2947 75.3099 83.4152 75.3957L83.595 75.5249L83.7978 75.6172C84.0903 75.747 84.3957 75.8454 84.7088 75.9109C85.0085 75.9809 85.3185 75.9948 85.6232 75.9522C85.7573 75.9277 85.8852 75.8767 85.9993 75.802C86.0945 75.7341 86.1684 75.6405 86.2124 75.5322L86.4795 75.785C86.2844 75.8266 86.0859 75.8501 85.8865 75.8552C85.6861 75.8604 85.4857 75.8427 85.2893 75.8025C85.093 75.7619 84.9023 75.6974 84.7215 75.6106C84.5357 75.5241 84.3643 75.4097 84.2131 75.2714L84.2088 75.2674C84.1999 75.2591 84.1925 75.2493 84.187 75.2385C83.9804 74.8388 83.8841 74.3911 83.9083 73.9417C83.9513 73.5077 84.0712 73.0848 84.2625 72.693C84.3547 72.4991 84.4577 72.3106 84.571 72.1283C84.6979 71.9563 84.8069 71.7705 84.9487 71.6107C85.2126 71.2749 85.5076 70.9648 85.8299 70.6845C86.1538 70.401 86.5121 70.1593 86.8963 69.9651C86.9937 69.9153 87.0946 69.8727 87.1982 69.8376C87.3009 69.7944 87.4084 69.7635 87.5183 69.7457C87.7199 69.7137 87.9191 69.6679 88.1144 69.6086C88.4814 69.4654 88.8117 69.2419 89.0812 68.9545C89.3508 68.6671 89.5527 68.323 89.6723 67.9475C89.68 67.9263 89.6905 67.9063 89.7038 67.8882C89.9473 67.5616 90.1979 67.2386 90.4737 66.9305C90.7519 66.6065 91.0744 66.3234 91.4316 66.0894C91.6394 65.9518 91.8802 65.8723 92.129 65.8591C92.2728 65.8585 92.4146 65.8925 92.5426 65.958C92.6706 66.0235 92.781 66.1187 92.8647 66.2357C93.0046 66.431 93.1048 66.6518 93.1597 66.8857C93.2153 67.1025 93.2486 67.3244 93.2592 67.5479L92.7947 67.2967C92.9613 67.1917 93.1052 67.0545 93.2181 66.8931C93.3309 66.7317 93.4104 66.5494 93.4518 66.3569C93.5297 65.9607 93.4746 65.5499 93.2948 65.1884C93.224 65.026 93.1148 64.8831 92.9766 64.7723C92.9482 64.7464 92.9388 64.761 92.9235 64.7423C92.9248 64.7485 92.9299 64.7513 92.9338 64.7484C92.929 64.7483 92.9529 64.7418 92.9234 64.7437L92.8376 64.7466C92.7236 64.7485 92.6106 64.7243 92.5073 64.6761C92.4214 64.6309 92.3428 64.5731 92.2739 64.5046C92.0758 64.2886 91.9287 64.0307 91.8437 63.75C91.7587 63.5047 91.6944 63.2527 91.6514 62.9966L91.657 63.0261C91.5559 62.6683 91.4678 62.3067 91.3569 61.9525C91.234 61.6022 91.1328 61.2442 90.9906 60.9016C90.7304 60.2079 90.4213 59.5335 90.0657 58.8835C89.7106 58.2354 89.3077 57.6146 88.8603 57.0265C88.4215 56.4456 87.924 55.9117 87.3756 55.4331L87.4508 55.4757L85.6966 54.7172L85.7658 54.7368L85.1925 54.6714C85.0027 54.6402 84.8106 54.6254 84.6183 54.6271C84.2356 54.6172 83.8528 54.6456 83.4757 54.712C83.0972 54.77 82.7252 54.8645 82.3649 54.994C82.0083 55.1391 81.6664 55.3177 81.3435 55.5273C80.6925 55.961 80.1212 56.5041 79.6551 57.1326C79.1792 57.7687 78.7951 58.4686 78.5143 59.2119L78.5134 59.2143C78.5102 59.223 78.5037 59.2302 78.4954 59.2342C78.487 59.2383 78.4774 59.239 78.4686 59.2362C78.4597 59.2333 78.4523 59.2272 78.4478 59.2191C78.4434 59.2109 78.4422 59.2014 78.4446 59.1924C78.6598 58.4085 78.9937 57.6622 79.4347 56.9794C79.8756 56.2823 80.4424 55.6735 81.1061 55.1843C81.4426 54.9383 81.8018 54.725 82.1789 54.5475C82.5639 54.3827 82.9646 54.2575 83.3749 54.1739C83.7846 54.0876 84.2018 54.0423 84.6204 54.0389C84.8285 54.0304 85.037 54.0392 85.2437 54.065L85.8667 54.1161C85.8826 54.1174 85.8982 54.121 85.9132 54.1268L85.936 54.1358L87.7148 54.8345C87.7417 54.8452 87.7671 54.8596 87.7901 54.8772C88.408 55.372 88.9643 55.9392 89.4471 56.5667C89.9307 57.1784 90.3646 57.8279 90.7449 58.5087C91.1169 59.192 91.44 59.9008 91.7116 60.6298C91.8621 60.9886 91.9568 61.3664 92.0791 61.7345C92.188 62.1067 92.2731 62.4852 92.3708 62.86L92.3749 62.8801L92.3764 62.8896C92.4087 63.1026 92.4583 63.3126 92.5245 63.5175C92.5726 63.6941 92.6562 63.859 92.7701 64.0021C92.8174 64.0514 92.8276 64.0501 92.8324 64.0469L92.8355 64.0503C92.8356 64.0524 92.8891 64.0492 92.9139 64.0507C92.9768 64.0519 93.0396 64.0581 93.1016 64.0691C93.1948 64.1 93.2834 64.1435 93.3648 64.1984C93.6032 64.3799 93.7903 64.6204 93.9078 64.8961C94.1447 65.3966 94.2079 65.9619 94.0875 66.5024C94.0201 66.7733 93.8997 67.0281 93.7334 67.2522C93.5671 67.4764 93.3581 67.6653 93.1185 67.8082L93.112 67.8121C93.0776 67.8323 93.0395 67.8456 93 67.8511C92.9605 67.8567 92.9202 67.8544 92.8816 67.8444C92.843 67.8343 92.8067 67.8168 92.7748 67.7928C92.743 67.7687 92.7162 67.7386 92.6959 67.7042C92.6698 67.6595 92.6553 67.6088 92.654 67.557C92.6611 67.2135 92.5774 66.8743 92.4114 66.5736C92.3824 66.5232 92.3409 66.4812 92.2909 66.4516C92.2408 66.422 92.184 66.4058 92.1259 66.4047C91.9713 66.412 91.821 66.458 91.6887 66.5383C91.3629 66.7318 91.0654 66.9695 90.8049 67.2448C90.5293 67.5232 90.2703 67.8239 90.0171 68.1303L90.0485 68.0711C89.8849 68.4881 89.6399 68.8683 89.3279 69.1895C89.0194 69.5152 88.6308 69.7539 88.201 69.8816C87.9977 69.9537 87.7449 69.9608 87.5687 70.0075C87.4713 70.0212 87.3759 70.047 87.2849 70.0844C87.1894 70.1148 87.0963 70.1524 87.0064 70.1967C86.6386 70.3758 86.2947 70.6003 85.9826 70.8648C85.3433 71.3871 84.8278 72.0449 84.4733 72.7907C84.2994 73.1562 84.1972 73.5516 84.1724 73.9556C84.1616 74.3487 84.2609 74.7369 84.4591 75.0764L84.4331 75.0436C84.5639 75.1475 84.709 75.2319 84.864 75.2942C85.022 75.3598 85.1875 75.4058 85.3567 75.4313C85.5259 75.4563 85.6974 75.462 85.8679 75.4481C86.0393 75.4342 86.209 75.4047 86.3749 75.36L86.3867 75.357C86.441 75.3435 86.4984 75.3522 86.5463 75.3811C86.5942 75.4099 86.6287 75.4567 86.6422 75.511C86.6504 75.5445 86.6504 75.5794 86.6422 75.6129C86.5812 75.8205 86.4638 76.0071 86.3029 76.1517C86.142 76.2963 85.9441 76.3932 85.7313 76.4317C85.3627 76.5074 84.9832 76.5128 84.6127 76.4475C84.2543 76.3926 83.9029 76.2988 83.5649 76.1677L83.2999 76.053C83.2179 76.0026 83.1384 75.9468 83.0579 75.8929C82.8978 75.7847 82.7514 75.6576 82.6218 75.5142C82.4957 75.3714 82.3805 75.2192 82.2774 75.0589C82.1836 74.8973 82.1013 74.7293 82.0311 74.5562C81.8944 74.2176 81.7954 73.865 81.7359 73.5048C81.626 72.7975 81.6155 72.0783 81.7048 71.3681L81.702 71.4132C81.7047 71.0287 81.6041 70.6505 81.4106 70.3183C81.3675 70.2526 81.3126 70.1954 81.2486 70.1498C81.2204 70.1273 81.1891 70.1089 81.1556 70.0953C81.0813 70.061 81.0113 70.0182 80.9468 69.9679C80.762 69.7877 80.6095 69.5772 80.4959 69.3454C80.0915 68.5348 79.7675 67.6864 79.5286 66.8125C79.2713 65.9547 79.0665 65.0821 78.9154 64.1994C78.7409 63.3181 78.6973 62.4158 78.7858 61.5218C78.7872 61.5123 78.7923 61.5037 78.8 61.498C78.8076 61.4922 78.8173 61.4897 78.8268 61.4911C78.8358 61.4928 78.8438 61.4977 78.8495 61.5048C78.8552 61.5119 78.8581 61.5209 78.8578 61.53Z" fill="#061E33"/>
<path d="M90.6973 50.0771C90.8815 50.008 91.0769 49.9735 91.2737 49.9755C91.4662 49.9735 91.6583 49.9921 91.8468 50.0309C92.2289 50.1044 92.5861 50.2737 92.8851 50.5229C92.6936 50.5257 92.5023 50.5119 92.3132 50.4816C92.1297 50.4559 91.9506 50.4217 91.772 50.3854C91.4061 50.3116 91.0467 50.2085 90.6973 50.0771Z" fill="#061E33"/>
<path d="M95.6025 52.2629C96.6381 53.1403 97.4735 54.2299 98.0524 55.458C98.6499 56.6483 99.2495 57.8368 99.8849 58.9985C100.198 59.5812 100.522 60.1582 100.871 60.7092C101.047 60.9805 101.227 61.2592 101.413 61.4914C101.469 61.5699 101.63 61.7021 101.742 61.8211C101.863 61.9422 101.982 62.0654 102.099 62.1907C102.584 62.6924 103 63.2572 103.335 63.8699C103.531 64.2103 103.63 64.598 103.622 64.9909C103.605 65.2231 103.511 65.443 103.355 65.6158C103.205 65.7649 103.023 65.8786 102.824 65.9486C102.791 65.9615 102.757 65.9679 102.722 65.9674C102.688 65.9669 102.653 65.9596 102.621 65.9459C102.589 65.9322 102.561 65.9123 102.536 65.8874C102.512 65.8625 102.493 65.833 102.48 65.8007C102.476 65.7888 102.472 65.7765 102.469 65.7641C102.385 65.4031 102.264 65.0517 102.109 64.715C101.981 64.3902 101.751 64.1156 101.454 63.9319C101.29 63.8771 101.115 63.87 100.948 63.9113C100.781 63.9527 100.629 64.0408 100.51 64.1653C100.218 64.4192 99.9558 64.7054 99.7282 65.0184C99.8998 64.6598 100.123 64.3284 100.391 64.0348C100.535 63.8819 100.706 63.7571 100.896 63.6667C101.108 63.571 101.347 63.5573 101.568 63.6283C101.972 63.8017 102.301 64.1122 102.498 64.5049C102.707 64.86 102.871 65.2398 102.986 65.6355L102.631 65.451C102.744 65.4025 102.846 65.3309 102.93 65.2409C102.993 65.158 103.026 65.0563 103.024 64.9523C103.004 64.6752 102.916 64.4073 102.767 64.1727C102.432 63.6295 102.036 63.1264 101.587 62.6732C101.475 62.5559 101.361 62.4406 101.244 62.3274C101.127 62.2038 101.019 62.1337 100.864 61.9516C100.644 61.6795 100.443 61.3925 100.262 61.0926C99.9043 60.5118 99.5825 59.9195 99.2716 59.3225C98.6653 58.1212 98.1166 56.8985 97.6118 55.6577C97.1451 54.4175 96.4651 53.2685 95.6025 52.2629Z" fill="#061E33"/>
<path d="M102.726 65.6979C103.205 66.1485 103.66 66.618 104.107 67.0931C104.552 67.5703 104.994 68.0498 105.419 68.5422C105.848 69.0316 106.272 69.5247 106.683 70.0285C107.102 70.5255 107.507 71.0337 107.907 71.5453L107.79 71.4337L110.764 73.475L113.73 75.5308L115.865 77.0987L116.397 78.0806C116.397 78.0806 114.277 76.9081 113.24 76.2867C112.21 75.6529 111.181 75.0188 110.177 74.3484C109.169 73.6812 108.165 73.0127 107.181 72.3081L107.172 72.302C107.131 72.2723 107.095 72.2367 107.064 72.1964C106.671 71.6792 106.282 71.1585 105.908 70.6267C105.525 70.1017 105.156 69.566 104.792 69.0266C104.424 68.4902 104.072 67.9408 103.724 67.3892C103.378 66.8353 103.04 66.2762 102.726 65.6979Z" fill="#061E33"/>
<path d="M98.5684 72.796C99.2389 73.6798 99.9796 74.5079 100.783 75.2724C101.571 76.0322 102.424 76.7203 103.334 77.3282C104.235 77.9465 105.192 78.4802 106.192 78.9223C106.686 79.1654 107.205 79.3445 107.722 79.5451C107.98 79.6471 108.244 79.7361 108.511 79.8116C108.777 79.8956 109.043 79.9851 109.31 80.0803C109.03 80.0613 108.749 80.0378 108.468 80.008C108.186 79.9859 107.906 79.946 107.629 79.8885C107.07 79.783 106.521 79.636 105.984 79.4487C105.443 79.2688 104.915 79.0508 104.404 78.7966C104.142 78.6811 103.905 78.5184 103.655 78.3812C103.404 78.244 103.161 78.0926 102.928 77.9278C102.697 77.7592 102.456 77.6046 102.234 77.4242L101.572 76.8805C101.15 76.4974 100.75 76.0901 100.375 75.6605C99.618 74.8128 99.0074 73.8447 98.5684 72.796Z" fill="#061E33"/>
<path d="M77.2525 78.8375C77.4239 79.0377 77.5608 79.2649 77.6578 79.51C77.7504 79.738 77.8184 79.9753 77.8606 80.2178C77.9037 80.4601 77.9203 80.7064 77.9101 80.9523C77.902 81.2159 77.8496 81.4763 77.7552 81.7225C77.583 81.5228 77.4457 81.2955 77.3489 81.0502C77.2562 80.8222 77.1885 80.5849 77.1471 80.3422C77.1048 80.0998 77.0885 79.8535 77.0986 79.6075C77.1069 79.3441 77.159 79.0839 77.2525 78.8375Z" fill="#061E33"/>
<path d="M76.8101 81.739C75.8778 83.8082 75.1655 85.9698 74.6849 88.1881C74.1902 90.3973 73.9308 92.6527 73.9111 94.9166C73.9 96.045 73.9655 97.1728 74.1072 98.2923C74.5128 101.654 75.6678 104.881 77.4868 107.736L77.4881 107.738C77.5088 107.772 77.5223 107.809 77.5277 107.848C77.5331 107.887 77.5302 107.926 77.5193 107.964C76.3517 111.961 75.1511 115.948 73.9175 119.923C72.6955 123.902 71.4026 127.86 70.0774 131.808C68.7575 135.757 67.3501 139.676 65.8553 143.566C65.1011 145.508 64.3242 147.442 63.4696 149.345C63.0415 150.296 62.5945 151.24 62.0976 152.161C61.851 152.623 61.587 153.076 61.2953 153.516C61.0155 153.979 60.6533 154.388 60.2266 154.721L60.2344 154.487C61.3273 155.229 62.4629 155.906 63.6351 156.514C64.8033 157.137 66.003 157.699 67.2159 158.23C69.6474 159.283 72.1462 160.174 74.6958 160.895C79.7992 162.332 85.0491 163.184 90.3446 163.436C95.6341 163.686 100.935 163.411 106.171 162.616C111.402 161.821 116.56 160.6 121.593 158.965L121.372 159.421L115.736 144.295L110.144 129.152L104.601 113.992L99.0967 98.8166L99.0958 98.8141C99.0876 98.7914 99.084 98.7672 99.0852 98.7431L99.4547 91.6555L99.6276 88.1111C99.6797 86.9296 99.7357 85.7475 99.7584 84.5661C99.7584 84.5614 99.7594 84.5566 99.7612 84.5522C99.763 84.5479 99.7657 84.5439 99.7691 84.5405C99.7725 84.5371 99.7765 84.5345 99.7809 84.5327C99.7853 84.5309 99.79 84.5299 99.7947 84.5299C99.8043 84.5301 99.8133 84.534 99.8201 84.5407C99.8268 84.5474 99.8307 84.5565 99.8309 84.5661C99.8349 85.7506 99.8057 86.9333 99.7804 88.1163L99.688 91.6647C99.6216 94.0301 99.5451 96.3952 99.4585 98.7599L99.4471 98.6866L105.158 113.785L110.828 128.899L116.451 144.03L122.029 159.177C122.045 159.22 122.053 159.266 122.051 159.312C122.05 159.358 122.039 159.403 122.02 159.445C122.001 159.487 121.974 159.524 121.94 159.556C121.907 159.587 121.867 159.611 121.824 159.627L121.808 159.633C116.734 161.262 111.53 162.45 106.252 163.184C100.976 163.923 95.6406 164.137 90.323 163.823C85.0102 163.491 79.7486 162.587 74.6292 161.127C72.0764 160.383 69.57 159.487 67.1233 158.445C65.9021 157.919 64.6936 157.362 63.5152 156.743C62.3277 156.136 61.177 155.459 60.0691 154.716C60.0507 154.704 60.0357 154.687 60.0252 154.667C60.0147 154.647 60.009 154.626 60.0088 154.603C60.0086 154.581 60.0137 154.559 60.0238 154.539C60.0338 154.519 60.0486 154.502 60.0667 154.489L60.077 154.482C60.4667 154.168 60.7959 153.785 61.0484 153.353C61.3254 152.921 61.5786 152.471 61.8152 152.011C62.2921 151.094 62.7219 150.149 63.1331 149.197C63.9544 147.291 64.6987 145.35 65.4223 143.402C66.866 139.504 68.1774 135.557 69.4962 131.613C70.8057 127.666 72.0558 123.699 73.3186 119.735C74.5705 115.769 75.7933 111.793 76.987 107.808L77.0195 108.035C75.789 106.087 74.8713 103.958 74.2999 101.725C74.0095 100.615 73.8032 99.4837 73.6827 98.342C73.5551 97.2034 73.5049 96.0574 73.5325 94.9119C73.5842 92.6251 73.8933 90.3515 74.4539 88.134C74.9905 85.9169 75.7585 83.7624 76.7455 81.706C76.7497 81.6975 76.7571 81.6909 76.7661 81.6877C76.7751 81.6846 76.7849 81.6851 76.7936 81.6892C76.8022 81.6933 76.8088 81.7006 76.8121 81.7096C76.8153 81.7185 76.8149 81.7284 76.8109 81.7371L76.8101 81.739Z" fill="#061E33"/>
<path d="M85.0104 81.1544L76.7778 81.7226C76.7778 81.7226 74.1881 87.2392 74.3619 89.0999C74.3619 89.0999 84.2707 82.7662 85.0104 81.1544Z" fill="#061E33"/>
<path d="M99.2724 98.7507C98.8991 98.3471 98.5633 97.9103 98.2691 97.4458C97.9757 96.9927 97.7004 96.5287 97.4505 96.0502C97.2005 95.5718 96.976 95.0788 96.7731 94.575C96.5611 94.0686 96.3938 93.5447 96.2732 93.0091C96.6415 93.4152 96.9747 93.8517 97.2694 94.314C97.5664 94.7671 97.8405 95.2335 98.0916 95.7131C98.3441 96.1914 98.5714 96.6827 98.7726 97.1848C98.9846 97.6911 99.1519 98.2151 99.2724 98.7507C99.2724 98.7507 99.794 87.0826 99.794 84.567L98.9537 84.5236C97.9431 84.8679 93.984 83.5884 93.984 83.5884C86.5512 109.774 75.4345 104.38 75.4345 104.38L77.2529 107.885C77.9955 108.668 78.6801 109.494 79.3465 110.332C80.013 111.169 80.6469 112.028 81.2736 112.894C81.893 113.768 82.5015 114.649 83.0738 115.551C83.6534 116.45 84.2112 117.367 84.7111 118.324C83.9649 117.541 83.2803 116.719 82.6138 115.881C81.9473 115.044 81.3134 114.181 80.6868 113.315C80.071 112.441 79.4625 111.564 78.8865 110.658C78.3106 109.759 77.7528 108.842 77.2529 107.885C77.2529 107.885 64.3252 151.991 60.1523 154.601C60.1523 154.601 83.6244 171.565 121.701 159.298L99.2724 98.7507ZM62.735 155.119C62.594 155.114 62.4603 155.055 62.3622 154.954C62.2641 154.852 62.2093 154.717 62.2093 154.575C62.2093 154.434 62.2641 154.299 62.3622 154.197C62.4603 154.096 62.594 154.036 62.735 154.032C62.876 154.036 63.0097 154.096 63.1078 154.197C63.2059 154.299 63.2607 154.434 63.2607 154.575C63.2607 154.717 63.2059 154.852 63.1078 154.954C63.0097 155.055 62.876 155.114 62.735 155.119ZM65.6038 156.555C65.4628 156.55 65.3292 156.491 65.2311 156.389C65.133 156.288 65.0782 156.152 65.0782 156.011C65.0782 155.87 65.133 155.734 65.2311 155.633C65.3292 155.531 65.4628 155.472 65.6038 155.467C65.7448 155.472 65.8784 155.531 65.9765 155.633C66.0746 155.734 66.1294 155.87 66.1294 156.011C66.1294 156.152 66.0746 156.288 65.9765 156.389C65.8784 156.491 65.7448 156.55 65.6038 156.555H65.6038ZM68.4726 157.859C68.3316 157.855 68.198 157.795 68.0999 157.694C68.0018 157.593 67.9469 157.457 67.9469 157.316C67.9469 157.175 68.0018 157.039 68.0999 156.937C68.198 156.836 68.3316 156.777 68.4726 156.772C68.6136 156.777 68.7472 156.836 68.8452 156.938C68.9433 157.039 68.9981 157.175 68.9981 157.316C68.9981 157.457 68.9433 157.592 68.8452 157.694C68.7472 157.795 68.6136 157.855 68.4726 157.859V157.859ZM71.9934 159.164C71.8524 159.16 71.7188 159.1 71.6207 158.999C71.5226 158.897 71.4678 158.762 71.4678 158.621C71.4678 158.479 71.5226 158.344 71.6207 158.242C71.7188 158.141 71.8524 158.082 71.9934 158.077C72.1344 158.082 72.268 158.141 72.366 158.242C72.464 158.344 72.5188 158.479 72.5188 158.621C72.5188 158.762 72.464 158.897 72.366 158.999C72.268 159.1 72.1344 159.16 71.9934 159.164V159.164ZM75.9054 160.208C75.7644 160.204 75.6308 160.144 75.5327 160.043C75.4346 159.941 75.3797 159.806 75.3797 159.665C75.3797 159.523 75.4346 159.388 75.5327 159.286C75.6308 159.185 75.7644 159.125 75.9054 159.121C76.0464 159.126 76.18 159.185 76.278 159.286C76.3761 159.388 76.4309 159.523 76.4309 159.665C76.4309 159.806 76.3761 159.941 76.278 160.043C76.18 160.144 76.0464 160.204 75.9054 160.208V160.208ZM79.9478 161.122C79.8069 161.117 79.6732 161.058 79.5751 160.956C79.477 160.855 79.4222 160.719 79.4222 160.578C79.4222 160.437 79.477 160.301 79.5751 160.2C79.6732 160.098 79.8069 160.039 79.9478 160.034C80.0888 160.039 80.2224 160.098 80.3204 160.2C80.4185 160.301 80.4733 160.437 80.4733 160.578C80.4733 160.719 80.4185 160.855 80.3204 160.956C80.2224 161.058 80.0888 161.117 79.9478 161.122V161.122ZM83.8598 161.774C83.7188 161.769 83.5852 161.71 83.4871 161.609C83.389 161.507 83.3341 161.372 83.3341 161.23C83.3341 161.089 83.389 160.954 83.4871 160.852C83.5852 160.751 83.7188 160.691 83.8598 160.687C84.0008 160.691 84.1344 160.751 84.2325 160.852C84.3305 160.954 84.3853 161.089 84.3853 161.23C84.3853 161.372 84.3305 161.507 84.2325 161.609C84.1344 161.71 84.0008 161.769 83.8598 161.774V161.774ZM87.6415 162.166C87.5005 162.161 87.3668 162.102 87.2687 162C87.1706 161.899 87.1158 161.763 87.1158 161.622C87.1158 161.481 87.1706 161.345 87.2687 161.244C87.3668 161.142 87.5005 161.083 87.6415 161.078C87.7824 161.083 87.916 161.142 88.0141 161.244C88.1121 161.345 88.1669 161.481 88.1669 161.622C88.1669 161.763 88.1121 161.899 88.0141 162C87.916 162.102 87.7824 162.161 87.6415 162.166V162.166ZM91.1623 162.427C91.0213 162.422 90.8876 162.363 90.7895 162.261C90.6914 162.16 90.6366 162.024 90.6366 161.883C90.6366 161.742 90.6914 161.606 90.7895 161.505C90.8876 161.403 91.0213 161.344 91.1623 161.339C91.3032 161.344 91.4368 161.403 91.5349 161.505C91.6329 161.606 91.6878 161.742 91.6878 161.883C91.6878 162.024 91.6329 162.16 91.5349 162.261C91.4368 162.363 91.3032 162.422 91.1623 162.427V162.427ZM94.9439 162.427C94.8029 162.422 94.6692 162.363 94.5711 162.261C94.473 162.16 94.4182 162.024 94.4182 161.883C94.4182 161.742 94.473 161.606 94.5711 161.505C94.6692 161.403 94.8029 161.344 94.9439 161.339C95.0848 161.344 95.2184 161.403 95.3165 161.505C95.4145 161.606 95.4693 161.742 95.4693 161.883C95.4693 162.024 95.4145 162.16 95.3165 162.261C95.2184 162.363 95.0848 162.422 94.9439 162.427V162.427ZM98.5951 162.296C98.4541 162.291 98.3204 162.232 98.2224 162.131C98.1243 162.029 98.0694 161.894 98.0694 161.752C98.0694 161.611 98.1243 161.476 98.2224 161.374C98.3204 161.273 98.4541 161.213 98.5951 161.209C98.736 161.213 98.8696 161.273 98.9677 161.374C99.0657 161.476 99.1205 161.611 99.1205 161.752C99.1205 161.894 99.0657 162.029 98.9677 162.131C98.8696 162.232 98.736 162.291 98.5951 162.296V162.296ZM102.246 162.035C102.105 162.03 101.972 161.971 101.874 161.87C101.775 161.768 101.721 161.633 101.721 161.491C101.721 161.35 101.775 161.215 101.874 161.113C101.972 161.012 102.105 160.952 102.246 160.948C102.387 160.952 102.521 161.012 102.619 161.113C102.717 161.215 102.772 161.35 102.772 161.491C102.772 161.633 102.717 161.768 102.619 161.87C102.521 161.971 102.387 162.03 102.246 162.035V162.035ZM105.767 161.774C105.626 161.769 105.492 161.71 105.394 161.609C105.296 161.507 105.241 161.372 105.241 161.23C105.241 161.089 105.296 160.954 105.394 160.852C105.492 160.751 105.626 160.691 105.767 160.687C105.908 160.691 106.042 160.751 106.14 160.852C106.238 160.954 106.293 161.089 106.293 161.23C106.293 161.372 106.238 161.507 106.14 161.609C106.042 161.71 105.908 161.769 105.767 161.774V161.774ZM109.288 161.122C109.147 161.117 109.013 161.058 108.915 160.956C108.817 160.855 108.762 160.719 108.762 160.578C108.762 160.437 108.817 160.301 108.915 160.2C109.013 160.098 109.147 160.039 109.288 160.034C109.429 160.039 109.562 160.098 109.66 160.2C109.759 160.301 109.813 160.437 109.813 160.578C109.813 160.719 109.759 160.855 109.66 160.956C109.562 161.058 109.429 161.117 109.288 161.122V161.122ZM112.939 160.339C112.798 160.334 112.664 160.275 112.566 160.173C112.468 160.072 112.413 159.936 112.413 159.795C112.413 159.654 112.468 159.518 112.566 159.417C112.664 159.315 112.798 159.256 112.939 159.251C113.08 159.256 113.214 159.315 113.312 159.417C113.41 159.518 113.465 159.654 113.465 159.795C113.465 159.936 113.41 160.072 113.312 160.173C113.214 160.275 113.08 160.334 112.939 160.339V160.339ZM116.199 159.425C116.058 159.421 115.924 159.361 115.826 159.26C115.728 159.158 115.673 159.023 115.673 158.882C115.673 158.74 115.728 158.605 115.826 158.503C115.924 158.402 116.058 158.343 116.199 158.338C116.34 158.343 116.474 158.402 116.572 158.503C116.67 158.605 116.725 158.74 116.725 158.882C116.725 159.023 116.67 159.158 116.572 159.26C116.474 159.361 116.34 159.421 116.199 159.425V159.425ZM119.59 158.251C119.449 158.246 119.315 158.187 119.217 158.085C119.119 157.984 119.064 157.848 119.064 157.707C119.064 157.566 119.119 157.43 119.217 157.329C119.315 157.227 119.449 157.168 119.59 157.163C119.73 157.168 119.864 157.228 119.962 157.329C120.06 157.43 120.115 157.566 120.115 157.707C120.115 157.848 120.06 157.984 119.962 158.085C119.864 158.187 119.73 158.246 119.59 158.251V158.251Z" fill="#061E33"/>
<path d="M93.0987 39.6554C93.2043 39.6517 93.3044 39.6072 93.3778 39.5311C93.4513 39.455 93.4923 39.3534 93.4923 39.2476C93.4923 39.1419 93.4513 39.0402 93.3778 38.9642C93.3044 38.8881 93.2043 38.8435 93.0987 38.8398C92.9931 38.8435 92.893 38.8881 92.8195 38.9642C92.7461 39.0402 92.7051 39.1419 92.7051 39.2476C92.7051 39.3534 92.7461 39.455 92.8195 39.5311C92.893 39.6072 92.9931 39.6517 93.0987 39.6554Z" fill="#061E33"/>
<path d="M91.9688 37.4862C92.1143 37.3224 92.3008 37.2002 92.509 37.132C92.705 37.0646 92.9129 37.0381 93.1196 37.0543C93.3383 37.0673 93.5503 37.135 93.7362 37.2511C93.8388 37.3091 93.9268 37.3898 93.9934 37.4871C94.06 37.5844 94.1034 37.6957 94.1204 37.8124C93.9319 37.7903 93.7421 37.783 93.5525 37.7906C93.3909 37.7894 93.2299 37.7903 93.0641 37.7769C92.8902 37.763 92.7175 37.7369 92.5473 37.6988C92.3461 37.6533 92.1516 37.5818 91.9688 37.4862Z" fill="#061E33"/>
<path d="M93.6641 42.3795C93.6641 42.3795 94.7331 43.4158 95.6004 42.9629" stroke="#061E33" stroke-width="0.96777" stroke-linecap="round" stroke-linejoin="round"/>
<path d="M74.3828 88.9949C75.5154 88.1304 76.658 87.2947 77.7989 86.4591C78.935 85.6172 80.0728 84.7827 81.19 83.9241C81.7516 83.4989 82.3076 83.0671 82.8518 82.6221C83.1318 82.4083 83.4015 82.1836 83.6681 81.9554C83.9316 81.7241 84.2148 81.5119 84.4707 81.2734C85.5606 80.3821 86.5258 79.3482 87.3401 78.1993C87.191 78.5182 87.0565 78.8572 86.8748 79.1673C86.6796 79.4663 86.4867 79.7729 86.276 80.0649L85.5958 80.9012C85.3573 81.1688 85.1047 81.4225 84.8591 81.6845C83.8478 82.6952 82.7688 83.6358 81.6297 84.4997C80.4905 85.357 79.3234 86.1742 78.1149 86.9256C76.9119 87.687 75.6658 88.3779 74.3828 88.9949Z" fill="#061E33"/>
<path d="M96.2726 56.1014C96.8326 57.0989 97.3649 58.1138 97.845 59.1544C98.3274 60.1936 98.7786 61.2497 99.16 62.3354C99.5666 63.422 99.8404 64.5537 99.9755 65.7061C100.047 66.304 100.003 66.91 99.8477 67.4917C99.7531 67.7985 99.5953 68.0819 99.3844 68.3239C99.156 68.5596 98.875 68.7378 98.5644 68.8438L98.7375 68.5952C98.8002 69.5818 98.8796 70.5719 98.984 71.554C99.0367 72.0449 99.0962 72.535 99.1728 73.0175C99.2118 73.2583 99.2503 73.4989 99.3025 73.7295C99.3285 73.8444 99.3572 73.9575 99.3906 74.0599C99.4053 74.1059 99.4228 74.1509 99.4432 74.1946C99.4568 74.2354 99.4877 74.2467 99.4367 74.215L99.3958 74.7643L97.6747 75.5217C97.6208 75.5454 97.5614 75.5537 97.503 75.5456C97.4447 75.5375 97.3897 75.5133 97.3443 75.4758C97.2988 75.4383 97.2647 75.3889 97.2457 75.3331C97.2267 75.2773 97.2235 75.2173 97.2365 75.1598L97.2378 75.1542C97.4793 74.0605 97.6439 72.9511 97.7306 71.8343C97.8065 70.7131 97.8313 69.5883 97.8051 68.4598C97.7699 67.333 97.7113 66.2055 97.5975 65.0813C97.4933 63.9567 97.3708 62.8325 97.2088 61.7128C96.896 59.4721 96.4739 57.2445 95.9725 55.036C95.7197 53.9387 95.4477 52.8182 95.137 51.7638C95.0165 51.2789 94.7334 50.8501 94.335 50.549C94.1267 50.453 93.8951 50.4193 93.6681 50.4521C93.4411 50.4849 93.2284 50.5827 93.0557 50.7338L93.0771 50.7145L93.0735 50.718L93.1046 50.3723C93.8174 51.4863 94.3019 52.731 94.5299 54.034C94.7684 55.3128 94.8665 56.6138 94.8225 57.9139C94.7811 59.2051 94.6546 60.4922 94.4438 61.7667C94.2432 63.039 93.9611 64.297 93.5994 65.533C93.8867 64.2815 94.1073 63.0157 94.2602 61.7408C94.4177 60.4705 94.4913 59.1912 94.4805 57.9112C94.4837 56.639 94.354 55.37 94.0937 54.1248C93.848 52.8932 93.3606 51.7227 92.6598 50.6809C92.6239 50.6294 92.6071 50.567 92.6122 50.5044C92.6174 50.4418 92.6441 50.383 92.6879 50.338L92.6909 50.3351L92.6944 50.3314C92.7012 50.3246 92.7084 50.3181 92.7159 50.3121C92.9738 50.1053 93.2766 49.9619 93.6 49.8935C93.9456 49.8203 94.3059 49.8715 94.6175 50.0379C95.1585 50.3943 95.5504 50.9366 95.7193 51.5623C96.0611 52.6852 96.3322 53.7745 96.5998 54.8898C97.1233 57.1111 97.5671 59.3519 97.9016 61.6123C98.2537 63.8742 98.453 66.1573 98.498 68.446C98.5159 69.5924 98.4811 70.7395 98.3937 71.8875C98.2951 73.0375 98.1159 74.1792 97.8574 75.3041L97.4205 74.9367L99.1477 74.1934L99.1069 74.7427C99.0087 74.672 98.9318 74.5757 98.8843 74.4644C98.8523 74.3955 98.8248 74.3245 98.8022 74.252C98.7596 74.1178 98.7288 73.9895 98.7009 73.8617C98.6468 73.6069 98.605 73.3567 98.5721 73.1058C98.5052 72.6047 98.4573 72.1063 98.4162 71.6079C98.335 70.6108 98.2799 69.6171 98.2412 68.6185C98.2391 68.5649 98.2542 68.5121 98.2843 68.4677C98.3143 68.4233 98.3578 68.3898 98.4083 68.3718L98.4144 68.3697C98.6483 68.2953 98.8617 68.1679 99.0382 67.9973C99.2072 67.8099 99.3356 67.5897 99.4156 67.3504C99.566 66.8272 99.6165 66.2802 99.5645 65.7382C99.4534 64.614 99.2204 63.5051 98.8696 62.4313C98.1647 60.2588 97.2965 58.1428 96.2726 56.1014Z" fill="#061E33"/>
<path d="M75.4336 104.379C76.6419 104.822 77.9476 104.929 79.2121 104.69C79.8356 104.585 80.445 104.408 81.0283 104.163C81.3233 104.053 81.6003 103.897 81.8864 103.767C82.1572 103.604 82.4395 103.463 82.6998 103.283C84.818 101.891 86.468 99.879 87.8394 97.7331C89.1909 95.5481 90.3538 93.2518 91.3154 90.869C92.2961 88.4852 93.1607 86.0475 93.9864 83.5878C93.4453 86.1302 92.7287 88.6321 91.8418 91.0753C90.9611 93.5373 89.824 95.8996 88.4493 98.1234C87.742 99.2331 86.9407 100.28 86.0544 101.253C85.1567 102.228 84.1272 103.073 82.9956 103.763C81.8582 104.456 80.5827 104.893 79.2589 105.04C78.6022 105.106 77.9396 105.086 77.288 104.981C76.6409 104.884 76.0142 104.681 75.4336 104.379Z" fill="#061E33"/>
<path d="M114.275 73.8109C114.312 73.7784 114.325 73.8659 114.359 73.9062L114.442 74.055L114.605 74.3542L114.922 74.957C115.128 75.3615 115.329 75.7685 115.524 76.1781C115.916 76.9969 116.284 77.827 116.637 78.6631C117.342 80.336 117.985 82.0335 118.565 83.7557C119.721 87.2001 120.66 90.7139 121.374 94.2763C122.092 97.8398 122.597 101.443 122.889 105.066C123.178 108.691 123.266 112.329 123.153 115.964L122.894 115.69L152.921 116.197L152.712 116.269C153.557 115.596 154.445 114.977 155.369 114.417C156.291 113.852 157.249 113.349 158.237 112.912C159.234 112.469 160.271 112.125 161.335 111.885C162.418 111.639 163.533 111.567 164.638 111.671L164.172 112.05C164.764 105.103 165.289 98.1508 165.749 91.1924C165.974 87.7143 166.18 84.2352 166.341 80.7577C166.419 79.0191 166.484 77.2802 166.51 75.5459C166.521 74.6792 166.532 73.8128 166.511 72.9546C166.501 72.5261 166.484 72.0983 166.448 71.6833C166.43 71.4767 166.408 71.2719 166.375 71.0844C166.361 71.0009 166.342 70.9183 166.318 70.837C166.308 70.8056 166.298 70.7818 166.296 70.7767C166.309 70.7813 166.282 70.8123 166.464 70.9103L166.667 70.9542C164.323 70.8932 161.969 70.8638 159.621 70.8562C157.271 70.8444 154.921 70.8471 152.574 70.8955C150.227 70.9444 147.88 71.0272 145.547 71.2048C144.381 71.2951 143.217 71.4089 142.071 71.5842C141.499 71.6732 140.929 71.7762 140.38 71.9168C139.866 72.02 139.376 72.2207 138.938 72.5081L138.917 72.525C138.854 72.5775 138.775 72.6081 138.693 72.612L114.275 73.8109ZM114.179 73.7599L126.306 72.7796L138.642 71.8111L138.397 71.9149C138.921 71.5207 139.525 71.245 140.166 71.107C140.756 70.9479 141.345 70.834 141.934 70.7341C143.112 70.538 144.292 70.4073 145.471 70.3001C147.829 70.0892 150.188 69.975 152.547 69.8944C157.265 69.7347 161.977 69.7357 166.697 69.8385L166.727 69.8392C166.787 69.8407 166.846 69.8555 166.9 69.8826C167.067 69.958 167.203 70.0898 167.283 70.255C167.322 70.3331 167.356 70.4143 167.382 70.4978C167.421 70.6253 167.452 70.7551 167.475 70.8865C167.518 71.1284 167.543 71.3573 167.564 71.5848C167.605 72.0387 167.623 72.4825 167.636 72.9256C167.658 73.8108 167.657 74.6887 167.638 75.5656C167.602 77.3186 167.527 79.065 167.44 80.8102C167.265 84.3002 167.026 87.7829 166.767 91.2635C166.248 98.2247 165.646 105.175 165.006 112.125C165.001 112.18 164.986 112.233 164.961 112.282C164.935 112.331 164.9 112.374 164.858 112.409C164.816 112.444 164.768 112.471 164.715 112.488C164.663 112.504 164.608 112.51 164.553 112.505L164.54 112.504C163.524 112.394 162.496 112.446 161.496 112.658C160.479 112.871 159.485 113.185 158.529 113.593C157.563 114.002 156.626 114.475 155.724 115.01C154.819 115.54 153.949 116.126 153.118 116.766L153.111 116.771C153.053 116.816 152.982 116.84 152.909 116.838L122.884 116.218C122.85 116.218 122.815 116.21 122.784 116.197C122.752 116.183 122.723 116.163 122.699 116.138C122.675 116.114 122.656 116.084 122.644 116.052C122.631 116.02 122.625 115.986 122.625 115.951L122.625 115.944C122.773 112.329 122.72 108.708 122.467 105.098C122.211 101.487 121.742 97.8937 121.062 94.3378C120.384 90.7797 119.482 87.2679 118.362 83.8232C117.799 82.1021 117.175 80.4028 116.489 78.7251C116.144 77.8877 115.785 77.056 115.402 76.2357C115.212 75.825 115.015 75.4172 114.813 75.0122L114.503 74.4083L114.344 74.109L114.263 73.9602C114.241 73.9019 114.198 73.8902 114.179 73.7599H114.179Z" fill="#061E33"/>
<path d="M147.467 75.2291C148.341 78.5193 149.115 81.8336 149.791 85.1721C150.479 88.5062 151.083 91.8573 151.602 95.2252C152.107 98.5937 152.538 101.977 152.775 105.381C152.9 107.081 152.965 108.788 152.948 110.495C152.951 112.203 152.791 113.906 152.47 115.584C152.651 113.895 152.692 112.195 152.593 110.5C152.525 108.807 152.384 107.116 152.212 105.429C151.862 102.055 151.402 98.6906 150.886 95.3344C150.381 91.9763 149.811 88.6269 149.238 85.277L147.467 75.2291Z" fill="#061E33"/>
<path d="M120.56 73.3775C120.031 72.9644 119.618 72.4223 119.358 71.8033C119.099 71.1843 119.003 70.509 119.079 69.8422C119.16 69.1337 119.411 68.4552 119.81 67.8643C119.913 67.7171 120.026 67.5748 120.141 67.4347C120.266 67.3087 120.4 67.1693 120.522 67.0551C120.759 66.8399 120.996 66.624 121.243 66.4194C122.227 65.5842 123.282 64.836 124.396 64.1832C124.955 63.8543 125.535 63.5575 126.128 63.2835C126.426 63.1491 126.728 63.0226 127.034 62.9041C127.178 62.8419 127.359 62.7883 127.525 62.7323C127.693 62.6722 127.865 62.6233 128.039 62.5857C129.434 62.2527 130.897 62.3523 132.233 62.8712C133.552 63.3851 134.683 64.29 135.473 65.4646C135.666 65.7509 135.838 66.0508 135.988 66.3619L136.381 67.216L137.148 68.9346C137.637 70.0926 138.132 71.2475 138.554 72.4423C137.778 71.4406 137.076 70.3992 136.368 69.3608L135.339 67.7849L134.834 66.9917C134.679 66.7572 134.511 66.5315 134.331 66.3158C133.621 65.47 132.692 64.8368 131.645 64.4862C131.132 64.3151 130.597 64.2175 130.057 64.1964C129.52 64.164 128.981 64.2151 128.46 64.3479C128.328 64.3735 128.198 64.4089 128.072 64.454C127.942 64.4971 127.82 64.5266 127.677 64.5863C127.398 64.6893 127.124 64.8055 126.848 64.9191C126.296 65.1477 125.757 65.4122 125.222 65.6858C124.146 66.2464 123.104 66.8691 122.101 67.5509L121.346 68.0727L121.028 68.3183C120.935 68.4107 120.833 68.4968 120.741 68.5929C120.37 68.9948 120.099 69.4782 119.949 70.0041C119.788 70.5759 119.759 71.1769 119.865 71.7615C119.971 72.3461 120.208 72.8987 120.56 73.3775Z" fill="#061E33"/>
<path d="M138.362 72.1607C138.555 71.0876 138.875 70.0415 139.317 69.0451C139.754 68.0301 140.297 67.0641 140.936 66.1634C141.592 65.2491 142.355 64.4168 143.208 63.6844C144.081 62.9434 145.054 62.3295 146.098 61.8609L146.496 61.6948C146.635 61.6342 146.777 61.5808 146.921 61.5346C147.248 61.4252 147.589 61.3612 147.934 61.3444C148.641 61.3067 149.343 61.4754 149.956 61.8301C150.56 62.1768 151.063 62.6764 151.413 63.2786C151.764 63.8809 151.95 64.5648 151.953 65.2617C151.946 65.9753 151.727 66.6705 151.323 67.259C150.945 67.7841 150.467 68.2299 149.917 68.5714C148.932 69.1803 147.853 69.6194 146.723 69.8703L146.833 69.8275L144.844 70.669L142.838 71.4757L142.778 71.4998C142.77 71.5032 142.761 71.5057 142.752 71.5073C141.96 71.6457 141.171 71.7654 140.43 71.8627C139.689 71.958 139 72.0511 138.362 72.1607ZM138.362 72.1607C139.15 71.9044 139.887 71.6316 140.57 71.361C141.254 71.0924 141.89 70.8461 142.524 70.6186L142.438 70.6502L144.314 69.574L146.206 68.5327C146.216 68.5271 146.227 68.5223 146.238 68.5183L146.317 68.4899C147.257 68.182 148.151 67.7441 148.97 67.1889C149.321 66.946 149.626 66.642 149.869 66.2914C150.067 65.9838 150.168 65.6246 150.161 65.2592C150.148 64.8798 150.04 64.5096 149.847 64.1827C149.654 63.8558 149.382 63.5826 149.056 63.3879C148.814 63.2462 148.546 63.1561 148.268 63.1235C147.99 63.0908 147.708 63.1162 147.44 63.1982C147.355 63.2161 147.222 63.2733 147.11 63.3105L146.76 63.4362C144.881 64.2032 143.201 65.3884 141.848 66.902C140.431 68.4712 139.256 70.2437 138.362 72.1607Z" fill="#061E33"/>
<path d="M81.9931 40.838C81.1297 41.5956 80.3879 42.4817 79.7938 43.4651C79.2031 44.4346 78.7146 45.4628 78.336 46.5331L78.053 47.3376L77.8257 48.1617C77.6426 48.704 77.5715 49.2747 77.4235 49.8302C77.3113 50.3928 77.2275 50.9627 77.1164 51.5319C77.0399 52.1048 76.9694 52.6807 76.8637 53.2606C76.8085 52.6788 76.784 52.0927 76.7617 51.5043C76.7903 50.9195 76.7983 50.3284 76.865 49.7427C76.9933 48.5638 77.2585 47.4038 77.6553 46.2863C78.0563 45.1626 78.6206 44.1042 79.3301 43.1453C80.0237 42.1769 80.9361 41.3863 81.9931 40.838Z" fill="#061E33"/>
<path d="M143.829 133.857C144.965 139.188 145.884 144.553 146.75 149.927C147.171 152.615 147.583 155.306 147.953 158.002C148.333 160.697 148.667 163.4 148.955 166.11C148.389 163.444 147.869 160.771 147.395 158.091C146.91 155.413 146.468 152.727 146.035 150.041C145.192 144.663 144.402 139.278 143.829 133.857Z" fill="#061E33"/>
<path d="M122.948 146.899C124.723 146.567 126.501 146.273 128.281 146.016L130.952 145.637L133.625 145.303C137.19 144.869 140.759 144.504 144.332 144.208C146.117 144.037 147.905 143.92 149.693 143.798C151.482 143.682 153.268 143.532 155.059 143.458L160.429 143.188L165.805 143.017L165.444 143.086C166.922 142.636 168.418 142.242 169.904 141.817C171.389 141.388 172.89 141.009 174.387 140.617C175.881 140.213 177.393 139.87 178.898 139.499L181.168 138.987C181.926 138.82 182.691 138.674 183.453 138.516L183.463 138.514C183.485 138.51 183.509 138.514 183.528 138.526C183.548 138.538 183.562 138.557 183.568 138.579C183.574 138.601 183.571 138.625 183.56 138.645C183.55 138.666 183.531 138.681 183.51 138.688L165.935 144.569C165.923 144.573 165.91 144.576 165.898 144.576L155.166 145.247L144.43 145.864L122.959 147.08C122.936 147.081 122.913 147.074 122.896 147.059C122.878 147.044 122.867 147.023 122.864 147C122.861 146.978 122.867 146.955 122.881 146.936C122.894 146.918 122.914 146.905 122.937 146.901L122.948 146.899Z" fill="#061E33"/>
<path d="M124.406 155.934C126.222 155.772 128.036 155.643 129.849 155.56L132.568 155.438L135.286 155.358C138.909 155.267 142.529 155.246 146.147 155.295C147.957 155.294 149.764 155.359 151.572 155.404C153.38 155.453 155.189 155.489 156.995 155.586L162.415 155.839L167.832 156.187L167.265 156.285L171.504 154.818C172.913 154.319 174.346 153.882 175.767 153.414C177.187 152.941 178.631 152.53 180.061 152.085L182.226 151.466L184.406 150.885L184.416 150.883C184.438 150.877 184.462 150.88 184.482 150.89C184.502 150.901 184.517 150.92 184.525 150.941C184.532 150.963 184.53 150.987 184.521 151.008C184.511 151.029 184.494 151.045 184.472 151.054L167.835 157.721C167.816 157.729 167.796 157.732 167.777 157.731L156.931 157.373C153.315 157.255 149.701 157.097 146.087 156.961L124.4 156.115C124.377 156.115 124.355 156.105 124.339 156.089C124.322 156.072 124.313 156.05 124.313 156.027C124.312 156.004 124.32 155.982 124.336 155.965C124.351 155.948 124.372 155.937 124.395 155.935L124.406 155.934Z" fill="#061E33"/>
<path d="M119.461 106.393C122.174 106.101 124.881 105.952 127.586 105.861L129.614 105.793L131.641 105.764C132.992 105.749 134.343 105.721 135.692 105.747L139.741 105.793L143.787 105.923C145.135 105.955 146.482 106.034 147.829 106.108C149.176 106.187 150.524 106.243 151.87 106.34L151.352 106.406L156.068 105.14C157.652 104.755 159.229 104.348 160.818 103.983C162.411 103.628 164 103.261 165.606 102.951C166.406 102.783 167.211 102.634 168.018 102.492C168.822 102.342 169.633 102.213 170.448 102.094L170.461 102.092C170.483 102.089 170.506 102.094 170.525 102.107C170.543 102.12 170.557 102.139 170.562 102.161C170.567 102.183 170.563 102.207 170.552 102.226C170.54 102.246 170.522 102.261 170.5 102.267L161.181 105.17L151.852 108.045C151.834 108.05 151.815 108.052 151.796 108.052L143.709 107.713L135.623 107.343L127.537 106.973L119.453 106.574C119.43 106.573 119.409 106.563 119.393 106.547C119.377 106.531 119.368 106.509 119.367 106.487C119.367 106.464 119.374 106.442 119.389 106.425C119.404 106.408 119.425 106.397 119.448 106.395L119.461 106.393Z" fill="#061E33"/>
<path d="M169.264 177.698C171.783 177.698 173.824 175.655 173.824 173.135C173.824 170.615 171.783 168.572 169.264 168.572C166.746 168.572 164.704 170.615 164.704 173.135C164.704 175.655 166.746 177.698 169.264 177.698Z" fill="#061E33"/>
<path d="M121.191 168.864C121.097 168.835 121.007 168.806 120.916 168.777C121.014 168.778 121.11 168.809 121.191 168.864Z" fill="white"/>
<path d="M76.5561 103.705C76.6969 103.7 76.8304 103.641 76.9283 103.539C77.0262 103.438 77.0809 103.303 77.0809 103.161C77.0809 103.02 77.0262 102.885 76.9283 102.784C76.8304 102.682 76.6969 102.623 76.5561 102.618C76.4152 102.623 76.2818 102.682 76.1839 102.784C76.086 102.885 76.0312 103.02 76.0312 103.161C76.0312 103.303 76.086 103.438 76.1839 103.539C76.2818 103.641 76.4152 103.7 76.5561 103.705Z" fill="#061E33"/>
<path d="M79.686 103.444C79.8269 103.439 79.9604 103.38 80.0583 103.279C80.1562 103.177 80.2109 103.042 80.2109 102.901C80.2109 102.759 80.1562 102.624 80.0583 102.523C79.9604 102.421 79.8269 102.362 79.686 102.357C79.5452 102.362 79.4117 102.421 79.3138 102.523C79.2159 102.624 79.1611 102.759 79.1611 102.901C79.1611 103.042 79.2159 103.177 79.3138 103.279C79.4117 103.38 79.5452 103.439 79.686 103.444Z" fill="#061E33"/>
<path d="M82.8159 101.487C82.9568 101.482 83.0902 101.423 83.1882 101.321C83.2861 101.22 83.3408 101.084 83.3408 100.943C83.3408 100.802 83.2861 100.667 83.1882 100.565C83.0902 100.464 82.9568 100.404 82.8159 100.399C82.6751 100.404 82.5416 100.464 82.4437 100.565C82.3458 100.667 82.291 100.802 82.291 100.943C82.291 101.084 82.3458 101.22 82.4437 101.321C82.5416 101.423 82.6751 101.482 82.8159 101.487Z" fill="#061E33"/>
<path d="M85.9448 98.2246C86.0856 98.2198 86.2191 98.1603 86.317 98.0589C86.4149 97.9575 86.4696 97.8219 86.4696 97.6809C86.4696 97.5399 86.4149 97.4044 86.317 97.3029C86.2191 97.2015 86.0856 97.1421 85.9448 97.1372C85.8039 97.1421 85.6705 97.2015 85.5726 97.3029C85.4747 97.4044 85.4199 97.5399 85.4199 97.6809C85.4199 97.8219 85.4747 97.9575 85.5726 98.0589C85.6705 98.1603 85.8039 98.2198 85.9448 98.2246Z" fill="#061E33"/>
<path d="M88.4233 94.7013C88.5641 94.6964 88.6976 94.637 88.7955 94.5356C88.8934 94.4341 88.9481 94.2986 88.9481 94.1576C88.9481 94.0166 88.8934 93.8811 88.7955 93.7796C88.6976 93.6782 88.5641 93.6188 88.4233 93.6139C88.2824 93.6188 88.149 93.6782 88.0511 93.7796C87.9532 93.8811 87.8984 94.0166 87.8984 94.1576C87.8984 94.2986 87.9532 94.4341 88.0511 94.5356C88.149 94.637 88.2824 94.6964 88.4233 94.7013Z" fill="#061E33"/>
<path d="M90.1176 91.3085C90.2585 91.3036 90.3919 91.2442 90.4898 91.1428C90.5877 91.0413 90.6425 90.9058 90.6425 90.7648C90.6425 90.6238 90.5877 90.4882 90.4898 90.3868C90.3919 90.2854 90.2585 90.2259 90.1176 90.2211C89.9768 90.2259 89.8433 90.2854 89.7454 90.3868C89.6475 90.4882 89.5928 90.6238 89.5928 90.7648C89.5928 90.9058 89.6475 91.0413 89.7454 91.1428C89.8433 91.2442 89.9768 91.3036 90.1176 91.3085Z" fill="#061E33"/>
<path d="M91.5522 88.0462C91.6931 88.0413 91.8266 87.9819 91.9245 87.8804C92.0224 87.779 92.0771 87.6435 92.0771 87.5025C92.0771 87.3614 92.0224 87.2259 91.9245 87.1245C91.8266 87.023 91.6931 86.9636 91.5522 86.9587C91.4114 86.9636 91.2779 87.023 91.18 87.1245C91.0821 87.2259 91.0273 87.3614 91.0273 87.5025C91.0273 87.6435 91.0821 87.779 91.18 87.8804C91.2779 87.9819 91.4114 88.0413 91.5522 88.0462Z" fill="#061E33"/>
<path d="M92.7261 84.5231C92.8669 84.5182 93.0004 84.4588 93.0983 84.3574C93.1962 84.2559 93.251 84.1204 93.251 83.9794C93.251 83.8383 93.1962 83.7028 93.0983 83.6014C93.0004 83.5 92.8669 83.4405 92.7261 83.4357C92.5852 83.4405 92.4518 83.5 92.3538 83.6014C92.2559 83.7028 92.2012 83.8383 92.2012 83.9794C92.2012 84.1204 92.2559 84.2559 92.3538 84.3574C92.4518 84.4588 92.5852 84.5182 92.7261 84.5231Z" fill="#061E33"/>
<path d="M96.7514 74.0838C96.8923 74.0789 97.0257 74.0195 97.1236 73.918C97.2215 73.8166 97.2763 73.6811 97.2763 73.5401C97.2763 73.399 97.2215 73.2635 97.1236 73.1621C97.0257 73.0606 96.8923 73.0012 96.7514 72.9963C96.6106 73.0012 96.4771 73.0606 96.3792 73.1621C96.2813 73.2635 96.2266 73.399 96.2266 73.5401C96.2266 73.6811 96.2813 73.8166 96.3792 73.918C96.4771 74.0195 96.6106 74.0789 96.7514 74.0838Z" fill="#061E33"/>
<path d="M97.0297 70.6909C97.1706 70.6861 97.304 70.6266 97.4019 70.5252C97.4998 70.4238 97.5546 70.2883 97.5546 70.1472C97.5546 70.0062 97.4998 69.8707 97.4019 69.7692C97.304 69.6678 97.1706 69.6084 97.0297 69.6035C96.8889 69.6084 96.7554 69.6678 96.6575 69.7692C96.5596 69.8707 96.5049 70.0062 96.5049 70.1472C96.5049 70.2883 96.5596 70.4238 96.6575 70.5252C96.7554 70.6266 96.8889 70.6861 97.0297 70.6909Z" fill="#061E33"/>
<path d="M96.8989 67.2982C97.0398 67.2934 97.1732 67.2339 97.2711 67.1325C97.3691 67.0311 97.4238 66.8956 97.4238 66.7545C97.4238 66.6135 97.3691 66.478 97.2711 66.3765C97.1732 66.2751 97.0398 66.2157 96.8989 66.2108C96.7581 66.2157 96.6246 66.2751 96.5267 66.3765C96.4288 66.478 96.374 66.6135 96.374 66.7545C96.374 66.8956 96.4288 67.0311 96.5267 67.1325C96.6246 67.2339 96.7581 67.2934 96.8989 67.2982Z" fill="#061E33"/>
<path d="M96.6382 63.775C96.779 63.7702 96.9125 63.7108 97.0104 63.6093C97.1084 63.5079 97.1631 63.3724 97.1631 63.2313C97.1631 63.0903 97.1084 62.9548 97.0104 62.8533C96.9125 62.7519 96.779 62.6925 96.6382 62.6876C96.4973 62.6925 96.3639 62.7519 96.2659 62.8533C96.168 62.9548 96.1133 63.0903 96.1133 63.2313C96.1133 63.3724 96.168 63.5079 96.2659 63.6093C96.3639 63.7108 96.4973 63.7702 96.6382 63.775Z" fill="#061E33"/>
<path d="M95.9858 59.3382C96.1267 59.3333 96.2602 59.2739 96.3581 59.1724C96.456 59.071 96.5107 58.9355 96.5107 58.7944C96.5107 58.6534 96.456 58.5179 96.3581 58.4164C96.2602 58.315 96.1267 58.2556 95.9858 58.2507C95.845 58.2556 95.7115 58.315 95.6136 58.4164C95.5157 58.5179 95.4609 58.6534 95.4609 58.7944C95.4609 58.9355 95.5157 59.071 95.6136 59.1724C95.7115 59.2739 95.845 59.3333 95.9858 59.3382Z" fill="#061E33"/>
<path d="M95.5952 55.1626C95.7361 55.1578 95.8695 55.0983 95.9675 54.9969C96.0654 54.8955 96.1201 54.7599 96.1201 54.6189C96.1201 54.4779 96.0654 54.3423 95.9675 54.2409C95.8695 54.1395 95.7361 54.0801 95.5952 54.0752C95.4544 54.0801 95.3209 54.1395 95.223 54.2409C95.125 54.3423 95.0703 54.4779 95.0703 54.6189C95.0703 54.7599 95.125 54.8955 95.223 54.9969C95.3209 55.0983 95.4544 55.1578 95.5952 55.1626Z" fill="#061E33"/>
<path d="M94.5512 51.2478C94.6921 51.2429 94.8255 51.1835 94.9234 51.0821C95.0213 50.9807 95.076 50.8451 95.076 50.7041C95.076 50.5631 95.0213 50.4276 94.9234 50.3261C94.8255 50.2247 94.6921 50.1653 94.5512 50.1604C94.4104 50.1653 94.2769 50.2247 94.179 50.3261C94.0811 50.4276 94.0264 50.5631 94.0264 50.7041C94.0264 50.8451 94.0811 50.9807 94.179 51.0821C94.2769 51.1835 94.4104 51.2429 94.5512 51.2478Z" fill="#061E33"/>
<path d="M83.1587 73.3397C83.2995 73.3349 83.433 73.2755 83.5309 73.174C83.6288 73.0726 83.6836 72.9371 83.6836 72.796C83.6836 72.655 83.6288 72.5195 83.5309 72.418C83.433 72.3166 83.2995 72.2572 83.1587 72.2523C83.0178 72.2572 82.8844 72.3166 82.7864 72.418C82.6885 72.5195 82.6338 72.655 82.6338 72.796C82.6338 72.9371 82.6885 73.0726 82.7864 73.174C82.8844 73.2755 83.0178 73.3349 83.1587 73.3397Z" fill="#061E33"/>
<path d="M84.4936 70.7686C84.6344 70.7637 84.7679 70.7043 84.8658 70.6028C84.9637 70.5014 85.0184 70.3659 85.0184 70.2249C85.0184 70.0838 84.9637 69.9483 84.8658 69.8469C84.7679 69.7455 84.6344 69.686 84.4936 69.6812C84.3528 69.686 84.2193 69.7455 84.1214 69.8469C84.0235 69.9483 83.9688 70.0838 83.9688 70.2249C83.9688 70.3659 84.0235 70.5014 84.1214 70.6028C84.2193 70.7043 84.3528 70.7637 84.4936 70.7686Z" fill="#061E33"/>
<path d="M87.3276 69.427C87.4684 69.4221 87.6019 69.3627 87.6998 69.2613C87.7977 69.1599 87.8524 69.0243 87.8524 68.8833C87.8524 68.7423 87.7977 68.6068 87.6998 68.5053C87.6019 68.4039 87.4684 68.3445 87.3276 68.3396C87.1867 68.3445 87.0533 68.4039 86.9554 68.5053C86.8575 68.6068 86.8027 68.7423 86.8027 68.8833C86.8027 69.0243 86.8575 69.1599 86.9554 69.2613C87.0533 69.3627 87.1867 69.4221 87.3276 69.427Z" fill="#061E33"/>
<path d="M89.2543 67.2963C89.3952 67.2914 89.5286 67.232 89.6265 67.1305C89.7245 67.0291 89.7792 66.8936 89.7792 66.7526C89.7792 66.6115 89.7245 66.476 89.6265 66.3746C89.5286 66.2732 89.3952 66.2137 89.2543 66.2089C89.1135 66.2137 88.98 66.2732 88.8821 66.3746C88.7842 66.476 88.7295 66.6115 88.7295 66.7526C88.7295 66.8936 88.7842 67.0291 88.8821 67.1305C88.98 67.232 89.1135 67.2914 89.2543 67.2963Z" fill="#061E33"/>
<path d="M91.2759 65.8109C91.4167 65.8061 91.5502 65.7466 91.6481 65.6452C91.746 65.5438 91.8008 65.4083 91.8008 65.2672C91.8008 65.1262 91.746 64.9907 91.6481 64.8892C91.5502 64.7878 91.4167 64.7284 91.2759 64.7235C91.135 64.7284 91.0016 64.7878 90.9036 64.8892C90.8057 64.9907 90.751 65.1262 90.751 65.2672C90.751 65.4083 90.8057 65.5438 90.9036 65.6452C91.0016 65.7466 91.135 65.8061 91.2759 65.8109Z" fill="#061E33"/>
<path d="M100.29 63.2531C100.43 63.2482 100.564 63.1888 100.662 63.0874C100.76 62.9859 100.814 62.8504 100.814 62.7094C100.814 62.5683 100.76 62.4328 100.662 62.3314C100.564 62.2299 100.43 62.1705 100.29 62.1656C100.149 62.1705 100.015 62.2299 99.9173 62.3314C99.8194 62.4328 99.7646 62.5683 99.7646 62.7094C99.7646 62.8504 99.8194 62.9859 99.9173 63.0874C100.015 63.1888 100.149 63.2482 100.29 63.2531Z" fill="#061E33"/>
<path d="M181.37 175.305C182.721 174.774 184.045 174.211 185.342 173.6C185.987 173.287 186.63 172.974 187.253 172.627C187.879 172.287 188.496 171.931 189.083 171.534C190.279 170.787 191.353 169.862 192.269 168.79C193.186 167.701 193.724 166.343 193.803 164.921C193.918 165.652 193.876 166.399 193.681 167.112C193.48 167.835 193.155 168.517 192.722 169.129C191.84 170.327 190.74 171.349 189.48 172.14C188.247 172.933 186.935 173.596 185.565 174.118C184.209 174.652 182.804 175.049 181.37 175.305Z" fill="#061E33"/>
<path d="M190.06 177.26C191.49 176.326 192.87 175.338 194.201 174.296C195.531 173.263 196.784 172.134 197.951 170.92C199.119 169.725 200.113 168.37 200.903 166.897C201.697 165.41 202.097 163.744 202.063 162.058C202.383 163.779 202.156 165.556 201.413 167.14C200.686 168.723 199.693 170.17 198.477 171.418C197.28 172.66 195.959 173.776 194.536 174.75C193.131 175.733 191.631 176.574 190.06 177.26Z" fill="#061E33"/>
<path d="M177.118 69.2545C176.152 68.1713 175.164 67.1241 174.141 66.1194C173.624 65.6232 173.107 65.1291 172.565 64.6651C172.029 64.195 171.481 63.7399 170.905 63.3268C169.79 62.4651 168.549 61.7788 167.227 61.2916C165.888 60.8095 164.428 60.7763 163.068 61.197C163.713 60.8351 164.428 60.6144 165.164 60.5494C165.911 60.4874 166.663 60.5549 167.387 60.749C168.817 61.1598 170.156 61.8366 171.335 62.7439C172.507 63.6256 173.584 64.6267 174.549 65.7309C175.52 66.8172 176.381 67.9975 177.118 69.2545Z" fill="#061E33"/>
<path d="M175.097 57.4221C173.725 56.4045 172.32 55.4523 170.881 54.5655C169.45 53.677 167.957 52.8931 166.414 52.22C164.888 51.5395 163.274 51.0778 161.619 50.8485C159.95 50.62 158.25 50.8239 156.682 51.4407C158.182 50.5434 159.926 50.1392 161.669 50.285C163.405 50.4172 165.107 50.8463 166.698 51.5537C168.278 52.2454 169.783 53.0967 171.19 54.0943C172.6 55.0707 173.908 56.1855 175.097 57.4221Z" fill="#061E33"/>
<path d="M75.9408 26.9994C75.0227 28.124 74.1434 29.2637 73.3115 30.4319C72.9026 31.0208 72.4957 31.6088 72.1224 32.2169C71.7421 32.82 71.3784 33.4327 71.0607 34.0665C70.3845 35.3038 69.9009 36.6371 69.6266 38.0205C69.36 39.4194 69.5552 40.8672 70.1829 42.1454C69.725 41.5646 69.3955 40.893 69.2163 40.1751C69.0384 39.4466 68.9876 38.6928 69.0661 37.947C69.2481 36.4697 69.7068 35.0399 70.4182 33.7326C71.1054 32.4368 71.9252 31.2158 72.8644 30.0893C73.7848 28.9597 74.8154 27.9246 75.9408 26.9994Z" fill="#061E33"/>
<path d="M64.5775 30.8461C63.7875 32.3611 63.0672 33.8989 62.4167 35.4595C61.7632 37.0123 61.2227 38.6103 60.7995 40.241C60.3662 41.8555 60.1626 43.5231 60.1949 45.1944C60.2302 46.8802 60.697 48.5287 61.5509 49.9823C60.4307 48.6391 59.7592 46.9784 59.6309 45.2337C59.4901 43.4965 59.6479 41.748 60.0974 40.0641C60.5333 38.3947 61.1384 36.7742 61.9033 35.2279C62.6468 33.6819 63.5426 32.214 64.5775 30.8461Z" fill="#061E33"/>
<path d="M136.292 129.275C133.936 130.383 131.571 131.471 129.206 132.557L125.659 134.188L122.105 135.802L121.931 135.074L122.13 135.06C122.226 135.054 122.32 135.084 122.394 135.145C122.469 135.206 122.517 135.292 122.53 135.387L122.531 135.398L124.282 148.846L125.948 162.305L125.421 161.757L135.943 163.383C139.449 163.93 142.951 164.508 146.452 165.089L167.446 168.657L167.397 168.654C169.1 168.62 170.8 168.466 172.482 168.193C174.167 167.935 175.826 167.524 177.437 166.966C179.049 166.434 180.558 165.632 181.901 164.594C183.235 163.568 184.2 162.137 184.652 160.516L184.645 160.587C184.511 157.704 184.399 154.821 184.247 151.939L183.802 143.293L183.344 134.648L182.903 126.002L183.7 126.516L174.569 130.305L165.438 134.06L165.431 134.063C165.356 134.094 165.276 134.112 165.194 134.117L154.444 134.676L143.692 135.203L132.939 135.685L122.183 136.132L122.153 136.133C121.986 136.139 121.822 136.082 121.696 135.973C121.569 135.864 121.488 135.711 121.469 135.545L120.341 125.244C119.968 121.813 119.583 118.384 119.235 114.951L118.165 104.655L117.138 94.3543L117.138 94.3486C117.134 94.3097 117.144 94.2707 117.167 94.239C117.59 93.6435 118.119 93.1311 118.727 92.7273C119.336 92.3381 120.001 92.0451 120.699 91.8586C120.717 91.8534 120.736 91.8556 120.753 91.8646C120.77 91.8736 120.782 91.8888 120.788 91.9069C120.793 91.925 120.792 91.9446 120.783 91.9614C120.774 91.9783 120.759 91.9911 120.741 91.9971C120.072 92.2094 119.44 92.5236 118.866 92.9286C118.306 93.3411 117.824 93.8496 117.442 94.4303L117.47 94.3151L118.866 104.569L120.218 114.827C120.677 118.245 121.099 121.668 121.534 125.088L122.832 135.341L122.118 134.754L132.868 134.186L143.62 133.656L154.373 133.167L165.128 132.709L164.884 132.766L174.075 129.086L183.265 125.441L183.274 125.438C183.416 125.381 183.575 125.384 183.715 125.444C183.855 125.505 183.965 125.619 184.021 125.761C184.045 125.823 184.059 125.889 184.061 125.955L184.324 134.608L184.569 143.262L184.826 151.916C184.908 154.8 185.03 157.683 185.131 160.567L185.131 160.571C185.132 160.593 185.129 160.616 185.123 160.638C184.632 162.353 183.6 163.862 182.18 164.941C181.491 165.478 180.755 165.953 179.981 166.36C179.207 166.755 178.409 167.101 177.591 167.396C175.955 167.967 174.274 168.401 172.566 168.693C170.859 168.995 169.134 169.182 167.403 169.254C167.391 169.254 167.378 169.254 167.366 169.252L167.353 169.25L146.272 166.243C142.76 165.728 139.249 165.211 135.743 164.662L125.227 163L125.222 162.999C125.087 162.978 124.963 162.913 124.869 162.814C124.774 162.715 124.715 162.588 124.699 162.452L123.192 148.975L121.77 135.488L122.172 135.826L121.972 135.834L121.961 135.834C121.872 135.838 121.784 135.81 121.714 135.756C121.643 135.702 121.594 135.625 121.575 135.538C121.555 135.451 121.567 135.36 121.608 135.281C121.649 135.202 121.716 135.14 121.798 135.106C122.999 134.6 124.194 134.088 125.399 133.595L129.008 132.104C131.413 131.109 133.819 130.115 136.234 129.142C136.252 129.135 136.271 129.135 136.289 129.142C136.306 129.149 136.32 129.163 136.328 129.18C136.335 129.197 136.336 129.217 136.329 129.235C136.322 129.252 136.309 129.267 136.292 129.275L136.292 129.275Z" fill="#061E33"/>
<path d="M184.888 160.577C184.089 163.65 181.441 165.597 178.439 166.829C178.813 167.381 179.302 167.844 179.873 168.186C180.444 168.528 181.083 168.741 181.745 168.809C182.407 168.878 183.076 168.801 183.705 168.583C184.334 168.365 184.908 168.012 185.386 167.548C185.864 167.085 186.235 166.522 186.473 165.9C186.71 165.278 186.809 164.611 186.761 163.947C186.714 163.282 186.522 162.636 186.198 162.054C185.874 161.472 185.427 160.968 184.888 160.577Z" fill="#061E33"/>
<path d="M131.647 171.845C134.165 171.845 136.207 169.802 136.207 167.281C136.207 164.761 134.165 162.718 131.647 162.718C129.129 162.718 127.087 164.761 127.087 167.281C127.087 169.802 129.129 171.845 131.647 171.845Z" fill="#061E33"/>
<path d="M117.264 94.298L125.567 94.7975L133.991 95.3306C136.815 95.5234 139.648 95.7089 142.487 95.9251C145.325 96.1358 148.165 96.3505 151.001 96.593L150.831 96.6094L155.538 95.3247L160.257 94.079L169.693 91.5871L169.698 91.5859C169.751 91.5718 169.808 91.5795 169.856 91.6072C169.903 91.635 169.938 91.6806 169.952 91.7339C169.954 91.7431 169.956 91.7525 169.957 91.762L170.555 96.6959C170.756 98.3403 170.969 99.9832 171.193 101.625L171.852 106.551L172.548 111.472C172.556 111.529 172.544 111.588 172.515 111.638C172.486 111.688 172.44 111.727 172.386 111.748L172.379 111.751L162.624 115.519L152.848 119.231C152.798 119.25 152.745 119.261 152.692 119.262L152.682 119.262L144.578 119.464C141.877 119.536 139.176 119.596 136.474 119.645L128.369 119.776L120.263 119.863L120.253 119.863C120.133 119.864 120.017 119.82 119.927 119.74C119.837 119.66 119.78 119.55 119.767 119.43L119.094 113.074C118.866 110.957 118.676 108.85 118.468 106.75L117.264 94.298ZM117.342 94.3735L119.089 106.959C119.372 109.032 119.674 111.097 119.938 113.153L120.74 119.316L120.244 118.883L128.348 118.661L136.452 118.484C139.154 118.43 141.855 118.387 144.557 118.356L152.663 118.248L152.497 118.28L162.337 114.742L172.198 111.26L172.029 111.539L171.456 106.602L170.845 101.669C170.646 100.025 170.436 98.3816 170.215 96.7398L169.542 91.8155L169.806 91.9903L160.455 94.7842L155.779 96.1814L151.092 97.5396C151.04 97.5549 150.985 97.5607 150.93 97.5567L150.923 97.556C148.148 97.3421 145.379 97.1003 142.607 96.8545C139.836 96.6143 137.059 96.3433 134.274 96.0797L117.342 94.3735Z" fill="#061E33"/>
<path d="M140.436 164.803L139.889 164.724L139.711 163.573L138.556 149.658L137.455 135.557L137.324 133.894L137.893 133.857C137.976 134.416 138.056 134.977 138.132 135.536C138.299 136.732 138.447 137.928 138.592 139.128C138.817 140.864 138.976 142.604 139.168 144.344L139.635 149.571L140.008 154.801C140.099 156.548 140.222 158.295 140.276 160.043C140.327 161.257 140.371 162.471 140.399 163.685C140.418 164.385 140.428 164.104 140.436 164.803Z" fill="#061E33"/>
<path d="M155.815 167.147L155.225 167.06L155.055 166.107L153.704 151.318L152.287 134.977L152.226 133.63L152.715 133.605C152.816 134.239 152.809 134.318 152.903 134.952C153.15 136.616 153.37 138.283 153.581 139.951C153.83 141.825 154.015 143.706 154.233 145.583L154.783 151.224L155.236 156.871C155.352 158.759 155.5 160.641 155.584 162.529C155.649 163.762 155.707 164.99 155.754 166.223C155.776 166.835 155.797 166.534 155.815 167.147Z" fill="#061E33"/>
<path d="M165.187 132.853L165.378 134.343L167.012 148.853L169.287 168.166L169.388 169.014C169.39 169.027 169.397 169.039 169.407 169.048C169.417 169.056 169.429 169.061 169.443 169.061C169.457 169.061 169.47 169.055 169.481 169.045C169.491 169.035 169.496 169.021 169.497 169.007V168.999C169.497 168.717 169.493 168.434 169.49 168.151C169.457 165.034 169.28 161.935 169.048 158.836C168.939 157.146 168.765 155.465 168.62 153.775C168.457 152.094 168.265 150.412 168.088 148.73L167.461 143.695C167.215 142.02 167.005 140.342 166.726 138.671C166.49 137.152 166.237 135.63 165.965 134.115C165.849 133.481 165.759 133.31 165.632 132.675L165.187 132.853Z" fill="#061E33"/>
<path d="M179.205 167.049C179.031 167.129 178.857 167.209 178.68 167.281L178.56 166.219L176.492 147.979L174.579 130.476L174.476 129.321L174.994 129.122C175.088 129.662 175.097 129.674 175.184 130.215C175.467 131.951 175.732 133.687 175.981 135.423C176.3 137.493 176.546 139.566 176.829 141.636L177.568 147.86L178.212 154.094C178.393 156.175 178.607 158.256 178.752 160.34C178.897 162.214 179.035 164.091 179.143 165.969C179.165 166.328 179.187 166.69 179.205 167.049Z" fill="#061E33"/>
<path d="M162.626 167.397C162.626 167.937 162.63 167.775 162.626 168.315C162.427 168.286 162.228 168.26 162.028 168.231L161.938 167.278L161.119 151.405L160.33 134.619L160.235 133.426C160.409 133.419 160.587 133.411 160.761 133.4C160.837 134.046 160.905 133.941 160.967 134.586C161.134 136.195 161.279 137.801 161.413 139.411C161.597 141.397 161.713 143.391 161.862 145.381L162.206 151.354L162.448 157.331C162.499 159.325 162.579 161.319 162.59 163.316C162.612 164.675 162.626 166.038 162.626 167.397Z" fill="#061E33"/>
<path d="M132.101 162.33C132.105 163.066 132.105 163.805 132.097 164.544L131.561 164.465L131.409 162.217L130.54 149.342L129.703 135.807L129.616 134.368C129.797 134.358 129.982 134.347 130.163 134.336C130.232 134.822 130.297 135.304 130.359 135.789C130.515 137.033 130.656 138.28 130.79 139.526C130.982 141.147 131.105 142.774 131.261 144.394L131.627 149.27C131.713 150.897 131.815 152.525 131.891 154.152C131.945 155.78 132.032 157.407 132.05 159.039C132.076 160.133 132.093 161.23 132.101 162.33Z" fill="#061E33"/>
<path d="M149.01 167.06L148.43 166.977L148.187 164.965L146.463 150.676L144.685 135.293L144.61 134.075L145.128 134.046C145.244 134.648 145.221 134.662 145.329 135.267C145.587 136.735 145.825 138.207 146.057 139.679C146.354 141.484 146.586 143.296 146.851 145.109L147.543 150.549L148.136 156.001C148.299 157.824 148.495 159.64 148.626 161.467C148.723 162.67 148.814 163.874 148.89 165.081C148.933 165.741 148.973 166.4 149.01 167.06Z" fill="#061E33"/>
<path d="M142.001 122.083C141.828 121.862 141.691 121.615 141.594 121.351C141.501 121.103 141.433 120.846 141.39 120.585C141.347 120.323 141.33 120.059 141.34 119.794C141.347 119.513 141.399 119.234 141.494 118.97C141.668 119.191 141.806 119.438 141.902 119.702C141.995 119.95 142.063 120.207 142.105 120.468C142.148 120.729 142.164 120.994 142.154 121.259C142.147 121.54 142.095 121.818 142.001 122.083Z" fill="#061E33"/>
<path d="M142.288 165.031C142.565 165.8 143.043 166.48 143.673 167.001C144.303 167.521 145.061 167.862 145.869 167.989C146.676 168.115 147.502 168.021 148.261 167.718C149.019 167.414 149.682 166.912 150.18 166.264L142.288 165.031Z" fill="#061E33"/>
<path d="M106.851 87.0351C106.688 86.982 106.55 86.8717 106.463 86.7246C106.375 86.5775 106.343 86.4036 106.374 86.235C106.404 86.0664 106.494 85.9145 106.628 85.8073C106.761 85.7001 106.929 85.645 107.1 85.652L107.139 85.6537C107.79 85.6883 108.442 85.7124 109.086 85.7782L110.056 85.8624L110.54 85.9045C110.702 85.9209 110.897 85.949 111.073 85.9787C112.541 86.2262 113.919 86.8517 115.073 87.7938C116.233 88.7393 117.132 89.967 117.684 91.3595C117.955 92.0488 118.137 92.7701 118.224 93.5057L118.328 94.5145L118.433 95.4788L118.842 99.3374L119.642 107.057C119.916 109.629 120.156 112.206 120.409 114.781C120.659 117.356 120.915 119.931 121.142 122.509C121.616 127.663 122.067 132.821 122.45 137.987C121.598 132.882 120.813 127.769 120.05 122.653C119.659 120.096 119.297 117.536 118.929 114.976C118.563 112.416 118.185 109.857 117.841 107.294L116.787 99.6081L116.269 95.7638L116.142 94.8025C116.111 94.4951 116.061 94.1898 115.994 93.8883C115.861 93.3492 115.675 92.8249 115.437 92.3231C114.962 91.3249 114.285 90.436 113.449 89.7123C112.613 88.9887 111.637 88.4459 110.582 88.1182L108.757 87.6103C108.13 87.447 107.51 87.2418 106.889 87.0472L106.851 87.0351Z" fill="#061E33"/>
<path d="M92.01 66.1297C92.3778 66.7932 92.7362 67.4614 93.0933 68.1302C93.45 68.7992 93.8138 69.4647 94.1602 70.1388L95.2104 72.1556C95.5578 72.8292 95.9167 73.4971 96.2546 74.1754L96.1751 74.0788C97.2174 74.862 98.3124 75.5724 99.4523 76.205C100.024 76.5167 100.601 76.8188 101.193 77.0885C101.779 77.3694 102.376 77.6279 102.983 77.8641C104.194 78.345 105.434 78.7476 106.696 79.0692C107.964 79.3857 109.254 79.6098 110.554 79.74L110.541 79.7395C111.509 79.7645 112.476 79.7745 113.443 79.7874L113.421 79.7895C113.856 79.7442 114.295 79.8283 114.683 80.0312C115.062 80.2126 115.42 80.4323 115.754 80.6869C116.424 81.1856 117.021 81.7767 117.525 82.4425C117.793 82.7782 117.998 83.16 118.129 83.5692C118.162 83.6845 118.173 83.8047 118.164 83.9242C118.145 84.0444 118.102 84.1595 118.038 84.2628C117.935 84.4499 117.823 84.6245 117.708 84.7992C117.592 84.9735 117.476 85.1436 117.339 85.3139C117.297 85.3689 117.248 85.4178 117.193 85.4594C117.128 85.4995 117.098 85.5127 117.049 85.5412L116.779 85.691C116.598 85.7908 116.416 85.89 116.228 85.9846C116.134 86.0317 116.04 86.078 115.94 86.1214C115.825 86.177 115.702 86.2139 115.575 86.2306L115.754 86.1147C115.665 86.3127 115.531 86.4866 115.362 86.6216C115.185 86.7538 114.976 86.8373 114.756 86.864C114.551 86.886 114.343 86.8746 114.14 86.8302C113.942 86.7896 113.749 86.7255 113.565 86.6393L113.915 86.4984C113.869 86.6425 113.805 86.7799 113.724 86.9074C113.636 87.0448 113.521 87.1628 113.385 87.254C113.246 87.3465 113.087 87.4065 112.922 87.4296C112.756 87.4536 112.587 87.4443 112.425 87.4021C112.369 87.3883 112.32 87.3543 112.288 87.3066L112.269 87.2795C112.074 86.9725 111.837 86.6944 111.565 86.4535C111.29 86.2117 110.985 86.0066 110.657 85.8436C110.326 85.6779 109.98 85.5455 109.623 85.4481C109.271 85.3488 108.91 85.2836 108.545 85.2531L108.535 85.2524L108.514 85.25C106.109 84.8799 103.752 84.4022 101.388 83.9083C99.028 83.4033 96.6779 82.8621 94.3401 82.2329C93.1376 81.9479 91.9834 81.4881 90.9142 80.8681C89.8474 80.2385 88.8973 79.4292 88.1058 78.4759C87.7136 78.0018 87.3612 77.496 87.0522 76.9638C86.754 76.4333 86.4829 75.888 86.24 75.33L84.7454 72.0348C84.7415 72.0263 84.7411 72.0165 84.7443 72.0077C84.7475 71.9988 84.7539 71.9915 84.7624 71.9873C84.7708 71.9832 84.7805 71.9824 84.7895 71.9853C84.7984 71.9882 84.8059 71.9944 84.8104 72.0027L86.521 75.1909C86.8085 75.7245 87.067 76.2634 87.3937 76.7549C87.7133 77.2517 88.0734 77.7213 88.4704 78.1589C89.2636 79.0285 90.1911 79.7652 91.2175 80.3409C91.7277 80.6275 92.2621 80.869 92.8143 81.0627C93.3739 81.2538 93.9432 81.4152 94.5198 81.5462C96.8476 82.1246 99.2018 82.635 101.551 83.1539C103.9 83.6608 106.257 84.1925 108.611 84.5878L108.58 84.5847C108.995 84.6229 109.405 84.703 109.803 84.8239C110.198 84.9434 110.58 85.1018 110.944 85.2968C111.312 85.4931 111.653 85.7362 111.958 86.0201C112.265 86.3068 112.529 86.6353 112.744 86.9961L112.588 86.8735C112.674 86.8951 112.763 86.9012 112.851 86.8917C112.94 86.8837 113.026 86.8556 113.102 86.8096C113.181 86.7607 113.249 86.6962 113.302 86.6199C113.362 86.5337 113.41 86.4403 113.446 86.3419L113.451 86.3275C113.476 86.2668 113.523 86.2182 113.583 86.1924C113.643 86.1667 113.711 86.1659 113.772 86.1902L113.795 86.2009C113.938 86.274 114.089 86.3307 114.245 86.3697C114.396 86.4101 114.553 86.4261 114.709 86.417C114.852 86.4061 114.989 86.3584 115.108 86.2786C115.227 86.1903 115.323 86.0752 115.388 85.9427L115.403 85.9185C115.42 85.8903 115.444 85.8671 115.473 85.851C115.501 85.835 115.534 85.8266 115.567 85.8267C115.643 85.8126 115.718 85.7899 115.79 85.7592C115.88 85.7239 115.972 85.6832 116.063 85.6416C116.246 85.5574 116.429 85.4664 116.611 85.3742L116.886 85.2346L117.013 85.1692C117.006 85.1764 117.058 85.1259 117.083 85.0961C117.209 84.9502 117.332 84.7853 117.45 84.6213C117.567 84.4566 117.683 84.288 117.785 84.1185C117.833 84.0493 117.868 83.9713 117.886 83.8889C117.896 83.8032 117.889 83.7164 117.867 83.6331C117.748 83.2565 117.563 82.9041 117.321 82.5926C116.838 81.9391 116.266 81.3571 115.621 80.8637C115.302 80.6165 114.956 80.4064 114.59 80.2375C114.244 80.0582 113.853 79.9843 113.465 80.0249L113.443 80.027C112.476 80.0407 111.509 80.0515 110.541 80.0773L110.536 80.0772L110.528 80.0768C109.203 80.0049 107.884 79.8354 106.583 79.5699C103.967 79.0422 101.455 78.0875 99.1481 76.7439C97.9957 76.0784 96.8905 75.3343 95.8403 74.5167L95.8378 74.5148C95.8054 74.4893 95.779 74.4569 95.7607 74.4199C95.4269 73.7396 95.1141 73.0489 94.7898 72.3638L93.825 70.3047C93.4997 69.6202 93.1918 68.927 92.8768 68.2374C92.5622 67.5475 92.2489 66.8571 91.945 66.1619C91.9413 66.1533 91.941 66.1437 91.9442 66.1349C91.9474 66.1262 91.9538 66.119 91.9622 66.1148C91.9705 66.1107 91.9802 66.11 91.9891 66.1127C91.998 66.1155 92.0054 66.1216 92.01 66.1297H92.01Z" fill="#061E33"/>
<path d="M111.268 83.7017C111.843 83.9594 112.368 84.3184 112.817 84.7616C113.045 84.9843 113.248 85.2319 113.421 85.4996C113.614 85.766 113.706 86.0923 113.68 86.4202C113.571 86.1389 113.405 85.8829 113.194 85.6678C112.991 85.4473 112.781 85.2315 112.564 85.0205C112.131 84.5943 111.683 84.1802 111.268 83.7017Z" fill="#061E33"/>
<path d="M113.052 83.0919C113.677 83.3628 114.244 83.7535 114.719 84.2421C114.962 84.4892 115.17 84.7693 115.335 85.0741C115.429 85.2245 115.49 85.393 115.514 85.5686C115.538 85.7443 115.525 85.923 115.475 86.0932C115.434 85.772 115.302 85.4694 115.094 85.2215C114.898 84.9662 114.686 84.7235 114.46 84.4948C114.006 84.0276 113.519 83.587 113.052 83.0919Z" fill="#061E33"/>
<path d="M117.095 85.3209C116.746 84.823 116.468 84.3102 116.171 83.8114C116.028 83.5595 115.874 83.3175 115.716 83.0793C115.563 82.8332 115.368 82.6164 115.139 82.4392C115.447 82.4984 115.727 82.6599 115.933 82.8977C116.145 83.118 116.33 83.3631 116.484 83.6279C116.793 84.1482 117 84.7228 117.095 85.3209Z" fill="#061E33"/>
<path d="M109.431 85.0608L110.846 85.5926L108.207 86.5653L106.891 86.3283L109.431 85.0608Z" fill="#061E33"/>
<path d="M116.016 81.0355L117.205 80.4115L117.784 81.8318L117.201 82.2292L116.016 81.0355Z" fill="#061E33"/>
<path d="M153.388 117.257C153.35 115.727 153.246 114.202 153.173 112.674C153.08 111.148 152.96 109.624 152.855 108.098L152.438 103.531C152.264 102.011 152.124 100.489 151.916 98.9719C151.828 98.2754 151.737 97.5793 151.641 96.8834L150.962 97.0744L150.899 96.9482L151.773 108.186L152.657 118.757L153.429 118.476C153.417 118.07 153.403 117.664 153.388 117.257Z" fill="#061E33"/>
<path d="M159.8 115.018C159.762 113.488 159.658 111.962 159.585 110.435C159.492 108.908 159.372 107.384 159.267 105.859L158.85 101.292C158.676 99.7721 158.537 98.2497 158.328 96.7328C158.241 96.0363 158.149 95.3401 158.053 94.6443L157.374 94.8353L157.312 94.7091L158.185 105.947L159.069 116.518L159.841 116.237C159.829 115.831 159.815 115.424 159.8 115.018Z" fill="#061E33"/>
<path d="M144.98 117.257C144.942 115.727 144.838 114.202 144.765 112.674C144.672 111.148 144.552 109.624 144.447 108.098L144.03 103.531C143.855 102.011 143.716 100.489 143.508 98.9719C143.42 98.2754 143.329 97.5793 143.233 96.8834L142.554 97.0744L142.491 96.9482L143.364 108.186L144.249 118.757L145.02 118.476C145.008 118.07 144.995 117.664 144.98 117.257Z" fill="#061E33"/>
<path d="M135.769 118.099C135.731 116.42 135.627 114.747 135.554 113.071C135.461 111.397 135.341 109.725 135.236 108.053L134.819 103.043C134.645 101.376 134.505 99.7062 134.297 98.0425C134.209 97.2785 134.118 96.5149 134.022 95.7517L133.343 95.9612L133.28 95.8228L134.154 108.148L135.038 119.743L135.809 119.435C135.797 118.99 135.784 118.544 135.769 118.099Z" fill="#061E33"/>
<path d="M126.959 117.538C126.92 115.83 126.816 114.128 126.743 112.424C126.651 110.721 126.53 109.021 126.425 107.319L126.008 102.223C125.834 100.528 125.695 98.8295 125.486 97.1372C125.399 96.3601 125.307 95.5835 125.211 94.8071L124.532 95.0202L124.47 94.8794L125.343 107.417L126.227 119.21L126.999 118.897C126.987 118.444 126.973 117.991 126.959 117.538Z" fill="#061E33"/>
<path d="M167.193 112.894C167.155 111.363 167.051 109.838 166.978 108.31C166.885 106.784 166.765 105.26 166.66 103.735L166.243 99.1671C166.068 97.6475 165.929 96.125 165.72 94.6081C165.633 93.9116 165.541 93.6733 165.446 92.9774L164.767 93.1684L164.704 93.0422L165.577 103.822L166.462 113.866L167.233 113.585C167.233 113.585 167.208 113.3 167.193 112.894Z" fill="#061E33"/>
<path d="M153.987 125.578C152.78 125.675 151.574 125.785 150.367 125.925L150.361 125.926C150.348 125.928 150.335 125.935 150.326 125.945C150.317 125.956 150.313 125.969 150.314 125.983C150.314 125.997 150.32 126.01 150.33 126.019C150.34 126.029 150.354 126.034 150.367 126.034L153.706 126.043C153.794 125.891 153.888 125.735 153.987 125.578Z" fill="#061E33"/>
<path d="M183.482 125.379C182.262 125.306 181.042 125.245 179.822 125.197C178.186 125.113 176.55 125.1 174.913 125.048L170.004 125.002C168.368 125.02 166.732 125.022 165.095 125.053C163.971 125.088 162.847 125.109 161.722 125.145C161.221 125.53 160.667 125.838 160.076 126.061L170.004 126.088L184.113 126.05C184.113 125.879 184.047 125.714 183.93 125.589C183.813 125.465 183.652 125.389 183.482 125.379Z" fill="#061E33"/>
<path d="M168.037 156.731L167.892 156.746L166.222 142.852L165.187 133.402L166.02 133.065C166.23 133.964 166.422 134.864 166.595 135.766C166.842 136.911 166.998 138.067 167.197 139.22C167.367 140.373 167.508 141.529 167.66 142.685C167.769 143.849 167.899 145.009 167.994 146.169C168.059 147.336 168.168 148.499 168.189 149.67C168.301 152.024 168.25 154.384 168.037 156.731Z" fill="#061E33"/>
</svg>
