<svg width="32" height="32" viewBox="0 0 32 32" fill="none" xmlns="http://www.w3.org/2000/svg">
<circle cx="16" cy="16" r="16" fill="white"/>
<circle cx="16" cy="16" r="15.5" stroke="#2A2D35" stroke-opacity="0.26"/>
<path d="M25.8055 14.0415H25V14H16V18H21.6515C20.827 20.3285 18.6115 22 16 22C12.6865 22 10 19.3135 10 16C10 12.6865 12.6865 10 16 10C17.5295 10 18.921 10.577 19.9805 11.5195L22.809 8.691C21.023 7.0265 18.634 6 16 6C10.4775 6 6 10.4775 6 16C6 21.5225 10.4775 26 16 26C21.5225 26 26 21.5225 26 16C26 15.3295 25.931 14.675 25.8055 14.0415Z" fill="#FFC107"/>
<path d="M7.15295 11.3455L10.4385 13.755C11.3275 11.554 13.4805 10 16 10C17.5295 10 18.921 10.577 19.9805 11.5195L22.809 8.691C21.023 7.0265 18.634 6 16 6C12.159 6 8.82795 8.1685 7.15295 11.3455Z" fill="#FF3D00"/>
<path d="M16 26.0001C18.583 26.0001 20.93 25.0116 22.7045 23.4041L19.6095 20.7851C18.5718 21.5743 17.3038 22.0011 16 22.0001C13.399 22.0001 11.1905 20.3416 10.3585 18.0271L7.09753 20.5396C8.75253 23.7781 12.1135 26.0001 16 26.0001Z" fill="#4CAF50"/>
<path d="M25.8055 14.0415H25V14H16V18H21.6515C21.2571 19.1082 20.5467 20.0766 19.608 20.7855L19.6095 20.7845L22.7045 23.4035C22.4855 23.6025 26 21 26 16C26 15.3295 25.931 14.675 25.8055 14.0415Z" fill="#1976D2"/>
</svg>
