<svg width="256" height="200" viewBox="0 0 256 200" fill="none" xmlns="http://www.w3.org/2000/svg">
<path d="M145.023 74.8685C145.023 74.8685 139.296 69.5685 137.109 71.0676C137.109 71.0676 134.246 77.5029 132.928 78.0003C132.383 79.5783 131.596 81.0808 130.502 81.0293C130.382 81.5593 130.394 82.1104 130.537 82.6347C130.772 83.5952 128.536 87.8007 127.046 87.3892C125.555 86.9775 123.427 83.2213 124.048 81.1048C124.087 80.9614 124.118 80.8159 124.141 80.6691C124.061 80.5148 121.436 75.5716 121.17 72.992C120.898 70.3713 119.759 71.5067 119.759 71.5067C119.759 71.5067 121.27 72.8308 118.914 73.8736C116.554 74.9199 110.7 75.7363 113.032 73.5684C113.032 73.5684 112.69 72.553 111.548 73.4791C111.548 73.4791 110.724 74.5597 112.711 78.2336C112.711 78.2336 115.788 93.9753 115.24 97.9168C115.24 97.9168 114.374 107.937 115.35 108.89C115.816 109.347 121.812 111.045 127.742 110.873C131.512 110.784 135.253 110.187 138.862 109.1L138.506 95.2995C138.43 92.3616 138.973 89.4402 140.1 86.7236L145.023 74.8685ZM125.845 104.623C124.64 104.376 123.514 103.838 122.568 103.055C121.628 102.265 120.892 101.263 120.422 100.133C119.949 99.0315 119.723 97.8411 119.759 96.6442C119.988 97.7795 120.374 98.8774 120.908 99.9064C121.427 100.911 122.141 101.803 123.009 102.531C123.436 102.897 123.906 103.209 124.41 103.46C124.655 103.604 124.92 103.704 125.176 103.824C125.445 103.913 125.707 104.033 125.983 104.105C127.103 104.428 128.255 104.63 129.419 104.705C128.233 104.903 127.02 104.875 125.845 104.623Z" fill="#061E33"/>
<path d="M133.804 74.6696L133.786 74.6764C133.904 72.5222 132.803 67.874 132.803 67.874C132.803 67.874 126.935 68.1588 126.138 67.9529C126.138 67.9529 124.389 67.9186 124.558 73.167C124.558 73.167 122.722 71.421 123.14 73.613C123.216 74.011 123.295 74.3573 123.378 74.6558C119.876 72.4261 124.099 63.2191 124.116 64.0218C124.144 64.2711 124.259 64.5028 124.44 64.677C125.165 65.4866 126.293 64.6015 127.304 64.2516C127.507 64.1796 127.704 64.1179 127.897 64.063C128.656 63.8504 129.453 63.8125 130.228 63.9522C131.004 64.0919 131.737 64.4054 132.372 64.8691C133.007 65.3327 133.528 65.9342 133.894 66.6278C134.261 67.3215 134.463 68.0891 134.487 68.8722C134.559 70.8281 134.328 72.7833 133.804 74.6696Z" fill="#061E33"/>
<path d="M126.88 79.9443C126.333 79.6473 125.85 79.2476 125.458 78.7673C125.26 78.5255 125.092 78.261 124.957 77.9794C124.826 77.6964 124.752 77.3904 124.739 77.0789C124.834 77.3646 124.959 77.6397 125.111 77.8998C125.268 78.1539 125.441 78.3972 125.63 78.628C126.021 79.0902 126.438 79.5297 126.88 79.9443Z" fill="#061E33"/>
<path d="M128.588 80.6212C128.74 80.6747 128.899 80.705 129.061 80.711C129.219 80.7264 129.378 80.7482 129.538 80.7683C129.697 80.7952 129.858 80.8207 130.018 80.8617C130.186 80.8993 130.348 80.9556 130.503 81.0294C130.175 81.1358 129.827 81.1625 129.486 81.1073C129.315 81.0826 129.148 81.0357 128.989 80.9679C128.902 80.9402 128.821 80.8952 128.753 80.8356C128.684 80.776 128.628 80.703 128.588 80.6212Z" fill="#061E33"/>
<path d="M133.808 74.6777C133.806 74.8364 133.794 74.9947 133.772 75.1519C133.745 75.3123 133.707 75.4609 133.674 75.6159L133.461 76.5366C133.316 77.1521 133.14 77.7598 132.932 78.3572C132.731 78.9656 132.462 79.5497 132.129 80.0984C131.956 80.383 131.737 80.637 131.48 80.85C131.205 81.0824 130.855 81.2086 130.494 81.2056L130.672 81.0805C130.591 81.4668 130.585 81.8646 130.652 82.2533C130.669 82.3521 130.687 82.4506 130.711 82.548C130.725 82.6092 130.735 82.6713 130.741 82.7339C130.744 82.7951 130.743 82.8565 130.738 82.9176C130.716 83.141 130.669 83.3613 130.6 83.5749C130.324 84.3904 129.933 85.1623 129.437 85.8672C129.196 86.2262 128.918 86.5599 128.609 86.8631C128.298 87.1965 127.898 87.434 127.455 87.5473C127.333 87.5707 127.208 87.5697 127.087 87.5443C126.972 87.516 126.861 87.4754 126.756 87.423C126.558 87.3209 126.374 87.1934 126.21 87.0437C125.888 86.7565 125.604 86.4306 125.363 86.0735C124.876 85.3757 124.49 84.6131 124.216 83.8082C124.078 83.4062 123.979 82.9923 123.919 82.5719C123.847 82.1491 123.852 81.717 123.931 81.2956C124.106 80.4756 124.236 79.6469 124.321 78.8131C124.42 77.9799 124.511 77.1458 124.595 76.3106L124.756 76.4628C124.608 76.491 124.456 76.4823 124.312 76.4374C124.17 76.3888 124.042 76.3083 123.937 76.2024C123.749 76.004 123.601 75.7728 123.499 75.5204C123.302 75.0443 123.152 74.5507 123.05 74.0463C122.98 73.7959 122.929 73.541 122.895 73.2833C122.878 73.1434 122.876 73.002 122.891 72.8617C122.896 72.7707 122.92 72.6818 122.963 72.6009C123.005 72.52 123.064 72.449 123.136 72.3926C123.217 72.3445 123.308 72.3153 123.402 72.3072C123.496 72.2992 123.591 72.3125 123.679 72.3461C123.815 72.3917 123.945 72.453 124.067 72.5287C124.295 72.6696 124.508 72.8321 124.705 73.0138L124.345 73.1738C124.337 72.6868 124.319 72.2 124.344 71.7107C124.357 71.2189 124.403 70.7286 124.481 70.2428C124.554 69.7436 124.697 69.2572 124.906 68.7977C124.963 68.6817 125.03 68.5682 125.097 68.4552C125.172 68.3427 125.257 68.2367 125.35 68.1385C125.446 68.0338 125.557 67.944 125.68 67.8721C125.744 67.8327 125.813 67.8003 125.884 67.7752C125.966 67.7444 126.054 67.7272 126.142 67.7242L126.154 67.7249L126.196 67.7315L126.368 67.7589L126.567 67.774C126.698 67.7867 126.839 67.7861 126.974 67.7928C127.248 67.7999 127.524 67.803 127.801 67.8021L129.464 67.7824C130.573 67.7664 131.685 67.7362 132.794 67.6982L132.8 67.698C132.84 67.6966 132.88 67.7095 132.912 67.7343C132.944 67.7591 132.967 67.7942 132.975 67.8337C133.224 68.9608 133.42 70.0941 133.587 71.2337C133.672 71.8031 133.736 72.3753 133.78 72.9504C133.833 73.5246 133.842 74.1019 133.808 74.6775C133.808 74.6804 133.807 74.6833 133.806 74.6859C133.805 74.6885 133.803 74.6908 133.801 74.6927C133.799 74.6946 133.796 74.696 133.793 74.6969C133.79 74.6978 133.787 74.6981 133.785 74.6979C133.779 74.6974 133.774 74.6948 133.77 74.6906C133.766 74.6864 133.764 74.6809 133.764 74.6752C133.765 74.1029 133.722 73.5313 133.637 72.9652C133.56 72.3982 133.463 71.8338 133.36 71.2705C133.155 70.1443 132.896 69.0255 132.631 67.9145L132.812 68.0499C131.7 68.115 130.588 68.17 129.475 68.2149C128.919 68.239 128.361 68.246 127.803 68.2511C127.523 68.2536 127.243 68.2518 126.962 68.2459C126.82 68.2397 126.682 68.2412 126.536 68.2284L126.319 68.2129L126.08 68.1744L126.133 68.1817C126.055 68.196 125.981 68.2253 125.915 68.268C125.829 68.3191 125.751 68.3831 125.685 68.4576C125.612 68.5353 125.546 68.6187 125.488 68.7071C125.433 68.8028 125.377 68.8977 125.328 68.9979C125.143 69.4211 125.013 69.866 124.941 70.3218C124.859 70.7876 124.809 71.2582 124.79 71.7306C124.759 72.205 124.77 72.6828 124.771 73.1602V73.1646C124.771 73.2062 124.759 73.2469 124.736 73.2817C124.713 73.3165 124.68 73.3438 124.642 73.3603C124.604 73.3769 124.561 73.3819 124.52 73.3748C124.479 73.3677 124.441 73.3487 124.41 73.3202C124.237 73.1567 124.05 73.0097 123.849 72.8813C123.757 72.8219 123.658 72.773 123.555 72.7358C123.46 72.7052 123.381 72.7072 123.365 72.726C123.338 72.7337 123.301 72.8149 123.288 72.9148C123.274 73.0251 123.273 73.1365 123.283 73.2471C123.308 73.49 123.35 73.7307 123.409 73.9677C123.492 74.4544 123.622 74.9321 123.796 75.3945C123.969 75.8358 124.265 76.2787 124.711 76.19C124.732 76.1858 124.754 76.1866 124.774 76.1925C124.795 76.1983 124.814 76.2089 124.83 76.2235C124.846 76.2381 124.858 76.2563 124.865 76.2764C124.872 76.2965 124.875 76.3181 124.872 76.3394L124.872 76.3421C124.762 77.1761 124.645 78.0086 124.52 78.8398C124.389 79.6694 124.274 80.5055 124.078 81.3257C123.95 82.1474 124.046 82.9883 124.358 83.7599C124.632 84.5468 125.028 85.2865 125.531 85.9526C125.774 86.285 126.057 86.586 126.375 86.8489C126.527 86.9773 126.695 87.0854 126.875 87.1706C126.96 87.2087 127.049 87.2381 127.14 87.2583C127.226 87.2733 127.315 87.2704 127.4 87.2498C127.774 87.132 128.107 86.9121 128.361 86.6152C128.643 86.3179 128.899 85.9973 129.126 85.6569C129.586 84.9741 129.956 84.2351 130.225 83.4581C130.289 83.2729 130.333 83.0817 130.357 82.8875C130.361 82.8441 130.363 82.8004 130.361 82.7568C130.358 82.7148 130.351 82.6731 130.342 82.632C130.318 82.5248 130.299 82.4167 130.283 82.3082C130.212 81.8659 130.229 81.4142 130.332 80.9782C130.341 80.941 130.364 80.9081 130.395 80.8853C130.426 80.8624 130.464 80.8509 130.502 80.8528L130.51 80.8532C130.788 80.8567 131.057 80.761 131.269 80.5836C131.499 80.3943 131.7 80.1719 131.864 79.9237C132.203 79.4055 132.482 78.8513 132.698 78.2714C132.923 77.6892 133.118 77.0938 133.303 76.4938L133.566 75.5891C133.607 75.4385 133.656 75.2847 133.693 75.1371C133.726 74.9847 133.75 74.8304 133.764 74.675C133.765 74.6693 133.767 74.664 133.772 74.6603C133.776 74.6566 133.782 74.6547 133.788 74.655C133.793 74.6554 133.799 74.6579 133.803 74.6622C133.807 74.6664 133.809 74.672 133.808 74.6777L133.808 74.6777Z" fill="#061E33"/>
<path d="M133.61 71.5541C133.405 71.452 133.215 71.3529 133.025 71.2667C132.846 71.1801 132.656 71.118 132.46 71.0821C132.279 71.0496 132.092 71.0682 131.921 71.1359C131.732 71.2245 131.556 71.341 131.401 71.4814C131.457 71.249 131.594 71.0439 131.789 70.903C132.001 70.7571 132.262 70.6999 132.516 70.7438C132.753 70.7877 132.976 70.889 133.164 71.0388C133.349 71.176 133.501 71.3519 133.61 71.5541Z" fill="#061E33"/>
<path d="M128.381 71.1411C127.946 70.9199 127.458 70.8203 126.971 70.853C126.738 70.8786 126.512 70.9461 126.303 71.0523C126.19 71.0956 126.093 71.1727 125.979 71.2294C125.873 71.296 125.772 71.3735 125.652 71.4391C125.715 71.3217 125.787 71.2095 125.867 71.1034C125.954 70.9999 126.053 70.9064 126.162 70.8247C126.385 70.6519 126.651 70.5438 126.932 70.5122C127.213 70.4816 127.497 70.5269 127.755 70.6434C128.004 70.7513 128.22 70.923 128.381 71.1411Z" fill="#061E33"/>
<path d="M131.473 74.6948C131.445 74.867 131.371 75.0283 131.257 75.1612C131.144 75.2941 130.996 75.3933 130.83 75.4481C130.663 75.5068 130.485 75.5238 130.311 75.4976C130.141 75.4751 129.98 75.4079 129.846 75.3028C130.016 75.2688 130.166 75.2578 130.31 75.23C130.447 75.2074 130.582 75.1724 130.713 75.1255C130.843 75.0805 130.969 75.0223 131.088 74.9517C131.22 74.8726 131.349 74.7868 131.473 74.6948Z" fill="#061E33"/>
<path d="M132.12 73.3804C132.254 73.3758 132.381 73.3195 132.474 73.2235C132.568 73.1275 132.62 72.9993 132.62 72.8659C132.62 72.7324 132.568 72.6042 132.474 72.5082C132.381 72.4122 132.254 72.356 132.12 72.3513C131.986 72.356 131.859 72.4122 131.765 72.5082C131.672 72.6042 131.62 72.7324 131.62 72.8659C131.62 72.9993 131.672 73.1275 131.765 73.2235C131.859 73.3195 131.986 73.3758 132.12 73.3804Z" fill="#061E33"/>
<path d="M127.568 73.3257C127.702 73.3211 127.829 73.2648 127.923 73.1688C128.016 73.0728 128.068 72.9446 128.068 72.8112C128.068 72.6777 128.016 72.5495 127.923 72.4535C127.829 72.3575 127.702 72.3013 127.568 72.2966C127.434 72.3013 127.307 72.3575 127.214 72.4535C127.12 72.5495 127.068 72.6777 127.068 72.8112C127.068 72.9446 127.12 73.0728 127.214 73.1688C127.307 73.2648 127.434 73.3211 127.568 73.3257Z" fill="#061E33"/>
<path d="M129.219 76.5143C129.153 76.7096 129.163 76.9229 129.248 77.1112C129.324 77.2854 129.442 77.4381 129.592 77.5561C129.738 77.677 129.913 77.7594 130.1 77.7957C130.2 77.8155 130.303 77.8153 130.404 77.7952C130.504 77.7751 130.599 77.7355 130.684 77.6786C130.633 77.7933 130.549 77.8907 130.444 77.959C130.338 78.0273 130.214 78.0635 130.088 78.0632C129.829 78.0721 129.575 77.9864 129.375 77.8224C129.174 77.6615 129.037 77.4343 128.989 77.1818C128.961 77.0602 128.967 76.9332 129.008 76.8152C129.049 76.6972 129.122 76.593 129.219 76.5143Z" fill="#061E33"/>
<path d="M119.74 71.5161L117.755 67.6307L115.747 63.7594C115.073 62.4725 114.386 61.1919 113.665 59.9328C113.309 59.3013 112.948 58.6726 112.564 58.0607C112.371 57.7552 112.174 57.4534 111.964 57.1637C111.776 56.8795 111.548 56.6233 111.287 56.4026L111.281 56.3984C111.262 56.385 111.246 56.368 111.234 56.3484C111.222 56.3289 111.214 56.3071 111.21 56.2844C111.206 56.2616 111.207 56.2384 111.212 56.216C111.218 56.1935 111.227 56.1724 111.241 56.1537C111.256 56.1333 111.275 56.1163 111.297 56.1038C111.389 56.037 111.462 55.9465 111.507 55.8418C111.558 55.7199 111.586 55.59 111.592 55.4582C111.595 55.1734 111.55 54.89 111.458 54.6204C111.362 54.3407 111.244 54.069 111.105 53.8079C110.971 53.5418 110.809 53.2888 110.651 53.0333L110.647 53.0269C110.64 53.0156 110.636 53.0031 110.633 52.99L110.366 51.4205L110.301 51.0273L110.27 50.8297L110.255 50.7307C110.25 50.7047 110.243 50.6792 110.233 50.6545C110.192 50.5435 110.126 50.4434 110.039 50.3621C109.953 50.2808 109.849 50.2205 109.735 50.186C109.517 50.1488 109.318 50.3725 109.304 50.6067C109.298 50.8557 109.305 51.1322 109.307 51.3934C109.311 51.658 109.313 51.9232 109.328 52.1861C109.343 52.2616 109.339 52.3396 109.316 52.4131C109.292 52.4865 109.251 52.5528 109.195 52.606C109.074 52.6986 108.924 52.7437 108.772 52.7327C108.491 52.7121 108.221 52.6176 107.989 52.4588C107.873 52.3862 107.765 52.2934 107.664 52.221C107.558 52.1465 107.446 52.0782 107.332 52.0128C106.869 51.7577 106.39 51.5306 105.898 51.3327L105.159 51.0365C104.921 50.9342 104.676 50.8506 104.426 50.7867C104.32 50.7579 104.207 50.76 104.102 50.7928C103.997 50.8257 103.904 50.8878 103.834 50.9719C103.756 51.191 103.766 51.4312 103.86 51.6436C103.868 51.6675 103.868 51.693 103.862 51.7171C103.855 51.7413 103.842 51.7631 103.823 51.78C103.805 51.7968 103.782 51.808 103.757 51.8123C103.732 51.8165 103.707 51.8136 103.684 51.8038L103.682 51.803L103.041 51.5326C102.851 51.4324 102.643 51.3708 102.428 51.3516C102.238 51.3364 102.048 51.3935 101.898 51.5113C101.79 51.6106 101.808 51.7941 101.891 51.985C101.903 52.0131 101.907 52.044 101.902 52.0742C101.897 52.1044 101.884 52.1327 101.864 52.1558C101.844 52.1789 101.817 52.1959 101.788 52.2048C101.759 52.2138 101.727 52.2143 101.697 52.2063L101.692 52.2047C101.451 52.1396 101.206 52.0885 100.959 52.0518C100.731 52.0085 100.497 52.0065 100.268 52.0459C100.176 52.074 100.093 52.1232 100.025 52.1897C99.9565 52.2561 99.9052 52.3378 99.875 52.4279C99.833 52.5831 99.9403 52.755 100.108 52.9031C100.145 52.9355 100.168 52.9802 100.174 53.0287C100.18 53.0772 100.168 53.1262 100.139 53.1662L100.137 53.1703C100.077 53.2436 100.034 53.3283 100.009 53.419C99.9836 53.5098 99.9778 53.6047 99.9915 53.6979C100.026 53.8154 100.229 53.9046 100.456 53.9304C100.59 53.9414 100.723 53.9602 100.854 53.9868C100.988 54.0184 101.119 54.0584 101.247 54.1066C101.495 54.2007 101.737 54.3112 101.97 54.4375C102.427 54.6863 102.868 54.9617 103.291 55.2624C103.715 55.5598 104.124 55.8682 104.526 56.1992L104.502 56.1809C105.209 56.6286 105.917 57.081 106.631 57.517C106.987 57.7334 107.347 57.9534 107.705 58.1457L107.836 58.2117L108.032 58.2977C108.07 58.3318 108.102 58.3719 108.127 58.4165L108.172 58.4946L108.248 58.6417C108.344 58.8352 108.431 59.0271 108.517 59.22C109.197 60.7603 109.79 62.3264 110.371 63.8992C110.951 65.4717 111.498 67.0566 111.986 68.6607C112.23 69.4626 112.466 70.2677 112.66 71.0842C112.879 71.8959 113.011 72.7283 113.054 73.5676C113.054 73.5705 113.054 73.5734 113.052 73.5761C113.051 73.5788 113.05 73.5813 113.048 73.5833C113.046 73.5854 113.043 73.5871 113.041 73.5882C113.038 73.5894 113.035 73.59 113.032 73.59C113.026 73.5898 113.021 73.5874 113.017 73.5834C113.012 73.5793 113.01 73.5739 113.01 73.5681C112.928 72.7383 112.758 71.9195 112.504 71.125C112.268 70.3242 112.015 69.5286 111.744 68.7381C111.2 67.1584 110.615 65.5923 110.012 64.0337C109.402 62.4784 108.772 60.9269 108.103 59.4029C108.017 59.2139 107.931 59.0246 107.84 58.8434L107.771 58.712L107.738 58.6541C107.735 58.643 107.7 58.6073 107.74 58.6471C107.759 58.6585 107.737 58.6543 107.81 58.6842C107.831 58.6903 107.852 58.6932 107.873 58.693L107.858 58.6919C107.837 58.69 107.816 58.6869 107.796 58.6824C107.774 58.6769 107.752 58.67 107.732 58.6618C107.693 58.6482 107.672 58.6368 107.642 58.624L107.491 58.5487C107.108 58.345 106.751 58.128 106.389 57.9103C105.669 57.4719 104.955 57.029 104.248 56.5725L104.225 56.5562L104.223 56.5542C103.458 55.902 102.634 55.3208 101.763 54.8178C101.548 54.6984 101.326 54.5934 101.097 54.5037C100.986 54.4607 100.873 54.4248 100.758 54.396C100.639 54.3711 100.519 54.3532 100.398 54.3424C100.249 54.3241 100.104 54.2822 99.9681 54.2182C99.802 54.1432 99.6721 54.0064 99.6063 53.8372C99.5533 53.6734 99.5552 53.4971 99.6116 53.3345C99.6573 53.1915 99.7251 53.0565 99.8127 52.9343L99.8411 53.2013C99.7257 53.0992 99.6299 52.9771 99.5583 52.841C99.4801 52.6845 99.46 52.5054 99.5018 52.3356C99.5473 52.1771 99.6371 52.0346 99.7608 51.9247C99.8761 51.8152 100.017 51.7362 100.171 51.6947C100.45 51.646 100.736 51.6512 101.013 51.71C101.273 51.755 101.531 51.8152 101.785 51.8903L101.586 52.11C101.533 51.9838 101.504 51.8486 101.501 51.7117C101.5 51.6332 101.516 51.5553 101.546 51.4828C101.577 51.4104 101.622 51.3447 101.678 51.2899C101.784 51.2026 101.906 51.1371 102.038 51.0971C102.169 51.0572 102.308 51.0436 102.445 51.0571C102.693 51.0834 102.934 51.1583 103.154 51.2777L103.787 51.563L103.609 51.7224C103.553 51.583 103.525 51.4338 103.527 51.2836C103.53 51.1334 103.562 50.9852 103.623 50.8477C103.668 50.7783 103.725 50.7184 103.793 50.6717C103.861 50.6249 103.938 50.5923 104.019 50.5756C104.165 50.5423 104.316 50.5392 104.463 50.5666C104.728 50.6388 104.986 50.733 105.235 50.8482L105.971 51.1649C106.458 51.3853 106.944 51.609 107.412 51.877C107.528 51.9452 107.643 52.0166 107.754 52.097C107.869 52.1809 107.962 52.2635 108.071 52.3334C108.279 52.4793 108.522 52.5679 108.776 52.5904C108.892 52.6011 109.009 52.5694 109.104 52.501C109.144 52.4619 109.174 52.4129 109.19 52.3589C109.205 52.3048 109.206 52.2476 109.192 52.1931L109.166 51.396C109.162 51.1272 109.15 50.8732 109.155 50.5924C109.166 50.4421 109.227 50.2998 109.329 50.188C109.382 50.1295 109.449 50.0845 109.523 50.0566C109.597 50.0288 109.677 50.019 109.756 50.028C109.906 50.0538 110.043 50.1276 110.147 50.2381C110.251 50.339 110.334 50.4589 110.392 50.5913C110.407 50.6282 110.418 50.6666 110.425 50.7057L110.441 50.8032L110.474 50.998L110.548 51.3882L110.863 52.9467L110.846 52.9034C111.015 53.1594 111.188 53.413 111.337 53.6842C111.491 53.9543 111.624 54.2364 111.733 54.5277C111.846 54.8295 111.906 55.1486 111.91 55.4707C111.917 55.6518 111.88 55.832 111.801 55.9954C111.722 56.1588 111.605 56.3005 111.458 56.408L111.467 56.1092C111.778 56.3419 112.047 56.6251 112.264 56.9468C112.483 57.245 112.687 57.5503 112.885 57.8587C113.28 58.4762 113.653 59.1038 114.013 59.7386C114.722 61.0131 115.395 62.3046 116.056 63.602C116.721 64.8971 117.344 66.2128 117.97 67.5258C118.594 68.8401 119.198 70.1639 119.78 71.4974C119.782 71.5027 119.782 71.5087 119.78 71.5141C119.778 71.5195 119.774 71.5239 119.769 71.5263C119.764 71.5288 119.758 71.5291 119.752 71.5272C119.747 71.5253 119.742 71.5213 119.74 71.5162L119.74 71.5161Z" fill="#061E33"/>
<path d="M109.241 57.9231C108.86 58.2696 108.39 58.5045 107.883 58.602C107.858 58.6067 107.833 58.6064 107.809 58.6014C107.784 58.5963 107.761 58.5865 107.74 58.5725C107.72 58.5585 107.702 58.5406 107.688 58.5198C107.675 58.4991 107.665 58.4758 107.661 58.4514C107.656 58.427 107.656 58.4019 107.661 58.3776C107.666 58.3533 107.676 58.3302 107.69 58.3097C107.704 58.2892 107.722 58.2717 107.743 58.2581C107.764 58.2445 107.788 58.2352 107.812 58.2306C107.829 58.2277 107.845 58.2268 107.862 58.2279C108.341 58.2541 108.818 58.1486 109.241 57.9231Z" fill="#061E33"/>
<path d="M108.894 53.4719C109.013 53.8335 109.1 54.1868 109.221 54.5264C109.277 54.6961 109.346 54.8615 109.425 55.0213C109.507 55.1845 109.61 55.3359 109.732 55.4713C109.55 55.3974 109.392 55.2731 109.278 55.1131C109.163 54.9565 109.073 54.7829 109.011 54.5986C108.884 54.2373 108.844 53.8514 108.894 53.4719Z" fill="#061E33"/>
<path d="M106.47 52.8972L103.601 51.7857C103.574 51.7751 103.552 51.754 103.54 51.7271C103.528 51.7002 103.527 51.6698 103.538 51.6424C103.549 51.6151 103.57 51.5931 103.597 51.5813C103.624 51.5694 103.654 51.5688 103.682 51.5794L103.689 51.5826L106.47 52.8972Z" fill="#061E33"/>
<path d="M105.083 53.4445L101.697 52.179C101.683 52.1739 101.67 52.1662 101.66 52.1563C101.649 52.1464 101.64 52.1345 101.634 52.1212C101.628 52.1079 101.625 52.0936 101.624 52.0791C101.624 52.0645 101.626 52.05 101.631 52.0363C101.636 52.0227 101.644 52.0102 101.654 51.9995C101.664 51.9889 101.676 51.9803 101.69 51.9744C101.703 51.9684 101.717 51.9651 101.732 51.9646C101.747 51.9642 101.761 51.9667 101.775 51.9719L101.781 51.9744L105.083 53.4445Z" fill="#061E33"/>
<path d="M103.587 53.9749C102.995 53.7758 102.397 53.5946 101.794 53.4353C101.492 53.3579 101.19 53.2847 100.885 53.2277C100.592 53.1624 100.292 53.1401 99.9922 53.1614L99.9798 53.1631C99.9653 53.165 99.9506 53.1641 99.9364 53.1604C99.9223 53.1567 99.9091 53.1503 99.8974 53.1415C99.8858 53.1327 99.876 53.1217 99.8687 53.1091C99.8613 53.0966 99.8565 53.0827 99.8545 53.0683C99.8526 53.0539 99.8535 53.0392 99.8572 53.0252C99.8609 53.0111 99.8674 52.9979 99.8762 52.9864C99.8851 52.9748 99.8961 52.9651 99.9088 52.9578C99.9214 52.9504 99.9354 52.9457 99.9498 52.9437L99.9569 52.943C100.283 52.9346 100.608 52.9759 100.921 53.0656C101.227 53.1419 101.527 53.2336 101.826 53.3293C102.421 53.5248 103.008 53.74 103.587 53.9749Z" fill="#061E33"/>
<path d="M143.449 73.5536L144.723 68.8432L145.35 66.4871C145.45 66.094 145.551 65.6998 145.638 65.307C145.719 64.9137 145.78 64.5164 145.819 64.1167C146.002 62.5058 146.152 60.8853 146.322 59.2674C146.405 58.4582 146.497 57.6489 146.597 56.8397C146.647 56.4352 146.704 56.0304 146.768 55.6255C146.807 55.4225 146.841 55.2208 146.886 55.0167L146.962 54.7091C146.997 54.5967 147.039 54.4864 147.087 54.3786C147.098 54.3501 147.12 54.3268 147.147 54.3131L147.173 54.3002C147.538 54.1132 147.886 53.8934 148.21 53.6435C148.542 53.3945 148.853 53.1205 149.142 52.8239C149.722 52.231 150.212 51.558 150.599 50.8257L150.601 50.821C150.609 50.8069 150.618 50.794 150.63 50.7827L152.744 48.7088C152.809 48.6321 152.851 48.5388 152.866 48.4395C152.885 48.3302 152.888 48.2188 152.874 48.1087C152.867 48.0165 152.825 47.9306 152.755 47.8695C152.677 47.8187 152.582 47.7991 152.49 47.8146C152.389 47.8315 152.294 47.8768 152.218 47.9453L151.955 48.2007C151.776 48.3736 151.594 48.5439 151.407 48.7097C151.041 49.0601 150.628 49.3593 150.181 49.5989C150.115 49.6275 150.046 49.6459 149.974 49.6534C149.928 49.6593 149.882 49.6527 149.84 49.6344C149.797 49.6161 149.761 49.5866 149.734 49.5493C149.701 49.4824 149.682 49.4094 149.679 49.335C149.677 49.2606 149.689 49.1864 149.717 49.1171C149.806 48.8762 149.932 48.6506 150.092 48.4485C150.396 48.0518 150.729 47.6782 151.089 47.3309C151.46 47.0147 151.752 46.6177 151.943 46.1707C152.028 45.9505 152 45.7006 151.782 45.6174C151.676 45.576 151.561 45.5628 151.449 45.5792C151.337 45.5956 151.231 45.6409 151.141 45.7108C150.73 45.9764 150.361 46.3008 150.045 46.6737C149.882 46.8578 149.723 47.0457 149.572 47.2404C149.415 47.4304 149.286 47.6387 149.105 47.8287C149.016 47.9222 148.917 48.0063 148.81 48.0797C148.755 48.1184 148.698 48.1526 148.638 48.1818C148.6 48.2057 148.556 48.22 148.511 48.2233C148.466 48.2267 148.421 48.2189 148.38 48.2009C148.354 48.1839 148.332 48.1604 148.318 48.1326C148.309 48.11 148.302 48.0866 148.298 48.0628C148.294 48.025 148.294 47.9867 148.3 47.949C148.308 47.8826 148.323 47.817 148.343 47.7533C148.381 47.6316 148.426 47.5122 148.477 47.3958C148.579 47.1642 148.701 46.9419 148.842 46.7312L149.265 46.1201C149.542 45.7172 149.784 45.292 149.99 44.8491C150.092 44.643 150.151 44.4191 150.166 44.1901C150.165 44.1447 150.155 44.1 150.135 44.0588C150.116 44.0176 150.088 43.9809 150.054 43.9512C150.024 43.9209 149.986 43.8985 149.945 43.8861C149.904 43.8737 149.861 43.8716 149.819 43.8802C149.608 43.9443 149.422 44.0696 149.284 44.2399C149.123 44.4165 148.982 44.6092 148.861 44.8148C148.734 45.0219 148.631 45.2321 148.52 45.4604C148.406 45.6868 148.282 45.9047 148.153 46.1195C147.897 46.5549 147.607 46.9695 147.285 47.3594C147.242 47.4085 147.197 47.4572 147.148 47.5051C147.122 47.5304 147.095 47.5543 147.067 47.5768C147.048 47.5942 147.028 47.609 147.005 47.6208C146.987 47.6303 146.969 47.6387 146.95 47.6458C146.918 47.6537 146.884 47.6555 146.851 47.6514C146.792 47.6414 146.74 47.6095 146.704 47.5622C146.684 47.5361 146.669 47.5071 146.658 47.4762C146.644 47.4354 146.633 47.3933 146.627 47.3506C146.618 47.282 146.613 47.2129 146.612 47.1437C146.612 46.8887 146.626 46.6339 146.656 46.3807C146.733 45.8854 146.838 45.3948 146.969 44.9108C147.021 44.6849 147.046 44.4536 147.042 44.2219C147.045 44.0015 147.006 43.7826 146.928 43.5761C146.891 43.4887 146.83 43.4285 146.821 43.4353C146.816 43.4415 146.817 43.4334 146.808 43.4357C146.798 43.4421 146.787 43.4461 146.776 43.4473C146.74 43.4693 146.707 43.4948 146.677 43.5234C146.524 43.6906 146.394 43.8776 146.292 44.0793C146.06 44.4981 145.882 44.9436 145.76 45.4057C145.698 45.6377 145.647 45.8731 145.603 46.1121C145.556 46.3555 145.533 46.5838 145.465 46.8607C145.336 47.3589 145.145 47.8394 144.899 48.2917C144.763 48.5593 144.545 48.7769 144.277 48.9128C144.188 48.9478 144.093 48.9627 143.999 48.9562C143.951 48.9538 143.903 48.9477 143.856 48.9378L143.733 48.8852C143.593 48.8162 143.47 48.7192 143.37 48.6003C142.987 48.1507 142.904 47.6143 142.661 47.276C142.611 47.1989 142.544 47.1338 142.465 47.0855C142.387 47.0372 142.298 47.0069 142.207 46.9967C142.105 46.984 142.001 46.9852 141.9 47.0002L141.742 47.028C141.703 47.0451 141.651 47.0565 141.62 47.0733C141.554 47.1168 141.569 47.1052 141.564 47.152C141.579 47.2392 141.611 47.3223 141.66 47.3963C141.772 47.5881 141.924 47.7838 142.068 47.9931C142.145 48.1009 142.216 48.2132 142.279 48.3295C142.348 48.4552 142.4 48.5893 142.433 48.7285C142.493 48.989 142.524 49.2361 142.557 49.4852L142.731 50.9568C142.764 51.1982 142.799 51.4394 142.849 51.671C142.871 51.7832 142.901 51.8939 142.938 52.0024C142.961 52.0816 142.997 52.1564 143.044 52.2237L143.096 52.3031C143.111 52.3263 143.121 52.3524 143.124 52.3796C143.128 52.4069 143.126 52.4346 143.118 52.461C142.655 54.0075 142.164 55.5462 141.688 57.089L140.25 61.7147L138.812 66.3404L137.339 70.9557C137.338 70.9612 137.334 70.9658 137.329 70.9685C137.323 70.9713 137.317 70.9719 137.312 70.9702C137.306 70.9685 137.301 70.9648 137.299 70.9597C137.296 70.9546 137.295 70.9486 137.297 70.943L138.617 66.2822L139.972 61.6318L141.326 56.9813C141.782 55.4322 142.222 53.8788 142.689 52.3332L142.763 52.5706C142.695 52.5078 142.64 52.4335 142.598 52.3512C142.563 52.2871 142.534 52.2194 142.513 52.1493C142.47 52.0236 142.435 51.8953 142.408 51.7653C142.354 51.5134 142.317 51.2649 142.282 51.0167L142.104 49.5424C142.071 49.3017 142.039 49.0576 141.986 48.8362C141.926 48.6246 141.825 48.4268 141.688 48.2537C141.551 48.0557 141.396 47.8605 141.257 47.625C141.171 47.4905 141.117 47.3381 141.099 47.1797C141.091 47.1275 141.095 47.0743 141.111 47.0239C141.119 46.9678 141.141 46.9145 141.174 46.8682C141.23 46.7821 141.307 46.7121 141.399 46.6651C141.472 46.6308 141.547 46.6019 141.625 46.5787L141.834 46.5401C141.978 46.5186 142.125 46.5168 142.269 46.535C142.425 46.5543 142.574 46.6062 142.708 46.6873C142.842 46.7684 142.957 46.8769 143.045 47.0055C143.366 47.485 143.444 47.9863 143.721 48.2957C143.78 48.3678 143.852 48.4274 143.935 48.4707C143.951 48.4779 143.966 48.4861 143.981 48.4954C143.996 48.4987 144.009 48.4947 144.023 48.4978C144.049 48.5113 144.078 48.4882 144.109 48.4868C144.28 48.3863 144.419 48.2386 144.508 48.0615C144.737 47.6446 144.916 47.2017 145.039 46.7424C145.091 46.5392 145.125 46.2748 145.174 46.0332C145.221 45.7859 145.276 45.5381 145.344 45.2927C145.479 44.7984 145.674 44.3223 145.926 43.8753C146.051 43.6366 146.209 43.4167 146.396 43.2223C146.456 43.1664 146.523 43.1183 146.595 43.0792C146.643 43.061 146.691 43.0454 146.74 43.0325C146.797 43.0259 146.855 43.0276 146.912 43.0374C147.001 43.0656 147.083 43.1141 147.15 43.1791C147.218 43.244 147.269 43.3236 147.301 43.4117C147.4 43.6686 147.448 43.942 147.444 44.2172C147.445 44.4803 147.413 44.7426 147.349 44.9979C147.213 45.4667 147.103 45.9422 147.018 46.4226C146.986 46.6601 146.968 46.8992 146.964 47.1387C146.963 47.1931 146.966 47.2475 146.972 47.3016C146.975 47.32 146.978 47.3382 146.983 47.3561C146.986 47.3674 146.985 47.357 146.979 47.3525C146.96 47.3315 146.934 47.3173 146.906 47.3122C146.888 47.3084 146.87 47.3099 146.853 47.3164C146.849 47.3163 146.844 47.3174 146.84 47.3198C146.825 47.3317 146.845 47.3161 146.852 47.3096C146.873 47.2937 146.893 47.2766 146.912 47.2586C146.952 47.2211 146.992 47.1795 147.031 47.1356C147.346 46.7654 147.632 46.3713 147.885 45.9569C148.015 45.7497 148.139 45.5389 148.251 45.3246C148.361 45.1099 148.479 44.8766 148.616 44.6644C148.75 44.4447 148.906 44.2394 149.083 44.0519C149.264 43.8393 149.508 43.6887 149.78 43.6216C149.861 43.6088 149.944 43.6152 150.022 43.6402C150.1 43.6653 150.171 43.7083 150.23 43.7658C150.286 43.8184 150.332 43.8816 150.364 43.9518C150.398 44.0242 150.415 44.1026 150.416 44.1821C150.4 44.4478 150.329 44.7074 150.207 44.9445C149.987 45.3959 149.73 45.8282 149.439 46.2371C149.134 46.6209 148.867 47.0338 148.644 47.4698C148.593 47.5786 148.549 47.6903 148.512 47.8043C148.493 47.8579 148.479 47.9131 148.471 47.9692C148.465 47.9987 148.465 48.0291 148.47 48.0587C148.504 48.0577 148.538 48.0486 148.567 48.0321C148.619 48.0071 148.669 47.9779 148.716 47.9447C148.814 47.8782 148.905 47.8018 148.988 47.7167C149.152 47.5484 149.288 47.3348 149.448 47.1435C149.602 46.9477 149.764 46.7582 149.931 46.5724C150.26 46.19 150.644 45.8582 151.07 45.5878C151.183 45.5185 151.307 45.4683 151.436 45.4391C151.574 45.413 151.716 45.4323 151.841 45.4941C151.908 45.5223 151.967 45.566 152.014 45.6213C152.06 45.6767 152.093 45.7423 152.109 45.8126C152.132 45.9471 152.119 46.0852 152.071 46.2129C151.877 46.6823 151.577 47.1006 151.193 47.435C150.842 47.7797 150.518 48.1499 150.222 48.5426C150.076 48.7315 149.959 48.9417 149.877 49.1658C149.841 49.2578 149.84 49.3601 149.875 49.4528C149.893 49.5016 150.01 49.4847 150.113 49.4386C150.538 49.201 150.927 48.9053 151.269 48.5602C151.45 48.3926 151.626 48.2202 151.8 48.0451L152.065 47.776C152.172 47.6758 152.307 47.6083 152.452 47.5817C152.607 47.5528 152.768 47.5852 152.899 47.672C153.024 47.7693 153.105 47.9117 153.125 48.0682C153.146 48.2034 153.146 48.341 153.125 48.4763C153.107 48.6236 153.048 48.763 152.954 48.8788L150.868 51.0182L150.899 50.9752C150.706 51.3614 150.485 51.7329 150.238 52.0867C149.989 52.4402 149.712 52.7734 149.41 53.0829C149.111 53.3948 148.787 53.6834 148.443 53.946C148.098 54.2153 147.729 54.4519 147.339 54.6529L147.426 54.5745C147.4 54.6573 147.365 54.7234 147.341 54.8162L147.273 55.1012C147.231 55.2943 147.199 55.4941 147.163 55.6906C147.098 56.0885 147.037 56.4881 146.984 56.89C146.876 57.6933 146.778 58.499 146.689 59.3069C146.501 60.9213 146.349 62.5392 146.136 64.1563C146.086 64.5648 146.016 64.9705 145.923 65.3717C145.826 65.7712 145.717 66.1627 145.608 66.5556L144.93 68.9014C144.461 70.4597 143.978 72.0132 143.491 73.5659C143.489 73.5714 143.486 73.5761 143.481 73.5788C143.475 73.5816 143.469 73.5822 143.464 73.5806C143.458 73.5789 143.453 73.5752 143.451 73.5701C143.448 73.5651 143.447 73.5591 143.449 73.5536Z" fill="#061E33"/>
<path d="M148.829 50.2396C148.535 49.9019 148.221 49.582 147.888 49.2815C147.726 49.1364 147.548 49.0098 147.358 48.904C147.163 48.7982 146.95 48.728 146.73 48.6967C146.963 48.6428 147.207 48.6602 147.429 48.7465C147.651 48.8318 147.856 48.9564 148.034 49.1143C148.387 49.4197 148.66 49.8059 148.829 50.2396Z" fill="#061E33"/>
<path d="M145.952 49.3173C146.01 49.6741 146.01 50.0378 145.953 50.3948C145.927 50.574 145.885 50.7507 145.828 50.9228C145.776 51.1004 145.685 51.2641 145.562 51.4022C145.606 51.2313 145.639 51.0576 145.66 50.8823L145.734 50.3622C145.781 50.0091 145.854 49.6598 145.952 49.3173Z" fill="#061E33"/>
<path d="M144.255 52.9041C143.993 52.9344 143.728 52.9251 143.469 52.8765C143.176 52.8287 142.907 52.6871 142.703 52.4732L142.694 52.4637C142.674 52.4418 142.659 52.4161 142.649 52.3883C142.639 52.3604 142.635 52.3309 142.636 52.3014C142.637 52.2718 142.645 52.2429 142.658 52.2161C142.67 52.1894 142.688 52.1654 142.71 52.1456C142.732 52.1258 142.758 52.1105 142.786 52.1005C142.814 52.0906 142.844 52.0863 142.874 52.0878C142.903 52.0893 142.932 52.0967 142.959 52.1094C142.986 52.1221 143.01 52.1399 143.03 52.1619C143.046 52.1798 143.06 52.2001 143.069 52.2221C143.174 52.4178 143.34 52.5743 143.542 52.6677C143.766 52.7817 144.007 52.8614 144.255 52.9041Z" fill="#061E33"/>
<path d="M114.986 109.259C114.994 111.382 114.995 113.505 114.968 115.628C114.945 117.75 114.93 119.873 114.882 121.995L114.755 128.361C114.703 130.483 114.632 132.604 114.54 134.725L114.456 134.547C115.383 135.259 116.383 135.873 117.438 136.378C118.493 136.898 119.614 137.273 120.77 137.493C121.926 137.715 123.115 137.698 124.265 137.445C125.408 137.178 126.474 136.652 127.38 135.908C127.392 135.898 127.407 135.89 127.422 135.885C127.438 135.881 127.454 135.88 127.47 135.881L127.476 135.882C128.737 136.031 130.005 136.102 131.275 136.096C132.541 136.094 133.805 136.007 135.059 135.835C136.303 135.672 137.521 135.357 138.687 134.895C139.837 134.462 140.851 133.732 141.624 132.78L141.562 133L140.863 127.029L140.199 121.053L139.531 115.078C139.302 113.087 139.078 111.095 138.831 109.105C138.83 109.097 138.832 109.089 138.837 109.083C138.842 109.077 138.849 109.072 138.857 109.071C138.865 109.07 138.873 109.072 138.879 109.076C138.886 109.081 138.891 109.088 138.892 109.096C139.279 111.065 139.603 113.046 139.908 115.028C140.223 117.01 140.491 118.998 140.762 120.985C141.038 122.972 141.281 124.962 141.522 126.953C141.755 128.945 141.973 130.939 142.176 132.934L142.176 132.939C142.184 133.016 142.162 133.093 142.114 133.154C141.264 134.179 140.155 134.96 138.901 135.418C137.685 135.877 136.416 136.179 135.123 136.316C133.844 136.46 132.556 136.509 131.27 136.462C129.987 136.426 128.708 136.314 127.439 136.127L127.536 136.102C126.589 136.847 125.486 137.372 124.309 137.638C123.132 137.883 121.919 137.903 120.735 137.696C119.554 137.493 118.403 137.145 117.307 136.662C116.205 136.184 115.156 135.591 114.18 134.893C114.154 134.874 114.133 134.849 114.118 134.82C114.103 134.792 114.096 134.76 114.096 134.728L114.096 134.714C114.113 132.591 114.148 130.469 114.2 128.347L114.391 121.983C114.449 119.861 114.541 117.74 114.624 115.619C114.704 113.498 114.811 111.378 114.924 109.257C114.925 109.249 114.928 109.242 114.934 109.236C114.94 109.231 114.948 109.228 114.956 109.228C114.964 109.228 114.972 109.232 114.978 109.237C114.983 109.243 114.986 109.251 114.986 109.259L114.986 109.259Z" fill="#061E33"/>
<path d="M130.001 115.793C130.496 115.628 130.981 115.45 131.465 115.274C131.947 115.093 132.426 114.908 132.889 114.691C133.356 114.486 133.806 114.246 134.237 113.974C134.672 113.704 135.066 113.372 135.405 112.989C135.154 113.453 134.803 113.857 134.377 114.17C133.957 114.489 133.501 114.758 133.018 114.971C132.54 115.187 132.046 115.365 131.54 115.502C131.036 115.644 130.521 115.741 130.001 115.793Z" fill="#061E33"/>
<path d="M127.458 136.005C127.558 134.256 127.731 132.513 127.931 130.773C128.131 129.033 128.389 127.3 128.671 125.57C128.974 123.844 129.303 122.121 129.734 120.42C130.133 118.711 130.683 117.041 131.379 115.428L130.953 116.67L130.59 117.93C130.365 118.774 130.144 119.619 129.966 120.475C129.775 121.327 129.604 122.184 129.431 123.04C129.276 123.9 129.112 124.758 128.976 125.621C128.669 127.342 128.416 129.072 128.167 130.803C128.039 131.669 127.919 132.535 127.806 133.402L127.458 136.005Z" fill="#061E33"/>
<path d="M130.53 136.261L130.777 131.644C130.853 130.106 130.938 128.569 130.978 127.03C131.042 125.492 131.065 123.955 131.047 122.417C131.039 121.648 131.015 120.88 130.95 120.114C130.915 119.346 130.774 118.587 130.53 117.857C130.832 118.572 131.024 119.327 131.101 120.099C131.197 120.866 131.248 121.638 131.286 122.41C131.354 123.954 131.327 125.498 131.287 127.04C131.222 128.582 131.141 130.123 131.014 131.66C130.887 133.197 130.737 134.732 130.53 136.261Z" fill="#061E33"/>
<path d="M114.595 120.09C115.593 119.968 116.598 119.899 117.603 119.881C117.634 119.88 117.664 119.886 117.693 119.897C117.721 119.907 117.747 119.924 117.769 119.945C117.791 119.966 117.809 119.991 117.821 120.018C117.833 120.046 117.84 120.076 117.841 120.106L117.841 120.107L117.841 120.117C117.851 120.623 117.862 121.13 117.84 121.636C117.819 122.142 117.776 122.648 117.743 123.154C117.67 124.165 117.669 125.18 117.742 126.192C117.768 126.698 117.811 127.204 117.832 127.71C117.854 128.216 117.863 128.723 117.876 129.229C117.911 130.241 117.906 131.254 117.872 132.266L117.871 132.289C117.869 132.349 117.846 132.406 117.805 132.45C117.764 132.494 117.709 132.522 117.649 132.529C117.348 132.567 117.046 132.584 116.743 132.582C116.441 132.582 116.139 132.558 115.841 132.51C115.537 132.464 115.241 132.373 114.965 132.24C114.823 132.176 114.695 132.084 114.59 131.969C114.485 131.855 114.404 131.721 114.353 131.575C114.352 131.571 114.351 131.567 114.352 131.564C114.352 131.56 114.353 131.557 114.355 131.553C114.357 131.55 114.36 131.548 114.362 131.545C114.365 131.543 114.369 131.541 114.372 131.54C114.378 131.539 114.385 131.539 114.39 131.542C114.396 131.544 114.401 131.548 114.404 131.554C114.552 131.788 114.786 131.957 115.057 132.025C115.323 132.104 115.599 132.147 115.877 132.151C116.16 132.155 116.442 132.144 116.723 132.119C117.003 132.091 117.291 132.055 117.558 132.003L117.335 132.266C117.301 131.254 117.296 130.241 117.331 129.229C117.344 128.723 117.353 128.216 117.375 127.71C117.396 127.204 117.439 126.698 117.465 126.192C117.538 125.18 117.537 124.165 117.464 123.154C117.431 122.648 117.388 122.142 117.367 121.636C117.345 121.13 117.356 120.623 117.366 120.117L117.603 120.353C116.598 120.336 115.593 120.266 114.595 120.145C114.588 120.144 114.582 120.141 114.577 120.136C114.573 120.13 114.57 120.124 114.57 120.117C114.57 120.11 114.573 120.104 114.577 120.099C114.582 120.094 114.588 120.09 114.595 120.09L114.595 120.09Z" fill="#061E33"/>
<path d="M114.553 122.299C115.072 122.274 115.592 122.308 116.103 122.399C116.617 122.476 117.12 122.612 117.603 122.803C117.084 122.828 116.564 122.794 116.052 122.703C115.539 122.624 115.036 122.489 114.553 122.299Z" fill="#061E33"/>
<path d="M115.576 135.356C115.21 135.754 114.865 136.168 114.536 136.593C114.227 137.041 113.887 137.468 113.521 137.871C113.326 138.067 113.121 138.248 112.909 138.424C112.689 138.599 112.461 138.75 112.236 138.902L110.884 139.796C109.095 140.981 107.41 142.316 105.849 143.785C105.07 144.519 104.329 145.292 103.616 146.089C102.91 146.898 102.247 147.722 101.58 148.582C100.905 149.435 100.184 150.251 99.4181 151.024C98.6584 151.808 97.7987 152.465 96.9902 153.187C97.3134 152.752 97.6788 152.347 98.0333 151.94C98.3849 151.528 98.7569 151.138 99.1149 150.74C99.8365 149.947 100.508 149.111 101.152 148.256C102.407 146.479 103.84 144.833 105.431 143.345C106.225 142.598 107.062 141.898 107.937 141.248C108.808 140.594 109.712 139.986 110.647 139.427C111.11 139.144 111.584 138.878 112.049 138.607C112.281 138.471 112.51 138.332 112.726 138.187C112.941 138.032 113.153 137.869 113.351 137.695C113.737 137.323 114.098 136.927 114.431 136.508C114.79 136.103 115.173 135.718 115.576 135.356Z" fill="#061E33"/>
<path d="M99.9248 159.54C100.452 159.015 100.995 158.507 101.544 158.005C102.093 157.504 102.64 156.999 103.206 156.516C104.336 155.547 105.483 154.596 106.662 153.683C107.845 152.766 109.079 151.916 110.358 151.137C111.006 150.743 111.681 150.395 112.378 150.094C112.553 150.017 112.74 149.959 112.922 149.893C113.099 149.829 113.264 149.777 113.434 149.712C113.771 149.581 114.106 149.439 114.433 149.278C117.055 147.926 119.461 146.196 121.574 144.144C122.642 143.127 123.609 142.011 124.461 140.809C125.347 139.622 125.957 138.255 126.247 136.805C126.123 138.293 125.466 139.691 124.687 140.956C123.877 142.215 122.937 143.386 121.882 144.45C120.84 145.526 119.715 146.52 118.518 147.422C117.325 148.34 116.046 149.143 114.699 149.82C114.36 149.988 114.01 150.14 113.654 150.28C113.478 150.35 113.288 150.411 113.115 150.474C112.948 150.537 112.779 150.59 112.614 150.664C111.943 150.949 111.292 151.279 110.666 151.653C109.401 152.402 108.173 153.231 106.975 154.1C105.766 154.956 104.584 155.852 103.416 156.769C102.242 157.677 101.082 158.605 99.9248 159.54Z" fill="#061E33"/>
<path d="M116.48 141.332C116.175 141.836 115.854 142.306 115.599 142.803C115.466 143.044 115.363 143.3 115.292 143.565C115.217 143.834 115.219 144.119 115.301 144.386C115.202 144.268 115.128 144.13 115.086 143.983C115.043 143.835 115.032 143.68 115.054 143.528C115.086 143.224 115.177 142.93 115.323 142.662C115.599 142.135 115.995 141.679 116.48 141.332Z" fill="#061E33"/>
<path d="M100.212 159.848C99.9233 159.619 99.5604 159.502 99.1911 159.519C98.4113 159.539 96.7036 159.361 96.0965 157.546C95.9665 157.111 95.9266 156.654 95.9794 156.203C96.0322 155.752 96.1765 155.316 96.4035 154.922C96.8486 154.109 97.3212 152.898 96.683 152.191C95.6549 151.066 93.5366 153.193 93.5366 153.193C93.5366 153.193 92.0911 154.205 90.8836 154.102C90.3897 154.055 89.8913 154.123 89.4288 154.302C88.9662 154.48 88.5523 154.764 88.2203 155.131C87.3337 156.116 86.8645 157.663 88.8999 159.766C88.8999 159.766 90.4386 161.141 91.2666 166.256C92.0945 171.37 94.1645 177.672 97.7628 175.809C97.9019 175.706 98.0159 175.572 98.0965 175.419C98.1771 175.266 98.2222 175.097 98.2285 174.924C98.2008 174.761 98.1322 174.606 98.0292 174.476C97.9261 174.345 97.7919 174.242 97.6386 174.176C97.4892 174.105 97.3277 174.062 97.1625 174.05C96.9909 174.04 96.8187 174.047 96.6485 174.07C96.2718 174.085 95.8961 174.023 95.5445 173.888C94.8541 173.587 94.271 173.086 93.8713 172.451C93.4785 171.836 93.1742 171.17 92.9674 170.472L92.9605 170.458V170.448C92.6879 169.175 92.3981 167.902 92.0669 166.647C91.9014 166.019 91.7254 165.391 91.5253 164.777C91.3512 164.169 91.096 163.586 90.7664 163.045C90.419 162.469 90.1411 161.854 89.9384 161.213C89.7245 160.589 89.5451 159.954 89.3933 159.313C89.2432 158.67 89.1394 158.018 89.0828 157.361C88.9944 156.706 89.0533 156.039 89.2553 155.409C89.1242 156.047 89.1242 156.705 89.2553 157.344C89.3655 157.983 89.5083 158.616 89.6831 159.241C89.8625 159.865 90.066 160.479 90.3041 161.079C90.5284 161.676 90.8116 162.25 91.1493 162.791C91.2286 162.908 91.3356 163.083 91.4218 163.227C91.4977 163.381 91.5771 163.532 91.6426 163.687C91.7772 163.995 91.891 164.307 91.998 164.623C92.2084 165.251 92.3913 165.882 92.5637 166.517C92.8915 167.789 93.1847 169.062 93.4262 170.355C93.611 171.011 93.8776 171.641 94.2197 172.231C94.5515 172.822 95.0554 173.3 95.6652 173.6C95.9725 173.737 96.305 173.808 96.6416 173.809C96.8257 173.797 97.0106 173.802 97.1936 173.827C97.3824 173.856 97.5639 173.922 97.7283 174.019C97.8969 174.107 98.0406 174.235 98.1461 174.393C98.2516 174.551 98.3155 174.732 98.332 174.921C98.3126 175.103 98.2511 175.277 98.1524 175.432C98.0536 175.586 97.9202 175.715 97.7628 175.809C97.7628 175.809 99.1428 175.782 99.1393 172.41C99.1359 170.42 99.1807 167.408 99.2152 165.278C98.9013 165.144 98.6149 164.99 98.332 164.839L97.4971 164.39C97.2295 164.247 96.9529 164.123 96.6691 164.016C96.3845 163.896 96.0684 163.872 95.7687 163.947C95.8897 163.813 96.0436 163.713 96.2154 163.656C96.3871 163.599 96.5708 163.587 96.7485 163.621C97.0956 163.661 97.4317 163.767 97.7386 163.933C98.037 164.091 98.3141 164.286 98.5632 164.513C98.8209 164.731 99.0411 164.99 99.2152 165.278C99.2428 163.8 99.2635 162.743 99.2635 162.743C99.0013 162.513 98.7839 162.283 98.5424 162.081C98.3118 161.878 98.0649 161.695 97.8042 161.532C97.267 161.201 96.6817 160.953 96.0688 160.798C96.4002 160.684 96.7558 160.658 97.1004 160.723C97.4492 160.78 97.7826 160.907 98.0801 161.097C98.3794 161.282 98.6385 161.524 98.8426 161.81C99.0476 162.088 99.1911 162.406 99.2635 162.743C99.2635 162.743 101.551 160.963 100.212 159.848ZM93.2986 160.778C92.6879 160.918 91.546 160.03 91.891 158.805C92.2912 157.382 92.0808 156.469 92.6914 156.328C93.302 156.188 93.9334 157.073 94.099 158.301C94.268 159.529 93.9092 160.637 93.2986 160.778ZM96.7106 166.208C97.0684 166.227 97.4179 166.323 97.7352 166.489C98.0472 166.647 98.3314 166.855 98.577 167.103C98.8271 167.34 99.0297 167.621 99.1738 167.933C98.5804 167.587 98.0595 167.227 97.5006 166.949C97.227 166.809 96.9419 166.693 96.6485 166.602C96.3367 166.526 96.0173 166.484 95.6963 166.479C95.9962 166.282 96.3519 166.187 96.7106 166.208Z" fill="#061E33"/>
<path d="M131.351 136.089C131.047 136.535 130.766 136.995 130.502 137.463C130.262 137.95 129.988 138.422 129.684 138.873C129.52 139.095 129.343 139.304 129.16 139.509C128.967 139.714 128.764 139.896 128.563 140.079L127.356 141.158C125.759 142.589 124.287 144.152 122.956 145.831C122.292 146.67 121.672 147.541 121.083 148.433C120.502 149.335 119.966 150.246 119.432 151.193C118.888 152.134 118.293 153.045 117.648 153.921C117.011 154.806 116.256 155.58 115.562 156.411C115.818 155.933 116.12 155.48 116.412 155.026C116.7 154.568 117.011 154.129 117.307 153.684C117.905 152.795 118.448 151.871 118.961 150.932C119.943 148.993 121.121 147.158 122.478 145.456C123.155 144.603 123.881 143.789 124.652 143.019C125.418 142.247 126.224 141.516 127.067 140.827C127.484 140.48 127.915 140.149 128.335 139.813C128.545 139.646 128.752 139.476 128.943 139.301C129.134 139.117 129.32 138.925 129.491 138.723C129.819 138.301 130.118 137.856 130.387 137.394C130.683 136.941 131.005 136.505 131.351 136.089Z" fill="#061E33"/>
<path d="M119.393 162.273C121.309 159.762 123.381 157.371 125.594 155.114C126.703 153.973 127.892 152.912 129.151 151.938C129.472 151.698 129.801 151.465 130.145 151.249C130.48 151.032 130.877 150.843 131.197 150.671C131.869 150.29 132.507 149.853 133.104 149.364C134.316 148.379 135.443 147.295 136.473 146.124C137.512 144.956 138.454 143.705 139.289 142.385C140.128 141.069 140.787 139.646 141.246 138.155C141.735 136.661 141.775 135.057 141.361 133.54C141.938 135.02 141.867 136.686 141.496 138.221C141.096 139.761 140.474 141.236 139.65 142.601C138.031 145.347 135.944 147.793 133.482 149.829C132.86 150.343 132.195 150.803 131.494 151.205C131.118 151.406 130.804 151.563 130.473 151.77C130.146 151.972 129.829 152.193 129.516 152.422C128.275 153.376 127.091 154.402 125.97 155.493C124.833 156.577 123.721 157.688 122.633 158.829C121.542 159.964 120.462 161.113 119.393 162.273Z" fill="#061E33"/>
<path d="M133.118 141.871C132.889 142.414 132.641 142.925 132.46 143.454C132.364 143.711 132.3 143.979 132.268 144.252C132.232 144.529 132.277 144.81 132.396 145.063C132.281 144.96 132.188 144.835 132.125 144.695C132.061 144.555 132.027 144.403 132.026 144.249C132.014 143.945 132.062 143.641 132.167 143.354C132.363 142.793 132.688 142.285 133.118 141.871Z" fill="#061E33"/>
<path d="M120.491 175.12C120.308 173.888 120.084 172.256 119.873 170.688C119.235 170.427 118.666 170.146 118.076 169.954C117.785 169.856 117.486 169.782 117.182 169.734C116.862 169.701 116.539 169.706 116.22 169.748C116.488 169.512 116.825 169.367 117.182 169.333C117.539 169.305 117.898 169.349 118.238 169.463C118.57 169.574 118.881 169.739 119.159 169.95C119.442 170.149 119.684 170.4 119.873 170.688C119.749 169.755 119.628 168.842 119.528 168.053C119.21 167.967 118.897 167.864 118.59 167.745L117.7 167.422C117.413 167.321 117.12 167.237 116.823 167.172C116.523 167.093 116.206 167.115 115.92 167.233C116.022 167.085 116.16 166.964 116.322 166.883C116.483 166.802 116.663 166.763 116.844 166.77C117.193 166.761 117.541 166.818 117.869 166.939C118.188 167.05 118.492 167.203 118.773 167.391C119.057 167.572 119.312 167.795 119.528 168.053C119.335 166.589 119.204 165.539 119.204 165.539C118.914 165.35 118.662 165.151 118.393 164.987C118.135 164.82 117.866 164.674 117.586 164.548C117.005 164.299 116.39 164.14 115.761 164.074C116.07 163.911 116.418 163.834 116.768 163.851C117.121 163.859 117.47 163.936 117.793 164.078C118.116 164.219 118.408 164.423 118.652 164.678C118.895 164.923 119.083 165.216 119.204 165.539C119.204 165.539 121.208 163.446 119.721 162.537C119.402 162.351 119.025 162.287 118.662 162.359C117.893 162.489 116.182 162.561 115.312 160.853C115.121 160.441 115.015 159.994 115.002 159.54C114.989 159.086 115.069 158.634 115.236 158.212C115.557 157.344 115.847 156.075 115.112 155.471C113.932 154.504 112.145 156.915 112.145 156.915C112.145 156.915 110.862 158.126 109.651 158.198C109.156 158.222 108.673 158.361 108.242 158.604C107.81 158.847 107.442 159.187 107.167 159.598C106.436 160.702 106.198 162.297 108.516 164.088C108.516 164.088 110.237 165.227 111.804 170.166C113.37 175.109 116.337 181.044 119.625 178.681C119.747 178.559 119.841 178.411 119.898 178.248C119.956 178.085 119.975 177.912 119.956 177.741C119.905 177.583 119.815 177.44 119.695 177.326C119.574 177.211 119.427 177.129 119.266 177.085C119.108 177.035 118.942 177.015 118.776 177.027C118.604 177.043 118.434 177.075 118.269 177.123C117.898 177.192 117.516 177.185 117.148 177.103C116.422 176.904 115.773 176.493 115.285 175.923C114.806 175.37 114.408 174.753 114.101 174.091L114.095 174.08L114.091 174.07C113.636 172.852 113.163 171.635 112.652 170.437C112.397 169.841 112.132 169.247 111.845 168.667C111.583 168.091 111.245 167.551 110.841 167.062C110.413 166.543 110.049 165.975 109.754 165.371C109.453 164.783 109.181 164.181 108.94 163.566C108.696 162.954 108.498 162.325 108.347 161.683C108.165 161.047 108.126 160.378 108.233 159.725C108.196 160.375 108.291 161.026 108.513 161.639C108.716 162.255 108.951 162.86 109.216 163.453C109.482 164.043 109.775 164.623 110.099 165.186C110.408 165.742 110.771 166.267 111.183 166.753C111.279 166.86 111.41 167.017 111.517 167.148C111.611 167.288 111.714 167.429 111.804 167.573C111.98 167.858 112.138 168.149 112.29 168.444C112.59 169.034 112.863 169.635 113.125 170.238C113.636 171.449 114.112 172.671 114.54 173.912C114.817 174.535 115.172 175.12 115.595 175.655C116.012 176.191 116.58 176.59 117.227 176.801C117.552 176.889 117.891 176.911 118.224 176.866C118.404 176.826 118.588 176.806 118.773 176.804C118.963 176.806 119.151 176.843 119.328 176.914C119.508 176.977 119.669 177.084 119.797 177.226C119.924 177.367 120.013 177.538 120.056 177.723C120.064 177.905 120.03 178.087 119.955 178.253C119.88 178.419 119.767 178.566 119.625 178.681C119.625 178.681 120.984 178.454 120.491 175.12ZM113.015 164.455C112.432 164.678 111.172 163.968 111.335 162.705C111.524 161.237 111.183 160.366 111.766 160.14C112.349 159.913 113.104 160.695 113.449 161.886C113.791 163.079 113.598 164.229 113.015 164.455Z" fill="#061E33"/>
<path d="M92.2881 62.803C92.478 64.4302 92.7602 66.0455 93.1333 67.641C93.4947 69.2237 93.9967 70.7713 94.6333 72.2657C94.9448 73.0094 95.3128 73.7285 95.734 74.4167C96.1451 75.1081 96.6186 75.7609 97.1486 76.367C97.6844 76.9708 98.2818 77.5176 98.9312 77.9987C99.6019 78.4694 100.319 78.871 101.072 79.1973C100.258 78.9991 99.4757 78.6908 98.7465 78.2811C98.0207 77.8489 97.3518 77.3286 96.7551 76.7323C95.5826 75.5163 94.6484 74.0937 94.0001 72.5373C93.3481 71.0005 92.8808 69.3927 92.6076 67.7471C92.3158 66.1161 92.2086 64.4577 92.2881 62.803Z" fill="#061E33"/>
<path d="M90.3623 73.8114C90.8862 75.2971 91.5081 76.7468 92.224 78.151C92.5882 78.8443 92.9636 79.53 93.3852 80.1856C93.7935 80.847 94.2458 81.4806 94.7389 82.0821C95.6945 83.3001 96.8564 84.343 98.1724 85.164C98.8407 85.5595 99.5493 85.8837 100.286 86.131C101.039 86.3692 101.813 86.5352 102.597 86.627C101.793 86.6755 100.986 86.618 100.198 86.4562C99.4026 86.2786 98.6336 86.0012 97.9088 85.6309C97.1885 85.2475 96.5116 84.7883 95.89 84.2611C95.2776 83.7275 94.7127 83.1422 94.2016 82.5119C93.1994 81.2491 92.3711 79.8589 91.7388 78.3782C91.0922 76.9182 90.6299 75.3843 90.3623 73.8114Z" fill="#061E33"/>
<path d="M76.7247 142.454C76.2264 144.015 75.8171 145.603 75.4989 147.211C75.1754 148.801 74.9946 150.418 74.9584 152.04C74.9356 152.845 74.9744 153.651 75.0745 154.451C75.1641 155.249 75.3265 156.037 75.5597 156.806C75.7991 157.576 76.1183 158.318 76.512 159.022C76.9293 159.725 77.4176 160.383 77.9693 160.988C77.3092 160.475 76.7229 159.875 76.227 159.204C75.7435 158.514 75.3482 157.766 75.05 156.979C74.4827 155.392 74.2178 153.713 74.2689 152.029C74.3085 150.362 74.5458 148.705 74.9758 147.093C75.3827 145.486 75.9693 143.93 76.7247 142.454Z" fill="#061E33"/>
<path d="M70.4254 151.707C70.29 153.276 70.259 154.851 70.3324 156.424C70.3783 157.205 70.4377 157.983 70.5517 158.753C70.6511 159.523 70.8021 160.285 71.0035 161.035C71.3724 162.536 72.0016 163.961 72.8629 165.246C73.3091 165.88 73.8215 166.464 74.3914 166.991C74.9796 167.515 75.6168 167.982 76.2944 168.386C75.5412 168.102 74.8291 167.72 74.1765 167.251C73.5248 166.765 72.9379 166.198 72.4299 165.564C71.9311 164.921 71.5034 164.226 71.154 163.492C70.8158 162.755 70.5422 161.991 70.3362 161.208C69.9433 159.647 69.7617 158.042 69.7961 156.433C69.8089 154.838 70.0203 153.251 70.4254 151.707Z" fill="#061E33"/>
<path d="M158.227 99.7671C158.296 101.422 158.18 103.08 157.878 104.709C157.595 106.353 157.118 107.958 156.457 109.491C155.8 111.044 154.857 112.461 153.678 113.67C153.077 114.263 152.406 114.779 151.677 115.207C150.946 115.613 150.161 115.916 149.347 116.11C150.101 115.788 150.821 115.391 151.494 114.924C152.146 114.446 152.747 113.903 153.286 113.302C153.82 112.699 154.297 112.049 154.712 111.36C155.138 110.675 155.51 109.958 155.826 109.216C156.471 107.725 156.982 106.181 157.353 104.6C157.736 103.007 158.027 101.393 158.227 99.7671Z" fill="#061E33"/>
<path d="M160.088 110.786C159.811 112.358 159.339 113.889 158.684 115.345C158.043 116.822 157.207 118.208 156.197 119.464C155.682 120.092 155.114 120.674 154.499 121.204C153.874 121.727 153.194 122.183 152.472 122.562C151.745 122.928 150.974 123.201 150.178 123.374C149.388 123.531 148.581 123.584 147.777 123.531C148.562 123.443 149.337 123.282 150.091 123.048C150.83 122.805 151.54 122.485 152.211 122.093C153.532 121.28 154.7 120.244 155.662 119.032C156.159 118.433 156.615 117.802 157.027 117.143C157.453 116.49 157.832 115.806 158.2 115.115C158.925 113.715 159.555 112.269 160.088 110.786Z" fill="#061E33"/>
<path d="M92.469 34.9089C92.4721 34.8344 92.4599 34.76 92.4332 34.6903C92.4064 34.6206 92.3657 34.5571 92.3134 34.5036L90.2192 32.5454C90.0586 32.4112 89.8541 32.4768 89.75 32.6903C89.6992 32.7977 89.6799 32.9172 89.6945 33.035C89.7091 33.1528 89.7569 33.2642 89.8324 33.3561L91.4903 34.9089L89.8324 36.4618C89.7322 36.5733 89.6768 36.7176 89.6768 36.8671C89.6768 37.0167 89.7322 37.161 89.8324 37.2724L91.4903 38.8253L89.8324 40.3781C89.7322 40.4896 89.6768 40.6339 89.6768 40.7835C89.6768 40.9331 89.7322 41.0774 89.8324 41.1889L91.9266 43.147C92.0872 43.2959 92.3029 43.2351 92.409 43.0129C92.4623 42.9034 92.4817 42.7806 92.4647 42.6602C92.4477 42.5397 92.395 42.427 92.3134 42.3364L90.6554 40.7835L92.3134 39.2307C92.4136 39.1192 92.469 38.9749 92.469 38.8253C92.469 38.6758 92.4136 38.5315 92.3134 38.42L90.6554 36.8671L92.3134 35.3143C92.3657 35.2608 92.4064 35.1972 92.4332 35.1275C92.4599 35.0578 92.4721 34.9834 92.469 34.9089L92.469 34.9089Z" fill="#061E33"/>
<path d="M79.9899 119.755C79.9844 119.897 80.0286 120.036 80.1151 120.149L81.4477 121.657L80.1151 123.165C80.0515 123.26 80.0119 123.368 79.9997 123.481C79.9875 123.595 80.003 123.709 80.0449 123.815C80.1279 124.026 80.2968 124.09 80.4259 123.952L82.1093 122.051C82.1907 121.935 82.2344 121.798 82.2344 121.657C82.2344 121.516 82.1907 121.379 82.1093 121.263L80.7766 119.755L82.1093 118.248C82.1907 118.132 82.2344 117.995 82.2344 117.854C82.2344 117.713 82.1907 117.576 82.1093 117.46L80.7766 115.953L82.1093 114.445C82.1728 114.35 82.2124 114.241 82.2246 114.128C82.2369 114.015 82.2214 113.9 82.1794 113.794C82.0964 113.583 81.9275 113.52 81.7984 113.658L80.1151 115.559C80.0336 115.674 79.9899 115.812 79.9899 115.953C79.9899 116.093 80.0336 116.231 80.1151 116.346L81.4477 117.854L80.1151 119.362C80.0276 119.474 79.9833 119.614 79.9899 119.755Z" fill="#061E33"/>
<path d="M72.0544 62.7856C72.0488 62.9273 72.0931 63.0665 72.1795 63.1793L73.5122 64.6871L72.1795 66.195C72.1159 66.2897 72.0764 66.3983 72.0641 66.5115C72.0519 66.6248 72.0674 66.7393 72.1093 66.8452C72.1924 67.0563 72.3613 67.12 72.4904 66.9822L74.1738 65.0807C74.2552 64.9654 74.2989 64.828 74.2989 64.6871C74.2989 64.5462 74.2552 64.4088 74.1738 64.2935L72.8411 62.7856L74.1738 61.2778C74.2552 61.1625 74.2989 61.0251 74.2989 60.8842C74.2989 60.7433 74.2552 60.6059 74.1738 60.4906L72.8411 58.9827L74.1738 57.4749C74.2373 57.3802 74.2769 57.2715 74.2891 57.1583C74.3013 57.0451 74.2858 56.9306 74.2439 56.8246C74.1609 56.6135 73.992 56.5498 73.8629 56.6877L72.1795 58.5891C72.0981 58.7044 72.0544 58.8419 72.0544 58.9827C72.0544 59.1236 72.0981 59.261 72.1795 59.3763L73.5122 60.8842L72.1795 62.392C72.0921 62.5043 72.0477 62.6438 72.0544 62.7856Z" fill="#061E33"/>
<path d="M167.846 137.784C167.841 137.934 167.894 138.079 167.995 138.19L169.577 139.743L167.995 141.296C167.92 141.389 167.873 141.501 167.858 141.619C167.844 141.737 167.862 141.857 167.912 141.965C168.01 142.183 168.211 142.248 168.364 142.106L170.362 140.148C170.458 140.034 170.511 139.891 170.511 139.743C170.511 139.594 170.458 139.451 170.362 139.337L168.78 137.784L170.362 136.232C170.458 136.118 170.511 135.975 170.511 135.826C170.511 135.678 170.458 135.534 170.362 135.421L168.78 133.868L170.362 132.315C170.437 132.222 170.484 132.11 170.499 131.992C170.514 131.874 170.495 131.754 170.446 131.646C170.347 131.428 170.147 131.363 169.993 131.505L167.995 133.463C167.899 133.576 167.846 133.72 167.846 133.868C167.846 134.016 167.899 134.16 167.995 134.273L169.577 135.826L167.995 137.379C167.944 137.434 167.905 137.498 167.88 137.567C167.854 137.637 167.843 137.711 167.846 137.784Z" fill="#061E33"/>
<path d="M173.34 76.5966L172.097 77.713C171.791 78.0346 171.62 78.4609 171.62 78.904C171.62 79.3471 171.791 79.7733 172.097 80.0949L172.455 80.4199C172.556 80.527 172.613 80.6686 172.613 80.8156C172.613 80.9627 172.556 81.1042 172.455 81.2113L172.097 81.5363C171.791 81.858 171.62 82.2842 171.62 82.7273C171.62 83.1704 171.791 83.5966 172.097 83.9182L172.455 84.2432C172.556 84.3503 172.613 84.4918 172.613 84.6389C172.613 84.786 172.556 84.9275 172.455 85.0346L172.097 85.3596C171.791 85.6812 171.62 86.1075 171.62 86.5506C171.62 86.9936 171.791 87.4199 172.097 87.7415L172.455 88.0665C172.556 88.1736 172.613 88.3151 172.613 88.4622C172.613 88.6093 172.556 88.7508 172.455 88.8579L171.209 89.9781C171.13 90.0658 171.08 90.175 171.064 90.2915C171.048 90.408 171.068 90.5266 171.12 90.6319C171.136 90.6788 171.162 90.7213 171.198 90.7555C171.233 90.7898 171.277 90.8148 171.325 90.8284C171.372 90.842 171.423 90.8438 171.471 90.8335C171.52 90.8233 171.565 90.8013 171.603 90.7696L172.846 89.6532C173.152 89.3315 173.323 88.9053 173.323 88.4622C173.323 88.0191 173.152 87.5929 172.846 87.2713L172.488 86.9463C172.436 86.8947 172.395 86.8328 172.368 86.7647C172.342 86.6965 172.329 86.6236 172.333 86.5506C172.329 86.4773 172.342 86.4041 172.369 86.3358C172.396 86.2676 172.437 86.2059 172.49 86.1549L172.848 85.8299C173.153 85.5074 173.323 85.0815 173.323 84.6389C173.323 84.1964 173.153 83.7704 172.848 83.4479L172.49 83.123C172.389 83.0159 172.333 82.8743 172.333 82.7273C172.333 82.5802 172.389 82.4387 172.49 82.3316L172.848 82.0066C173.153 81.6841 173.323 81.2582 173.323 80.8156C173.323 80.3731 173.153 79.9472 172.848 79.6247L172.49 79.2997C172.389 79.1925 172.333 79.051 172.333 78.904C172.333 78.7569 172.389 78.6154 172.49 78.5082L173.734 77.3881C173.816 77.3012 173.87 77.1915 173.888 77.0734C173.906 76.9554 173.887 76.8347 173.834 76.7276C173.818 76.6792 173.791 76.6356 173.754 76.6005C173.717 76.5655 173.672 76.5403 173.623 76.5273C173.574 76.5142 173.522 76.5137 173.473 76.5258C173.423 76.538 173.377 76.5623 173.34 76.5966V76.5966Z" fill="#061E33"/>
<path d="M158.69 34.5665L157.377 33.419C157.271 33.3107 157.211 33.1652 157.211 33.0137C157.211 32.8622 157.271 32.7167 157.377 32.6083L157.755 32.2754C158.077 31.9503 158.258 31.512 158.258 31.0555C158.258 30.5989 158.077 30.1607 157.755 29.8355L157.377 29.5026C157.271 29.3943 157.211 29.2488 157.211 29.0973C157.211 28.9458 157.271 28.8003 157.377 28.692L157.755 28.359C158.077 28.0339 158.258 27.5957 158.258 27.1391C158.258 26.6825 158.077 26.2443 157.755 25.9191L157.377 25.5863C157.271 25.4779 157.211 25.3324 157.211 25.1809C157.211 25.0294 157.271 24.8839 157.377 24.7755L157.755 24.4427C158.077 24.1175 158.258 23.6793 158.258 23.2227C158.258 22.7661 158.077 22.3279 157.755 22.0028L156.444 20.8592C156.404 20.8266 156.357 20.804 156.306 20.7935C156.256 20.7829 156.203 20.7846 156.153 20.7984C156.104 20.8122 156.058 20.8378 156.02 20.8729C155.982 20.908 155.953 20.9517 155.936 21.0002C155.881 21.1078 155.86 21.2299 155.877 21.3497C155.893 21.4695 155.947 21.5812 156.03 21.6698L157.343 22.8174C157.449 22.9257 157.509 23.0712 157.509 23.2227C157.509 23.3742 157.449 23.5197 157.343 23.6281L156.966 23.9609C156.643 24.2861 156.462 24.7243 156.462 25.1809C156.462 25.6375 156.643 26.0757 156.966 26.4009L157.343 26.7338C157.449 26.8421 157.509 26.9876 157.509 27.1391C157.509 27.2906 157.449 27.4361 157.343 27.5444L156.966 27.8773C156.643 28.2025 156.462 28.6407 156.462 29.0973C156.462 29.5539 156.643 29.9921 156.966 30.3173L157.343 30.6501C157.449 30.7584 157.509 30.9039 157.509 31.0555C157.509 31.207 157.449 31.3525 157.343 31.4608L156.966 31.7937C156.643 32.1189 156.462 32.5571 156.462 33.0137C156.462 33.4703 156.643 33.9085 156.966 34.2336L158.276 35.3772C158.315 35.4117 158.363 35.4359 158.414 35.4479C158.466 35.4599 158.519 35.4593 158.57 35.4461C158.621 35.4328 158.668 35.4074 158.707 35.3721C158.746 35.3367 158.775 35.2924 158.793 35.2431C158.85 35.134 158.871 35.0098 158.852 34.8882C158.834 34.7667 158.777 34.654 158.69 34.5665H158.69Z" fill="#061E33"/>
<path d="M134.086 27.6056C134.113 27.9979 134.02 28.3891 133.82 28.7283C133.62 29.0675 133.323 29.3391 132.965 29.5077C132.608 29.6764 132.208 29.7342 131.817 29.6738C131.427 29.6134 131.063 29.4375 130.774 29.1691C130.486 28.9006 130.285 28.5519 130.198 28.1683C130.111 27.7847 130.142 27.384 130.287 27.0183C130.432 26.6526 130.685 26.3387 131.011 26.1175C131.338 25.8963 131.725 25.7781 132.12 25.7781C132.624 25.7622 133.114 25.9456 133.483 26.2881C133.851 26.6306 134.068 27.1044 134.086 27.6056Z" fill="#061E33"/>
<path d="M156.956 150.968C156.983 151.362 156.89 151.754 156.69 152.095C156.489 152.435 156.19 152.707 155.832 152.877C155.473 153.046 155.072 153.104 154.68 153.043C154.288 152.983 153.924 152.806 153.634 152.537C153.344 152.267 153.142 151.918 153.055 151.533C152.968 151.148 152.999 150.746 153.145 150.379C153.29 150.012 153.544 149.697 153.872 149.476C154.2 149.254 154.587 149.135 154.984 149.135C155.49 149.119 155.981 149.303 156.351 149.647C156.721 149.99 156.938 150.466 156.956 150.968Z" fill="#061E33"/>
<path d="M179.344 57.9232C179.366 58.2384 179.291 58.5528 179.131 58.8254C178.97 59.098 178.731 59.3162 178.444 59.4517C178.156 59.5872 177.835 59.6337 177.521 59.5852C177.207 59.5367 176.915 59.3953 176.683 59.1795C176.451 58.9638 176.289 58.6836 176.219 58.3753C176.15 58.0671 176.175 57.7451 176.291 57.4512C176.408 57.1573 176.611 56.9051 176.873 56.7273C177.136 56.5496 177.447 56.4545 177.764 56.4545C178.17 56.4415 178.563 56.5889 178.86 56.8641C179.156 57.1394 179.33 57.5203 179.344 57.9232Z" fill="#061E33"/>
<path d="M107.698 123.422C107.719 123.737 107.645 124.051 107.484 124.324C107.324 124.596 107.084 124.815 106.797 124.95C106.51 125.086 106.189 125.132 105.875 125.084C105.561 125.035 105.269 124.894 105.036 124.678C104.804 124.462 104.643 124.182 104.573 123.874C104.503 123.566 104.528 123.244 104.645 122.95C104.761 122.656 104.964 122.403 105.227 122.226C105.49 122.048 105.8 121.953 106.118 121.953C106.523 121.94 106.917 122.087 107.213 122.363C107.509 122.638 107.684 123.019 107.698 123.422Z" fill="#061E33"/>
<path d="M124.739 56.5004C126.071 56.5004 126.073 54.4423 124.739 54.4423C123.407 54.4423 123.405 56.5004 124.739 56.5004Z" fill="#061E33"/>
<path d="M87.4627 91.872C88.7946 91.872 88.7968 89.8138 87.4627 89.8138C86.1307 89.8138 86.1285 91.872 87.4627 91.872Z" fill="#061E33"/>
<path d="M167.845 118.188C169.177 118.188 169.18 116.129 167.845 116.129C166.514 116.129 166.511 118.188 167.845 118.188Z" fill="#061E33"/>
<path d="M151.519 84.7134C152.851 84.7134 152.853 82.6553 151.519 82.6553C150.187 82.6553 150.185 84.7134 151.519 84.7134Z" fill="#061E33"/>
</svg>
