<svg width="202" height="206" viewBox="0 0 202 206" fill="none" xmlns="http://www.w3.org/2000/svg">
<path d="M129.08 33.3414C129.299 34.0963 129.433 34.6425 129.453 34.722C129.553 35.1004 129.702 35.4642 129.895 35.8046C129.945 35.894 129.989 35.9884 130.034 36.0827C137.036 35.9685 144.04 35.8328 151.046 35.6755C151.354 35.3229 151.647 35.01 151.92 34.722C152.253 34.3694 152.561 34.0665 152.844 33.8082C144.923 33.6245 137.002 33.4689 129.08 33.3414ZM146.527 172.99C128.922 172.26 111.321 171.863 93.7213 171.66L80.5212 171.54C76.1261 171.491 71.7261 171.486 67.326 171.486C62.926 171.491 58.526 171.461 54.1259 171.491L40.9308 171.6L27.7307 171.804L24.4331 171.853L22.7844 171.883L22.0692 171.893L22.0642 171.272L22.0245 167.97C21.9202 159.17 21.8407 150.374 21.6421 141.574L20.9568 115.179C20.7482 106.379 20.5694 97.579 20.5694 88.7789C20.5247 84.3789 20.5992 79.9838 20.6141 75.5838C20.6886 71.1837 20.7383 66.7837 20.8723 62.3836L21.662 36.5943C21.6722 36.5775 21.6869 36.5639 21.7045 36.5551C21.722 36.5463 21.7417 36.5427 21.7613 36.5446C21.7699 36.5438 21.7785 36.5456 21.7861 36.5496H21.7961L21.9153 36.5545L22.7396 36.5645L26.0372 36.5943L32.6372 36.6538L39.2373 36.7085L45.8373 36.7234C54.6374 36.7631 63.4325 36.7085 72.2326 36.6688L85.4327 36.6092L98.6279 36.485C103.634 36.4502 108.64 36.3973 113.646 36.3261C113.586 36.1622 113.531 35.9933 113.482 35.8245C113.373 35.4646 113.299 35.0956 113.258 34.722C113.19 34.1822 113.244 33.6338 113.417 33.1179C108.486 33.0484 103.556 32.9954 98.6279 32.959L85.4327 32.8348L72.2326 32.7752C63.4325 32.7355 54.6374 32.6809 45.8373 32.7206L39.2373 32.7355L32.6372 32.7901L26.0372 32.8497L22.7396 32.8795L21.9153 32.8894L21.8109 32.8944L21.6222 32.8994C21.2209 32.9301 20.8261 33.0188 20.4502 33.1626C19.9558 33.3627 19.5101 33.6666 19.1434 34.0539C18.7767 34.4412 18.4975 34.9027 18.3247 35.4073C18.2375 35.6581 18.1792 35.918 18.1508 36.1821C18.135 36.3122 18.1267 36.4432 18.126 36.5744L18.131 36.7085V36.8128L18.1508 37.6372L18.1956 39.2859L18.2849 42.5885L18.4885 49.1835L18.8858 62.3836C19.0199 66.7837 19.0696 71.1837 19.1491 75.5838C19.159 79.9838 19.2334 84.3789 19.1938 88.7789C19.1938 97.579 19.015 106.379 18.8064 115.179L18.121 141.574C17.9175 150.374 17.838 159.17 17.7337 167.97L17.699 171.272L17.689 172.097V172.196L17.694 172.409C17.699 172.553 17.7138 172.697 17.7337 172.846C17.7783 173.139 17.8549 173.425 17.9621 173.701C18.174 174.256 18.5034 174.758 18.9277 175.174C19.352 175.59 19.8612 175.909 20.4204 176.109C20.6998 176.211 20.9896 176.281 21.2845 176.318C21.4312 176.337 21.5787 176.349 21.7265 176.353L21.9847 176.358H22.8092L24.458 176.362L27.7605 176.367L40.9606 176.372L54.1558 176.293C58.5558 176.253 62.9558 176.164 67.3559 176.099C71.7559 176.035 76.151 175.965 80.551 175.856L93.7511 175.538C111.346 175.076 128.937 174.426 146.532 173.437C146.589 173.434 146.642 173.408 146.681 173.366C146.72 173.324 146.741 173.269 146.741 173.212C146.74 173.154 146.717 173.1 146.678 173.058C146.638 173.017 146.584 172.993 146.527 172.99L146.527 172.99ZM125.694 33.2868C125.47 33.2818 125.252 33.2818 125.028 33.2768C124.447 33.2669 123.866 33.2619 123.285 33.252C123.37 33.3712 123.461 33.4856 123.558 33.5947C124.477 34.6425 125.53 34.2899 125.694 33.5301C125.706 33.4495 125.706 33.3674 125.694 33.2868H125.694Z" fill="#061E33"/>
<path d="M156.39 8.7977C156.396 8.82541 156.424 8.80875 156.407 8.82736L156.375 8.87633L156.313 8.97519C156.273 9.04238 156.231 9.10768 156.194 9.1767C156.117 9.31197 156.045 9.45034 155.977 9.5902C155.84 9.86985 155.716 10.1544 155.605 10.4438C155.389 11.0212 155.242 11.6224 155.168 12.2346C155.015 13.4423 155.192 14.6689 155.681 15.784L155.685 15.7943C155.691 15.8109 155.696 15.8282 155.699 15.8459C155.827 16.4216 155.824 17.0189 155.69 17.5933C155.64 17.7461 155.571 17.8923 155.486 18.0286L155.289 18.3708L154.905 19.0595C154.78 19.2891 154.659 19.5204 154.551 19.7502C154.497 19.8646 154.447 19.9798 154.407 20.0877C154.389 20.1358 154.373 20.1849 154.36 20.2347C154.357 20.2518 154.354 20.2703 154.354 20.2703C154.347 20.2721 154.376 20.2534 154.309 20.1253C154.264 20.0551 154.194 20.0046 154.113 19.9843L154.152 19.9928L154.235 20.0082L154.41 20.032C154.529 20.0449 154.649 20.0519 154.769 20.0527C154.996 20.0582 155.223 20.0312 155.442 19.9727C155.535 19.9452 155.635 19.9524 155.724 19.9929C155.812 20.0335 155.883 20.1048 155.922 20.1934L155.929 20.2074C156.252 20.9236 156.628 21.6144 157.056 22.2738C157.474 22.9285 157.959 23.5389 158.501 24.0955C159.004 24.637 159.631 25.0484 160.328 25.2945C160.665 25.3972 161.018 25.4321 161.367 25.3973C161.717 25.3624 162.056 25.2584 162.366 25.0914L162.391 25.0788C162.471 25.04 162.562 25.0303 162.648 25.0512C162.734 25.0722 162.81 25.1226 162.862 25.1936C163.304 25.7872 163.714 26.4038 164.09 27.0409C164.28 27.3643 164.453 27.6974 164.608 28.0388C164.788 28.4041 164.893 28.8015 164.917 29.2079L164.817 28.9894L167.792 31.6588C168.788 32.5434 169.792 33.4187 170.804 34.2847L173.858 36.8617C174.872 37.7252 175.91 38.5619 176.938 39.4081L176.542 39.57L176.913 33.9056L177.33 28.2451L177.504 28.6438C176.836 28.1255 176.215 27.5876 175.599 27.025C174.988 26.4618 174.392 25.8794 173.83 25.2588C173.257 24.6407 172.728 23.9833 172.247 23.2915C171.744 22.5818 171.341 21.8071 171.049 20.9885L171.296 21.2879C170.473 20.8281 169.674 20.3267 168.902 19.7858C168.518 19.5068 168.14 19.2136 167.774 18.8884C167.358 18.5436 167.016 18.1171 166.771 17.6351C166.73 17.5465 166.716 17.4472 166.733 17.3506C166.75 17.2541 166.796 17.1652 166.865 17.0958L166.895 17.066C167.144 16.8062 167.345 16.5054 167.49 16.1768C167.641 15.8393 167.736 15.4794 167.771 15.1114C167.799 14.7374 167.768 14.3613 167.68 13.9967C167.633 13.8103 167.573 13.6273 167.501 13.4488C167.44 13.2768 167.362 13.1113 167.268 12.9546C167.104 12.6717 166.843 12.4577 166.533 12.3521C166.224 12.2465 165.886 12.2562 165.583 12.3796C165.005 12.6365 164.754 13.4487 164.685 14.2345L164.684 14.2568C164.68 14.3027 164.667 14.3474 164.645 14.3882C164.624 14.4291 164.595 14.4654 164.56 14.495C164.524 14.5246 164.483 14.5469 164.44 14.5608C164.396 14.5746 164.349 14.5797 164.303 14.5756C164.288 14.5741 164.272 14.5716 164.256 14.5682C163.42 14.3721 162.601 14.1123 161.805 13.7909C161.009 13.48 160.243 13.0964 159.517 12.6448C158.787 12.1937 158.126 11.6394 157.554 10.9992C156.993 10.3706 156.594 9.61504 156.39 8.7977ZM156.409 8.7002C156.725 9.48011 157.187 10.192 157.772 10.7971C158.363 11.3675 159.031 11.8536 159.755 12.2416C160.476 12.6397 161.231 12.9704 162.013 13.2296C162.788 13.4966 163.582 13.7045 164.388 13.8514L163.958 14.1849C163.972 13.717 164.062 13.2545 164.224 12.8153C164.401 12.3182 164.754 11.9035 165.217 11.6502C165.457 11.5283 165.718 11.4549 165.986 11.4341C166.254 11.4133 166.524 11.4456 166.779 11.5291C167.279 11.6938 167.712 12.0174 168.011 12.4507C168.146 12.6545 168.259 12.8717 168.349 13.0988C168.443 13.3132 168.523 13.5338 168.588 13.7588C168.715 14.2213 168.769 14.7008 168.747 15.18C168.718 15.6642 168.603 16.1395 168.409 16.5841C168.216 17.041 167.939 17.4581 167.594 17.8143L167.718 17.2453C167.914 17.5759 168.168 17.8684 168.468 18.1088C168.796 18.3919 169.152 18.6604 169.518 18.9183C170.256 19.437 171.02 19.9185 171.807 20.3608C171.924 20.4269 172.012 20.5335 172.055 20.6603C172.32 21.3843 172.673 22.0729 173.107 22.7106C173.55 23.3719 174.039 24.0015 174.57 24.5948C175.097 25.1989 175.664 25.7733 176.248 26.3304C176.832 26.8837 177.441 27.4294 178.059 27.9261L178.071 27.9358C178.128 27.9822 178.173 28.042 178.201 28.1099C178.23 28.1778 178.241 28.2517 178.234 28.325L177.65 33.9707L177.022 39.6124L177.021 39.6224C177.016 39.6658 176.999 39.7071 176.973 39.7417C176.946 39.7763 176.91 39.8029 176.869 39.8186C176.829 39.8343 176.784 39.8385 176.741 39.8307C176.698 39.8229 176.658 39.8034 176.625 39.7744C175.629 38.8901 174.641 37.9962 173.629 37.1292L170.608 34.5145C169.592 33.6523 168.571 32.7971 167.544 31.9488L164.443 29.4266C164.414 29.4036 164.391 29.375 164.374 29.3426C164.357 29.3101 164.347 29.2746 164.344 29.2381L164.342 29.2079C164.297 28.8911 164.194 28.5853 164.038 28.3058C163.877 27.9946 163.7 27.6919 163.509 27.399C163.117 26.8057 162.695 26.2336 162.244 25.6848L162.74 25.7869C162.343 26.0108 161.908 26.1607 161.458 26.2294C160.998 26.2928 160.529 26.2578 160.084 26.1269C159.24 25.8543 158.479 25.3723 157.872 24.726C157.283 24.1239 156.765 23.4553 156.331 22.7335C155.891 22.0256 155.506 21.2851 155.179 20.5184L155.665 20.7531C155.368 20.8288 155.061 20.861 154.755 20.8487C154.608 20.8448 154.462 20.8335 154.317 20.8149L154.096 20.7804L153.983 20.757L153.925 20.743C153.871 20.7279 153.819 20.7044 153.773 20.6733C153.724 20.6395 153.682 20.5958 153.651 20.5449C153.589 20.4436 153.563 20.3241 153.578 20.2062C153.583 20.1519 153.593 20.0981 153.607 20.0453C153.628 19.9663 153.654 19.8886 153.684 19.8126C153.74 19.6715 153.8 19.544 153.861 19.4183C153.985 19.1682 154.116 18.9296 154.251 18.6939C154.384 18.4576 154.524 18.227 154.669 17.9994L154.887 17.6586C154.949 17.5728 155 17.4794 155.039 17.3808C155.161 16.9164 155.182 16.4312 155.101 15.958L155.119 16.0197C154.767 15.1003 154.603 14.1192 154.639 13.1351C154.662 12.8114 154.704 12.4893 154.767 12.1708C154.891 11.5395 155.089 10.9252 155.359 10.341C155.493 10.0513 155.643 9.76963 155.81 9.49742C155.893 9.36188 155.98 9.22845 156.072 9.09875C156.116 9.03266 156.165 8.96994 156.212 8.9059L156.285 8.81143L156.322 8.76467C156.344 8.73477 156.374 8.71227 156.409 8.7002Z" fill="#061E33"/>
<path d="M166.245 19.0557C166.211 19.9416 166.034 20.8163 165.723 21.6463C165.571 22.0669 165.375 22.4706 165.14 22.8508C165.019 23.0455 164.875 23.2254 164.711 23.3867C164.634 23.4753 164.539 23.5464 164.432 23.5954C164.325 23.6443 164.209 23.6699 164.091 23.6705C164.281 23.5788 164.433 23.4243 164.522 23.2333C164.625 23.0509 164.718 22.8623 164.798 22.6686C164.959 22.2774 165.112 21.8784 165.257 21.4744C165.544 20.6514 165.873 19.844 166.245 19.0557Z" fill="#061E33"/>
<path d="M155.143 15.1807C155.345 15.0187 155.575 14.8968 155.823 14.8218C156.066 14.7428 156.319 14.6966 156.575 14.6843C156.835 14.6755 157.095 14.7071 157.345 14.7779C157.601 14.8498 157.832 14.9889 158.015 15.1807L157.286 15.1608C157.053 15.1675 156.825 15.1689 156.594 15.1803C156.111 15.2108 155.626 15.2109 155.143 15.1807Z" fill="#061E33"/>
<path d="M156.949 22.8933C157.382 22.597 157.798 22.2767 158.194 21.9338C158.371 21.7666 158.529 21.5807 158.666 21.3794C158.804 21.1547 158.921 20.9174 159.015 20.6707C159.111 20.9528 159.112 21.2588 159.018 21.5416C158.92 21.8279 158.754 22.0863 158.535 22.2948C158.318 22.4922 158.066 22.6476 157.793 22.7532C157.526 22.8628 157.238 22.9107 156.949 22.8933Z" fill="#061E33"/>
<path d="M157.015 17.5456C157.202 17.5392 157.379 17.4604 157.509 17.3258C157.639 17.1913 157.712 17.0116 157.712 16.8246C157.712 16.6376 157.639 16.4578 157.509 16.3233C157.379 16.1888 157.202 16.11 157.015 16.1035C156.828 16.11 156.651 16.1888 156.521 16.3233C156.391 16.4578 156.319 16.6376 156.319 16.8246C156.319 17.0116 156.391 17.1913 156.521 17.3258C156.651 17.4604 156.828 17.5392 157.015 17.5456Z" fill="#061E33"/>
<path d="M171.552 20.8245C179.314 17.7683 172.936 6.98007 172.936 6.98007C174.167 8.21068 180.089 1.90377 172.936 0.288586C165.783 -1.3266 167.86 4.36501 167.86 4.36501C159.784 1.98068 156.4 8.74908 156.4 8.74908C156.4 8.74908 156.999 12.2402 164.322 14.2099C164.322 14.2099 164.736 10.3145 167.624 12.681C168.121 13.396 168.354 14.2608 168.285 15.1285C168.216 15.9961 167.848 16.813 167.245 17.4403C167.245 17.4403 170.777 21.1297 171.552 20.8245Z" fill="#061E33"/>
<path d="M164.634 29.2573C163.035 29.4965 161.451 29.8281 159.89 30.2504C159.117 30.4544 158.36 30.7112 157.623 31.0188C156.92 31.2655 156.303 31.7095 155.846 32.2977L155.716 31.8353C156.575 32.3602 157.315 33.059 157.887 33.8868C158.177 34.2884 158.437 34.711 158.665 35.151C158.872 35.5978 159.068 36.0547 159.233 36.5185C159.832 38.3936 160 40.3798 159.724 42.329C159.698 42.5707 159.682 42.8145 159.647 43.0545L159.5 43.7662L159.192 45.186C158.889 46.1011 158.627 47.0329 158.265 47.9222C157.874 48.7992 157.531 49.6976 157.101 50.552L155.767 53.0894L155.77 52.8645C156.55 54.5002 157.345 56.1281 158.156 57.7483L158.071 57.6724C159.137 58.0605 160.226 58.3831 161.332 58.6385C162.436 58.9089 163.552 59.1253 164.673 59.3084C166.916 59.6461 169.184 59.7893 171.451 59.7367L173.144 59.6584L174.826 59.4749C175.941 59.3294 177.047 59.1274 178.142 58.8697L179.766 58.4293C180.302 58.2688 180.818 58.0488 181.346 57.8622L182.132 57.5709C182.388 57.4595 182.635 57.3266 182.886 57.2057L184.389 56.465L184.165 56.7243C184.949 54.4397 185.612 52.1156 186.153 49.7615C186.712 47.4168 187.092 45.0332 187.292 42.6311C187.464 40.2486 187.427 37.8037 186.68 35.5648C186.333 34.4477 185.737 33.4241 184.936 32.5713C184.101 31.7395 183.062 31.1423 181.923 30.8401L181.908 30.8358C181.894 30.8318 181.881 30.8261 181.868 30.8187L177.757 28.3283C177.746 28.3216 177.738 28.3109 177.735 28.2984C177.732 28.286 177.734 28.2727 177.74 28.2615C177.746 28.2502 177.757 28.2419 177.769 28.2382C177.781 28.2345 177.795 28.2357 177.806 28.2416L182.079 30.4429L182.024 30.4216C183.269 30.6855 184.42 31.2767 185.36 32.1342C186.282 33.0164 186.982 34.104 187.404 35.3084C188.273 37.6927 188.374 40.2302 188.271 42.6921C188.118 45.1542 187.755 47.5987 187.187 49.9992C186.638 52.3978 185.937 54.7592 185.089 57.0692L185.08 57.0933C185.042 57.1969 184.965 57.2814 184.865 57.3287L183.287 58.0768C183.023 58.1984 182.763 58.3319 182.495 58.4433L181.673 58.7336C181.123 58.9191 180.582 59.1373 180.024 59.2946L178.335 59.7093C176.075 60.1919 173.766 60.4119 171.455 60.3648C169.159 60.3176 166.871 60.0855 164.612 59.6709C162.353 59.2772 160.129 58.7076 157.959 57.9672C157.924 57.9552 157.894 57.93 157.877 57.8968L157.874 57.8912C157.047 56.2796 156.201 54.6773 155.338 53.084C155.321 53.0527 155.311 53.0178 155.31 52.9822C155.309 52.9466 155.316 52.9113 155.331 52.8789L155.341 52.859L156.541 50.2938C156.927 49.4341 157.221 48.5384 157.566 47.6651C157.725 47.2246 157.862 46.7762 157.977 46.3218L158.371 44.9757L158.634 43.6046L158.773 42.9209C158.805 42.6916 158.819 42.4603 158.842 42.2302C159.106 40.4041 158.975 38.5427 158.458 36.7715C158.313 36.341 158.14 35.9177 157.957 35.502C157.755 35.095 157.524 34.7035 157.264 34.3307C156.762 33.5864 156.127 32.9408 155.392 32.426L155.354 32.4011C155.285 32.3546 155.237 32.2829 155.219 32.2012C155.202 32.1195 155.217 32.0342 155.261 31.9635C155.518 31.5816 155.862 31.2654 156.263 31.0406C156.628 30.8259 157.011 30.6428 157.407 30.4932C158.18 30.206 158.974 29.9766 159.781 29.8066C161.378 29.4765 162.997 29.26 164.625 29.1585C164.638 29.1577 164.651 29.1622 164.661 29.1709C164.67 29.1797 164.676 29.192 164.677 29.2051C164.678 29.2176 164.674 29.2297 164.666 29.2393C164.658 29.249 164.647 29.2554 164.634 29.2573Z" fill="#061E33"/>
<path d="M130.858 42.4045C132.318 42.3052 133.783 42.2257 135.244 42.1612C137.886 42.037 140.523 41.9675 143.165 41.9129C144.212 41.8979 145.26 41.888 146.308 41.8831C146.09 42.1959 145.876 42.5138 145.653 42.8465C144.828 42.8713 144.004 42.8912 143.179 42.9061C140.542 42.9408 137.9 42.9657 135.258 42.9359C133.873 42.921 132.492 42.8962 131.107 42.8564L130.858 42.4045Z" fill="#061E33"/>
<path d="M140.985 50.2462C140.92 50.3505 140.855 50.4548 140.796 50.5641L139.718 50.6187C138.849 50.6634 137.98 50.6982 137.111 50.7279C136.977 50.579 136.843 50.425 136.704 50.2661C137.707 50.2462 138.705 50.2313 139.708 50.2363L140.985 50.2462Z" fill="#061E33"/>
<path d="M117.02 41.2834C115.671 41.3164 114.324 41.338 112.982 41.4085C112.311 41.4419 111.641 41.495 110.978 41.5563C110.648 41.5897 110.318 41.629 110 41.6877C109.847 41.7144 109.695 41.7507 109.547 41.7965C109.485 41.8147 109.426 41.8391 109.369 41.8693C109.357 41.8755 109.346 41.8834 109.336 41.8927C109.351 41.8796 109.363 41.8634 109.371 41.8452C109.379 41.827 109.383 41.8072 109.383 41.7873L109.059 42.0884C108.963 42.0959 108.867 42.1145 108.775 42.1437C108.698 42.1658 108.627 42.2028 108.565 42.2525C108.548 42.2674 108.534 42.2855 108.524 42.3057C108.514 42.3259 108.509 42.3479 108.507 42.3703C108.504 42.4414 108.515 42.5124 108.539 42.5793C108.559 42.6551 108.555 42.7351 108.528 42.8087C108.501 42.8823 108.453 42.946 108.389 42.9914C108.264 43.081 108.147 43.1811 108.039 43.2908C107.937 43.3916 107.85 43.5059 107.779 43.6304C107.728 43.7143 107.704 43.8121 107.712 43.9101C107.732 43.996 107.78 44.0729 107.848 44.1296C107.922 44.2014 107.965 44.299 107.969 44.402C107.973 44.5051 107.937 44.6057 107.868 44.6828L107.853 44.7002C107.565 45.0238 107.332 45.529 107.439 45.7507C107.507 45.8972 107.629 46.0125 107.779 46.0734C107.87 46.1194 107.964 46.1574 108.062 46.1868L108.454 46.2852C109.504 46.5415 110.556 46.7878 111.611 47.024C112.666 47.2551 113.724 47.4684 114.782 47.6372C115.31 47.7244 115.839 47.8023 116.363 47.8529C116.858 47.915 117.359 47.9192 117.855 47.8655L117.861 47.8646C117.966 47.8482 118.074 47.8667 118.167 47.9174C118.261 47.9681 118.335 48.0481 118.378 48.1451C118.422 48.2421 118.432 48.3508 118.408 48.4543C118.384 48.5577 118.326 48.6504 118.244 48.7179C117.688 49.182 117.188 49.7092 116.754 50.2889C116.322 50.8364 116.023 51.4775 115.883 52.1609C115.834 52.4793 115.851 52.8046 115.935 53.1159C116.018 53.4272 116.166 53.7176 116.368 53.9685C116.448 54.0678 116.552 54.1437 116.671 54.188C116.79 54.2324 116.919 54.2435 117.044 54.2201C117.333 54.1578 117.588 53.989 117.758 53.7473C117.851 53.6218 117.925 53.4826 117.976 53.3347C118.002 53.2599 118.023 53.1832 118.037 53.1052L118.109 52.7824C118.244 52.3594 118.493 51.9817 118.828 51.6905C119.465 51.1509 120.251 50.816 121.081 50.7293C121.492 50.6581 121.913 50.6907 122.308 50.8241C122.406 50.8621 122.501 50.9055 122.594 50.9542C122.676 51.0059 122.764 51.0473 122.857 51.0774C123.027 51.1447 123.205 51.1912 123.387 51.2157C124.141 51.3085 124.905 51.1564 125.567 50.7817C124.929 51.2485 124.151 51.4826 123.362 51.4447C122.962 51.4358 122.568 51.2382 122.218 51.2646C121.863 51.2571 121.508 51.27 121.154 51.3034C120.449 51.3897 119.786 51.6843 119.25 52.1496C119.005 52.3679 118.825 52.6491 118.73 52.9627L118.683 53.2029C118.669 53.3147 118.647 53.4252 118.616 53.5335C118.554 53.7532 118.457 53.9613 118.329 54.1497C118.066 54.5522 117.66 54.8399 117.193 54.9544C116.94 55.0103 116.677 54.9991 116.43 54.922C116.183 54.8449 115.96 54.7045 115.783 54.5147C115.483 54.1816 115.257 53.7872 115.124 53.3586C114.995 52.9316 114.959 52.4822 115.016 52.0401C115.156 51.208 115.491 50.4209 115.994 49.7433C116.464 49.0813 117.018 48.4828 117.642 47.9627L118.03 48.815C117.447 48.8916 116.857 48.8961 116.273 48.8284C115.714 48.7788 115.167 48.7041 114.623 48.617C113.536 48.4341 112.466 48.2084 111.4 47.9653C110.334 47.724 109.275 47.457 108.224 47.1641L107.828 47.0538C107.666 47.0036 107.509 46.9372 107.36 46.8557C107.013 46.6837 106.746 46.3837 106.615 46.0189C106.514 45.6526 106.553 45.2619 106.723 44.9223C106.859 44.6315 107.043 44.3655 107.266 44.1352L107.272 44.7056C107.078 44.5144 106.956 44.2631 106.924 43.993C106.907 43.732 106.973 43.4722 107.111 43.2503C107.223 43.0676 107.361 42.9014 107.519 42.7565C107.667 42.6175 107.828 42.4925 107.999 42.3828L107.849 42.7948C107.795 42.6191 107.782 42.4334 107.811 42.2519C107.848 42.0439 107.959 41.8561 108.123 41.7229C108.261 41.6151 108.421 41.5383 108.592 41.4977C108.745 41.4587 108.902 41.4393 109.059 41.4398L108.736 41.7409C108.749 41.6166 108.809 41.5019 108.903 41.4199C108.957 41.374 109.017 41.3354 109.081 41.3052C109.176 41.2609 109.274 41.2264 109.376 41.202C109.552 41.1587 109.731 41.1267 109.911 41.1062C110.259 41.0633 110.601 41.0436 110.942 41.0294C111.624 40.9994 112.301 41.0176 112.977 41.0352C114.329 41.0787 115.677 41.1506 117.02 41.2834Z" fill="#061E33"/>
<path d="M115.943 42.8599C114.778 42.8234 113.617 42.7016 112.469 42.4957C111.897 42.3946 111.327 42.2896 110.76 42.1636C110.191 42.0445 109.632 41.8957 109.06 41.7639C109.645 41.7084 110.234 41.714 110.819 41.7804C111.401 41.829 111.977 41.9135 112.552 42.0063C113.705 42.1915 114.84 42.4772 115.943 42.8599Z" fill="#061E33"/>
<path d="M108.194 42.6873C109.344 42.7206 110.488 42.8578 111.614 43.0972C112.174 43.2158 112.733 43.3454 113.285 43.5092C113.561 43.5902 113.835 43.6805 114.107 43.7803C114.386 43.869 114.649 44.0019 114.886 44.174C114.611 44.0969 114.33 44.0441 114.046 44.0164L113.2 43.8872C112.635 43.8014 112.075 43.6932 111.514 43.5835C110.387 43.3656 109.278 43.066 108.194 42.6873Z" fill="#061E33"/>
<path d="M107.56 44.4177C108.932 44.4283 110.301 44.5589 111.65 44.808C112.324 44.9316 112.996 45.0722 113.658 45.2613C114.338 45.4085 114.981 45.6905 115.549 46.0906C115.239 45.9531 114.911 45.8607 114.575 45.8161L113.573 45.6393L111.563 45.2965C110.224 45.0495 108.885 44.7994 107.56 44.4177Z" fill="#061E33"/>
<path d="M164.374 28.2851C166.599 28.3682 168.758 28.5806 170.916 28.6388C171.986 28.6875 173.058 28.6707 174.126 28.5886C175.204 28.5383 176.263 28.2891 177.25 27.8535C176.424 28.6466 175.376 29.17 174.245 29.3544C173.141 29.5864 172.012 29.6793 170.885 29.631C169.77 29.5903 168.661 29.4591 167.567 29.2385C166.473 29.0301 165.403 28.7107 164.374 28.2851Z" fill="#061E33"/>
<path d="M159.376 58.2705C159.552 59.3076 159.635 60.3584 159.624 61.4102C159.636 62.4621 159.553 63.5129 159.376 64.55C159.199 63.5129 159.116 62.4621 159.128 61.4102C159.117 60.3584 159.201 59.3076 159.376 58.2705Z" fill="#061E33"/>
<path d="M181.649 58.2705C181.824 59.0938 181.908 59.934 181.897 60.7757C181.909 61.6174 181.826 62.4578 181.649 63.2809C181.473 62.4578 181.39 61.6174 181.401 60.7757C181.391 59.934 181.474 59.0938 181.649 58.2705Z" fill="#061E33"/>
<path d="M147.478 186.958C147.016 192.957 133.172 198.956 129.942 199.533C126.711 200.11 128.557 200.918 128.557 200.918C128.557 200.918 143.44 204.494 160.745 189.957C160.745 189.957 161.899 187.419 160.745 185.919C159.592 184.42 160.574 182.732 160.574 182.732" stroke="#061E33" stroke-width="1.24903" stroke-linecap="round" stroke-linejoin="round"/>
<path d="M160.745 185.92C163.514 189.496 159.822 202.302 159.822 202.302H157.169V196.995C157.169 196.995 153.016 197.226 146.68 201.307C141.727 204.497 133.797 204.436 130.57 204.257C130.005 204.234 129.455 204.079 128.961 203.804C128.468 203.53 128.046 203.143 127.729 202.676C126.127 200.218 129.942 199.533 129.942 199.533C129.942 199.533 130.856 199.847 134.794 199.124C143.196 197.558 151.063 193.885 157.659 188.45L160.745 185.92Z" fill="#061E33"/>
<path d="M139.177 195.611C139.678 195.724 140.13 195.993 140.469 196.38C140.809 196.755 141.054 197.207 141.183 197.697C141.322 198.197 141.322 198.725 141.184 199.225C141.056 199.731 140.754 200.176 140.33 200.481C140.176 199.955 140.123 199.55 140.015 199.163C139.927 198.782 139.841 198.433 139.742 198.076L139.455 196.958C139.356 196.558 139.257 196.138 139.177 195.611Z" fill="#061E33"/>
<path d="M144.31 192.019C144.946 192.217 145.523 192.568 145.992 193.041C146.469 193.507 146.852 194.059 147.123 194.669C147.395 195.302 147.516 195.991 147.477 196.68C147.432 197.37 147.151 198.024 146.68 198.532C146.589 197.94 146.465 197.353 146.309 196.775C146.147 196.251 145.964 195.76 145.755 195.258C145.534 194.761 145.298 194.257 145.049 193.73C144.801 193.2 144.548 192.655 144.31 192.019Z" fill="#061E33"/>
<path d="M183.034 183.939C182.572 189.938 168.728 195.938 165.497 196.514C162.267 197.091 164.113 197.899 164.113 197.899C164.113 197.899 178.996 201.475 196.301 186.939C196.301 186.939 197.455 184.4 196.301 182.901C195.148 181.401 196.129 179.713 196.129 179.713" stroke="#061E33" stroke-width="1.24903" stroke-linecap="round" stroke-linejoin="round"/>
<path d="M196.301 182.901C199.07 186.477 195.378 199.283 195.378 199.283H192.725V193.976C192.725 193.976 188.572 194.207 182.236 198.288C177.283 201.478 169.353 201.417 166.126 201.238C165.561 201.215 165.01 201.06 164.517 200.786C164.024 200.511 163.602 200.124 163.285 199.657C161.683 197.2 165.497 196.515 165.497 196.515C165.497 196.515 166.412 196.828 170.35 196.105C178.752 194.539 186.619 190.867 193.215 185.431L196.301 182.901Z" fill="#061E33"/>
<path d="M174.733 192.593C175.234 192.706 175.686 192.975 176.025 193.362C176.365 193.737 176.61 194.189 176.739 194.679C176.878 195.179 176.878 195.707 176.74 196.206C176.612 196.713 176.31 197.158 175.886 197.463C175.732 196.937 175.679 196.532 175.57 196.145C175.483 195.764 175.396 195.415 175.298 195.058L175.011 193.94C174.912 193.54 174.813 193.12 174.733 192.593Z" fill="#061E33"/>
<path d="M179.865 189C180.501 189.198 181.079 189.549 181.548 190.023C182.025 190.489 182.408 191.041 182.679 191.65C182.951 192.284 183.072 192.972 183.033 193.661C182.988 194.352 182.707 195.006 182.236 195.513C182.145 194.921 182.021 194.334 181.865 193.756C181.703 193.232 181.52 192.742 181.311 192.24C181.09 191.742 180.854 191.239 180.605 190.712C180.357 190.182 180.104 189.636 179.865 189Z" fill="#061E33"/>
<path d="M5.26464 200.289C4.60152 194.34 4.25725 188.391 4.00895 182.442C3.95096 180.954 3.89532 179.467 3.85598 177.98L3.83944 177.422L3.8313 177.143C3.8293 177.046 3.82303 176.978 3.82879 176.811C3.83918 176.225 3.97931 175.649 4.23909 175.124C4.50229 174.595 4.8773 174.13 5.33813 173.761C5.79895 173.392 6.33457 173.127 6.90786 172.985C7.19155 172.918 7.48118 172.879 7.77256 172.868L8.33069 172.848L9.44681 172.812L11.6792 172.741L16.1448 172.634L20.611 172.568C21.3544 172.559 22.1001 172.559 22.8498 172.574L23.972 172.588L24.2619 172.592C24.4096 172.6 24.5577 172.604 24.7047 172.624C24.9995 172.662 25.2893 172.733 25.5691 172.833C26.1252 173.033 26.631 173.353 27.051 173.768C27.471 174.184 27.7951 174.687 28.0007 175.241C28.1041 175.515 28.1753 175.801 28.2128 176.091C28.2472 176.347 28.2585 176.606 28.2464 176.864L28.2132 177.98C28.1735 179.467 28.1198 180.954 28.0604 182.442C27.8131 188.391 27.4678 194.34 26.8004 200.289C26.133 194.34 25.7876 188.391 25.5404 182.442C25.4811 180.954 25.4273 179.467 25.3875 177.98L25.3544 176.864C25.357 176.75 25.347 176.637 25.3246 176.525C25.3109 176.447 25.287 176.371 25.2534 176.3C25.1908 176.158 25.0978 176.031 24.9809 175.928C24.8641 175.826 24.7262 175.75 24.5769 175.707C24.505 175.686 24.4312 175.673 24.3567 175.668L24.243 175.664L23.9753 175.667L22.8667 175.682C22.1289 175.686 21.3873 175.705 20.6439 175.733L16.1879 175.837L7.59037 175.94C7.43724 175.969 7.29219 176.031 7.16513 176.121C7.03806 176.211 6.93196 176.328 6.85408 176.463C6.77591 176.603 6.72687 176.758 6.70989 176.917C6.70148 176.992 6.69745 177.068 6.69785 177.143L6.68971 177.422L6.67318 177.98C6.63397 179.467 6.57822 180.954 6.52021 182.442C6.27192 188.391 5.92776 194.34 5.26464 200.289Z" fill="#061E33"/>
<path d="M5.57226 205.443C12.9958 205.443 13.0081 193.906 5.57226 193.906C-1.85127 193.906 -1.86357 205.443 5.57226 205.443Z" fill="#061E33"/>
<path d="M27.1081 205.75C34.5316 205.75 34.5439 194.213 27.1081 194.213C19.6845 194.213 19.6722 205.75 27.1081 205.75Z" fill="#061E33"/>
<path d="M28.1848 33.2717C28.2691 32.5011 28.4269 31.7403 28.6561 30.9998C28.7749 30.6222 28.9195 30.2532 29.089 29.8955C29.2651 29.5037 29.5175 29.1508 29.8314 28.8573C30.0274 28.6746 30.2732 28.554 30.5377 28.511C30.8241 28.4731 31.1147 28.5383 31.3574 28.6949C31.7322 28.9532 32.0445 29.2919 32.2715 29.6863C32.6755 30.3854 32.9882 31.1334 33.2021 31.912C33.4044 32.684 33.5228 33.4756 33.5553 34.273C33.5687 35.0794 33.5332 35.8227 33.4949 36.5916C33.4221 38.1193 33.3141 39.6469 33.1073 41.1746C32.9005 39.6469 32.7925 38.1193 32.7198 36.5916C32.6664 35.8332 32.6821 35.0476 32.6164 34.3281C32.5644 33.5989 32.4397 32.8767 32.2442 32.1722C32.0635 31.4731 31.801 30.7977 31.4622 30.16C31.3249 29.8807 31.1322 29.6323 30.8958 29.4299C30.8215 29.3683 30.7279 29.3349 30.6314 29.3355C30.5149 29.3419 30.4036 29.3856 30.3138 29.4602C30.0503 29.6708 29.8264 29.9265 29.6523 30.2155C29.4499 30.5254 29.2674 30.8479 29.106 31.1811C28.7647 31.852 28.4757 32.5584 28.1848 33.2717Z" fill="#061E33"/>
<path d="M44.0648 33.2717C44.1491 32.5011 44.307 31.7403 44.5362 30.9998C44.6549 30.6222 44.7995 30.2532 44.969 29.8955C45.1452 29.5037 45.3976 29.1507 45.7114 28.8573C45.9074 28.6745 46.1533 28.554 46.4178 28.511C46.7042 28.4731 46.9947 28.5383 47.2375 28.6949C47.6122 28.9532 47.9245 29.2919 48.1514 29.6863C48.5554 30.3854 48.8682 31.1334 49.0822 31.912C49.2844 32.684 49.4028 33.4756 49.4352 34.273C49.4486 35.0794 49.4133 35.8227 49.3748 36.5916C49.3022 38.1193 49.194 39.6469 48.9873 41.1746C48.7806 39.6469 48.6726 38.1193 48.5998 36.5916C48.5465 35.8332 48.5621 35.0476 48.4965 34.3281C48.4444 33.5989 48.3197 32.8767 48.1243 32.1722C47.9435 31.4731 47.681 30.7977 47.3421 30.16C47.2049 29.8806 47.0122 29.6322 46.7757 29.4299C46.7015 29.3683 46.6079 29.3349 46.5115 29.3355C46.395 29.3419 46.2836 29.3856 46.1939 29.4602C45.9304 29.6708 45.7064 29.9265 45.5324 30.2155C45.3299 30.5254 45.1474 30.8479 44.9861 31.181C44.6447 31.852 44.3556 32.5584 44.0648 33.2717Z" fill="#061E33"/>
<path d="M62.0303 33.2717C62.1146 32.5011 62.2724 31.7403 62.5015 30.9998C62.6203 30.6222 62.765 30.2532 62.9345 29.8955C63.1106 29.5036 63.363 29.1507 63.6769 28.8573C63.8729 28.6745 64.1187 28.554 64.3833 28.511C64.6697 28.4731 64.9602 28.5383 65.203 28.6949C65.5777 28.9532 65.8899 29.2919 66.1169 29.6863C66.5209 30.3854 66.8337 31.1334 67.0476 31.912C67.2499 32.684 67.3682 33.4756 67.4007 34.273C67.4141 35.0794 67.3786 35.8227 67.3403 36.5916C67.2675 38.1193 67.1595 39.6469 66.9528 41.1746C66.7461 39.6469 66.638 38.1193 66.5652 36.5916C66.5118 35.8332 66.5275 35.0476 66.4618 34.3281C66.4098 33.5989 66.2852 32.8767 66.0897 32.1722C65.909 31.4731 65.6464 30.7977 65.3076 30.16C65.1704 29.8806 64.9777 29.6322 64.7412 29.4299C64.6669 29.3683 64.5733 29.3349 64.4768 29.3355C64.3603 29.3419 64.249 29.3856 64.1593 29.4602C63.8958 29.6708 63.6718 29.9265 63.4979 30.2154C63.2954 30.5254 63.1129 30.8479 62.9514 31.181C62.6101 31.852 62.3211 32.5584 62.0303 33.2717Z" fill="#061E33"/>
<path d="M80.9154 33.2717C80.9997 32.5011 81.1575 31.7403 81.3867 30.9998C81.5054 30.6222 81.65 30.2532 81.8195 29.8955C81.9957 29.5037 82.2481 29.1507 82.562 28.8573C82.758 28.6746 83.0038 28.554 83.2683 28.511C83.5547 28.4731 83.8452 28.5383 84.088 28.6949C84.4628 28.9532 84.775 29.2919 85.0021 29.6863C85.4061 30.3854 85.7188 31.1334 85.9327 31.912C86.1349 32.684 86.2534 33.4756 86.2859 34.273C86.2991 35.0794 86.2638 35.8227 86.2253 36.5916C86.1527 38.1193 86.0446 39.6469 85.8378 41.1746C85.6311 39.6469 85.5231 38.1193 85.4503 36.5916C85.397 35.8332 85.4126 35.0476 85.347 34.3281C85.2949 33.5989 85.1702 32.8767 84.9748 32.1722C84.794 31.4731 84.5315 30.7977 84.1926 30.16C84.0555 29.8807 83.8628 29.6323 83.6264 29.4299C83.5521 29.3683 83.4585 29.3349 83.362 29.3355C83.2455 29.3419 83.1342 29.3856 83.0444 29.4602C82.7809 29.6708 82.5569 29.9265 82.3829 30.2155C82.1804 30.5254 81.998 30.8479 81.8366 31.181C81.4953 31.852 81.2062 32.5584 80.9154 33.2717Z" fill="#061E33"/>
<path d="M25.4159 47.2441C26.5452 45.919 27.756 44.6846 28.9863 43.4715C29.609 42.8734 30.2252 42.2681 30.8625 41.6862C31.4976 41.1018 32.1298 40.5142 32.7812 39.948L32.7901 39.9403C32.8381 39.8986 32.8939 39.8667 32.9542 39.8465C33.0145 39.8264 33.0782 39.8183 33.1417 39.8227C33.2051 39.8272 33.2671 39.8441 33.324 39.8724C33.3809 39.9008 33.4317 39.9402 33.4734 39.9882C33.4875 40.0046 33.5006 40.0218 33.5125 40.0398C34.2751 41.2 35.0097 42.3787 35.7163 43.5761C36.0735 44.1722 36.4144 44.7791 36.7528 45.3877C37.0883 45.9983 37.4171 46.6133 37.7221 47.2441C37.2579 46.7192 36.8176 46.1784 36.384 45.6332C35.9531 45.0861 35.5249 44.5373 35.1131 43.9776C34.2815 42.8634 33.4778 41.7306 32.7021 40.5792L33.4332 40.6711C32.8028 41.2607 32.1531 41.8288 31.5062 42.4002C30.8618 42.9741 30.196 43.5245 29.5368 44.0822C28.2033 45.1806 26.8505 46.2577 25.4159 47.2441Z" fill="#061E33"/>
<path d="M40.373 47.2441C41.5022 45.919 42.7132 44.6846 43.9433 43.4715C44.5661 42.8734 45.1822 42.2681 45.8195 41.6862C46.4546 41.1018 47.0869 40.5142 47.7384 39.948L47.7471 39.9403C47.7951 39.8986 47.8509 39.8667 47.9112 39.8466C47.9715 39.8264 48.0352 39.8183 48.0987 39.8227C48.1621 39.8272 48.2241 39.8441 48.281 39.8724C48.3379 39.9008 48.3887 39.9402 48.4304 39.9882C48.4445 40.0046 48.4576 40.0218 48.4696 40.0398C49.2322 41.2 49.9668 42.3787 50.6734 43.5761C51.0307 44.1722 51.3716 44.7791 51.7099 45.3877C52.0453 45.9983 52.3742 46.6133 52.6791 47.2441C52.2149 46.7192 51.7747 46.1784 51.341 45.6332C50.9102 45.0861 50.482 44.5373 50.0701 43.9776C49.2385 42.8634 48.4348 41.7306 47.659 40.5792L48.3903 40.6711C47.7599 41.2607 47.1102 41.8288 46.4633 42.4002C45.8187 42.9741 45.153 43.5245 44.4939 44.0822C43.1603 45.1806 41.8075 46.2577 40.373 47.2441Z" fill="#061E33"/>
<path d="M58.3385 47.2441C59.4677 45.919 60.6787 44.6846 61.9088 43.4715C62.5316 42.8734 63.1477 42.2681 63.785 41.6862C64.4201 41.1018 65.0523 40.5142 65.7037 39.948L65.7126 39.9403C65.7606 39.8986 65.8164 39.8667 65.8767 39.8466C65.937 39.8264 66.0007 39.8183 66.0642 39.8227C66.1276 39.8272 66.1896 39.8441 66.2465 39.8724C66.3034 39.9008 66.3542 39.9402 66.3959 39.9882C66.41 40.0046 66.4231 40.0218 66.4351 40.0398C67.1977 41.2 67.9323 42.3787 68.6388 43.5761C68.9961 44.1722 69.337 44.7791 69.6753 45.3877C70.0108 45.9983 70.3397 46.6133 70.6446 47.2441C70.1804 46.7192 69.7402 46.1784 69.3065 45.6332C68.8757 45.0861 68.4475 44.5373 68.0356 43.9776C67.204 42.8634 66.4003 41.7306 65.6245 40.5792L66.3557 40.6711C65.7253 41.2607 65.0757 41.8288 64.4288 42.4002C63.7843 42.9741 63.1185 43.5245 62.4594 44.0822C61.1258 45.1806 59.773 46.2577 58.3385 47.2441Z" fill="#061E33"/>
<path d="M78.0638 47.2441C79.1931 45.919 80.4041 44.6846 81.6343 43.4715C82.257 42.8734 82.8732 42.2681 83.5105 41.6862C84.1455 41.1018 84.7777 40.5142 85.4292 39.948L85.4381 39.9403C85.4861 39.8986 85.5418 39.8667 85.6022 39.8465C85.6625 39.8264 85.7262 39.8183 85.7896 39.8227C85.8531 39.8272 85.915 39.8441 85.972 39.8724C86.0289 39.9008 86.0797 39.9402 86.1214 39.9882C86.1355 40.0046 86.1486 40.0218 86.1606 40.0398C86.9232 41.2 87.6578 42.3787 88.3643 43.5761C88.7216 44.1722 89.0625 44.7791 89.4008 45.3877C89.7363 45.9983 90.0651 46.6133 90.3701 47.2441C89.9059 46.7192 89.4657 46.1784 89.0319 45.6332C88.6011 45.0861 88.1729 44.5373 87.7611 43.9776C86.9294 42.8634 86.1257 41.7306 85.35 40.5792L86.0812 40.6711C85.4507 41.2607 84.8011 41.8288 84.1543 42.4002C83.5097 42.9741 82.844 43.5245 82.1849 44.0822C80.8513 45.1806 79.4985 46.2577 78.0638 47.2441Z" fill="#061E33"/>
<path d="M29.142 77.7685H29.0228C29.0797 77.9542 29.1546 78.1338 29.2464 78.3049C29.1893 78.1312 29.1542 77.951 29.142 77.7685ZM29.142 77.7685H29.0228C29.0797 77.9542 29.1546 78.1338 29.2464 78.3049C29.1893 78.1312 29.1542 77.951 29.142 77.7685ZM29.142 77.7685H29.0228C29.0797 77.9542 29.1546 78.1338 29.2464 78.3049C29.1893 78.1312 29.1542 77.951 29.142 77.7685ZM29.142 77.7685H29.0228C29.0797 77.9542 29.1546 78.1338 29.2464 78.3049C29.1893 78.1312 29.1542 77.951 29.142 77.7685ZM29.142 77.7685H29.0228C29.0797 77.9542 29.1546 78.1338 29.2464 78.3049C29.1893 78.1312 29.1542 77.951 29.142 77.7685ZM38.8013 100.762C38.1358 97.5488 37.5333 94.3241 36.9936 91.0878C36.4423 87.8598 35.9457 84.6169 35.464 81.374C34.9972 78.1311 34.5453 74.8832 34.148 71.6303C33.7407 68.3775 33.3931 65.1163 33.1051 61.847C33.7705 65.0601 34.3731 68.2848 34.9128 71.5211C35.464 74.7491 35.9607 77.992 36.4424 81.2299C36.9092 84.4778 37.3611 87.7207 37.7584 90.9786C38.1706 94.2314 38.5183 97.4925 38.8013 100.762H44.0654C47.7901 97.226 48.9869 85.0738 47.8745 81.8408C47.4474 80.5992 44.6465 73.2294 44.0654 72.1518C43.4844 71.0741 42.4912 61.2311 43.261 54.0004C44.0308 46.7696 33.1051 47.2414 33.1051 47.2414C33.2906 48.7863 33.1173 50.3532 32.5985 51.8202C32.3275 52.6026 31.8668 53.3055 31.2577 53.8663C30.5899 54.4432 29.7314 54.7512 28.8491 54.7304C28.7696 54.7254 28.6902 54.7205 28.6108 54.7105C28.7696 56.553 28.8591 58.4004 28.9236 60.2429C28.9981 62.2542 29.0278 64.2655 29.0577 66.2768C29.0726 68.2831 29.0825 70.2944 29.0726 72.3008L29.0676 75.3103C29.0626 75.8119 29.0775 76.3134 29.0875 76.815C29.0974 77.0683 29.1024 77.3166 29.1272 77.5649C29.1322 77.6344 29.1371 77.699 29.142 77.7685C29.5613 77.7714 29.9796 77.8062 30.3935 77.8728C30.7671 77.9317 31.1322 78.0351 31.4812 78.1807C31.8465 78.3172 32.1511 78.5796 32.3403 78.9207C32.0397 78.7515 31.7019 78.6594 31.357 78.6525C31.0181 78.631 30.6781 78.6293 30.339 78.6475C29.6585 78.6724 28.9733 78.7419 28.2779 78.7916C27.5877 78.8462 26.8874 78.8958 26.1822 78.9256C25.466 78.9687 24.7478 78.967 24.0319 78.9207C24.6779 78.5885 25.3615 78.335 26.068 78.1658C26.7679 77.9828 27.4824 77.8615 28.2035 77.8033C28.4766 77.7784 28.7448 77.7685 29.0229 77.7685C28.9335 77.4656 28.8789 77.1527 28.8143 76.8448C28.72 76.3482 28.6504 75.8466 28.5809 75.345C28.4568 74.3419 28.3624 73.3354 28.2978 72.3256C28.1488 70.3143 28.0942 68.298 28.0644 66.2867C28.0545 64.2704 28.0694 62.2591 28.1488 60.2429C28.2234 58.3954 28.3227 56.548 28.5213 54.7006C27.764 54.5771 27.0652 54.2173 26.5249 53.6726C25.9592 53.0995 25.5001 52.4302 25.1691 51.6961C24.5197 50.2936 24.1342 48.7835 24.0319 47.2414C14.3627 53.2902 6.34234 89.8413 5.8805 95.9944C5.71217 97.7003 6.06246 99.4172 6.88557 100.921C7.70868 102.424 8.96631 103.645 10.494 104.422C10.4891 101.994 10.5934 99.575 10.7424 97.1565C10.8814 94.7429 11.09 92.3294 11.3284 89.9208C11.5866 87.5122 11.8697 85.1036 12.2471 82.7099C12.4309 81.513 12.6493 80.3162 12.8927 79.1243C13.0218 78.5333 13.1559 77.9374 13.3148 77.3513C13.3992 77.0534 13.4837 76.7604 13.583 76.4723C13.6376 76.3283 13.6923 76.1892 13.7568 76.0452C13.8264 75.9161 13.8909 75.7522 14.0349 75.6877C13.926 75.7913 13.8529 75.927 13.8264 76.075C13.7866 76.219 13.7568 76.3631 13.727 76.512C13.6674 76.81 13.6276 77.108 13.583 77.406C13.5035 78.0019 13.434 78.6028 13.3744 79.2037C13.2453 80.4006 13.136 81.6024 13.0168 82.8042L12.3167 90.0201C12.0584 92.4237 11.8101 94.8274 11.5072 97.231C11.2142 99.6297 10.8963 102.028 10.4941 104.422C11.7257 110.237 7.72793 141.683 7.72793 141.683C42.6451 171.987 52.642 155.216 52.642 155.216C48.1824 150.449 38.8013 100.762 38.8013 100.762ZM37.2518 54.641C37.5506 54.0646 37.9377 53.5384 38.3991 53.0816C38.8673 52.6006 39.4375 52.2306 40.0676 51.999C40.6998 51.7606 41.3971 51.7606 42.0293 51.999C41.4532 52.1439 40.9046 52.3821 40.4054 52.7042C39.9321 53.0187 39.4927 53.3815 39.0943 53.7868C38.265 54.5963 37.5399 55.5349 36.646 56.4586C36.7391 55.8217 36.9442 55.2064 37.2518 54.641ZM29.142 77.7685H29.0228C29.0797 77.9542 29.1546 78.1338 29.2464 78.3049C29.1893 78.1312 29.1542 77.951 29.142 77.7685ZM24.0368 47.2464C24.5048 48.6636 25.112 50.031 25.8495 51.3286C26.2022 51.943 26.6459 52.5006 27.1655 52.9823C27.6284 53.433 28.2387 53.7011 28.8838 53.7372C29.5276 53.761 30.158 53.5491 30.6567 53.1412C31.1828 52.6961 31.6035 52.1398 31.8883 51.5123C32.4927 50.1529 32.9023 48.7151 33.1051 47.2414C29.0378 51.1697 24.2355 47.4053 24.0368 47.2464ZM29.142 77.7685H29.0228C29.0797 77.9542 29.1546 78.1338 29.2464 78.3049C29.1893 78.1312 29.1542 77.951 29.142 77.7685ZM29.142 77.7685H29.0228C29.0797 77.9542 29.1546 78.1338 29.2464 78.3049C29.1893 78.1312 29.1542 77.951 29.142 77.7685ZM29.142 77.7685H29.0228C29.0797 77.9542 29.1546 78.1338 29.2464 78.3049C29.1893 78.1312 29.1542 77.951 29.142 77.7685Z" fill="#061E33"/>
<path d="M29.2464 78.3049C29.1546 78.1338 29.0797 77.9542 29.0229 77.7686H29.142C29.1542 77.951 29.1893 78.1312 29.2464 78.3049Z" fill="white"/>
<path d="M29.2464 78.3049C29.1546 78.1338 29.0797 77.9542 29.0229 77.7686H29.142C29.1542 77.951 29.1893 78.1312 29.2464 78.3049Z" fill="white"/>
<path d="M39.3374 48.157C42.0133 48.071 44.6876 48.0296 47.3607 47.9676L55.3788 47.8545L55.8798 47.8475L56.005 47.8457C56.0966 47.8473 56.1858 47.8755 56.2618 47.9269C56.3765 48.0219 56.339 48.0092 56.3692 48.043C56.3953 48.0828 56.4166 48.1256 56.4328 48.1704C56.4679 48.2678 56.4955 48.3677 56.5154 48.4693C56.5899 48.8236 56.628 49.1563 56.669 49.4938C56.747 50.1659 56.8081 50.8339 56.8671 51.5024L57.1841 55.509C57.3749 58.1794 57.587 60.847 57.7487 63.5178L58.7367 79.5397C58.9054 82.2099 59.0881 84.8794 59.319 87.5448C59.5392 90.2111 59.7707 92.8767 60.0627 95.5362C60.6097 100.859 61.2984 106.166 62.0809 111.457C62.8689 116.746 63.7246 122.024 64.7504 127.265C65.7447 132.503 67.0305 137.682 68.6017 142.777C69.3854 145.308 70.3762 147.769 71.5642 150.137C72.1563 151.302 72.8535 152.41 73.6471 153.448C74.4049 154.471 75.385 155.308 76.5134 155.897L76.5435 155.911C76.6151 155.945 76.6758 155.999 76.7185 156.066C76.7613 156.132 76.7845 156.21 76.7855 156.289C76.7864 156.368 76.7651 156.446 76.724 156.514C76.6829 156.582 76.6235 156.637 76.5528 156.672C75.6068 157.133 74.607 157.473 73.5766 157.685C73.0767 157.816 72.5662 157.879 72.0618 157.978C71.5531 158.042 71.0446 158.11 70.5353 158.161C68.5009 158.325 66.4552 158.291 64.4273 158.06C62.4085 157.849 60.4065 157.501 58.4351 157.017C57.4556 156.76 56.4812 156.485 55.5077 156.213L52.6277 155.265C52.6215 155.263 52.6158 155.26 52.6109 155.256C52.6059 155.252 52.6019 155.246 52.5989 155.241C52.596 155.235 52.5943 155.228 52.5938 155.222C52.5933 155.215 52.5941 155.209 52.5962 155.203C52.6007 155.19 52.6097 155.18 52.6214 155.175C52.633 155.169 52.6464 155.167 52.6589 155.171L55.5709 155.987C56.5525 156.214 57.5328 156.444 58.5155 156.656C60.4848 157.049 62.4757 157.324 64.4777 157.48C66.4697 157.642 68.4725 157.617 70.4598 157.406C70.9532 157.347 71.4441 157.271 71.9351 157.201C72.4185 157.095 72.9116 157.026 73.3863 156.891C74.3309 156.678 75.2463 156.351 76.1125 155.918L76.1519 156.693C74.8832 156.068 73.7737 155.163 72.9081 154.045C72.0488 152.976 71.3016 151.822 70.6782 150.601C69.4539 148.188 68.4308 145.678 67.6193 143.096C66.0122 137.967 64.7441 132.737 63.8232 127.442C61.8509 116.892 60.7873 106.221 59.7381 95.569L58.1994 79.5824L57.4763 71.5838C57.244 68.9167 57.0687 66.2456 56.8715 63.5765C56.675 60.9073 56.5409 58.2341 56.3665 55.5651L56.0963 51.5652C56.0454 50.9003 55.9921 50.2351 55.9233 49.5772C55.8886 49.2502 55.8495 48.9177 55.7968 48.615C55.7864 48.552 55.7721 48.4898 55.7542 48.4286C55.7483 48.4065 55.7536 48.43 55.7651 48.4428C55.7871 48.4667 55.8104 48.4895 55.835 48.511C55.8883 48.5784 56.0899 48.57 56.0357 48.5676L55.91 48.5658L55.4075 48.5588L47.3696 48.4457C44.691 48.3837 42.0133 48.3423 39.3372 48.2563C39.3242 48.256 39.3119 48.2505 39.3029 48.2412C39.2939 48.2319 39.2889 48.2195 39.2889 48.2065C39.289 48.1936 39.2941 48.1812 39.3031 48.1719C39.3122 48.1627 39.3245 48.1573 39.3374 48.157H39.3374Z" fill="#061E33"/>
<path d="M51.1051 54.2087C51.9718 55.8867 52.6953 57.5599 53.5837 59.1235C54.0043 59.9021 54.5021 60.6365 55.0695 61.3156C55.6281 62.013 56.3942 62.5145 57.2567 62.7476C56.7731 62.8433 56.2723 62.802 55.8108 62.6285C55.3444 62.4523 54.9118 62.1972 54.5321 61.8742C53.7956 61.236 53.1812 60.4692 52.7189 59.6114C52.257 58.7801 51.8871 57.901 51.6155 56.9897C51.3297 56.0877 51.1582 55.1534 51.1051 54.2087Z" fill="#061E33"/>
<path d="M42.0292 49.9307C44.5027 50.0152 46.9164 50.3183 49.3302 50.567C50.5345 50.7034 51.7384 50.8242 52.9376 50.9089C53.5341 50.9526 54.1324 50.9662 54.7302 50.9495C55.0257 50.9452 55.3201 50.9128 55.6093 50.8526C55.9051 50.8113 56.179 50.6739 56.3891 50.4617C56.2482 50.7548 56.0044 50.986 55.7042 51.1111C55.4162 51.2516 55.1132 51.3592 54.8011 51.4319C54.1879 51.5717 53.5633 51.656 52.9349 51.684C51.6963 51.738 50.4554 51.6945 49.2236 51.5539C47.9999 51.4167 46.7841 51.2158 45.5814 50.952C44.374 50.6985 43.1868 50.3571 42.0292 49.9307Z" fill="#061E33"/>
<path d="M48.49 48.2065C48.5887 48.6546 48.6403 49.1117 48.6441 49.5705C48.6508 50.0049 48.6355 50.4394 48.598 50.8723C48.5599 51.3007 48.5102 51.722 48.4474 52.1445C48.384 52.5719 48.3052 52.9809 48.2593 53.4613C47.9386 53.0976 47.7325 52.6473 47.6668 52.167C47.585 51.7123 47.5654 51.2486 47.6085 50.7886C47.6473 50.3358 47.7365 49.8887 47.8744 49.4556C48.011 49.0088 48.2189 48.587 48.49 48.2065Z" fill="#061E33"/>
<path d="M50.8551 48.2065C51.0072 48.6503 51.0929 49.1141 51.1094 49.5829C51.128 50.0382 51.0994 50.4941 51.024 50.9434C50.9457 51.3731 50.8389 51.7972 50.7043 52.2128C50.645 52.3938 50.6134 52.5827 50.6108 52.7732C50.5983 52.9835 50.6341 53.2131 50.6243 53.4613C50.4334 53.3059 50.2704 53.1191 50.1424 52.9088C50.0116 52.6753 49.9375 52.4143 49.926 52.1469C49.9194 51.688 49.9592 51.2297 50.0448 50.7788C50.1173 50.3445 50.2147 49.9147 50.3364 49.4916C50.4589 49.0446 50.633 48.6133 50.8551 48.2065Z" fill="#061E33"/>
<path d="M56.0275 48.2065V42.6165C56.0275 42.6165 56.9505 53.5382 72.7947 46.3083C72.7947 46.3083 72.1794 74.9202 81.5628 107.224C81.5628 107.224 82.7833 114.084 60.868 104.424" fill="#061E33"/>
<path d="M104.519 70.3041C100.461 70.5736 96.3896 70.5736 92.3318 70.3041C92.8015 69.0061 92.9365 67.6107 92.7241 66.2467C92.6472 65.5645 92.5278 64.8878 92.3665 64.2205C92.1927 63.565 92.009 62.9045 91.7855 62.2639C91.3415 60.9812 90.8037 59.733 90.1765 58.5293C89.5622 57.3211 88.8426 56.1695 88.0261 55.0877C88.9697 57.6255 89.9976 60.0787 90.8468 62.5867C91.2907 63.8255 91.6621 65.089 91.9593 66.3709C92.2853 67.655 92.4109 68.9817 92.3318 70.3041C92.3318 70.3041 89.0342 72.8666 83.3777 70.5127C83.5156 70.1868 83.6301 69.8516 83.7204 69.5095C83.7849 69.1669 83.8694 68.8142 83.9041 68.4617C83.929 68.1091 83.9538 67.7565 83.9737 67.4039L83.9588 66.3461C83.8871 64.9449 83.7145 63.5508 83.4423 62.1745C83.1666 60.805 82.8201 59.4507 82.4043 58.1171C82.0015 56.7805 81.5036 55.4743 80.9145 54.2087C81.1231 55.5943 81.3863 56.955 81.6594 58.3108L82.4689 62.3632C82.7371 63.714 82.9772 65.0648 83.189 66.4156L83.3231 67.4337L83.4125 68.4518C83.4522 68.7944 83.4324 69.1272 83.4473 69.4748C83.4548 69.6459 83.4448 69.8173 83.4174 69.9863L83.3777 70.5127C77.7163 68.1538 74.3144 70.9051 74.3144 70.9051L72.8941 52.7585C74.374 47.0574 76.3307 44.614 76.3307 44.614C76.3307 44.614 76.4846 51.7057 94.3281 47.2361C94.3281 47.2362 103.322 63.997 104.519 70.3041Z" fill="#061E33"/>
<path d="M101.231 70.3266C100.324 72.9319 99.7754 75.6489 99.6018 78.4023C99.573 79.089 99.5289 79.7749 99.5256 80.4612C99.544 81.1478 99.5174 81.8343 99.572 82.5188C99.6293 83.8889 99.7626 85.2547 99.9713 86.61C100.096 87.2842 100.199 87.9621 100.34 88.6325L100.824 90.6305L102.015 94.5957C102.435 95.9324 102.73 97.2946 103.043 98.6525C103.32 100.017 103.587 101.382 103.822 102.752C104.038 104.124 104.282 105.492 104.458 106.869L104.759 108.929L105.037 110.991C105.412 113.739 105.778 116.489 106.106 119.244C106.794 124.75 107.401 130.266 107.783 135.811C107.79 135.91 107.763 136.009 107.707 136.092C107.652 136.175 107.57 136.236 107.475 136.267L107.471 136.268C104.076 137.357 100.624 138.265 97.132 138.986C93.6384 139.715 90.0994 140.206 86.5393 140.454C82.9687 140.72 79.3797 140.582 75.8401 140.042C74.0722 139.742 72.3394 139.262 70.6684 138.611C68.9993 137.96 67.4503 137.035 66.085 135.874C66.0801 135.87 66.0761 135.865 66.0732 135.859C66.0703 135.853 66.0686 135.847 66.0682 135.84C66.0678 135.834 66.0687 135.827 66.0708 135.821C66.0729 135.815 66.0762 135.809 66.0805 135.804C66.0889 135.795 66.1004 135.789 66.1129 135.788C66.1254 135.787 66.1379 135.79 66.1479 135.798C67.5686 136.842 69.1456 137.654 70.8205 138.205C72.4837 138.767 74.1988 139.161 75.9402 139.383C77.6847 139.59 79.4394 139.7 81.1961 139.713C82.9542 139.725 84.713 139.625 86.4663 139.478C89.9776 139.165 93.4685 138.655 96.9227 137.95C100.385 137.276 103.81 136.426 107.186 135.404L106.875 135.861C106.738 133.101 106.559 130.334 106.375 127.571C106.201 124.806 105.973 122.045 105.723 119.286C105.215 113.768 104.388 108.284 103.245 102.863C102.954 101.511 102.634 100.166 102.304 98.8259C101.928 97.4987 101.619 96.1525 101.175 94.8529C100.784 93.5494 100.341 92.203 99.9754 90.8532L99.5131 88.802C99.3803 88.1142 99.2851 87.4189 99.1696 86.7282C98.9786 85.34 98.8649 83.9424 98.8291 82.5416C98.799 81.8419 98.8546 81.141 98.8634 80.442C98.8946 79.7432 98.9667 79.0462 99.024 78.3502C99.2978 75.5664 100.012 72.8439 101.141 70.2846C101.147 70.273 101.156 70.2639 101.168 70.2592C101.18 70.2546 101.193 70.2547 101.205 70.2596C101.217 70.2645 101.226 70.2738 101.232 70.2855C101.237 70.2972 101.237 70.3105 101.233 70.3225L101.231 70.3266Z" fill="#061E33"/>
<path d="M155.596 53.0017C153.924 55.3891 152.119 57.6806 150.189 59.8653C148.271 62.0829 146.139 64.106 143.823 65.9053C142.635 66.819 141.308 67.5373 139.893 68.0333C139.141 68.2765 138.345 68.3529 137.561 68.2573C136.782 68.1006 136.048 67.7678 135.417 67.2841C134.243 66.3537 133.204 65.2653 132.328 64.0501C131.461 62.8627 130.659 61.6295 129.925 60.356C128.463 57.8255 127.148 55.2132 125.986 52.5319C125.395 51.1992 124.826 49.8575 124.279 48.507L123.474 46.4757L123.083 45.4556C122.95 45.1297 122.836 44.7389 122.693 44.4738C122.534 44.19 122.29 43.9623 121.997 43.8216C121.721 43.6898 121.323 43.6303 120.981 43.4984C120.286 43.2538 119.611 42.9582 118.959 42.6141C118.297 42.2883 117.667 41.8995 117.079 41.453C116.502 40.9893 115.986 40.4544 115.543 39.861C114.599 38.7249 113.865 37.4302 113.375 36.0371C113.124 35.3267 113.025 34.5718 113.084 33.8208C113.106 33.428 113.214 33.0448 113.4 32.698C113.586 32.3511 113.845 32.049 114.16 31.8127L114.065 31.9786C114.069 31.5988 114.048 31.2205 114.078 30.838C114.091 30.4513 114.138 30.0665 114.219 29.6882C114.28 29.2674 114.471 28.8761 114.764 28.5681C114.861 28.4868 114.973 28.4262 115.094 28.3903C115.215 28.3543 115.342 28.3437 115.467 28.3591C115.699 28.3936 115.918 28.4904 116.1 28.6391L115.707 28.758L115.808 28.4481C115.854 28.343 115.907 28.2411 115.967 28.143C116.102 27.9206 116.315 27.7563 116.565 27.682C116.811 27.6222 117.07 27.642 117.304 27.7385C117.517 27.8205 117.716 27.9366 117.893 28.0822L117.488 28.1358C117.647 27.8826 117.857 27.6649 118.104 27.4965C118.351 27.3281 118.63 27.2126 118.924 27.1572C119.37 27.0724 119.832 27.1231 120.249 27.3029C120.666 27.4826 121.02 27.7832 121.265 28.1658C121.348 28.2925 121.417 28.4282 121.47 28.5703C121.532 28.7135 121.56 28.819 121.608 28.9451C121.782 29.429 121.968 29.9084 122.168 30.3796C122.544 31.3165 123.027 32.2064 123.609 33.0309C123.836 33.3985 124.182 33.6766 124.59 33.8185C124.66 33.8431 124.735 33.8528 124.809 33.8468C124.883 33.8408 124.955 33.8193 125.021 33.7836C125.086 33.7479 125.143 33.6989 125.189 33.6398C125.234 33.5806 125.266 33.5126 125.283 33.4402C125.28 33.3603 125.27 33.2809 125.254 33.2026C125.233 33.0903 125.206 32.9704 125.175 32.8495L124.971 32.1115C124.828 31.6136 124.678 31.1106 124.548 30.5961C124.41 30.0731 124.306 29.5416 124.238 29.005C124.204 28.7169 124.197 28.4264 124.216 28.137C124.231 27.7837 124.351 27.4427 124.559 27.1572C124.826 26.8788 125.192 26.7175 125.578 26.7086C125.963 26.6998 126.336 26.8442 126.615 27.1101C127.051 27.4931 127.415 27.9497 127.693 28.4591C128.213 29.3961 128.647 30.3786 128.989 31.3945C129.34 32.3928 129.643 33.4004 129.908 34.4222C130.025 34.8976 130.212 35.353 130.463 35.7732C130.697 36.3105 130.829 36.8868 130.852 37.4724C130.882 38.0232 130.862 38.5756 130.793 39.1228C130.763 39.3877 130.718 39.6741 130.675 39.9164C130.64 40.1234 130.637 40.3343 130.664 40.5424C130.692 40.7588 130.756 40.969 130.853 41.1644C130.954 41.388 131.034 41.6156 131.152 41.8368L131.505 42.5013C131.628 42.7211 131.767 42.9361 131.897 43.1538C133.006 44.8872 134.227 46.5469 135.551 48.1225C136.868 49.7151 138.226 51.2878 139.621 52.809L138.888 52.8951C141.191 49.0385 143.544 45.2049 146.164 41.5468C147.457 39.7037 148.841 37.9266 150.312 36.2221C151.053 35.3723 151.841 34.5644 152.672 33.802C153.09 33.4214 153.533 33.0684 153.997 32.7452C154.23 32.5835 154.475 32.4385 154.729 32.3114C154.985 32.1684 155.272 32.0892 155.565 32.0806C155.578 32.081 155.59 32.0864 155.599 32.0956C155.608 32.1048 155.613 32.1171 155.612 32.1298C155.612 32.1425 155.607 32.1547 155.598 32.1637C155.589 32.1727 155.577 32.1779 155.564 32.178L155.547 32.1782C155.279 32.2054 155.021 32.2925 154.791 32.4331C154.55 32.568 154.318 32.7197 154.097 32.8871C153.656 33.2251 153.236 33.5913 152.842 33.9836C152.054 34.7737 151.311 35.6069 150.616 36.4794C149.217 38.2198 147.915 40.0385 146.675 41.8996C144.204 45.6272 141.898 49.4662 139.686 53.3576C139.65 53.4195 139.601 53.4723 139.542 53.5119C139.483 53.5515 139.415 53.5767 139.344 53.5856C139.274 53.5944 139.202 53.5867 139.135 53.563C139.068 53.5393 139.007 53.5002 138.957 53.449L138.953 53.4438C137.505 51.926 136.109 50.3776 134.777 48.7607C133.417 47.155 132.163 45.4627 131.022 43.6945C130.884 43.4663 130.74 43.2438 130.608 43.0107L130.226 42.2984C130.099 42.0617 130.001 41.7974 129.888 41.5477C129.759 41.2737 129.672 40.9814 129.632 40.681C129.59 40.3726 129.594 40.0597 129.643 39.7524C129.69 39.4823 129.725 39.2546 129.753 39.0026C129.812 38.5168 129.828 38.0268 129.801 37.5382C129.783 37.0819 129.687 36.632 129.515 36.209L129.446 36.067L129.348 35.8809C129.284 35.7545 129.224 35.6245 129.168 35.4909C129.06 35.2264 128.974 34.9528 128.912 34.6734C128.665 33.6788 128.38 32.6889 128.05 31.7208C127.739 30.7602 127.34 29.8298 126.861 28.941C126.646 28.5314 126.362 28.1613 126.023 27.8464C125.903 27.7367 125.752 27.6656 125.59 27.6423C125.429 27.6381 125.332 27.6661 125.28 27.7431C125.188 27.8855 125.137 28.0503 125.133 28.2195C125.116 28.4492 125.12 28.68 125.145 28.9089C125.204 29.4052 125.295 29.8971 125.417 30.3815C125.535 30.8773 125.672 31.3746 125.807 31.8788C125.875 32.131 125.943 32.3857 126.004 32.649C126.035 32.7806 126.065 32.9146 126.088 33.0586C126.125 33.2354 126.132 33.4172 126.108 33.5962C126.07 33.7839 125.992 33.9611 125.878 34.1153C125.765 34.2694 125.619 34.3968 125.45 34.4884C125.128 34.6601 124.752 34.7023 124.399 34.6064C123.811 34.4151 123.31 34.0231 122.983 33.4992C122.375 32.6145 121.879 31.6577 121.506 30.6507C121.313 30.1591 121.136 29.6627 120.972 29.1631C120.913 28.935 120.825 28.7151 120.712 28.5083C120.604 28.3197 120.455 28.1572 120.277 28.0321C120.099 27.9015 119.896 27.8078 119.682 27.7565C119.467 27.7051 119.244 27.6971 119.026 27.733C118.806 27.7678 118.595 27.8483 118.408 27.9693C118.221 28.0902 118.062 28.249 117.939 28.4353C117.899 28.4953 117.836 28.5366 117.765 28.5502C117.693 28.5638 117.62 28.5486 117.56 28.5078L117.535 28.4889C117.408 28.3815 117.266 28.2941 117.113 28.2299C116.983 28.1695 116.837 28.1512 116.697 28.1776C116.565 28.2156 116.452 28.3022 116.381 28.4199C116.338 28.4896 116.298 28.5616 116.263 28.6355L116.174 28.8858L116.171 28.8955C116.149 28.9572 116.104 29.0078 116.045 29.0361C115.986 29.0643 115.918 29.068 115.856 29.0462C115.829 29.0367 115.804 29.0226 115.782 29.0047C115.673 28.9141 115.543 28.8524 115.403 28.8252C115.343 28.816 115.281 28.8194 115.222 28.8352C115.162 28.8509 115.107 28.8787 115.059 28.9168C114.836 29.1594 114.689 29.4622 114.636 29.7877C114.552 30.1412 114.5 30.5015 114.48 30.8643C114.441 31.2294 114.453 31.6025 114.44 31.9722C114.439 32.0046 114.43 32.0363 114.414 32.0647C114.399 32.0931 114.376 32.1173 114.35 32.1354L114.345 32.1383C114.08 32.344 113.862 32.6037 113.705 32.9003C113.548 33.197 113.456 33.5236 113.435 33.8585C113.375 34.5617 113.463 35.2696 113.693 35.9368C114.157 37.2981 114.864 38.564 115.78 39.6733C116.214 40.2419 116.719 40.753 117.282 41.1945C117.858 41.6208 118.473 41.9906 119.121 42.2988C119.759 42.6268 120.421 42.9072 121.102 43.1378C121.271 43.1926 121.441 43.2444 121.613 43.2886C121.802 43.3284 121.987 43.3878 122.164 43.4658C122.534 43.6365 122.844 43.9129 123.056 44.2599C123.151 44.4281 123.232 44.6037 123.299 44.7851L123.506 45.2885L123.926 46.2928L124.788 48.2917C125.375 49.6193 125.98 50.9375 126.605 52.2464C127.232 53.554 127.883 54.8483 128.559 56.1291C129.23 57.4114 129.921 58.6824 130.661 59.9212C131.392 61.1598 132.187 62.3597 133.042 63.5161C133.855 64.6731 134.822 65.7131 135.918 66.607C136.438 67.0181 137.045 67.3065 137.693 67.4508C138.355 67.5342 139.027 67.4742 139.664 67.2748C141.002 66.818 142.26 66.1528 143.39 65.3036C145.719 63.5945 147.873 61.6605 149.823 59.5297C151.82 57.4288 153.713 55.2214 155.516 52.9433C155.524 52.9328 155.536 52.9259 155.549 52.9241C155.562 52.9223 155.575 52.9257 155.586 52.9337C155.596 52.9416 155.602 52.953 155.604 52.9656C155.606 52.9782 155.603 52.9911 155.596 53.0017Z" fill="#061E33"/>
<path d="M191.393 102.284C190.841 108.543 190.664 114.83 190.861 121.111C191.02 127.391 191.444 133.663 192.099 139.908C192.762 146.151 193.659 152.373 194.929 158.512C195.552 161.579 196.333 164.611 197.269 167.598C197.738 169.08 198.292 170.534 198.929 171.952C199.515 173.353 200.332 174.646 201.347 175.776L201.356 175.786C201.443 175.875 201.491 175.995 201.49 176.119C201.488 176.244 201.437 176.363 201.348 176.45L201.316 176.478C199.458 177.972 197.474 179.301 195.385 180.45C193.302 181.619 191.103 182.567 188.824 183.281C186.521 184.015 184.112 184.361 181.695 184.305C180.476 184.262 179.266 184.081 178.088 183.764C177.792 183.687 177.5 183.594 177.21 183.497C176.915 183.392 176.64 183.301 176.376 183.216C175.845 183.023 175.291 182.897 174.741 182.756C173.622 182.526 172.488 182.377 171.348 182.31C170.198 182.257 169.046 182.265 167.897 182.333C165.585 182.492 163.288 182.825 161.026 183.33C156.486 184.346 152.053 185.789 147.785 187.64L147.773 187.645C147.682 187.684 147.586 187.704 147.487 187.706C147.389 187.707 147.292 187.689 147.201 187.653C147.11 187.617 147.027 187.563 146.956 187.494C146.886 187.426 146.83 187.344 146.791 187.254C146.76 187.18 146.74 187.102 146.733 187.023C146.473 183.997 146.243 180.975 146.04 177.957C145.848 174.935 145.677 171.911 145.527 168.886C145.214 162.837 145.061 156.781 144.94 150.726C144.809 144.67 144.856 138.611 144.978 132.557L145.104 128.016C145.139 126.503 145.241 124.99 145.306 123.478C145.43 120.453 145.667 117.433 145.882 114.415C145.883 114.405 145.886 114.395 145.89 114.387C145.894 114.378 145.9 114.37 145.908 114.364C145.915 114.357 145.924 114.352 145.933 114.349C145.942 114.346 145.952 114.345 145.962 114.346C145.981 114.347 145.999 114.356 146.012 114.371C146.025 114.385 146.032 114.404 146.031 114.423C145.857 120.472 145.785 126.519 145.817 132.564C145.816 134.075 145.854 135.586 145.87 137.097C145.889 138.608 145.911 140.119 145.957 141.63L146.061 146.162L146.2 150.694C146.397 156.735 146.715 162.772 147.033 168.807C147.2 171.825 147.385 174.841 147.587 177.856C147.778 180.87 147.983 183.889 148.223 186.893L147.171 186.276C149.358 185.342 151.591 184.52 153.86 183.811C156.123 183.091 158.421 182.488 160.746 182.004C163.079 181.511 165.446 181.194 167.827 181.058C169.025 181 170.225 181.005 171.422 181.073C172.628 181.157 173.825 181.329 175.006 181.586C175.594 181.742 176.184 181.884 176.758 182.096C177.053 182.195 177.335 182.292 177.591 182.386C177.858 182.477 178.126 182.565 178.398 182.638C179.489 182.942 180.611 183.12 181.743 183.169C184.035 183.24 186.324 182.93 188.514 182.251C190.73 181.578 192.869 180.676 194.899 179.56C196.94 178.459 198.882 177.184 200.703 175.748L200.673 176.45C199.587 175.232 198.716 173.839 198.098 172.329C197.459 170.873 196.905 169.382 196.438 167.862C195.52 164.839 194.758 161.771 194.156 158.67C192.96 152.484 192.079 146.242 191.516 139.966C190.932 133.699 190.58 127.411 190.494 121.118C190.369 114.826 190.62 108.531 191.245 102.268C191.247 102.249 191.256 102.231 191.272 102.218C191.287 102.206 191.307 102.2 191.326 102.202C191.346 102.204 191.364 102.214 191.376 102.229C191.389 102.244 191.395 102.264 191.393 102.284L191.393 102.284Z" fill="#061E33"/>
<path d="M145.882 115.455C146.302 108.198 147.124 100.969 148.345 93.8031C148.967 90.214 149.771 86.6589 150.755 83.1519C151.733 79.6279 153 76.1906 154.543 72.875L154.518 72.9365C154.828 72.0077 155.176 71.1192 155.563 70.2318C155.948 69.3411 156.384 68.4735 156.87 67.6334C157.36 66.7645 157.956 65.9599 158.644 65.2381C159.018 64.8549 159.451 64.5337 159.926 64.2864C160.454 64.0108 161.054 63.9061 161.644 63.9869L161.518 63.9807L182.158 62.5289L182.173 62.5279C182.291 62.5202 182.41 62.5419 182.518 62.5911C182.626 62.6403 182.72 62.7154 182.792 62.8098C184.848 65.6219 186.539 68.6827 187.826 71.9192L188.318 73.118C188.484 73.5166 188.608 73.9314 188.755 74.3372C189.029 75.1555 189.342 75.9611 189.563 76.796C189.796 77.6264 190.057 78.449 190.267 79.2847L190.838 81.8057C191.032 82.6448 191.135 83.5021 191.288 84.3486L191.499 85.6215C191.56 86.0471 191.588 86.4773 191.634 86.9047L191.884 89.4701L191.979 92.0438C192.094 93.7569 191.953 95.4734 191.903 97.1823L191.878 97.8231L191.811 98.4618L191.677 99.7381L191.393 102.284C191.391 102.303 191.381 102.321 191.366 102.333C191.352 102.345 191.333 102.351 191.314 102.35C191.295 102.349 191.277 102.34 191.264 102.326C191.251 102.312 191.244 102.293 191.244 102.274L191.245 102.269L191.321 99.7147L191.367 98.4411L191.39 97.8049L191.372 97.1676L191.299 94.6228C191.284 94.1994 191.298 93.7754 191.26 93.3531L191.153 92.0865L190.936 89.5576L190.568 87.0482C190.502 86.631 190.454 86.2113 190.375 85.7967L190.125 84.5552C189.947 83.7304 189.819 82.8954 189.601 82.0805C188.818 78.8044 187.761 75.6001 186.441 72.5015C186.13 71.7203 185.767 70.9632 185.403 70.2065C185.058 69.4403 184.642 68.7117 184.257 67.9674C183.467 66.5075 182.585 65.0996 181.616 63.7524L182.251 64.0332L161.588 65.1196L161.571 65.1205C161.534 65.1222 161.498 65.1198 161.462 65.1134C160.787 64.9877 160.034 65.4159 159.413 66.0215C158.78 66.6685 158.23 67.3911 157.775 68.1727C157.297 68.9707 156.866 69.7958 156.485 70.6438C156.098 71.4917 155.74 72.3693 155.436 73.2385L155.432 73.2499C155.426 73.267 155.419 73.2838 155.411 73.3002C153.84 76.5465 152.539 79.9168 151.522 83.3769C150.483 86.8377 149.635 90.3606 148.93 93.9131C147.565 101.038 146.597 108.233 146.031 115.466C146.029 115.485 146.02 115.504 146.005 115.516C145.99 115.529 145.971 115.536 145.951 115.534C145.932 115.533 145.913 115.524 145.901 115.509C145.888 115.494 145.881 115.475 145.882 115.455H145.882Z" fill="#061E33"/>
<path d="M197.267 134.373C196.994 134.482 196.726 134.572 196.468 134.646C196.87 134.512 197.148 134.413 197.267 134.373Z" fill="#061E33"/>
<path d="M149.953 183.609C150.146 183.603 150.329 183.521 150.463 183.382C150.597 183.243 150.672 183.058 150.672 182.865C150.672 182.671 150.597 182.486 150.463 182.347C150.329 182.208 150.146 182.126 149.953 182.12C149.76 182.126 149.577 182.208 149.443 182.347C149.308 182.486 149.233 182.671 149.233 182.865C149.233 183.058 149.308 183.243 149.443 183.382C149.577 183.521 149.76 183.603 149.953 183.609Z" fill="#061E33"/>
<path d="M154.661 182C154.854 181.994 155.037 181.912 155.171 181.773C155.305 181.634 155.38 181.449 155.38 181.255C155.38 181.062 155.305 180.877 155.171 180.738C155.037 180.599 154.854 180.517 154.661 180.51C154.468 180.517 154.285 180.599 154.151 180.738C154.016 180.877 153.941 181.062 153.941 181.255C153.941 181.449 154.016 181.634 154.151 181.773C154.285 181.912 154.468 181.994 154.661 182Z" fill="#061E33"/>
<path d="M160.322 180.749C160.515 180.743 160.698 180.661 160.833 180.522C160.967 180.383 161.042 180.198 161.042 180.004C161.042 179.811 160.967 179.626 160.833 179.487C160.698 179.348 160.515 179.266 160.322 179.26C160.129 179.266 159.946 179.348 159.812 179.487C159.678 179.626 159.603 179.811 159.603 180.004C159.603 180.198 159.678 180.383 159.812 180.522C159.946 180.661 160.129 180.743 160.322 180.749Z" fill="#061E33"/>
<path d="M166.163 180.034C166.356 180.027 166.539 179.946 166.673 179.807C166.807 179.668 166.882 179.482 166.882 179.289C166.882 179.096 166.807 178.91 166.673 178.771C166.539 178.632 166.356 178.551 166.163 178.544C165.969 178.551 165.786 178.632 165.652 178.771C165.518 178.91 165.443 179.096 165.443 179.289C165.443 179.482 165.518 179.668 165.652 179.807C165.786 179.946 165.969 180.027 166.163 180.034Z" fill="#061E33"/>
<path d="M172.718 179.974C172.911 179.968 173.094 179.886 173.228 179.747C173.363 179.608 173.438 179.423 173.438 179.229C173.438 179.036 173.363 178.85 173.228 178.711C173.094 178.572 172.911 178.491 172.718 178.484C172.525 178.491 172.342 178.572 172.208 178.711C172.073 178.85 171.998 179.036 171.998 179.229C171.998 179.423 172.073 179.608 172.208 179.747C172.342 179.886 172.525 179.968 172.718 179.974Z" fill="#061E33"/>
<path d="M178.558 181.464C178.751 181.458 178.934 181.376 179.068 181.237C179.203 181.098 179.278 180.913 179.278 180.719C179.278 180.526 179.203 180.34 179.068 180.201C178.934 180.062 178.751 179.981 178.558 179.974C178.365 179.981 178.182 180.062 178.048 180.201C177.914 180.34 177.839 180.526 177.839 180.719C177.839 180.913 177.914 181.098 178.048 181.237C178.182 181.376 178.365 181.458 178.558 181.464Z" fill="#061E33"/>
<path d="M184.458 182.179C184.651 182.173 184.834 182.091 184.968 181.952C185.103 181.813 185.178 181.628 185.178 181.434C185.178 181.241 185.103 181.055 184.968 180.917C184.834 180.778 184.651 180.696 184.458 180.689C184.265 180.696 184.082 180.778 183.948 180.917C183.813 181.055 183.738 181.241 183.738 181.434C183.738 181.628 183.813 181.813 183.948 181.952C184.082 182.091 184.265 182.173 184.458 182.179Z" fill="#061E33"/>
<path d="M190.06 180.511C190.253 180.504 190.436 180.423 190.57 180.284C190.704 180.145 190.779 179.959 190.779 179.766C190.779 179.572 190.704 179.387 190.57 179.248C190.436 179.109 190.253 179.027 190.06 179.021C189.867 179.027 189.684 179.109 189.549 179.248C189.415 179.387 189.34 179.572 189.34 179.766C189.34 179.959 189.415 180.145 189.549 180.284C189.684 180.423 189.867 180.504 190.06 180.511Z" fill="#061E33"/>
<path d="M194.589 178.186C194.782 178.179 194.965 178.098 195.099 177.959C195.234 177.82 195.309 177.634 195.309 177.441C195.309 177.248 195.234 177.062 195.099 176.923C194.965 176.784 194.782 176.703 194.589 176.696C194.396 176.703 194.213 176.784 194.079 176.923C193.944 177.062 193.869 177.248 193.869 177.441C193.869 177.634 193.944 177.82 194.079 177.959C194.213 178.098 194.396 178.179 194.589 178.186Z" fill="#061E33"/>
<path d="M198.582 175.326C198.775 175.319 198.958 175.238 199.092 175.099C199.226 174.96 199.301 174.774 199.301 174.581C199.301 174.388 199.226 174.202 199.092 174.063C198.958 173.924 198.775 173.843 198.582 173.836C198.389 173.843 198.206 173.924 198.071 174.063C197.937 174.202 197.862 174.388 197.862 174.581C197.862 174.774 197.937 174.96 198.071 175.099C198.206 175.238 198.389 175.319 198.582 175.326Z" fill="#061E33"/>
<path d="M67.8024 134.623C67.9955 134.617 68.1784 134.535 68.3127 134.396C68.4469 134.257 68.522 134.072 68.522 133.878C68.522 133.685 68.4469 133.5 68.3127 133.361C68.1784 133.222 67.9955 133.14 67.8024 133.134C67.6093 133.14 67.4263 133.222 67.2921 133.361C67.1578 133.5 67.0828 133.685 67.0828 133.878C67.0828 134.072 67.1578 134.257 67.2921 134.396C67.4263 134.535 67.6093 134.617 67.8024 134.623Z" fill="#061E33"/>
<path d="M72.987 136.858C73.1801 136.851 73.3631 136.77 73.4973 136.631C73.6316 136.492 73.7066 136.306 73.7066 136.113C73.7066 135.92 73.6316 135.734 73.4973 135.595C73.3631 135.456 73.1801 135.375 72.987 135.368C72.7939 135.375 72.611 135.456 72.4767 135.595C72.3425 135.734 72.2675 135.92 72.2675 136.113C72.2675 136.306 72.3425 136.492 72.4767 136.631C72.611 136.77 72.7939 136.851 72.987 136.858Z" fill="#061E33"/>
<path d="M79.602 137.841C79.7951 137.834 79.9781 137.753 80.1123 137.614C80.2466 137.475 80.3216 137.289 80.3216 137.096C80.3216 136.903 80.2466 136.717 80.1123 136.578C79.9781 136.439 79.7951 136.358 79.602 136.351C79.4089 136.358 79.226 136.439 79.0917 136.578C78.9575 136.717 78.8824 136.903 78.8824 137.096C78.8824 137.289 78.9575 137.475 79.0917 137.614C79.226 137.753 79.4089 137.834 79.602 137.841Z" fill="#061E33"/>
<path d="M86.7533 137.484C86.9464 137.477 87.1294 137.395 87.2637 137.256C87.3979 137.117 87.473 136.932 87.473 136.739C87.473 136.545 87.3979 136.36 87.2637 136.221C87.1294 136.082 86.9464 136 86.7533 135.994C86.5602 136 86.3772 136.082 86.2429 136.221C86.1087 136.36 86.0337 136.545 86.0337 136.739C86.0337 136.932 86.1087 137.117 86.2429 137.256C86.3772 137.395 86.5602 137.477 86.7533 137.484Z" fill="#061E33"/>
<path d="M94.1728 136.232C94.3659 136.225 94.5488 136.144 94.6831 136.005C94.8173 135.866 94.8924 135.68 94.8924 135.487C94.8924 135.294 94.8173 135.108 94.6831 134.969C94.5488 134.83 94.3659 134.749 94.1728 134.742C93.9797 134.749 93.7967 134.83 93.6625 134.969C93.5282 135.108 93.4532 135.294 93.4532 135.487C93.4532 135.68 93.5282 135.866 93.6625 136.005C93.7967 136.144 93.9797 136.225 94.1728 136.232Z" fill="#061E33"/>
<path d="M101.235 134.891C101.428 134.884 101.611 134.803 101.745 134.664C101.879 134.525 101.954 134.339 101.954 134.146C101.954 133.953 101.879 133.767 101.745 133.628C101.611 133.489 101.428 133.408 101.235 133.401C101.042 133.408 100.859 133.489 100.724 133.628C100.59 133.767 100.515 133.953 100.515 134.146C100.515 134.339 100.59 134.525 100.724 134.664C100.859 134.803 101.042 134.884 101.235 134.891Z" fill="#061E33"/>
<path d="M104.632 127.829C104.825 127.823 105.008 127.741 105.142 127.602C105.276 127.463 105.351 127.278 105.351 127.085C105.351 126.891 105.276 126.706 105.142 126.567C105.008 126.428 104.825 126.346 104.632 126.34C104.438 126.346 104.255 126.428 104.121 126.567C103.987 126.706 103.912 126.891 103.912 127.085C103.912 127.278 103.987 127.463 104.121 127.602C104.255 127.741 104.438 127.823 104.632 127.829Z" fill="#061E33"/>
<path d="M104.006 120.678C104.199 120.671 104.382 120.59 104.516 120.451C104.65 120.312 104.725 120.126 104.725 119.933C104.725 119.74 104.65 119.554 104.516 119.415C104.382 119.276 104.199 119.195 104.006 119.188C103.813 119.195 103.63 119.276 103.495 119.415C103.361 119.554 103.286 119.74 103.286 119.933C103.286 120.126 103.361 120.312 103.495 120.451C103.63 120.59 103.813 120.671 104.006 120.678Z" fill="#061E33"/>
<path d="M105.257 133.193C105.45 133.186 105.633 133.105 105.768 132.966C105.902 132.827 105.977 132.641 105.977 132.448C105.977 132.255 105.902 132.069 105.768 131.93C105.633 131.791 105.45 131.71 105.257 131.703C105.064 131.71 104.881 131.791 104.747 131.93C104.613 132.069 104.538 132.255 104.538 132.448C104.538 132.641 104.613 132.827 104.747 132.966C104.881 133.105 105.064 133.186 105.257 133.193Z" fill="#061E33"/>
<path d="M103.469 114.689C103.663 114.682 103.846 114.601 103.98 114.462C104.114 114.323 104.189 114.137 104.189 113.944C104.189 113.751 104.114 113.565 103.98 113.426C103.846 113.287 103.663 113.206 103.469 113.199C103.276 113.206 103.093 113.287 102.959 113.426C102.825 113.565 102.75 113.751 102.75 113.944C102.75 114.137 102.825 114.323 102.959 114.462C103.093 114.601 103.276 114.682 103.469 114.689Z" fill="#061E33"/>
<path d="M102.754 109.147C102.947 109.14 103.13 109.059 103.265 108.92C103.399 108.781 103.474 108.595 103.474 108.402C103.474 108.208 103.399 108.023 103.265 107.884C103.13 107.745 102.947 107.663 102.754 107.657C102.561 107.663 102.378 107.745 102.244 107.884C102.11 108.023 102.035 108.208 102.035 108.402C102.035 108.595 102.11 108.781 102.244 108.92C102.378 109.059 102.561 109.14 102.754 109.147Z" fill="#061E33"/>
<path d="M101.413 102.8C101.607 102.793 101.79 102.712 101.924 102.573C102.058 102.434 102.133 102.248 102.133 102.055C102.133 101.862 102.058 101.676 101.924 101.537C101.79 101.398 101.607 101.316 101.413 101.31C101.22 101.316 101.037 101.398 100.903 101.537C100.769 101.676 100.694 101.862 100.694 102.055C100.694 102.248 100.769 102.434 100.903 102.573C101.037 102.712 101.22 102.793 101.413 102.8Z" fill="#061E33"/>
<path d="M99.4469 97.8834C99.64 97.8767 99.823 97.7953 99.9572 97.6564C100.091 97.5174 100.167 97.3317 100.167 97.1385C100.167 96.9453 100.091 96.7596 99.9572 96.6206C99.823 96.4816 99.64 96.4002 99.4469 96.3936C99.2538 96.4002 99.0708 96.4816 98.9365 96.6206C98.8023 96.7596 98.7272 96.9453 98.7272 97.1385C98.7272 97.3317 98.8023 97.5174 98.9365 97.6564C99.0708 97.7953 99.2538 97.8767 99.4469 97.8834Z" fill="#061E33"/>
<path d="M97.659 92.1622C97.8521 92.1555 98.0351 92.0741 98.1693 91.9352C98.3036 91.7962 98.3786 91.6105 98.3786 91.4173C98.3786 91.2241 98.3036 91.0384 98.1693 90.8994C98.0351 90.7604 97.8521 90.679 97.659 90.6724C97.4659 90.679 97.2829 90.7604 97.1486 90.8994C97.0144 91.0384 96.9393 91.2241 96.9393 91.4173C96.9393 91.6105 97.0144 91.7962 97.1486 91.9352C97.2829 92.0741 97.4659 92.1555 97.659 92.1622Z" fill="#061E33"/>
<path d="M96.6757 85.8153C96.8689 85.8086 97.0518 85.7272 97.1861 85.5882C97.3203 85.4493 97.3954 85.2636 97.3954 85.0704C97.3954 84.8771 97.3203 84.6915 97.1861 84.5525C97.0518 84.4135 96.8689 84.3321 96.6757 84.3254C96.4826 84.3321 96.2996 84.4135 96.1654 84.5525C96.0311 84.6915 95.9561 84.8771 95.9561 85.0704C95.9561 85.2636 96.0311 85.4493 96.1654 85.5882C96.2996 85.7272 96.4826 85.8086 96.6757 85.8153Z" fill="#061E33"/>
<path d="M96.6757 78.9322C96.8688 78.9256 97.0518 78.8441 97.186 78.7052C97.3203 78.5662 97.3953 78.3805 97.3953 78.1873C97.3953 77.9941 97.3203 77.8084 97.186 77.6695C97.0518 77.5305 96.8688 77.4491 96.6757 77.4424C96.4826 77.4491 96.2997 77.5305 96.1654 77.6695C96.0312 77.8084 95.9561 77.9941 95.9561 78.1873C95.9561 78.3805 96.0312 78.5662 96.1654 78.7052C96.2997 78.8441 96.4826 78.9256 96.6757 78.9322Z" fill="#061E33"/>
<path d="M155.546 32.1786C155.279 32.2085 155.022 32.2973 154.793 32.4387C154.553 32.5754 154.322 32.7284 154.103 32.8967C153.662 33.2353 153.244 33.6021 152.851 33.9947C152.066 34.787 151.323 35.619 150.624 36.4875C149.224 38.2265 147.92 40.0416 146.677 41.9025C146.047 42.8249 145.468 43.783 144.886 44.7398L143.116 47.5923L141.342 50.4411L139.654 53.3395L139.65 53.3468C139.594 53.4431 139.502 53.5132 139.394 53.5416C139.287 53.57 139.172 53.5545 139.076 53.4985C139.039 53.4771 139.006 53.4505 138.978 53.4194L136.862 51.113C136.156 50.3393 135.496 49.532 134.831 48.7267C133.487 47.1177 132.247 45.424 131.12 43.6562C130.836 43.2053 130.585 42.7348 130.368 42.2484L130.04 41.5089C129.914 41.2493 129.832 40.9707 129.796 40.6842C129.759 40.3919 129.764 40.0957 129.813 39.805C129.863 39.5364 129.904 39.3027 129.937 39.0477C130.006 38.5513 130.033 38.0499 130.017 37.549C130.009 37.0665 129.915 36.5892 129.74 36.1396C129.479 35.6699 129.283 35.1669 129.158 34.6444C128.909 33.6432 128.651 32.6412 128.323 31.6631C128.019 30.6819 127.62 29.7328 127.132 28.829C126.901 28.387 126.598 27.9869 126.235 27.6455C126.148 27.5687 126.051 27.5038 125.947 27.4528L125.796 27.3803L125.639 27.3557C125.537 27.3353 125.432 27.3405 125.333 27.3708C125.234 27.4011 125.144 27.4555 125.071 27.5292C124.829 27.9402 124.748 28.4267 124.845 28.8938C124.9 29.403 124.99 29.9077 125.115 30.4045C125.236 30.9061 125.383 31.4028 125.524 31.9032L125.73 32.6594C125.812 32.9276 125.854 33.2065 125.854 33.4871C125.838 33.64 125.788 33.7874 125.707 33.918C125.626 34.0485 125.516 34.1588 125.386 34.2404C125.125 34.4004 124.814 34.454 124.515 34.3903C123.968 34.2405 123.496 33.8934 123.191 33.4159C122.579 32.556 122.071 31.6263 121.679 30.6463C121.473 30.1645 121.284 29.6765 121.107 29.1844L120.976 28.8163C120.935 28.7082 120.885 28.604 120.826 28.5048C120.711 28.3063 120.555 28.1344 120.369 28.0004C119.996 27.7294 119.531 27.6165 119.076 27.6862C118.854 27.7212 118.642 27.8014 118.453 27.9219C118.264 28.0424 118.102 28.2005 117.976 28.3864L117.945 28.4238L117.931 28.4498C117.913 28.4781 117.889 28.5024 117.862 28.5215C117.834 28.5405 117.803 28.5539 117.77 28.5609C117.737 28.5679 117.703 28.5683 117.67 28.5621C117.636 28.556 117.605 28.5433 117.577 28.525L117.556 28.5101L117.533 28.4911C117.404 28.3884 117.26 28.3061 117.106 28.247C116.979 28.1925 116.839 28.1796 116.704 28.2102C116.584 28.2511 116.483 28.3357 116.421 28.4473C116.382 28.5155 116.346 28.5856 116.314 28.6574L116.235 28.9031C116.22 28.9508 116.194 28.9942 116.158 29.0297C116.123 29.0652 116.079 29.0916 116.032 29.1069C115.984 29.1223 115.933 29.1259 115.884 29.1177C115.834 29.1094 115.787 29.0895 115.747 29.0595L115.739 29.0536C115.638 28.9757 115.518 28.9242 115.392 28.9037C115.343 28.8984 115.293 28.9032 115.246 28.9178C115.199 28.9324 115.156 28.9565 115.119 28.9886C114.921 29.2246 114.795 29.5117 114.755 29.8166C114.682 30.1649 114.641 30.5189 114.631 30.8746C114.602 31.2339 114.623 31.6048 114.62 31.9695C114.62 32.031 114.605 32.0916 114.576 32.146C114.547 32.2003 114.506 32.247 114.455 32.282L114.434 32.2966C114.203 32.474 114.017 32.7043 113.893 32.9682C113.756 33.2555 113.671 33.565 113.643 33.8821C113.599 34.5549 113.695 35.2295 113.926 35.8632C114.399 37.1869 115.105 38.4151 116.012 39.4897C116.431 40.0401 116.919 40.5346 117.464 40.9612C118.025 41.3758 118.625 41.736 119.255 42.0367C119.88 42.3586 120.528 42.6335 121.194 42.8592C121.359 42.9121 121.523 42.9619 121.689 43.0044C121.896 43.0486 122.097 43.1145 122.29 43.2011C122.71 43.3976 123.063 43.7155 123.301 44.1138C123.36 44.213 123.412 44.3165 123.456 44.4235L123.565 44.6807L123.776 45.1813L124.199 46.1823L125.044 48.1842C125.611 49.5173 126.152 50.8606 126.768 52.1714C127.977 54.8016 129.268 57.3956 130.726 59.883C131.447 61.1252 132.232 62.3285 133.08 63.4878C133.884 64.6458 134.847 65.6856 135.939 66.577C136.449 66.9958 137.051 67.2888 137.695 67.4325C138.354 67.5114 139.023 67.4524 139.658 67.2591C140.997 66.8078 142.256 66.1477 143.388 65.3034C145.719 63.5971 147.877 61.6658 149.83 59.5372C151.824 57.434 153.733 55.2379 155.515 52.9437C155.523 52.9331 155.535 52.9261 155.548 52.9241C155.561 52.9222 155.574 52.9255 155.585 52.9334C155.595 52.9413 155.602 52.9528 155.604 52.9656C155.606 52.9783 155.603 52.9914 155.595 53.002C153.911 55.3805 152.104 57.6692 150.18 59.8588C148.265 62.0788 146.136 64.1046 143.823 65.9068C142.636 66.8254 141.311 67.5489 139.896 68.0501C139.141 68.2946 138.342 68.3756 137.553 68.2878C136.768 68.1358 136.031 67.8001 135.4 67.3081C134.216 66.3837 133.168 65.2972 132.287 64.0804C131.411 62.8972 130.599 61.6675 129.856 60.3966C128.362 57.8715 127.049 55.2573 125.818 52.6093C125.189 51.2914 124.64 49.9376 124.09 48.5862L123.26 46.5609L122.845 45.5483L122.638 45.042L122.537 44.796C122.512 44.7345 122.483 44.6749 122.45 44.6179C122.315 44.3862 122.113 44.2005 121.871 44.0846C121.678 43.983 121.237 43.9076 120.889 43.7758C120.179 43.5278 119.49 43.2271 118.825 42.8764C118.494 42.7044 118.172 42.5276 117.847 42.3369C117.516 42.1416 117.199 41.9243 116.897 41.6865C116.3 41.2092 115.767 40.6584 115.308 40.0472C114.355 38.8763 113.622 37.5428 113.144 36.1109C112.892 35.3677 112.798 34.5801 112.868 33.7984C112.899 33.3751 113.023 32.9637 113.23 32.5934C113.438 32.2231 113.724 31.9028 114.069 31.6551L113.882 31.982C113.896 31.5972 113.885 31.2167 113.925 30.8284C113.948 30.4346 114.006 30.0437 114.098 29.6601C114.175 29.2193 114.386 28.8131 114.703 28.497C114.81 28.4097 114.934 28.3455 115.067 28.3084C115.201 28.2713 115.34 28.2621 115.477 28.2813C115.722 28.3223 115.952 28.4293 116.141 28.591L115.645 28.7414L115.755 28.427C115.805 28.3197 115.862 28.2159 115.925 28.1163C116.071 27.8886 116.295 27.7226 116.555 27.6501C116.808 27.5933 117.072 27.6185 117.309 27.7222C117.522 27.8094 117.719 27.9305 117.893 28.0807L117.494 28.122L117.56 28.0389L117.529 28.0762C117.701 27.8344 117.92 27.6304 118.174 27.4771C118.428 27.3237 118.711 27.2241 119.004 27.1846C119.59 27.1086 120.182 27.2671 120.651 27.6255C120.883 27.8019 121.075 28.025 121.216 28.2804C121.286 28.4062 121.346 28.538 121.393 28.6744L121.514 29.0432C121.677 29.5327 121.852 30.018 122.043 30.4963C122.401 31.4562 122.881 32.366 123.471 33.2037C123.723 33.6151 124.118 33.9194 124.58 34.0587C124.683 34.0881 124.792 34.0951 124.898 34.0791C125.004 34.0632 125.106 34.0248 125.196 33.9664C125.286 33.908 125.363 33.831 125.421 33.7405C125.479 33.6501 125.518 33.5483 125.533 33.4419C125.527 33.2026 125.489 32.9651 125.422 32.7353L125.225 31.9864C125.087 31.4863 124.95 30.9834 124.823 30.4759C124.689 29.9663 124.59 29.4481 124.527 28.9248C124.495 28.6559 124.49 28.3843 124.512 28.1143C124.527 27.8174 124.635 27.5327 124.821 27.3012C125.052 27.1013 125.35 26.9972 125.655 27.0101C125.96 27.0231 126.249 27.1522 126.462 27.3709C126.863 27.735 127.2 28.1649 127.457 28.6421C127.963 29.5642 128.391 30.5271 128.736 31.5206C129.098 32.5036 129.389 33.507 129.671 34.5139C129.803 34.9994 130.002 35.4642 130.262 35.8948C130.486 36.4071 130.613 36.9558 130.64 37.5139C130.673 38.0512 130.66 38.5904 130.601 39.1255C130.575 39.3866 130.535 39.6662 130.497 39.9094C130.466 40.133 130.468 40.3599 130.503 40.5828C130.539 40.812 130.614 41.0333 130.726 41.2367L131.05 41.9125C131.269 42.3692 131.521 42.8096 131.803 43.2303C132.935 44.9513 134.171 46.6018 135.503 48.1726C136.822 49.767 138.212 51.2913 139.595 52.8341L138.918 52.914L140.648 50.0189L142.463 47.1787L144.281 44.3422C144.892 43.4 145.499 42.455 146.16 41.5438C147.45 39.6985 148.832 37.9199 150.302 36.2149C151.047 35.3679 151.835 34.5597 152.663 33.7936C153.08 33.4105 153.523 33.0572 153.989 32.7364C154.224 32.5766 154.471 32.4332 154.726 32.3071C154.983 32.1661 155.271 32.0886 155.564 32.0809C155.577 32.0815 155.589 32.0869 155.598 32.096C155.606 32.1052 155.611 32.1173 155.611 32.1299C155.611 32.1425 155.606 32.1546 155.597 32.1636C155.588 32.1726 155.576 32.1779 155.564 32.1782L155.546 32.1786Z" fill="#061E33"/>
<path d="M98.3742 72.9435C98.5673 72.9368 98.7503 72.8554 98.8845 72.7164C99.0188 72.5774 99.0938 72.3918 99.0938 72.1985C99.0938 72.0053 99.0188 71.8196 98.8845 71.6807C98.7503 71.5417 98.5673 71.4603 98.3742 71.4536C98.1811 71.4603 97.9981 71.5417 97.8638 71.6807C97.7296 71.8196 97.6545 72.0053 97.6545 72.1985C97.6545 72.3918 97.7296 72.5774 97.8638 72.7164C97.9981 72.8554 98.1811 72.9368 98.3742 72.9435Z" fill="#061E33"/>
<path d="M117.712 28.2849C117.918 28.8677 118.086 29.4445 118.296 30.0059C118.505 30.5668 118.727 31.1193 118.984 31.656C119.233 32.1965 119.514 32.7216 119.814 33.2396C120.115 33.758 120.444 34.2598 120.77 34.7841C119.815 33.9919 119.051 32.9948 118.535 31.8668C118.002 30.7475 117.721 29.5247 117.712 28.2849Z" fill="#061E33"/>
<path d="M115.943 28.8232C116.044 29.5541 116.077 30.2818 116.22 30.9759C116.358 31.6706 116.573 32.3479 116.86 32.9954C117.149 33.6424 117.507 34.256 117.929 34.8252C118.369 35.3842 118.829 35.9686 119.241 36.5723C118.677 36.1013 118.14 35.6005 117.63 35.072C116.612 33.9538 115.984 32.5366 115.838 31.0318C115.785 30.294 115.821 29.5527 115.943 28.8232Z" fill="#061E33"/>
<path d="M114.251 31.9771C114.45 32.4701 114.62 32.974 114.761 33.4865C114.912 33.976 115.101 34.4532 115.326 34.9137C115.557 35.376 115.814 35.8248 116.096 36.2579C116.375 36.7121 116.626 37.1833 116.847 37.6687C116.466 37.2951 116.11 36.8981 115.778 36.4801C115.425 36.0688 115.123 35.6157 114.88 35.1308C114.642 34.6382 114.475 34.1141 114.385 33.5744C114.305 33.0455 114.26 32.5119 114.251 31.9771Z" fill="#061E33"/>
</svg>
