<svg width="214" height="164" viewBox="0 0 214 164" fill="none" xmlns="http://www.w3.org/2000/svg">
<path d="M212.816 119.982C212.816 119.982 197.528 121.605 179.108 105.002C179.108 105.002 176.423 116.229 174.627 119.087C173.299 121.793 171.281 124.102 168.776 125.779C157.837 132.852 141.948 123.802 136.946 121.178C134.635 119.969 134.287 119.895 125.732 115.294C123.341 114.005 110.625 106.705 110.625 106.705C107.472 105.316 102.076 105.549 102.076 105.549L98.1154 112.081C96.5852 114.604 94.5224 116.763 92.0712 118.406C94.7226 118.185 97.3541 118.019 99.9922 117.852C102.624 117.665 105.255 117.504 107.873 117.264C109.189 117.164 110.498 117.03 111.8 116.876C113.102 116.743 114.398 116.549 115.694 116.342C116.982 116.138 118.258 115.86 119.514 115.507C120.786 115.197 121.977 114.619 123.007 113.811C122.133 114.847 121.009 115.642 119.741 116.122C118.498 116.644 117.214 117.059 115.901 117.364C113.3 117.975 110.657 118.386 107.993 118.593C105.335 118.813 102.677 118.92 100.019 118.887C97.3626 118.88 94.7089 118.72 92.0712 118.406L92.0645 118.406C89.698 119.996 87.021 121.066 84.2103 121.545L54.2362 126.694C54.2362 126.694 61.329 135.811 54.0025 154.885C54.0025 154.885 68.8626 153.382 78.1594 156.181C87.4495 158.972 101.709 158.972 116.802 153.523C131.896 148.073 139.857 149.469 149.922 151.425C159.987 153.382 196.6 171.134 209.456 138.429C209.456 138.429 213.791 127.81 212.816 119.982ZM59.6527 135.537C59.3932 135.528 59.1474 135.418 58.967 135.231C58.7867 135.044 58.6859 134.795 58.6859 134.535C58.6859 134.275 58.7867 134.026 58.967 133.839C59.1474 133.652 59.3932 133.542 59.6527 133.533C59.9122 133.542 60.158 133.652 60.3384 133.839C60.5187 134.026 60.6195 134.275 60.6195 134.535C60.6195 134.795 60.5187 135.044 60.3384 135.231C60.158 135.418 59.9122 135.528 59.6527 135.537ZM59.0116 128.083C59.2716 128.092 59.518 128.201 59.6989 128.388C59.8797 128.575 59.9809 128.825 59.9809 129.085C59.9809 129.345 59.8797 129.595 59.6989 129.782C59.518 129.969 59.2716 130.078 59.0116 130.087C58.7516 130.078 58.5051 129.969 58.3243 129.782C58.1434 129.595 58.0423 129.345 58.0423 129.085C58.0423 128.825 58.1434 128.575 58.3243 128.388C58.5051 128.201 58.7516 128.092 59.0116 128.083ZM57.0881 153.81C56.8286 153.801 56.5828 153.691 56.4025 153.504C56.2222 153.317 56.1214 153.068 56.1214 152.808C56.1214 152.548 56.2222 152.299 56.4025 152.112C56.5828 151.925 56.8286 151.815 57.0881 151.806C57.3476 151.815 57.5934 151.925 57.7737 152.112C57.954 152.299 58.0548 152.548 58.0548 152.808C58.0548 153.068 57.954 153.317 57.7737 153.504C57.5934 153.691 57.3476 153.801 57.0881 153.81ZM58.691 148.36C58.4315 148.351 58.1857 148.241 58.0054 148.054C57.825 147.867 57.7243 147.618 57.7243 147.358C57.7243 147.098 57.825 146.849 58.0054 146.662C58.1857 146.475 58.4315 146.366 58.691 146.356C58.9505 146.366 59.1963 146.475 59.3766 146.662C59.557 146.849 59.6577 147.098 59.6577 147.358C59.6577 147.618 59.5569 147.867 59.3766 148.054C59.1963 148.241 58.9505 148.351 58.691 148.36ZM59.813 141.628C59.5535 141.619 59.3076 141.509 59.1273 141.322C58.947 141.135 58.8462 140.886 58.8462 140.626C58.8462 140.366 58.947 140.117 59.1273 139.93C59.3076 139.743 59.5535 139.633 59.813 139.624C60.0725 139.633 60.3184 139.743 60.4987 139.93C60.6791 140.117 60.7799 140.366 60.7799 140.626C60.7799 140.886 60.679 141.135 60.4987 141.322C60.3183 141.509 60.0725 141.619 59.813 141.628Z" fill="#061E33"/>
<path d="M155.886 88.0713C156.331 88.7193 156.869 89.2977 157.483 89.7877C157.256 89.7276 155.419 89.2066 155.499 88.5455V88.5054C155.569 88.3174 155.708 88.1625 155.886 88.0713Z" fill="#061E33"/>
<path d="M212.308 89.961C211.843 82.5021 210.424 75.1334 208.087 68.0347C203.893 55.4053 199.866 50.5632 199.866 50.5632C199.866 50.5632 198.223 52.7071 196.079 51.1843C193.935 49.6616 187.931 47.6045 187.931 47.6045C177.479 44.8261 173.679 49.2675 173.679 49.2675C171.791 51.8459 169.755 54.3123 167.581 56.6542C168.477 56.0173 169.443 55.4841 170.459 55.0647C171.851 54.4706 173.332 54.114 174.841 54.0094C175.611 53.9649 176.384 54.0074 177.145 54.1363C177.912 54.2768 178.656 54.5241 179.355 54.871C180.721 55.5664 181.821 56.69 182.488 58.0701C181.507 57.081 180.319 56.3227 179.009 55.8502C177.699 55.3777 176.3 55.2029 174.914 55.3385C173.52 55.4311 172.139 55.6684 170.793 56.0464C169.544 56.387 168.289 56.7944 167.027 57.2486L167.02 57.2552C159.653 64.9825 154.25 67.2132 154.25 67.2132C151.899 76.9775 153.175 82.8682 154.771 86.1741C154.771 85.927 154.791 85.6799 154.804 85.4328C154.913 84.3123 155.101 83.2009 155.365 82.1068C155.894 79.9353 156.55 77.7967 157.329 75.7019C158.11 73.6181 158.952 71.5544 159.887 69.5374C160.805 67.5085 161.833 65.5309 162.966 63.6134C161.664 67.8811 160.087 72.0152 158.585 76.1627C157.817 78.2331 157.069 80.3035 156.374 82.3873C156.033 83.4292 155.699 84.4777 155.452 85.5397C155.329 86.0133 155.242 86.4955 155.192 86.9822C155.403 87.3579 155.635 87.7213 155.886 88.0709C156.619 87.6995 157.406 87.447 158.217 87.3229C163.901 86.1608 196.9 92.8395 181.399 96.3926L180.544 99.7186C202.076 107.132 213.791 97.4812 213.791 97.4812C212.943 96.3659 212.515 93.1067 212.308 89.961ZM158.431 85.0455C158.172 85.0363 157.926 84.9267 157.745 84.7398C157.565 84.553 157.464 84.3034 157.464 84.0437C157.464 83.784 157.565 83.5345 157.745 83.3476C157.926 83.1607 158.172 83.0511 158.431 83.0419C158.691 83.0511 158.936 83.1607 159.117 83.3476C159.297 83.5345 159.398 83.784 159.398 84.0437C159.398 84.3034 159.297 84.553 159.117 84.7398C158.936 84.9267 158.691 85.0363 158.431 85.0455ZM163.841 85.4062C163.581 85.3969 163.335 85.2873 163.155 85.1004C162.975 84.9136 162.874 84.664 162.874 84.4043C162.874 84.1447 162.975 83.8951 163.155 83.7083C163.335 83.5214 163.581 83.4118 163.841 83.4025C164.1 83.4118 164.346 83.5214 164.526 83.7083C164.707 83.8952 164.807 84.1447 164.807 84.4043C164.807 84.664 164.707 84.9135 164.526 85.1004C164.346 85.2872 164.1 85.3968 163.841 85.4061V85.4062ZM169.491 86.3679C169.231 86.3586 168.986 86.2491 168.805 86.0622C168.625 85.8753 168.524 85.6258 168.524 85.3661C168.524 85.1064 168.625 84.8568 168.805 84.67C168.986 84.4831 169.231 84.3735 169.491 84.3643C169.75 84.3735 169.996 84.4831 170.177 84.67C170.357 84.8569 170.458 85.1064 170.458 85.3661C170.458 85.6257 170.357 85.8753 170.177 86.0621C169.996 86.249 169.75 86.3586 169.491 86.3679ZM175.382 87.4498C175.122 87.4406 174.876 87.331 174.696 87.1442C174.516 86.9573 174.415 86.7077 174.415 86.448C174.415 86.1883 174.516 85.9388 174.696 85.7519C174.876 85.565 175.122 85.4554 175.382 85.4462C175.641 85.4555 175.887 85.5651 176.067 85.7519C176.248 85.9388 176.348 86.1883 176.348 86.448C176.348 86.7077 176.248 86.9573 176.067 87.1441C175.887 87.331 175.641 87.4406 175.382 87.4498ZM188.185 76.5569C188.098 77.9594 188.031 79.3686 187.891 80.7645L187.637 82.8616C187.557 83.5562 187.463 84.2508 187.33 84.9454C187.083 86.3212 186.856 87.7104 186.542 89.0728C186.214 90.4419 185.887 91.8044 185.5 93.1469C185.593 91.7443 185.747 90.3551 185.894 88.9726C186.054 87.5834 186.141 86.1942 186.295 84.8118C186.548 82.0401 186.749 79.2751 186.849 76.5101C186.953 73.7529 186.892 70.9919 186.669 68.2419C186.582 67.5607 186.542 66.866 186.415 66.1915L186.255 65.1697C186.188 64.8357 186.108 64.5018 186.034 64.1679C185.777 62.8072 185.287 61.5012 184.585 60.3075C185.083 60.8121 185.495 61.394 185.807 62.0307C185.981 62.3412 186.135 62.6625 186.268 62.9924C186.417 63.3145 186.549 63.6445 186.662 63.9808C187.13 65.3207 187.476 66.6998 187.697 68.1016C188.12 70.899 188.283 73.7294 188.185 76.5568V76.5569Z" fill="#061E33"/>
<path d="M154.25 67.2134C154.106 67.5466 153.981 67.8878 153.876 68.2352C153.903 67.948 153.923 67.6608 153.936 67.367C154.137 67.2735 154.25 67.2134 154.25 67.2134Z" fill="#061E33"/>
<path d="M157.589 89.3934L155.138 101.008L153.896 107.827L152.434 107.473C139.984 104.848 119.454 95.8918 119.454 95.8918L114.732 89.7941C117.677 90.4886 118.579 87.1894 118.579 87.1894C122.005 88.0509 122.132 84.5379 122.132 84.5379C125.144 84.8451 124.617 80.5507 124.617 80.5507C127.829 80.9047 126.794 77.1446 126.794 77.1446C123.698 74.0972 121.917 69.9601 121.832 65.6171C121.645 65.6 121.457 65.6 121.271 65.6171C121.271 65.6171 130.768 49.3477 139.41 52.4801L148.059 55.6124C147.056 57.6393 146.516 59.8633 146.476 62.1242C147.264 69.4374 152.033 68.155 153.689 67.4738C153.213 68.7992 152.837 70.1589 152.567 71.5412C152.232 73.1883 152.02 74.8582 151.933 76.5369C151.913 77.3784 151.913 78.2199 151.953 79.0681C152.008 79.919 152.124 80.7649 152.3 81.5993C152.47 82.448 152.753 83.2701 153.141 84.0438C153.442 84.6457 153.857 85.1833 154.364 85.6266C154.425 85.6836 154.49 85.7371 154.557 85.7869L154.564 85.7936C155.192 86.3745 157.589 89.3934 157.589 89.3934Z" fill="#061E33"/>
<path d="M132.796 15.9722C132.898 17.2699 133.067 18.5615 133.304 19.8415C133.532 21.1048 133.859 22.348 134.283 23.5595C134.491 24.1537 134.739 24.7333 135.024 25.2942C135.371 25.9373 135.576 26.6477 135.624 27.3769C135.732 28.7822 135.519 30.1937 135.001 31.5043L134.985 31.5361L134.966 31.5701C134.783 31.9013 134.654 32.2595 134.584 32.6314C134.548 32.7667 134.54 32.9078 134.559 33.0465C134.579 33.1851 134.625 33.3185 134.697 33.4389C134.898 33.6507 135.163 33.7904 135.451 33.8362C135.645 33.8533 135.83 33.8895 136.031 33.8989L136.651 33.8963L136.69 33.8962C136.81 33.8958 136.928 33.9286 137.031 33.9911C137.133 34.0536 137.216 34.1432 137.271 34.2502C137.525 34.7451 137.825 35.2541 138.13 35.7327C138.422 36.2102 138.756 36.6613 139.126 37.0811C139.301 37.2776 139.494 37.4567 139.704 37.6158C139.961 37.8098 140.204 38.021 140.433 38.2481C140.899 38.7087 141.294 39.2352 141.607 39.8107L141.575 39.7574C141.961 40.308 142.41 40.8112 142.913 41.2569C143.418 41.7079 143.991 42.0755 144.612 42.3459C145.238 42.6136 145.92 42.7262 146.6 42.674C147.304 42.6116 147.989 42.4139 148.618 42.0918C148.036 42.5389 147.365 42.8549 146.649 43.0179C145.907 43.179 145.136 43.1487 144.409 42.9299C143.684 42.7064 143.002 42.36 142.394 41.9058C141.776 41.4588 141.224 40.9273 140.754 40.3268L140.721 40.2732C140.426 39.8224 140.07 39.4149 139.663 39.0624C139.459 38.8792 139.244 38.7089 139.019 38.5523C138.747 38.3613 138.492 38.145 138.26 37.9063C137.821 37.4508 137.423 36.9579 137.071 36.4332C136.723 35.9199 136.403 35.388 136.113 34.8398L136.733 35.1935L135.982 35.2071C135.727 35.1991 135.459 35.1577 135.198 35.1302C134.578 35.0308 134.015 34.7077 133.617 34.2219C133.442 33.9567 133.323 33.6588 133.266 33.3464C133.21 33.0339 133.217 32.7132 133.288 32.4037C133.391 31.8759 133.582 31.3692 133.852 30.9047L133.818 30.9703C134.267 29.846 134.482 28.6419 134.449 27.4318C134.429 26.8528 134.294 26.2836 134.052 25.7572C133.786 25.1352 133.562 24.496 133.382 23.8439C133.039 22.5581 132.823 21.2414 132.739 19.9131C132.643 18.6003 132.662 17.2817 132.796 15.9722Z" fill="#061E33"/>
<path d="M133.028 16.2337C134.908 17.1988 136.849 18.157 138.791 19.0392C140.7 19.9624 142.697 20.6896 144.753 21.2096C144.994 21.2564 145.238 21.2805 145.484 21.2816C145.706 21.2753 145.912 21.2109 145.929 21.1518C145.933 21.1155 145.938 21.1623 145.968 21.0707L146.045 20.8586C146.096 20.7153 146.161 20.5774 146.239 20.4468C146.392 20.1776 146.588 19.9355 146.82 19.7305C147.29 19.3421 147.858 19.0901 148.462 19.0021C148.756 18.9537 149.055 18.9373 149.353 18.9534C149.681 18.9972 149.996 19.1071 150.28 19.2764C150.778 19.6083 151.2 20.0426 151.517 20.5503C151.835 21.058 152.04 21.6274 152.12 22.2207C152.304 23.3283 152.325 24.4568 152.182 25.5704L152.186 25.4843C152.223 26.2148 152.196 26.9471 152.105 27.6729C152.061 28.0661 151.965 28.4517 151.819 28.8196C151.779 28.9287 151.725 29.0323 151.659 29.128C151.625 29.1806 151.596 29.2316 151.555 29.2838C151.504 29.3377 151.45 29.3905 151.394 29.4409C151.269 29.5531 151.118 29.6333 150.955 29.6748C150.79 29.7064 150.62 29.7077 150.454 29.6787L151.036 29.4118C149.506 32.6586 148.891 36.2615 149.259 39.8318C149.362 40.688 149.555 41.6463 149.654 42.5629C149.767 43.4901 149.847 44.424 149.873 45.3614C149.898 46.3004 149.877 47.24 149.808 48.1768C149.738 49.1216 149.607 50.037 149.483 50.9521C149.252 52.8058 148.891 54.6409 148.4 56.4435C148.264 56.9187 148.084 57.3801 147.862 57.8216L147.501 58.4227C147.399 58.6024 147.308 58.7887 147.231 58.9803C146.921 59.7655 146.799 60.6121 146.874 61.4527C147.095 63.1438 147.622 64.9851 148.786 66.2037C149.361 66.8168 150.129 67.2143 150.961 67.3301C151.824 67.4341 152.699 67.3521 153.528 67.0897C155.245 66.5238 156.861 65.6887 158.316 64.6158C159.802 63.5507 161.217 62.3905 162.553 61.1424C165.247 58.6509 167.779 55.991 170.136 53.1787C171.338 51.7777 172.47 50.3724 173.655 48.9276C174.31 48.2326 175.094 47.6727 175.964 47.2795C176.391 47.0791 176.828 46.9022 177.274 46.7496C177.73 46.6374 178.18 46.4837 178.643 46.4071C179.107 46.344 179.57 46.2475 180.037 46.213L181.442 46.1518C182.376 46.1691 183.308 46.2496 184.232 46.3928C184.691 46.4705 185.157 46.5244 185.612 46.6224L186.967 46.9582C187.869 47.1852 188.759 47.4583 189.633 47.7766C190.527 48.0421 191.36 48.4537 192.224 48.7958C193.092 49.1314 193.916 49.5551 194.745 49.9686L195.991 50.587L196.303 50.7417C196.397 50.7844 196.478 50.8286 196.569 50.8656C196.748 50.9394 196.935 50.9932 197.126 51.0259C197.501 51.097 197.887 51.0811 198.255 50.9794C198.623 50.8778 198.962 50.6931 199.248 50.4396C199.527 50.1642 199.751 49.8382 199.907 49.4791C199.999 49.301 200.069 49.1128 200.117 48.9184L200.197 48.6311L200.23 48.3343C200.29 47.5156 200.137 46.6953 199.784 45.9538C198.95 44.4043 197.827 43.0286 196.476 41.9005C193.693 39.5673 190.661 37.5484 187.436 35.8807C184.158 34.0936 181.099 31.9319 178.32 29.4391C176.933 28.1911 175.624 26.8599 174.398 25.4529C173.164 24.0538 172.018 22.58 170.965 21.0399C169.906 19.5043 168.939 17.9072 168.069 16.257C167.644 15.4268 167.217 14.5982 166.844 13.7431C166.65 13.3195 166.454 12.8939 166.275 12.4709L165.69 11.2596L165.112 10.0442L164.412 8.90174C164.17 8.52736 163.963 8.12562 163.693 7.77249L162.87 6.72145L162.459 6.19474L161.991 5.72248L161.053 4.77726L160.013 3.95188C159.671 3.67013 159.305 3.41993 158.918 3.20438C155.885 1.30621 152.256 0.598996 148.732 1.21924L148.837 1.17866C147.125 2.08277 145.432 3.06232 143.775 4.08133C142.118 5.10524 140.493 6.18095 138.931 7.33965C137.35 8.46646 135.881 9.74365 134.546 11.1534C133.887 11.8563 133.342 12.6577 132.93 13.5287C132.718 13.9517 132.616 14.4211 132.633 14.8938C132.65 15.3664 132.786 15.8272 133.028 16.2337ZM132.939 16.333C132.655 15.9108 132.483 15.4229 132.441 14.9158C132.399 14.4087 132.487 13.8992 132.697 13.4358C133.086 12.5181 133.615 11.6669 134.267 10.913C135.565 9.42678 137.005 8.06987 138.565 6.86125C140.112 5.64465 141.722 4.51493 143.364 3.43613C145.01 2.36054 146.678 1.33286 148.399 0.362029L148.404 0.359417C148.435 0.34195 148.469 0.329133 148.504 0.321371C150.377 -0.0750246 152.309 -0.105015 154.193 0.233043C156.076 0.555968 157.881 1.23319 159.512 2.22879C159.931 2.45528 160.33 2.71799 160.704 3.01389L161.837 3.88457L162.86 4.87834L163.369 5.3777L163.817 5.9293L164.712 7.03492C165.006 7.40689 165.232 7.82311 165.494 8.2157L166.254 9.41278L166.883 10.6759L167.506 11.9432C167.687 12.3661 167.877 12.7742 168.067 13.1859C168.432 14.0155 168.851 14.8188 169.266 15.6239C170.117 17.2236 171.062 18.7714 172.095 20.2592C173.123 21.7511 174.242 23.1782 175.445 24.5324C176.64 25.8942 177.916 27.182 179.267 28.3887C181.958 30.8216 184.913 32.9446 188.077 34.7178C191.372 36.4623 194.463 38.5662 197.295 40.9911C198.761 42.2396 199.964 43.7672 200.833 45.4849C201.256 46.4184 201.425 47.4463 201.326 48.4659L201.272 48.8529C201.241 48.9791 201.201 49.1034 201.164 49.2284C201.096 49.4788 201.001 49.721 200.88 49.9509C200.657 50.4309 200.344 50.8635 199.957 51.2248C199.549 51.5798 199.064 51.8363 198.541 51.9744C198.018 52.1125 197.471 52.1285 196.94 52.0213C196.679 51.9715 196.423 51.8931 196.179 51.7875C196.058 51.7363 195.937 51.6697 195.824 51.6128L195.522 51.4535L194.314 50.8157C193.508 50.3887 192.708 49.9505 191.867 49.6019C191.031 49.2465 190.219 48.8188 189.355 48.5398C188.509 48.2075 187.648 47.919 186.773 47.6755L185.46 47.3175C185.019 47.2124 184.57 47.1516 184.126 47.0661C183.236 46.908 182.336 46.8101 181.433 46.7733L180.082 46.8028C179.633 46.8258 179.191 46.9096 178.744 46.9593C176.963 47.1951 175.304 47.9965 174.013 49.2456C172.856 50.6339 171.669 52.0817 170.465 53.4619C168.071 56.2634 165.538 58.9431 162.875 61.491C161.537 62.7677 160.118 63.9567 158.627 65.0506C157.147 66.2032 155.492 67.1125 153.726 67.7441C152.805 68.061 151.826 68.176 150.857 68.0814C149.85 67.9652 148.912 67.5106 148.196 66.792C147.51 66.0894 146.978 65.2508 146.635 64.3302C146.279 63.4355 146.033 62.5009 145.902 61.547C145.788 60.551 145.908 59.5422 146.253 58.6009C146.342 58.364 146.446 58.1333 146.565 57.9102L146.899 57.321C147.077 56.9348 147.225 56.5352 147.341 56.126C147.799 54.3753 148.133 52.5946 148.341 50.7971C148.858 47.1996 148.782 43.5419 148.116 39.969C147.912 38.0819 147.994 36.1747 148.36 34.3122C148.712 32.4529 149.301 30.6465 150.114 28.9372L150.696 28.6703C150.727 28.6468 150.693 28.6935 150.727 28.6538C150.736 28.6443 150.746 28.6367 150.757 28.6317L150.796 28.5679C150.832 28.521 150.859 28.4685 150.877 28.4125C150.989 28.1292 151.064 27.8325 151.099 27.5299C151.186 26.8672 151.219 26.1986 151.2 25.5305L151.199 25.5105C151.199 25.4883 151.2 25.4661 151.203 25.4441C151.36 24.4318 151.369 23.4021 151.229 22.3872C151.184 21.9132 151.038 21.4542 150.802 21.0405C150.566 20.6267 150.245 20.2677 149.861 19.9869C149.685 19.8776 149.492 19.7993 149.29 19.7556C149.053 19.7378 148.814 19.7452 148.579 19.7777C148.113 19.8317 147.672 20.0115 147.301 20.2976C147.128 20.4443 146.979 20.6185 146.863 20.8133C146.8 20.911 146.748 21.015 146.707 21.1237L146.642 21.2875C146.602 21.3837 146.554 21.4762 146.499 21.5642C146.373 21.7036 146.217 21.8122 146.042 21.8816C145.868 21.9511 145.68 21.9794 145.493 21.9645C145.202 21.9575 144.912 21.9227 144.628 21.8604C143.565 21.6036 142.529 21.2461 141.534 20.7927C140.542 20.3651 139.57 19.9035 138.608 19.4225C136.68 18.457 134.812 17.4407 132.939 16.333V16.333Z" fill="#061E33"/>
<path d="M139.301 38.0388C139.706 39.2705 139.887 40.5647 139.835 41.8602C139.827 43.2166 139.482 44.5497 138.83 45.7394C138.47 46.2085 138.151 46.7078 137.876 47.2318C137.662 47.7468 137.534 48.2937 137.499 48.8504C137.448 50.0739 137.584 51.2981 137.903 52.4804C137.075 51.4421 136.572 50.1824 136.457 48.8592C136.393 48.1567 136.474 47.4486 136.695 46.7789C136.95 46.1631 137.283 45.5825 137.686 45.0515C138.239 44.0203 138.617 42.904 138.803 41.7485C139.029 40.5519 139.165 39.3154 139.301 38.0388Z" fill="#061E33"/>
<path d="M110.32 84.5276C110.072 84.1394 109.861 83.7286 109.69 83.3008C109.512 82.8681 109.387 82.4155 109.318 81.9527C109.221 81.4377 109.315 80.9052 109.58 80.4535C109.904 80.0032 110.392 79.6987 110.939 79.6059L110.844 79.6323C111.055 79.5298 111.231 79.3668 111.35 79.1639C111.386 79.0916 111.4 79.0103 111.39 78.9301C111.383 78.8866 111.371 78.8441 111.354 78.8035L111.27 78.5948C111.115 78.2084 111.059 77.7898 111.105 77.3762C111.151 76.9627 111.299 76.567 111.535 76.2244C111.778 75.8843 112.099 75.6071 112.471 75.4161C112.793 75.264 113.128 75.1425 113.473 75.0533C113.65 75.0102 113.806 74.9046 113.911 74.756C113.93 74.709 113.935 74.6576 113.926 74.6079C113.913 74.5342 113.889 74.4631 113.852 74.3977C113.815 74.3462 113.789 74.2875 113.776 74.2254L113.773 74.2106C113.63 73.565 113.637 72.8952 113.794 72.253C113.886 71.9062 114.044 71.5805 114.259 71.2939C114.489 71.0044 114.782 70.7723 115.117 70.6158C115.404 70.4878 115.705 70.3946 116.014 70.3383C116.236 70.2915 116.449 70.21 116.646 70.0966C116.805 70.0119 116.934 69.8781 117.012 69.7151C117.075 69.5564 117.086 69.3813 117.041 69.2164L117.01 69.1052C117.002 69.0731 117 69.0396 117.005 69.0068C117.094 68.4319 117.273 67.8747 117.535 67.3556C117.792 66.8316 118.161 66.3707 118.616 66.0058C119.07 65.6388 119.619 65.4079 120.199 65.34C120.48 65.3024 120.763 65.2903 121.046 65.3041C121.325 65.3211 121.598 65.3784 121.873 65.4148C121.921 65.4211 121.965 65.4453 121.996 65.4825C122.026 65.5197 122.042 65.5671 122.039 65.6153L122.038 65.6358C121.988 66.6942 122.087 67.7542 122.33 68.7853C122.56 69.8209 122.913 70.8252 123.381 71.7767C123.835 72.7264 124.394 73.622 125.047 74.4467C125.691 75.2689 126.404 76.035 127.178 76.7365C127.246 76.8007 127.297 76.8808 127.327 76.9696C127.492 77.4533 127.595 77.9557 127.634 78.4652C127.689 79.0328 127.589 79.6046 127.347 80.1208C127.264 80.261 127.172 80.3963 127.073 80.5259C126.953 80.6419 126.828 80.7573 126.698 80.8613C126.556 80.9398 126.41 81.0146 126.263 81.0837C126.119 81.1338 125.972 81.173 125.822 81.2007C125.544 81.2503 125.261 81.269 124.978 81.2565C124.718 81.2287 124.463 81.1898 124.205 81.1534L125.004 80.3842C125.094 80.9054 125.135 81.4341 125.125 81.9631C125.122 82.5239 125.024 83.0801 124.833 83.6077C124.609 84.2403 124.143 84.7583 123.538 85.0487C122.948 85.2796 122.303 85.3273 121.685 85.1854L122.547 84.497C122.521 85.0197 122.411 85.5348 122.221 86.0226C122.026 86.5553 121.689 87.0249 121.248 87.3815C120.779 87.7461 120.195 87.9326 119.602 87.9079C119.335 87.9004 119.07 87.8678 118.809 87.8105C118.566 87.7428 118.331 87.6617 118.093 87.5854L118.924 87.0734C118.832 87.63 118.657 88.1697 118.405 88.6742C118.147 89.2278 117.729 89.6922 117.207 90.0084C116.931 90.1602 116.627 90.2545 116.313 90.2858C115.999 90.317 115.683 90.2845 115.382 90.1903C115.112 90.1068 114.849 90.0019 114.596 89.8766L113.915 89.4489C113.835 89.399 113.776 89.3227 113.747 89.2335C113.59 88.7901 113.389 88.3636 113.147 87.9602C112.903 87.5398 112.621 87.14 112.333 86.7406C112.037 86.3442 111.72 85.9634 111.385 85.5998C111.052 85.2389 110.688 84.8792 110.32 84.5276ZM110.422 84.442C110.841 84.7199 111.243 85.0214 111.628 85.3449C112.019 85.6732 112.393 86.0216 112.748 86.3887C113.105 86.7611 113.435 87.1589 113.735 87.5787C114.052 88.0095 114.322 88.4725 114.542 88.9599L114.375 88.7447L114.99 89.0551C115.191 89.13 115.398 89.1904 115.608 89.2359C115.785 89.2833 115.97 89.2941 116.151 89.2677C116.333 89.2412 116.507 89.1781 116.663 89.0822C116.978 88.8538 117.22 88.5388 117.359 88.1755C117.528 87.7776 117.639 87.3573 117.688 86.9276C117.697 86.8405 117.725 86.7565 117.77 86.6811C117.814 86.6058 117.875 86.5408 117.946 86.4905C118.018 86.4403 118.1 86.406 118.186 86.3899C118.272 86.3738 118.36 86.3762 118.445 86.3971L118.518 86.4155L119.072 86.5553C119.244 86.5813 119.418 86.5921 119.592 86.5877C119.887 86.5955 120.175 86.4972 120.404 86.3105C120.641 86.0993 120.818 85.8285 120.915 85.5262C121.034 85.187 121.101 84.832 121.116 84.4728C121.119 84.3781 121.14 84.285 121.179 84.1985C121.217 84.1121 121.273 84.0342 121.342 83.9692C121.41 83.9042 121.491 83.8534 121.58 83.8197C121.668 83.786 121.763 83.77 121.857 83.7728L121.923 83.7775L121.977 83.7843C122.301 83.8632 122.64 83.8501 122.957 83.7465C123.089 83.6787 123.205 83.5855 123.3 83.4724C123.396 83.3593 123.468 83.2284 123.512 83.0873C123.652 82.7107 123.73 82.3143 123.746 81.913C123.767 81.481 123.749 81.0479 123.69 80.6194C123.676 80.513 123.687 80.4047 123.722 80.3032C123.757 80.2016 123.815 80.1097 123.892 80.0348C123.969 79.9599 124.062 79.904 124.164 79.8716C124.267 79.8393 124.375 79.8314 124.481 79.8486L124.489 79.8501L125.071 79.9477C125.244 79.9593 125.418 79.9539 125.591 79.9316C125.725 79.9279 125.857 79.8891 125.972 79.8192C126.088 79.7492 126.183 79.6505 126.248 79.5326C126.495 78.8182 126.498 78.0423 126.259 77.3257L126.408 77.5585C125.618 76.7737 124.911 75.9094 124.299 74.9793C123.692 74.0546 123.183 73.0687 122.781 72.0377C122.38 71.0153 122.081 69.9562 121.887 68.8754C121.678 67.7966 121.59 66.6979 121.625 65.5996L121.789 65.8205C121.29 65.7176 120.777 65.7083 120.275 65.793C119.788 65.8706 119.335 66.0932 118.977 66.4319C118.624 66.7733 118.351 67.1884 118.178 67.6474C117.998 68.1046 117.889 68.5864 117.853 69.0764L117.817 68.8671C117.979 69.2289 118.004 69.6373 117.888 70.0162C117.766 70.3817 117.531 70.6984 117.215 70.9192C116.714 71.214 116.18 71.4498 115.625 71.622C115.451 71.7187 115.3 71.8521 115.182 72.0127C115.065 72.1734 114.984 72.3576 114.944 72.5526C114.847 73.0081 114.845 73.4785 114.936 73.9351L114.856 73.7483C114.99 73.9676 115.074 74.2133 115.102 74.4683C115.135 74.7476 115.086 75.0305 114.96 75.2821C114.716 75.7026 114.317 76.0109 113.849 76.1408C113.553 76.21 113.262 76.3029 112.98 76.4187C112.755 76.5175 112.557 76.6692 112.403 76.8608C112.257 77.0602 112.16 77.2918 112.122 77.5363C112.083 77.7808 112.104 78.031 112.183 78.2657L112.264 78.5238C112.298 78.6402 112.318 78.7603 112.322 78.8815C112.328 79.1332 112.263 79.3814 112.135 79.5978C111.903 79.9612 111.56 80.2401 111.157 80.3928C111.129 80.405 111.1 80.4135 111.07 80.4181L111.061 80.4193C110.713 80.4401 110.386 80.5931 110.146 80.847C109.929 81.1607 109.823 81.5382 109.846 81.9191C109.853 82.3489 109.913 82.7763 110.022 83.192C110.132 83.6159 110.265 84.0333 110.422 84.442Z" fill="#061E33"/>
<path d="M116.101 74.8416C116.516 75.723 116.872 76.6305 117.169 77.5585C117.324 78.0207 117.45 78.4914 117.571 78.9689C117.634 79.1964 117.667 79.4864 117.734 79.6388C117.809 79.8398 117.91 80.0303 118.033 80.2059C118.574 80.9783 119.177 81.7045 119.838 82.3771L121.831 84.4848C120.999 83.9751 120.211 83.3956 119.476 82.7523C118.713 82.1153 118.039 81.3794 117.47 80.5641C117.321 80.3399 117.202 80.0975 117.115 79.8429C117.045 79.5992 116.991 79.3511 116.954 79.1003C116.872 78.6321 116.761 78.1649 116.667 77.6926C116.46 76.7523 116.269 75.8025 116.101 74.8416Z" fill="#061E33"/>
<path d="M113.079 78.9695C113.457 79.7124 113.755 80.4939 113.966 81.3005C114.021 81.5015 114.073 81.704 114.115 81.9087C114.162 82.0781 114.232 82.2405 114.322 82.3913C114.516 82.728 114.742 83.0449 114.998 83.3375C115.502 83.956 116.067 84.542 116.625 85.1386C117.187 85.732 117.756 86.3239 118.306 86.9505C117.585 86.5349 116.904 86.0558 116.268 85.5191C115.621 84.9884 115.023 84.3998 114.482 83.7607C114.203 83.4275 113.961 83.0647 113.761 82.6788C113.657 82.467 113.583 82.2418 113.541 82.0096L113.457 81.4062L113.079 78.9695Z" fill="#061E33"/>
<path d="M119.455 72.1863C120.259 73.6215 120.951 75.076 121.715 76.4892C122.085 77.2015 122.481 77.8966 122.902 78.5747C123.315 79.2655 123.8 79.9114 124.347 80.5018C123.616 80.0996 122.979 79.546 122.478 78.8779C121.962 78.2317 121.509 77.5369 121.126 76.8034C120.741 76.0774 120.406 75.326 120.123 74.5545C119.831 73.7863 119.608 72.9938 119.455 72.1863Z" fill="#061E33"/>
<path d="M182.551 91.9064C182.064 94.3448 181.501 96.7656 180.917 99.1817C180.332 101.597 179.729 104.01 179.072 106.407C178.42 108.806 177.745 111.199 177.049 113.586C176.682 114.782 176.378 115.962 175.955 117.171C175.551 118.382 175.011 119.544 174.347 120.634C173.03 122.853 171.186 124.714 168.979 126.052C166.773 127.36 164.333 128.225 161.795 128.596C159.285 128.979 156.735 129.021 154.214 128.719C153.586 128.65 152.959 128.562 152.334 128.452C151.698 128.321 151.069 128.158 150.449 127.964L148.675 127.297L146.947 126.562C137.859 122.423 129.224 117.506 120.523 112.702C118.353 111.49 116.206 110.239 114.062 108.978C113.529 108.657 112.989 108.352 112.464 108.01C111.954 107.669 111.428 107.355 110.887 107.067C109.777 106.558 108.598 106.216 107.388 106.054C104.93 105.782 102.453 105.715 99.9839 105.855C99.67 105.856 99.3552 105.854 99.0336 105.832C98.689 105.825 98.3477 105.762 98.0228 105.647C97.9168 105.605 97.8193 105.545 97.7351 105.468L97.5575 105.303L97.2195 104.984L96.5437 104.347L93.8416 101.797L93.8188 101.773C93.6142 101.543 93.4296 101.295 93.2669 101.033C93.1017 100.763 92.9702 100.473 92.8753 100.17C92.7811 99.8571 92.7361 99.5316 92.7418 99.205C92.7447 98.8567 92.8223 98.5131 92.9694 98.1973L93.0293 98.6659C92.7327 98.3354 92.496 97.9558 92.3295 97.5442C92.1674 97.1595 92.0387 96.7615 91.9449 96.3547C91.7568 95.5582 91.6431 94.7459 91.6052 93.9284L91.6819 94.1724C91.3022 93.5787 91.0697 92.903 91.0039 92.2013C90.9681 91.8657 90.9567 91.5279 90.9698 91.1906C90.9812 90.8493 91.0196 90.5095 91.0844 90.1742L91.5614 90.7863C90.5337 90.7459 89.5244 90.5018 88.5919 90.068C88.1336 89.8605 87.69 89.622 87.2643 89.354C86.8327 89.0844 86.4216 88.7832 86.0343 88.4531C86.0158 88.4373 85.9989 88.4198 85.9837 88.4009L85.9767 88.3919C85.5861 87.9432 85.2952 87.4167 85.1232 86.8472C85.0286 86.5021 85.0288 86.1379 85.1236 85.7928C85.2307 85.4359 85.4427 85.1194 85.732 84.8845C86.0055 84.6712 86.3255 84.5256 86.666 84.4594C87.0064 84.3932 87.3577 84.4083 87.6911 84.5036L89.1841 84.8679L95.1512 86.3436L94.4018 87.1417C94.1389 86.3187 94.0268 85.4549 94.071 84.592C94.1043 84.1481 94.187 83.7094 94.3176 83.2838C94.4513 82.7945 94.7147 82.3504 95.08 81.9985C95.5068 81.6228 96.0654 81.4321 96.6328 81.4682C97.1027 81.5041 97.5626 81.6227 97.9913 81.8188C98.7482 82.1716 99.4638 82.6072 100.125 83.1176C100.772 83.5997 101.386 84.1148 101.983 84.6054L102.422 84.954C102.547 85.0437 102.68 85.1233 102.818 85.1921C103.128 85.3401 103.453 85.4555 103.787 85.5365C105.253 85.8582 106.753 85.9945 108.253 85.9424L108.283 85.9421C108.325 85.9418 108.367 85.9461 108.409 85.9548C109.997 86.3395 111.488 87.051 112.786 88.044C114.044 88.9826 115.218 90.0294 116.294 91.1722C117.362 92.2998 118.366 93.4871 119.3 94.7284C119.688 95.2602 120.201 95.6881 120.794 95.9741L122.861 96.9168C125.638 98.1641 128.434 99.3653 131.248 100.52C134.01 101.718 136.874 102.667 139.806 103.356L139.842 103.363L139.872 103.37C144.522 104.705 149.166 106.059 153.806 107.431L153.296 107.74L155.536 97.8473L157.823 87.9649C157.827 87.9479 157.838 87.933 157.852 87.9236C157.867 87.9142 157.885 87.9109 157.902 87.9145C157.919 87.9182 157.934 87.9284 157.944 87.9429C157.954 87.9575 157.957 87.9753 157.954 87.9925L156.048 97.9555L154.095 107.908C154.075 108.013 154.013 108.106 153.925 108.165C153.836 108.225 153.727 108.247 153.623 108.226L153.598 108.221L153.586 108.217C148.908 106.983 144.235 105.728 139.569 104.452L139.635 104.466C138.1 104.184 136.589 103.784 135.114 103.272C133.653 102.784 132.213 102.253 130.781 101.704C127.918 100.603 125.101 99.4015 122.307 98.1524L120.204 97.2018C119.414 96.8234 118.729 96.2577 118.207 95.5539C117.301 94.3585 116.328 93.2154 115.292 92.1301C114.271 91.0521 113.157 90.0651 111.965 89.1802C110.829 88.3136 109.528 87.6897 108.141 87.3472L108.297 87.3596C106.661 87.4084 105.027 87.244 103.434 86.8705C103.008 86.7619 102.594 86.6089 102.2 86.414C101.988 86.3057 101.787 86.1805 101.596 86.0395C101.425 85.9089 101.273 85.7813 101.118 85.6535C100.51 85.144 99.9272 84.6463 99.3221 84.1873C98.7469 83.7336 98.124 83.3438 97.4645 83.0249C97.1812 82.8898 96.877 82.8042 96.5648 82.7719C96.4546 82.7603 96.3432 82.7709 96.2372 82.8031C96.1312 82.8354 96.0327 82.8886 95.9477 82.9596C95.566 83.4498 95.3534 84.0506 95.342 84.6718C95.3012 85.3772 95.3866 86.0841 95.5942 86.7594L95.5968 86.7677C95.6298 86.8739 95.6338 86.987 95.6085 87.0952C95.5832 87.2035 95.5294 87.303 95.4528 87.3836C95.3761 87.4641 95.2793 87.5227 95.1724 87.5533C95.0655 87.5839 94.9524 87.5854 94.8447 87.5577L88.8923 86.0239L87.4053 85.6359C87.2469 85.5811 87.0777 85.565 86.9118 85.5888C86.7459 85.6127 86.5881 85.6759 86.4516 85.7731C86.3319 85.8653 86.2443 85.9926 86.2009 86.1372C86.1575 86.2818 86.1605 86.4364 86.2097 86.5792C86.3372 86.9929 86.548 87.3761 86.8292 87.7052L86.7718 87.6442C87.1091 87.9384 87.4671 88.2083 87.8428 88.4516C88.2226 88.6992 88.6189 88.9205 89.0288 89.1142C89.8289 89.5036 90.6981 89.7309 91.5864 89.7831L91.5901 89.7832C91.7246 89.7894 91.8511 89.8486 91.9418 89.948C92.0325 90.0474 92.0801 90.1788 92.0739 90.3132C92.0725 90.3408 92.069 90.3682 92.0635 90.3953C92.007 90.674 91.9699 90.9564 91.9525 91.2403C91.9344 91.528 91.9369 91.8167 91.9603 92.104C91.9963 92.655 92.1622 93.1896 92.4442 93.6643L92.4491 93.6719C92.4936 93.743 92.5184 93.8246 92.521 93.9085C92.539 94.666 92.6264 95.4203 92.7821 96.1619C92.8983 96.8701 93.1831 97.5401 93.6125 98.1151L93.6153 98.1183C93.6699 98.1815 93.7045 98.2595 93.7146 98.3424C93.7248 98.4253 93.7101 98.5094 93.6724 98.5839C93.5815 98.7888 93.5308 99.0092 93.523 99.2331C93.5134 99.4777 93.5415 99.7222 93.6063 99.9582C93.677 100.202 93.777 100.436 93.9041 100.656C94.0375 100.883 94.1901 101.097 94.3603 101.297L94.3376 101.273L97.0005 103.894L97.6659 104.548L97.9985 104.876C98.0513 104.926 98.1154 104.994 98.1589 105.031C98.1906 105.058 98.2269 105.079 98.2659 105.094C98.827 105.244 99.4074 105.311 99.988 105.29C102.482 105.208 104.979 105.309 107.459 105.593C108.713 105.772 109.934 106.136 111.08 106.675C111.634 106.973 112.172 107.3 112.692 107.654C113.205 107.993 113.744 108.304 114.272 108.627C116.402 109.896 118.575 111.099 120.749 112.295C125.094 114.696 129.49 117.001 133.937 119.211C138.376 121.424 142.838 123.618 147.385 125.544L149.09 126.253L150.809 126.884L151.659 127.116C151.944 127.204 152.235 127.271 152.53 127.316C153.129 127.416 153.734 127.496 154.34 127.558C156.761 127.814 159.204 127.774 161.616 127.439C164.011 127.114 166.32 126.324 168.412 125.112C170.486 123.884 172.224 122.163 173.473 120.102C174.784 118.069 175.433 115.699 176.208 113.329C176.959 110.965 177.69 108.594 178.4 106.216C179.813 101.459 181.185 96.6869 182.421 91.8775C182.423 91.869 182.426 91.8609 182.432 91.8538C182.437 91.8468 182.443 91.8408 182.451 91.8362C182.458 91.8317 182.467 91.8287 182.475 91.8273C182.484 91.826 182.493 91.8264 182.501 91.8285C182.518 91.8328 182.532 91.8432 182.541 91.8576C182.551 91.8721 182.554 91.8895 182.551 91.9064Z" fill="#061E33"/>
<path d="M157.52 108.971L153.6 108.144C153.513 108.126 153.437 108.073 153.388 107.999C153.34 107.924 153.323 107.834 153.341 107.747C153.36 107.66 153.412 107.584 153.486 107.535C153.561 107.487 153.651 107.47 153.738 107.488C153.757 107.492 153.774 107.498 153.792 107.504L157.52 108.971Z" fill="#061E33"/>
<path d="M94.998 86.9507C96.2131 86.9867 97.4223 87.1337 98.6106 87.3898C99.2002 87.5156 99.7885 87.6439 100.371 87.7991C100.958 87.9401 101.526 88.1387 102.126 88.2583C101.518 88.3781 100.895 88.3965 100.282 88.3126C99.6765 88.255 99.0744 88.1654 98.4783 88.0441C97.28 87.8146 96.1122 87.4478 94.998 86.9507Z" fill="#061E33"/>
<path d="M91.574 90.2844C92.5099 90.3565 93.4197 90.6268 94.2432 91.0773C94.6625 91.2973 95.0522 91.5698 95.4026 91.8882C95.7775 92.1976 96.0505 92.6128 96.186 93.0796C95.8508 92.7809 95.483 92.521 95.0895 92.3048C94.7077 92.0868 94.3253 91.868 93.9282 91.6657C93.1166 91.2526 92.3305 90.7914 91.574 90.2844Z" fill="#061E33"/>
<path d="M92.0631 93.9182C92.7351 94.1503 93.3609 94.4992 93.9117 94.9488C94.479 95.3775 94.9652 95.9041 95.3474 96.5037C94.6748 96.273 94.0488 95.924 93.4988 95.4732C92.9325 95.0434 92.4465 94.517 92.0631 93.9182Z" fill="#061E33"/>
<path d="M93.3209 98.3904C93.9153 98.549 94.4712 98.8269 94.9547 99.2073C95.4534 99.5678 95.8725 100.027 96.1859 100.557C95.591 100.399 95.0349 100.121 94.5521 99.7397C94.0544 99.3782 93.6355 98.9191 93.3209 98.3904Z" fill="#061E33"/>
<path d="M98.9112 103.282C98.704 103.181 98.5273 103.027 98.3992 102.835C98.2712 102.643 98.1963 102.421 98.1822 102.191C98.1345 101.733 98.1895 101.27 98.3432 100.837L98.3346 100.863C98.3818 100.64 98.4065 100.414 98.4085 100.187C98.4293 100.019 98.3981 99.8494 98.3191 99.7003C98.1318 99.4755 97.9929 99.2145 97.9111 98.9336C97.8206 98.6677 97.7741 98.3887 97.7736 98.1078C97.7677 97.8151 97.829 97.5249 97.9528 97.2596C98.0875 97.058 98.2108 96.8489 98.3219 96.6334C98.4763 96.1762 98.5287 95.6908 98.4757 95.2112C98.7212 95.6832 98.8078 96.2217 98.7228 96.7469C98.6556 96.9955 98.5637 97.2367 98.4485 97.467C98.3883 97.6668 98.3674 97.8764 98.3871 98.0842C98.4211 98.512 98.5714 98.9223 98.8217 99.2708C99.0112 99.547 99.0915 99.8836 99.047 100.216C99.0214 100.487 98.9678 100.755 98.8871 101.016L98.8835 101.028L98.8784 101.042C98.8018 101.227 98.7217 101.411 98.6643 101.601C98.6078 101.788 98.5702 101.981 98.5519 102.176C98.5253 102.376 98.5437 102.579 98.6059 102.77C98.6681 102.961 98.7724 103.136 98.9112 103.282Z" fill="#061E33"/>
<path d="M92.8847 86.4171C91.9209 85.6023 90.988 84.7579 90.0608 83.9081C89.1396 83.0525 88.217 82.1982 87.319 81.3204C85.5056 79.5814 83.7382 77.7983 81.9918 75.9952C81.9321 75.9335 81.8851 75.8606 81.8535 75.7808C81.8219 75.7009 81.8063 75.6156 81.8077 75.5298C81.8091 75.4439 81.8273 75.3591 81.8615 75.2803C81.8956 75.2015 81.9449 75.1302 82.0066 75.0705L82.0394 75.0408L82.0503 75.0316C82.8949 74.3213 83.7544 73.6293 84.615 72.9386L84.6216 72.9333C84.7509 72.8301 84.9145 72.7799 85.0794 72.7927C85.2443 72.8056 85.3981 72.8805 85.5099 73.0024C87.1293 74.7786 88.7071 76.5931 90.2612 78.4293C91.0397 79.3461 91.806 80.274 92.5602 81.2131C93.3155 82.1511 94.0617 83.0975 94.7813 84.0684C93.8755 83.2685 92.9963 82.4442 92.1261 81.6115C91.2575 80.7775 90.3984 79.9347 89.5488 79.0832C87.8521 77.378 86.179 75.651 84.5476 73.8858L85.4422 73.9496C84.5948 74.6565 83.7462 75.3619 82.8828 76.0491L82.9412 75.0858C84.6675 76.9082 86.3729 78.7506 88.0323 80.6372C88.8706 81.5722 89.6844 82.5307 90.4996 83.4878C91.3087 84.4508 92.1122 85.4192 92.8847 86.4171Z" fill="#061E33"/>
<path d="M88.4295 69.7172C87.8317 68.4006 87.3498 67.0345 86.9891 65.6343C86.5994 64.2418 86.3331 62.8176 86.1934 61.3784C86.7925 62.6945 87.2745 64.0607 87.6338 65.4614C88.022 66.8542 88.2883 68.2782 88.4295 69.7172Z" fill="#061E33"/>
<path d="M94.5322 72.4658C95.0283 71.6371 95.6302 70.8766 96.3227 70.2033C96.9949 69.5098 97.7556 68.9078 98.5851 68.4128C98.0902 69.2424 97.4882 70.003 96.7946 70.6753C96.1214 71.3678 95.3608 71.9697 94.5322 72.4658Z" fill="#061E33"/>
<path d="M99.4236 78.7547C100.289 78.5199 101.183 78.4076 102.079 78.421C102.975 78.4061 103.869 78.5185 104.734 78.7547C103.869 78.9909 102.975 79.1033 102.079 79.0885C101.183 79.1019 100.289 78.9895 99.4236 78.7547Z" fill="#061E33"/>
<path d="M53.1176 129.021C53.1903 128.586 53.3004 128.159 53.4467 127.743C53.5255 127.53 53.6262 127.326 53.7471 127.134C53.8743 126.907 54.0822 126.735 54.3297 126.653C54.4692 126.628 54.6126 126.641 54.7459 126.689C54.8791 126.737 54.9976 126.819 55.0894 126.926C55.257 127.097 55.4027 127.287 55.5231 127.493C55.7498 127.885 55.9449 128.294 56.1067 128.717C56.7176 130.384 57.1581 132.109 57.4213 133.865C57.8357 137.373 57.854 140.918 57.4761 144.431C57.2917 146.182 57.0511 147.929 56.691 149.663C56.5033 150.529 56.2926 151.392 56.0226 152.249C55.7758 153.153 55.3807 154.011 54.8533 154.787C54.6726 155.028 54.4391 155.226 54.1707 155.364C53.9893 155.447 53.7891 155.48 53.5907 155.459C53.4035 155.434 53.2251 155.364 53.0702 155.256C52.667 154.919 52.3635 154.478 52.1928 153.981C51.8763 153.14 51.6375 152.272 51.4793 151.388C51.178 149.66 50.9783 147.916 50.8815 146.164C51.2726 147.868 51.61 149.581 52.1159 151.235C52.3371 152.053 52.6292 152.85 52.9891 153.617C53.1275 153.939 53.3378 154.225 53.6039 154.453C53.7057 154.496 53.6769 154.484 53.7406 154.457C53.8492 154.377 53.9427 154.278 54.0168 154.165C54.4143 153.46 54.7116 152.704 54.9003 151.917C55.1252 151.102 55.2989 150.262 55.4501 149.418C55.7621 147.731 55.9884 146.018 56.1475 144.3C56.3285 142.584 56.4344 140.859 56.485 139.135C56.5485 137.417 56.5167 135.697 56.3897 133.982C56.3301 133.127 56.1845 132.298 56.0391 131.44C55.8905 130.589 55.7161 129.745 55.4892 128.923C55.3846 128.515 55.2481 128.116 55.0809 127.73C54.9205 127.376 54.6637 126.96 54.3972 126.998C54.0964 127.045 53.8215 127.469 53.6293 127.826C53.4247 128.209 53.2535 128.608 53.1176 129.021Z" fill="#061E33"/>
<path d="M179.17 104.981L182.897 107.81L184.823 109.156C185.468 109.599 186.087 110.078 186.761 110.476C188.091 111.297 189.38 112.178 190.761 112.905C191.448 113.273 192.107 113.693 192.806 114.034L194.898 115.07C197.71 116.401 200.616 117.524 203.591 118.432C206.566 119.37 209.672 119.823 212.791 119.772L212.602 119.983C212.619 118.165 212.609 116.347 212.585 114.529C212.568 112.711 212.503 110.894 212.463 109.076L212.308 103.622L212.207 98.169L213.201 98.6342C212.04 99.5109 210.779 100.247 209.444 100.826L208.459 101.255L207.452 101.624C206.786 101.891 206.09 102.057 205.407 102.266C202.648 102.989 199.806 103.345 196.954 103.327L194.825 103.279C194.118 103.24 193.415 103.139 192.711 103.071C191.296 102.967 189.917 102.64 188.526 102.408C187.143 102.132 185.787 101.737 184.427 101.381L180.44 100.02L180.847 99.8043C180.31 101.492 179.753 103.203 179.17 104.981ZM179.042 105.019C179.416 103.278 179.817 101.47 180.237 99.6385L180.308 99.3314L180.645 99.4227L184.661 100.511L186.695 100.925C187.374 101.053 188.04 101.25 188.727 101.322C190.096 101.494 191.453 101.762 192.83 101.807C193.516 101.849 194.201 101.909 194.886 101.937L196.943 101.946C199.676 101.906 202.396 101.56 205.052 100.915C205.706 100.73 206.376 100.587 207.012 100.347L207.977 100.018L208.919 99.6316C210.158 99.1257 211.334 98.4788 212.424 97.7038L213.442 96.9497L213.419 98.169L213.318 103.622L213.163 109.076C213.122 110.894 213.058 112.711 213.041 114.529C213.017 116.347 213.007 118.165 213.024 119.983L213.026 120.179L212.835 120.193C211.246 120.283 209.652 120.242 208.069 120.068L206.885 119.941L205.708 119.757C204.918 119.653 204.148 119.46 203.368 119.301C200.262 118.598 197.247 117.538 194.384 116.143L192.265 115.051C191.555 114.693 190.891 114.255 190.207 113.852C188.827 113.065 187.542 112.132 186.246 111.223C185.586 110.784 184.978 110.274 184.362 109.778L182.521 108.283C181.318 107.2 180.142 106.075 179.042 105.019Z" fill="#061E33"/>
<path d="M55.9619 129.34C53.8064 129.455 51.6455 129.419 49.495 129.232C47.3384 129.062 45.1945 128.757 43.0759 128.32C40.9475 127.892 38.8539 127.308 36.8123 126.57C34.7682 125.813 32.7965 124.872 30.9213 123.761C30.459 123.472 29.9665 123.223 29.5286 122.901L28.2054 121.945C27.3236 121.296 26.4377 120.706 25.5542 120.084L20.2601 116.385L9.71274 108.935L9.80831 108.991C9.54602 108.876 9.27345 108.785 8.99421 108.721C8.76739 108.661 8.53037 108.648 8.29857 108.686C8.15144 108.743 8.17114 108.717 8.1236 108.885C8.08814 108.94 8.12192 109.092 8.10896 109.193L8.17549 109.59L8.17632 109.595C8.20519 109.767 8.17134 109.944 8.08091 110.093C8.01887 110.211 7.9714 110.335 7.93957 110.464C7.9017 110.616 7.88133 110.771 7.87884 110.927C7.8801 111.255 7.94427 111.58 8.06788 111.885L7.84879 112.642C7.92985 112.576 7.88983 112.607 7.9022 112.596L7.89296 112.615C7.88054 112.642 7.87157 112.671 7.86627 112.701C7.84869 112.799 7.84751 112.899 7.86278 112.998C7.90422 113.267 7.98572 113.529 8.10457 113.774L8.12109 114.272C8.14353 114.203 8.11462 114.319 8.12207 114.367C8.12246 114.439 8.1285 114.511 8.14014 114.581C8.16741 114.746 8.21318 114.908 8.27657 115.062C8.41692 115.409 8.59946 115.736 8.82004 116.038L8.86023 116.736C8.87406 116.712 8.88539 116.687 8.89404 116.662C8.89588 116.654 8.89644 116.655 8.89644 116.655C8.89655 116.663 8.89586 116.67 8.89438 116.678C8.89508 116.714 8.89777 116.75 8.90244 116.786C8.92239 116.892 8.95295 116.995 8.99366 117.094C9.09755 117.336 9.22619 117.567 9.37754 117.783C9.53931 118.018 9.71515 118.243 9.9041 118.456C10.093 118.674 10.3336 118.904 10.5458 119.128L13.1727 121.828L18.4268 127.229L28.9303 138.038L28.9465 138.055C28.9582 138.067 28.9692 138.08 28.9794 138.094C29.8711 139.293 30.7068 140.509 31.5021 141.768C32.3171 143.026 33.0298 144.347 33.6334 145.718C33.9237 146.331 34.3201 146.886 34.8042 147.36C36.3575 148.824 38.3502 149.734 40.4735 149.95C41.8835 150.078 43.2989 149.771 44.5298 149.072L44.9883 148.805L45.4008 148.469C45.6738 148.25 45.954 148.019 46.2429 147.768C46.52 147.515 46.8167 147.284 47.1301 147.077C47.4318 146.855 47.7502 146.656 48.0824 146.482C50.7271 145.072 53.7855 144.643 56.716 145.272C53.8087 144.805 50.8291 145.349 48.2749 146.815C47.9614 146.994 47.6622 147.197 47.3802 147.422C47.0868 147.631 46.8107 147.863 46.5545 148.116C46.2968 148.357 46.0188 148.606 45.7279 148.859L45.2977 149.234L44.8147 149.542C43.5034 150.362 41.9678 150.747 40.4251 150.646C38.8948 150.54 37.4089 150.086 36.0809 149.318C34.681 148.597 33.5372 147.463 32.8051 146.069C32.1917 144.761 31.4749 143.504 30.6615 142.311C29.8573 141.1 28.9976 139.909 28.1081 138.768L28.157 138.823L17.5419 128.088L12.2367 122.716L9.58395 120.03C9.36181 119.8 9.14424 119.598 8.91834 119.344C8.68863 119.088 8.47486 118.819 8.27825 118.537C8.06704 118.239 7.89118 117.918 7.75423 117.579C7.67783 117.386 7.62257 117.186 7.5894 116.981C7.57274 116.862 7.56622 116.741 7.56993 116.62C7.57353 116.549 7.58184 116.478 7.59478 116.409C7.60183 116.368 7.61145 116.327 7.62359 116.287C7.64131 116.223 7.66612 116.161 7.69758 116.103L7.73774 116.8C7.45659 116.408 7.22526 115.982 7.04906 115.532C6.95344 115.289 6.88517 115.036 6.84553 114.778C6.82407 114.638 6.8139 114.496 6.81512 114.354C6.81298 114.17 6.84147 113.988 6.8994 113.815L6.91597 114.312C6.74298 113.943 6.62773 113.549 6.57425 113.145C6.54377 112.906 6.55326 112.664 6.60234 112.428C6.6312 112.291 6.67754 112.158 6.74021 112.033C6.77541 111.963 6.8161 111.897 6.86193 111.833C6.92537 111.745 7.00153 111.667 7.08791 111.601L6.86886 112.358C6.68563 111.895 6.59405 111.401 6.5992 110.902C6.60515 110.646 6.64082 110.391 6.70549 110.143C6.77291 109.871 6.88338 109.612 7.03273 109.375L6.93818 109.878C6.9056 109.684 6.87075 109.493 6.84628 109.295C6.82912 109.067 6.84376 108.838 6.88979 108.615C6.93928 108.335 7.07101 108.076 7.26814 107.872C7.46527 107.668 7.71887 107.527 7.99654 107.467C8.4182 107.382 8.85358 107.395 9.26966 107.504C9.63643 107.59 9.99378 107.712 10.3365 107.868C10.3669 107.882 10.3958 107.898 10.4229 107.918L10.4323 107.925L20.9412 115.467L26.1751 119.264C27.0388 119.902 27.9317 120.528 28.7713 121.175L30.0452 122.142C30.4673 122.468 30.9371 122.717 31.381 123.009C33.1883 124.136 35.0936 125.099 37.0737 125.884C41.0808 127.416 45.2633 128.442 49.5244 128.939C51.66 129.204 53.8099 129.338 55.9619 129.34Z" fill="#061E33"/>
<path d="M7.55688 109.734C7.79143 109.54 8.09319 109.446 8.39666 109.472C8.69923 109.487 8.99437 109.571 9.25896 109.718C9.51841 109.857 9.75435 110.036 9.9581 110.248C10.0531 110.358 10.1521 110.463 10.2407 110.576C10.3175 110.701 10.4029 110.815 10.4685 110.945C9.97493 110.64 9.55052 110.3 9.07806 110.061C8.85056 109.934 8.6083 109.835 8.35673 109.767C8.09603 109.695 7.82254 109.684 7.55688 109.734Z" fill="#061E33"/>
<path d="M7.46842 112.122C7.4912 111.966 7.65881 111.867 7.80693 111.823C7.95922 111.793 8.11529 111.789 8.26908 111.809C8.56313 111.851 8.84801 111.942 9.11165 112.079C9.63001 112.336 10.0914 112.696 10.4685 113.135C10.2008 113.037 9.939 112.923 9.68451 112.795L8.94105 112.427C8.70244 112.303 8.45662 112.194 8.2049 112.099C8.08442 112.051 7.95741 112.021 7.8281 112.011C7.76365 111.999 7.69728 112.003 7.63464 112.022C7.57201 112.042 7.51498 112.076 7.46842 112.122Z" fill="#061E33"/>
<path d="M7.51029 114.043C7.6504 113.886 7.83414 113.775 8.03802 113.723C8.2419 113.671 8.45667 113.68 8.6549 113.751C9.05252 113.85 9.42808 114.023 9.76216 114.26C10.0933 114.483 10.3991 114.743 10.674 115.032C10.9528 115.315 11.2038 115.623 11.4235 115.953C11.0868 115.736 10.7905 115.484 10.4766 115.257C10.1667 115.025 9.86307 114.79 9.54623 114.582C9.2415 114.366 8.91422 114.182 8.57011 114.036C8.40298 113.964 8.22419 113.922 8.04227 113.913C7.85497 113.89 7.66579 113.936 7.51029 114.043Z" fill="#061E33"/>
<path d="M8.27896 116.419C8.2809 116.328 8.30542 116.238 8.35033 116.159C8.39523 116.079 8.45914 116.011 8.53637 115.962C8.70549 115.871 8.90067 115.84 9.0898 115.874C9.43727 115.937 9.76551 116.079 10.0488 116.29C10.5993 116.679 11.0667 117.175 11.4235 117.747C11.1289 117.576 10.8789 117.363 10.6107 117.177C10.3475 116.985 10.0939 116.785 9.83044 116.61C9.58425 116.426 9.31432 116.277 9.02799 116.165C8.89488 116.1 8.74135 116.09 8.60099 116.138C8.46062 116.185 8.34484 116.287 8.27896 116.419Z" fill="#061E33"/>
<path d="M50.5698 145.607C48.8047 145.991 47.2084 146.929 46.0133 148.284C41.5411 152.686 34.5532 149.052 33.2255 145.908C31.8978 142.763 28.5437 138.431 28.5437 138.431C27.7433 137.642 26.6685 136.564 25.4408 135.323C30.2805 131.237 28.6452 121.712 28.6452 121.712C25.3225 115.288 17.4528 113.685 17.4528 113.685C18.451 121.688 14.3743 124.019 14.374 124.02C11.561 121.129 9.50183 119.005 9.50183 119.005C7.85969 117.188 8.27895 116.419 8.27895 116.419C7.19581 114.882 7.5103 114.043 7.5103 114.043C6.84647 112.576 7.46841 112.122 7.46841 112.122C7.29458 111.745 7.21201 111.332 7.22738 110.917C7.24275 110.503 7.35563 110.097 7.55687 109.734L7.5103 109.268L1.74667 114.703C1.00679 115.4 0.472257 116.287 0.201218 117.267C-0.0698218 118.247 -0.0669953 119.282 0.2094 120.26C1.68482 125.486 5.73935 135.196 15.8957 138.012C15.8957 138.012 29.3124 144.86 19.1101 149.192L33.0858 163.168C33.0858 163.168 33.6681 160.256 36.2885 159.609C38.7173 158.971 40.8718 157.558 42.4255 155.585C42.9771 154.903 43.5754 154.107 44.2164 153.179C45.1893 151.753 46.3394 150.457 47.6392 149.321C48.789 148.327 50.0701 147.463 50.8815 147.655L50.5698 145.607Z" fill="#061E33"/>
<path d="M47.7197 128.882C47.7197 128.882 47.6562 129.157 47.5638 129.639" stroke="#061E33" stroke-width="1.68761" stroke-linecap="round" stroke-linejoin="round"/>
<path d="M47.314 131.097C46.7799 134.598 46.2034 141.358 48.958 144.735" stroke="#061E33" stroke-width="1.68761" stroke-linecap="round" stroke-linejoin="round" stroke-dasharray="2.15 2.15"/>
<path d="M49.4646 145.28C49.6531 145.458 49.8545 145.622 50.0671 145.77" stroke="#061E33" stroke-width="1.68761" stroke-linecap="round" stroke-linejoin="round"/>
<path d="M49.2976 140.015C49.6784 140.418 50.1285 140.749 50.6265 140.992C50.8637 141.09 51.1207 141.129 51.3762 141.108C51.6546 141.074 51.9271 141.002 52.1859 140.894C51.9923 141.136 51.7296 141.312 51.4329 141.401C51.1196 141.494 50.7837 141.477 50.4815 141.352C50.1927 141.229 49.9373 141.038 49.7362 140.797C49.536 140.57 49.3864 140.304 49.2976 140.015Z" fill="#061E33"/>
<path d="M136.086 25.0183C136.309 24.6071 136.599 24.2355 136.943 23.9189C137.282 23.5963 137.659 23.3161 138.065 23.0843C138.48 22.8552 138.927 22.6878 139.39 22.5875C139.858 22.4907 140.342 22.5095 140.801 22.6424C140.374 22.7686 139.954 22.9166 139.543 23.086C139.15 23.2681 138.766 23.4546 138.39 23.6673C137.631 24.0872 136.906 24.5671 136.086 25.0183Z" fill="#061E33"/>
<path d="M138.882 28.4889C139.184 28.4785 139.47 28.3512 139.679 28.1339C139.889 27.9167 140.007 27.6264 140.007 27.3243C140.007 27.0222 139.889 26.732 139.679 26.5147C139.47 26.2974 139.184 26.1701 138.882 26.1597C138.58 26.1701 138.294 26.2974 138.084 26.5147C137.874 26.732 137.757 27.0222 137.757 27.3243C137.757 27.6264 137.874 27.9167 138.084 28.1339C138.294 28.3512 138.58 28.4785 138.882 28.4889Z" fill="#061E33"/>
<path d="M148.618 26.346C148.876 26.5476 149.168 26.6999 149.481 26.7953C149.599 26.7866 149.589 26.7931 149.642 26.6987C149.675 26.6521 149.701 26.6008 149.719 26.5465C149.75 26.4811 149.772 26.4117 149.783 26.3403C149.832 26.1869 149.869 26.0298 149.893 25.8705C149.942 25.7115 149.951 25.5373 149.994 25.3682C150.058 25.0117 150.151 24.6611 150.272 24.3196C150.409 24.6645 150.491 25.0292 150.514 25.3998C150.552 25.7791 150.521 26.162 150.423 26.5302C150.397 26.6324 150.359 26.731 150.309 26.8236C150.233 26.9968 150.11 27.1455 149.955 27.2532C149.885 27.288 149.812 27.3175 149.738 27.3415C149.598 27.3698 149.452 27.3517 149.323 27.2898C149.128 27.1981 148.963 27.0514 148.85 26.8678C148.743 26.709 148.664 26.5323 148.618 26.346Z" fill="#061E33"/>
<path d="M147.547 23.3411C147.374 23.0112 147.283 22.6453 147.279 22.2732C147.251 21.8554 147.38 21.4423 147.641 21.1151C147.812 20.9367 148.038 20.8206 148.283 20.7853C148.5 20.7659 148.719 20.8004 148.92 20.8857C149.094 20.9655 149.258 21.0655 149.409 21.1836C149.545 21.3098 149.67 21.4471 149.783 21.5941C149.606 21.566 149.431 21.5264 149.259 21.4754C149.093 21.4451 148.932 21.4083 148.784 21.3888C148.67 21.3606 148.551 21.3618 148.438 21.3921C148.325 21.4225 148.221 21.481 148.137 21.5623C147.966 21.7894 147.85 22.0521 147.795 22.3306L147.547 23.3411Z" fill="#061E33"/>
<path d="M136.972 33.6133C137.288 33.4114 137.626 33.2444 137.978 33.1152C138.128 33.0591 138.266 33.0001 138.409 32.9364C138.576 32.8518 138.735 32.7508 138.882 32.635C138.917 32.7487 138.926 32.8693 138.907 32.9869C138.887 33.1046 138.841 33.2161 138.77 33.3124C138.633 33.5026 138.444 33.6493 138.226 33.735C138.023 33.8146 137.804 33.8469 137.586 33.8292C137.365 33.818 137.151 33.743 136.972 33.6133Z" fill="#061E33"/>
<path d="M139.413 35.7097C140.52 35.0749 141.686 34.5485 142.894 34.1378C142.955 34.1156 143.021 34.1117 143.084 34.1265C143.147 34.1413 143.204 34.1742 143.248 34.2211C143.293 34.268 143.322 34.3269 143.334 34.3906C143.345 34.4542 143.338 34.5197 143.312 34.5791C143.056 35.1953 142.741 35.7856 142.372 36.342C142.186 36.6262 141.971 36.8905 141.73 37.1308C141.604 37.2554 141.46 37.3605 141.303 37.4428C141.219 37.4848 141.127 37.5076 141.033 37.5095C140.988 37.5059 140.944 37.4931 140.904 37.472C140.864 37.4509 140.829 37.4219 140.801 37.3868C140.868 37.4187 140.945 37.4262 141.018 37.408C141.091 37.3897 141.155 37.3469 141.199 37.2867C141.306 37.1766 141.398 37.0534 141.474 36.9201C141.636 36.6482 141.784 36.3678 141.916 36.0802C142.185 35.5026 142.45 34.9102 142.697 34.3248L143.114 34.766C141.914 35.199 140.674 35.5151 139.413 35.7097Z" fill="#061E33"/>
</svg>
