<svg width="157" height="202" viewBox="0 0 157 202" fill="none" xmlns="http://www.w3.org/2000/svg">
<path d="M118.023 193.223C112.165 193.92 103.873 194.345 92.1562 194.208L92.423 189.205C92.423 189.205 109.334 188.579 110.94 190.392C110.94 190.392 111.196 184.332 108.893 183.178C108.893 183.178 112.263 183.085 116.477 183.347L116.624 191.236C116.631 191.669 116.768 192.09 117.018 192.445C117.267 192.799 117.617 193.07 118.023 193.223Z" fill="#061E33"/>
<path d="M130.084 190.201V186.079C130.77 186.419 131.396 186.87 131.935 187.413C131.935 187.413 132.616 188.725 130.084 190.201Z" fill="#061E33"/>
<path d="M108 135.468C107.602 138.233 107.096 140.972 106.552 143.7C106.018 146.427 105.419 149.144 104.809 151.861C104.178 154.567 103.53 157.273 102.828 159.968C102.702 160.458 102.572 160.953 102.436 161.443C104.216 161.367 106.013 161.258 107.788 161.089C108.768 160.991 109.748 160.888 110.706 160.708C111.187 160.621 111.663 160.508 112.132 160.371C112.597 160.258 113.021 160.018 113.357 159.679L113.363 159.674C113.37 159.665 113.38 159.658 113.39 159.652L108 135.468ZM98.4394 165.331C96.8923 165.818 95.2753 166.046 93.6537 166.006C92.0711 165.968 90.4941 165.8 88.9388 165.505C87.3871 165.227 85.8573 164.906 84.3219 164.579C81.2292 164.024 78.1812 163.244 75.2024 162.244C72.2385 161.206 69.3665 159.922 66.6165 158.405L66.611 158.4C64.9777 161.498 63.7255 163.496 63.2137 163.496C63.2137 163.496 95.6519 179.96 99.1799 173.296L100.552 168.004C100.759 166.572 100.998 165.145 101.254 163.724C100.439 164.451 99.4798 164.998 98.4394 165.331ZM66.6383 163.528C66.4267 163.521 66.2263 163.432 66.0793 163.279C65.9323 163.127 65.8502 162.923 65.8502 162.712C65.8502 162.5 65.9323 162.297 66.0793 162.144C66.2263 161.992 66.4267 161.903 66.6383 161.895C66.8498 161.903 67.0502 161.992 67.1972 162.144C67.3442 162.297 67.4264 162.5 67.4264 162.712C67.4264 162.923 67.3442 163.127 67.1972 163.279C67.0502 163.432 66.8498 163.521 66.6383 163.528ZM69.4803 164.9C69.2687 164.893 69.0684 164.804 68.9214 164.651C68.7744 164.499 68.6923 164.295 68.6923 164.084C68.6923 163.872 68.7744 163.669 68.9214 163.516C69.0684 163.364 69.2687 163.275 69.4803 163.267C69.6918 163.275 69.8922 163.364 70.0392 163.516C70.1862 163.669 70.2683 163.872 70.2683 164.084C70.2683 164.295 70.1862 164.499 70.0392 164.651C69.8922 164.804 69.6918 164.893 69.4803 164.9H69.4803ZM72.6163 166.174C72.4048 166.167 72.2044 166.078 72.0574 165.925C71.9104 165.773 71.8282 165.569 71.8282 165.358C71.8282 165.146 71.9104 164.943 72.0574 164.79C72.2044 164.638 72.4048 164.549 72.6163 164.541C72.8279 164.549 73.0283 164.638 73.1753 164.79C73.3223 164.943 73.4044 165.146 73.4044 165.358C73.4044 165.569 73.3223 165.773 73.1753 165.925C73.0283 166.078 72.8279 166.167 72.6163 166.174H72.6163ZM75.9483 167.546C75.7368 167.539 75.5364 167.45 75.3894 167.297C75.2424 167.145 75.1602 166.941 75.1602 166.73C75.1602 166.518 75.2424 166.315 75.3894 166.162C75.5364 166.01 75.7368 165.921 75.9483 165.913C76.1599 165.921 76.3603 166.01 76.5073 166.162C76.6543 166.315 76.7364 166.518 76.7364 166.73C76.7364 166.941 76.6543 167.145 76.5073 167.297C76.3603 167.45 76.1599 167.539 75.9483 167.546H75.9483ZM79.3783 169.016C79.1668 169.009 78.9664 168.92 78.8194 168.767C78.6725 168.615 78.5903 168.411 78.5903 168.2C78.5903 167.988 78.6725 167.785 78.8194 167.632C78.9664 167.48 79.1668 167.391 79.3783 167.383C79.5899 167.391 79.7902 167.48 79.9372 167.632C80.0842 167.785 80.1663 167.988 80.1663 168.2C80.1663 168.411 80.0842 168.615 79.9372 168.767C79.7902 168.92 79.5899 169.009 79.3783 169.016L79.3783 169.016ZM83.3964 170.486C83.1848 170.479 82.9845 170.39 82.8375 170.237C82.6905 170.085 82.6083 169.881 82.6083 169.67C82.6083 169.458 82.6905 169.255 82.8375 169.102C82.9845 168.95 83.1848 168.861 83.3964 168.853C83.6079 168.861 83.8083 168.95 83.9552 169.102C84.1022 169.255 84.1843 169.458 84.1843 169.67C84.1843 169.881 84.1022 170.085 83.9552 170.237C83.8082 170.39 83.6079 170.479 83.3964 170.486L83.3964 170.486ZM87.5124 171.858C87.3008 171.851 87.1005 171.762 86.9535 171.609C86.8065 171.457 86.7243 171.253 86.7243 171.042C86.7243 170.83 86.8065 170.627 86.9535 170.474C87.1005 170.322 87.3008 170.233 87.5124 170.225C87.7239 170.233 87.9243 170.322 88.0712 170.474C88.2182 170.627 88.3003 170.83 88.3003 171.042C88.3003 171.253 88.2182 171.457 88.0712 171.609C87.9242 171.762 87.7239 171.851 87.5124 171.858H87.5124ZM91.7264 172.838C91.5149 172.831 91.3145 172.742 91.1675 172.589C91.0205 172.437 90.9384 172.233 90.9384 172.022C90.9384 171.81 91.0205 171.607 91.1675 171.454C91.3145 171.302 91.5149 171.213 91.7264 171.205C91.9379 171.213 92.1382 171.302 92.2851 171.454C92.4321 171.607 92.5142 171.81 92.5142 172.022C92.5142 172.233 92.4321 172.437 92.2851 172.589C92.1382 172.741 91.9379 172.831 91.7264 172.838L91.7264 172.838ZM95.9404 173.231C95.7289 173.223 95.5285 173.134 95.3815 172.981C95.2345 172.829 95.1523 172.626 95.1523 172.414C95.1523 172.202 95.2345 171.999 95.3815 171.846C95.5285 171.694 95.7289 171.605 95.9404 171.597C96.1519 171.605 96.3521 171.694 96.499 171.847C96.6458 171.999 96.7279 172.202 96.7279 172.414C96.7279 172.625 96.6458 172.829 96.499 172.981C96.3521 173.133 96.1519 173.223 95.9404 173.23V173.231ZM113.417 159.783C113.126 160.19 112.723 160.504 112.258 160.686C111.799 160.904 111.324 161.087 110.836 161.231C109.867 161.514 108.887 161.737 107.902 161.922C106.03 162.249 104.142 162.473 102.245 162.592C102.187 162.684 102.123 162.773 102.055 162.859C101.864 163.567 101.668 164.274 101.461 164.977C101.593 164.879 101.754 164.829 101.918 164.835C102.13 164.843 102.33 164.932 102.477 165.084C102.624 165.237 102.707 165.44 102.707 165.652C102.707 165.864 102.624 166.067 102.477 166.219C102.33 166.372 102.13 166.461 101.918 166.468C101.755 166.475 101.595 166.428 101.461 166.335C101.327 166.241 101.228 166.107 101.178 165.951C100.977 166.637 100.77 167.323 100.552 168.004C100.552 168.004 114.076 168.2 114.86 166.24L113.417 159.783ZM105.446 165.978C105.235 165.971 105.035 165.882 104.888 165.729C104.741 165.577 104.658 165.373 104.658 165.162C104.658 164.95 104.741 164.747 104.888 164.594C105.035 164.442 105.235 164.353 105.446 164.345C105.658 164.353 105.858 164.442 106.005 164.594C106.152 164.747 106.235 164.95 106.235 165.162C106.235 165.373 106.152 165.577 106.005 165.729C105.858 165.882 105.658 165.971 105.446 165.978H105.446ZM108.876 165.488C108.665 165.481 108.465 165.392 108.318 165.239C108.171 165.087 108.088 164.883 108.088 164.672C108.088 164.46 108.171 164.257 108.318 164.104C108.465 163.952 108.665 163.863 108.876 163.855C109.088 163.863 109.288 163.952 109.435 164.104C109.582 164.257 109.664 164.46 109.664 164.672C109.664 164.883 109.582 165.087 109.435 165.239C109.288 165.391 109.088 165.481 108.876 165.488H108.876ZM112.404 164.802C112.193 164.795 111.993 164.706 111.846 164.553C111.699 164.401 111.616 164.197 111.616 163.986C111.616 163.774 111.699 163.571 111.846 163.418C111.993 163.266 112.193 163.177 112.404 163.169C112.616 163.177 112.816 163.266 112.964 163.418C113.111 163.571 113.193 163.774 113.193 163.986C113.193 164.198 113.111 164.401 112.963 164.553C112.816 164.706 112.616 164.795 112.404 164.802L112.404 164.802ZM108.196 106.851C102.888 103.138 81.5942 99.0659 68.3914 96.8173C65.2758 96.289 62.4133 94.7708 60.2283 92.4878C58.0433 90.2047 56.6522 87.2784 56.2611 84.1426L53.7457 84.3658C40.5974 134.613 21.999 109.122 21.999 109.122L22.2658 110.385C23.6596 116.238 26.9698 121.072 33.7155 122.532C33.7155 122.532 48.8076 127.824 79.1878 124.492L82.3238 124.296C82.3238 124.296 72.2842 147.641 66.6655 158.302L75.5236 161.329C78.48 162.282 81.3655 163.501 84.3981 164.242C85.9105 164.621 87.4507 164.88 89.0042 165.015C90.5441 165.161 92.0925 165.195 93.6374 165.118C95.1468 165.065 96.6402 164.79 98.0692 164.302C99.4351 163.829 100.613 162.93 101.428 161.737L101.434 161.726C101.492 161.646 101.569 161.581 101.657 161.536C101.771 160.948 101.886 160.365 102 159.777C102.539 157.049 103.138 154.333 103.748 151.616C104.374 148.91 105.022 146.199 105.724 143.509C106.421 140.814 107.161 138.13 108 135.468C108 135.468 116.036 112.339 108.196 106.851L108.196 106.851Z" fill="#061E33"/>
<path d="M66.6649 158.302C66.6489 158.336 66.6308 158.368 66.6107 158.4C66.5993 158.392 66.5913 158.381 66.5882 158.368C66.5852 158.355 66.5875 158.341 66.5945 158.329C66.6013 158.319 66.6112 158.31 66.6228 158.306C66.6344 158.301 66.6472 158.3 66.6595 158.302H66.6649Z" fill="white"/>
<path d="M113.449 159.733C113.44 159.751 113.429 159.767 113.416 159.782L113.389 159.652C113.406 159.65 113.423 159.654 113.438 159.662C113.446 159.672 113.452 159.684 113.454 159.696C113.456 159.709 113.454 159.722 113.449 159.733Z" fill="white"/>
<path d="M62.3204 69.8128C62.5546 70.5206 62.7887 71.2283 63.0173 71.9416C62.6851 71.947 62.364 71.947 62.0427 71.947C61.8632 71.3209 61.6834 70.6948 61.5092 70.0633C60.5129 66.5516 59.5838 63.0217 58.7217 59.4738C59.9902 62.8983 61.1897 66.3447 62.3204 69.8128Z" fill="#061E33"/>
<path d="M71.489 101.331C70.2258 97.906 69.0262 94.4597 67.8901 90.9916C67.0298 88.3891 66.2024 85.7757 65.3857 83.1624C65.7614 83.1188 66.1207 83.0753 66.4637 83.0317C67.2314 85.5961 67.9882 88.1659 68.7068 90.7411C69.7032 94.2528 70.6306 97.7826 71.489 101.331Z" fill="#061E33"/>
<path d="M32.8605 61.4231L30.8515 65.3704H30.8678C31.3095 65.5418 31.7733 65.6499 32.2453 65.6916C32.9639 65.7624 33.8078 65.8223 34.7334 65.8604C34.1073 64.3795 33.4757 62.904 32.8605 61.4231ZM36.9982 61.7171L35.1145 65.8767C36.3612 65.9257 37.7496 65.9529 39.1706 65.9529L36.9982 61.7171ZM43.3193 65.9039L41.5498 61.8478L39.6498 65.9584C40.8748 65.9584 42.1216 65.9475 43.3302 65.9311C43.3302 65.9202 43.3247 65.9148 43.3193 65.9039H43.3193ZM45.4426 61.7443L43.7875 65.8985C43.7833 65.9082 43.7778 65.9174 43.7712 65.9257C44.675 65.9094 45.5515 65.893 46.3737 65.8712L47.6041 65.9094L45.4426 61.7443ZM49.5369 61.4503L47.9362 65.8985C47.9308 65.9039 47.9308 65.9148 47.9253 65.9202L49.0033 65.9529C49.0033 65.9529 49.0088 65.8985 49.0196 65.795C50.7946 65.7406 51.9433 65.6916 51.9433 65.6916L49.5369 61.4503ZM53.5113 56.2835C51.9433 48.2475 52.3354 45.1115 52.3354 45.1115C52.4244 44.1979 52.4517 43.2793 52.417 42.362C52.1666 41.6433 52.4606 38.6925 52.5314 39.1062C52.6238 38.6094 52.7432 38.0451 52.8648 37.4998C53.0216 36.7951 52.9508 36.0589 52.6626 35.3971C52.3744 34.7352 51.8837 34.1818 51.2611 33.8166L39.7913 27.0793C39.7913 27.0793 27.4432 33.7434 26.4632 44.9154C25.4832 56.0875 24.6992 70.5916 24.6992 70.5916L30.0784 71.4627L30.8515 65.3703L32.7788 61.14C32.7871 61.1224 32.8002 61.1076 32.8165 61.0972C32.8329 61.0868 32.8519 61.0812 32.8714 61.0812C32.8908 61.0812 32.9098 61.0868 32.9262 61.0972C32.9426 61.1076 32.9557 61.1224 32.9639 61.14V61.1454C33.6281 62.5719 34.276 64.0038 34.9239 65.4356L36.7751 61.0909C36.8002 61.0351 36.8461 60.9913 36.9031 60.9689C36.9601 60.9465 37.0236 60.9474 37.08 60.9712C37.1271 60.9921 37.1655 61.0286 37.1889 61.0746L37.1943 61.0801L39.3939 65.2941L41.3103 61.0746C41.3247 61.0418 41.3454 61.0122 41.3714 60.9876C41.3973 60.9629 41.4279 60.9437 41.4614 60.931C41.4949 60.9184 41.5305 60.9125 41.5663 60.9138C41.602 60.9151 41.6372 60.9235 41.6697 60.9385C41.7303 60.9682 41.7785 61.0183 41.8058 61.0801L43.548 65.1525L45.1977 61.0964H45.2031C45.2255 61.0394 45.2697 60.9936 45.3258 60.9691C45.3819 60.9446 45.4455 60.9434 45.5026 60.9657C45.5545 60.9888 45.5969 61.0292 45.6224 61.0801L47.7512 65.3921L49.4117 61.1454H49.4172C49.4218 61.1315 49.4292 61.1187 49.4389 61.1078C49.4486 61.097 49.4605 61.0882 49.4738 61.082C49.487 61.0759 49.5014 61.0726 49.516 61.0723C49.5307 61.0719 49.5452 61.0746 49.5587 61.0801C49.5819 61.0924 49.6009 61.1113 49.6132 61.1345L51.9434 65.6915C51.9434 65.6915 55.0794 64.3196 53.5114 56.2835H53.5113ZM32.8605 46.4835C32.7011 47.5299 32.6391 48.5889 32.6753 49.6467C32.6808 50.1748 32.7461 50.6921 32.7842 51.2256C32.8387 51.7755 32.8877 52.3308 32.904 52.8916C32.9533 54.0307 32.8396 55.1711 32.5665 56.2781C32.4124 56.8564 32.166 57.4061 31.8369 57.906C31.7467 58.0354 31.6485 58.159 31.5429 58.2762L31.2707 58.5702C31.0952 58.7592 30.9299 58.9573 30.7752 59.1637C30.462 59.5708 30.2005 60.0152 29.9967 60.4867C29.7836 60.9653 29.6159 61.463 29.4958 61.973C29.3281 62.4722 29.2937 63.0065 29.3958 63.5231C29.498 64.0397 29.7333 64.5207 30.0784 64.9185C29.6053 64.6026 29.2583 64.1304 29.0983 63.5846C28.9436 63.0324 28.8993 62.4552 28.9677 61.8859C29.0344 61.3258 29.1548 60.7734 29.327 60.2362C29.5073 59.6862 29.76 59.1625 30.0784 58.6791C30.2308 58.4396 30.3996 58.2054 30.5738 57.9822L30.8406 57.661C30.9114 57.5739 30.9767 57.4759 31.042 57.3779C31.2894 56.9552 31.4677 56.4957 31.5702 56.0168C31.7884 55.0013 31.8726 53.9616 31.8206 52.9243C31.8097 52.3962 31.7716 51.8627 31.728 51.3345C31.7008 50.7846 31.6246 50.2184 31.6464 49.6576C31.6503 48.5363 31.7781 47.4188 32.0275 46.3256C32.4882 44.1499 33.471 42.1188 34.8913 40.4075C33.8565 42.2951 33.1686 44.353 32.8605 46.4835H32.8605ZM42.7966 35.3604C42.1868 35.5619 41.5934 35.7905 41.0108 36.0355C39.8294 36.5146 38.7024 37.0863 37.4393 37.6634C37.7849 37.0544 38.2475 36.5197 38.8004 36.09C39.3445 35.6535 39.9475 35.2961 40.5916 35.0283C41.236 34.7542 41.9194 34.5834 42.6169 34.522C43.3149 34.4466 44.0209 34.5151 44.6913 34.7234C44.0271 34.9739 43.401 35.1317 42.7966 35.3604H42.7966Z" fill="#061E33"/>
<path d="M25.9136 68.1322C26.1277 70.3718 26.1769 72.6114 26.1857 74.851C26.178 77.0906 26.129 79.3301 25.9136 81.5697C25.6983 79.3301 25.6492 77.0906 25.6416 74.851C25.6504 72.6114 25.6996 70.3718 25.9136 68.1322Z" fill="#061E33"/>
<path d="M65.8836 164.807C64.8015 167.732 63.6634 170.633 62.5399 173.54L61.6802 175.718C61.3836 176.456 61.0344 177.173 60.6353 177.861C59.7971 179.098 59.2879 180.529 59.1559 182.017C59.1163 182.713 59.2749 183.406 59.6131 184.015C60.0042 184.618 60.5026 185.145 61.0836 185.568C62.3015 186.499 63.5788 187.349 64.9073 188.113C67.5751 189.668 70.3494 191.083 73.1398 192.416L72.5029 192.567C73.6489 191.137 74.812 189.721 75.9765 188.306L76.0909 189.009C74.5972 187.897 73.4534 186.38 72.7949 184.638C72.4629 183.785 72.2513 182.89 72.1661 181.979C72.0675 181.059 72.1524 180.129 72.4159 179.243C72.6825 178.379 73.0692 177.556 73.5647 176.8L74.9106 174.532C75.8067 173.02 76.7022 171.508 77.6214 170.008C76.8377 171.583 76.0302 173.144 75.2233 174.705L74.0148 177.049C73.8164 177.445 73.5984 177.823 73.4353 178.209C73.2672 178.596 73.1318 178.997 73.0305 179.407C72.826 180.22 72.7848 181.065 72.9092 181.894C73.0127 182.732 73.2328 183.552 73.563 184.329C73.8886 185.104 74.3178 185.831 74.8388 186.49C75.343 187.144 75.9405 187.721 76.6122 188.202L76.6182 188.206C76.6709 188.243 76.7158 188.289 76.7506 188.342C76.7854 188.396 76.8092 188.456 76.8209 188.519C76.8325 188.581 76.8316 188.646 76.8183 188.708C76.805 188.771 76.7795 188.83 76.7433 188.883L76.7265 188.906C75.6016 190.352 74.4753 191.798 73.332 193.23C73.2579 193.323 73.1549 193.388 73.0394 193.415C72.9239 193.442 72.8026 193.43 72.6949 193.38C69.8469 192.07 67.0675 190.616 64.3674 189.023C62.9958 188.23 61.6857 187.335 60.4484 186.345C60.1339 186.086 59.8337 185.809 59.549 185.517C59.244 185.209 58.9832 184.861 58.774 184.482C58.3631 183.713 58.1785 182.844 58.2416 181.975C58.4245 180.348 59.0211 178.794 59.9746 177.463C60.7486 176.131 61.4264 174.744 62.0029 173.315C63.2875 170.475 64.5575 167.629 65.8836 164.807Z" fill="#061E33"/>
<path d="M54.4922 187.606L57.0402 183.294C57.0402 183.294 72.3283 190.546 72.9163 192.898C72.9163 192.898 75.9436 187.641 74.4299 185.551C74.4299 185.551 91.1444 193.682 92.9084 199.954C92.9084 199.954 92.9084 208.186 54.4922 187.606Z" fill="#061E33"/>
<path d="M78.2478 86.3317L78.3283 86.9053C78.3381 87.095 78.3812 87.2815 78.4556 87.4563C78.6028 87.8008 78.8737 88.0777 79.2148 88.2325C79.3805 88.3067 79.5587 88.349 79.74 88.3571C79.91 88.3624 80.1474 88.3462 80.3477 88.3418L81.6025 88.2987C83.2755 88.2352 84.9484 88.1877 86.6214 88.1562C89.9673 88.0927 93.3133 87.9869 96.6592 87.9579C103.351 87.8736 110.043 87.819 116.735 87.9242L117.963 87.9488C118.16 87.9473 118.353 87.8896 118.519 87.7826C118.685 87.6756 118.817 87.5237 118.9 87.3445C118.963 87.1997 119.002 87.0459 119.017 86.8888L119.222 85.6507L120.045 80.6983L120.87 75.7463L121.641 70.7865C122.642 64.1697 123.48 57.5296 124.284 50.8846C124.351 50.5154 124.38 50.1403 124.37 49.7653C124.324 49.4709 124.166 49.2056 123.93 49.0247C123.703 48.8488 123.418 48.7649 123.133 48.7901C122.847 48.8153 122.581 48.9475 122.389 49.1604C122.298 49.2639 122.227 49.3836 122.18 49.5134C122.131 49.6674 122.102 49.8271 122.095 49.9885L121.95 51.2352L121.649 53.7267C121.25 57.0492 120.847 60.3712 120.417 63.6894C119.574 70.3282 118.741 76.9685 117.818 83.5964L117.729 84.2175C117.712 84.3563 117.686 84.4938 117.651 84.6293C117.61 84.783 117.555 84.9323 117.485 85.075C117.206 85.6514 116.719 86.1008 116.122 86.3327C115.833 86.4429 115.526 86.5005 115.216 86.5028L114.589 86.5119L113.334 86.5302C111.66 86.5561 109.987 86.5804 108.313 86.5862L98.2727 86.6518C94.9259 86.6748 91.5787 86.6423 88.2322 86.6403C87.4 86.6329 86.5487 86.6476 85.7324 86.6198L83.2832 86.5266L78.2478 86.3317ZM78.1323 86.2162L83.1349 86.0212L85.7045 85.928L88.2227 85.8149C91.5666 85.6706 94.9098 85.4958 98.2534 85.3765L108.284 85.0154C109.955 84.9501 111.627 84.9032 113.299 84.858L114.553 84.8229L115.18 84.8054C115.29 84.8053 115.398 84.7845 115.5 84.744C115.69 84.6658 115.844 84.5185 115.93 84.3316C115.952 84.2863 115.969 84.2386 115.98 84.1896C115.996 84.1221 116.007 84.0537 116.013 83.9848L116.094 83.3626C116.969 76.7281 117.935 70.106 118.891 63.4824C119.36 60.1695 119.857 56.8603 120.357 53.5515L120.73 51.0697L120.923 49.8297C120.952 49.5742 121.014 49.3235 121.108 49.084C121.217 48.8243 121.373 48.5875 121.57 48.3858C121.963 47.9831 122.494 47.7449 123.056 47.7193C123.611 47.6928 124.155 47.8791 124.578 48.2402C124.997 48.5946 125.264 49.0961 125.324 49.6415C125.349 49.8927 125.335 50.1462 125.285 50.3935L125.183 51.0127C124.098 57.6176 123.048 64.2275 122.161 70.8606L121.516 75.8383L120.925 80.8237L120.332 85.8088L120.183 87.0551C120.163 87.3156 120.105 87.5718 120.012 87.8159C119.905 88.0818 119.748 88.3249 119.55 88.532C119.147 88.9536 118.599 89.2067 118.017 89.2406L116.735 89.2717C110.043 89.3769 103.351 89.3223 96.6592 89.238C93.3133 89.2089 89.9674 89.1032 86.6214 89.0396C84.9484 89.01 83.2755 88.9626 81.6025 88.8972L80.3478 88.8541C80.13 88.8434 79.9487 88.8475 79.7012 88.8247C79.4648 88.7976 79.2356 88.7263 79.0257 88.6143C78.7153 88.4521 78.4584 88.2039 78.2856 87.8993C78.1129 87.5948 78.0317 87.2469 78.0518 86.8973C78.0709 86.6557 78.1058 86.4236 78.1323 86.2162V86.2162Z" fill="#061E33"/>
<path d="M68.8983 16.7907C68.8983 16.7907 59.3923 17.0847 57.0403 15.8107C57.0403 15.8107 57.8243 12.3806 55.2763 12.6747C52.7283 12.9687 53.6918 17.9667 54.9741 17.9667C54.9741 17.9667 51.2583 21.6907 48.0242 20.6127C48.0242 20.6127 42.9243 6.69663 53.9513 3.07062C64.9783 -0.555398 67.4283 6.89263 67.4283 6.89263C67.4283 6.89263 78.4044 12.2827 68.8984 16.7907" fill="#061E33"/>
<path d="M47.9743 20.5909C48.2465 19.9764 48.6857 19.4507 49.2419 19.0733C49.7931 18.6976 50.4002 18.4111 51.0408 18.2245C51.6789 18.0359 52.3317 17.9008 52.9922 17.8204C53.6563 17.7373 54.3258 17.7049 54.9948 17.7234C55.059 17.7254 55.1199 17.7528 55.164 17.7994C55.2082 17.846 55.2322 17.9082 55.2308 17.9724C55.2294 18.0366 55.2028 18.0977 55.1566 18.1424C55.1104 18.187 55.0485 18.2117 54.9843 18.211L54.974 18.2108C54.8228 18.2021 54.6752 18.1613 54.5411 18.0911C54.407 18.0209 54.2894 17.9228 54.1961 17.8036C54.0308 17.6102 53.8932 17.3948 53.7874 17.1634C53.5821 16.7217 53.4402 16.2531 53.3661 15.7717C53.2834 15.2844 53.2741 14.7876 53.3386 14.2976C53.3965 13.7559 53.6173 13.2446 53.9719 12.8311C54.1739 12.6121 54.4212 12.4398 54.6967 12.3262C54.9622 12.2251 55.2427 12.1686 55.5267 12.1591C55.8213 12.1454 56.1156 12.1907 56.3924 12.2923C56.6929 12.4051 56.957 12.5977 57.1563 12.8492C57.4896 13.3073 57.6766 13.8555 57.6928 14.4218C57.7223 14.9288 57.6861 15.4374 57.5852 15.9352L57.3065 15.3191C57.6623 15.4783 58.0384 15.5875 58.4242 15.6435C58.8389 15.7168 59.2703 15.7639 59.7043 15.7999C60.5737 15.8757 61.4585 15.9111 62.346 15.928C64.1259 15.9597 65.9024 15.9389 67.7281 15.9952C67.9585 16.0055 68.1894 16.0182 68.4347 16.0452C68.5699 16.0587 68.704 16.081 68.8363 16.1118C68.9497 16.1373 69.058 16.1815 69.1569 16.2426C69.2197 16.2844 69.275 16.3364 69.3206 16.3965C69.392 16.4928 69.4324 16.6087 69.4362 16.7286C69.4401 16.8485 69.4073 16.9668 69.3422 17.0675L69.3177 17.1061C69.122 17.4625 68.9593 17.8361 68.8316 18.2222C68.5359 19.0244 68.3252 19.8554 68.2029 20.7017C68.1826 20.8498 68.1839 21.0001 68.2069 21.1479L68.4651 21.7613L68.7265 22.3804L68.8591 22.6963C68.9506 22.9191 68.9838 23.1616 68.9554 23.4008C68.927 23.64 68.838 23.8681 68.6969 24.0633C68.5119 24.3154 68.248 24.4985 67.9471 24.5835L66.6605 24.9732L66.8784 24.7721C66.3923 25.7994 65.8215 26.7843 65.1719 27.7168C64.8456 28.1867 64.4811 28.6288 64.082 29.0386C63.6784 29.4686 63.1927 29.8131 62.6535 30.0519C62.0925 30.2439 61.4922 30.2918 60.9079 30.1911C60.344 30.1098 59.7892 29.9744 59.2513 29.7867C58.1848 29.4186 57.152 28.9593 56.1643 28.414L56.3997 28.3691C54.8035 30.4598 53.2725 32.6014 51.7017 34.7121C51.6544 34.7758 51.5882 34.823 51.5125 34.8471C51.4369 34.8713 51.3556 34.8711 51.2801 34.8467L51.2768 34.8455C50.2128 34.4607 49.1927 33.9639 48.2337 33.3636C47.2758 32.8097 46.3555 32.2041 45.435 31.6011C43.6091 30.3719 41.8324 29.0775 40.1049 27.7179L40.0857 27.7028C40.0525 27.6767 40.0248 27.6443 40.0041 27.6074C39.9834 27.5706 39.9702 27.53 39.9652 27.488C39.9601 27.4461 39.9635 27.4035 39.9749 27.3628C39.9863 27.3222 40.0057 27.2841 40.0318 27.2509C40.0529 27.2243 40.078 27.2011 40.1062 27.1821C41.5371 26.228 42.9486 25.2286 44.3205 24.1835C45.0089 23.6631 45.6678 23.1055 46.3094 22.5304C46.965 21.9776 47.5271 21.3227 47.9743 20.5909ZM48.0741 20.6344C47.6282 21.3853 47.0664 22.0609 46.4094 22.6363C45.7942 23.2479 45.1388 23.8147 44.4944 24.3945C43.1955 25.5442 41.8583 26.644 40.4906 27.7187L40.4918 27.1831L45.9752 30.7858C46.8826 31.3928 47.8034 31.9777 48.7204 32.5599C49.1797 32.8494 49.6452 33.127 50.11 33.3971C50.5561 33.6672 51.0236 33.9003 51.5077 34.0942L51.0829 34.2276C52.7548 32.1962 54.4663 30.1958 56.1128 28.1444C56.1403 28.1101 56.1791 28.0868 56.2223 28.0786C56.2655 28.0703 56.3101 28.0777 56.3483 28.0995C57.3009 28.658 58.3093 29.1153 59.3571 29.464C59.8761 29.6351 60.4104 29.7558 60.9526 29.8247C61.474 29.9071 62.0077 29.858 62.5052 29.6818C62.9837 29.4549 63.4069 29.1264 63.7453 28.7191C64.1056 28.3112 64.4317 27.8743 64.7201 27.4128C65.3025 26.4838 65.8024 25.5056 66.2141 24.4894C66.2325 24.4445 66.2601 24.4039 66.2951 24.3702C66.33 24.3365 66.3716 24.3104 66.4172 24.2937L66.4322 24.2882L67.6952 23.828C67.8248 23.7902 67.9374 23.7088 68.0137 23.5974C68.09 23.4861 68.1255 23.3518 68.114 23.2172C68.108 23.154 68.0913 23.0922 68.0646 23.0345L67.9262 22.7357L67.6424 22.1265L67.3567 21.5114C67.2938 21.3557 67.259 21.1902 67.2539 21.0224C67.2467 20.8913 67.2476 20.7598 67.2566 20.6288C67.3524 19.6953 67.5578 18.7763 67.8686 17.8909C68.0121 17.4227 68.2027 16.9702 68.4375 16.5405C68.4427 16.5314 68.4698 16.4907 68.4572 16.5077C68.4136 16.575 68.3898 16.6532 68.3887 16.7333C68.3857 16.8373 68.4176 16.9393 68.4793 17.023C68.5064 17.0622 68.5412 17.0954 68.5815 17.1207C68.6453 17.159 68.6133 17.1378 68.5883 17.1354C68.5018 17.1186 68.4143 17.1067 68.3264 17.0999C68.126 17.082 67.9092 17.0738 67.692 17.0689C65.9351 17.0411 64.1277 17.1317 62.3248 17.0883C61.4212 17.0717 60.5143 17.0431 59.5989 16.9591C59.1411 16.9129 58.6817 16.8556 58.2156 16.7652C57.715 16.6823 57.2293 16.5263 56.774 16.3022C56.668 16.2468 56.583 16.1582 56.532 16.05C56.481 15.9418 56.4668 15.8199 56.4915 15.7028L56.4952 15.686C56.6557 14.9318 56.6695 13.9678 56.3281 13.495C56.2352 13.3782 56.1149 13.2863 55.9778 13.2273C55.8407 13.1684 55.6912 13.1444 55.5425 13.1574C55.378 13.1431 55.2122 13.163 55.0557 13.2157C54.8992 13.2685 54.7553 13.3531 54.633 13.4642C54.3953 13.7781 54.2228 14.1365 54.126 14.5182C54.0291 14.8998 54.0097 15.2971 54.0689 15.6864C54.0986 16.11 54.1877 16.5273 54.3336 16.9261C54.4653 17.3062 54.7366 17.7056 54.974 17.7225L54.9531 18.2099C54.3114 18.1451 53.6658 18.1289 53.0217 18.1613C52.3733 18.1852 51.729 18.2763 51.0994 18.433C50.468 18.5814 49.8669 18.8376 49.3227 19.1904C48.7796 19.5454 48.347 20.0457 48.0741 20.6344V20.6344Z" fill="#061E33"/>
<path d="M55.2759 19.4374L55.1562 20.9931C55.1209 21.4987 55.1121 22.0057 55.1299 22.5122C55.145 23.011 55.2052 23.5075 55.3098 23.9955C55.4335 24.4904 55.6197 24.9675 55.8639 25.4154C55.4355 25.0779 55.1047 24.6326 54.9052 24.125C54.7118 23.6152 54.604 23.077 54.5861 22.5321C54.5695 21.9953 54.6202 21.4586 54.737 20.9344C54.8429 20.4118 55.0245 19.9075 55.2759 19.4374Z" fill="#061E33"/>
<path d="M46.963 11.6981C46.963 11.6981 38.6161 6.56912 45.8681 2.07639C53.1201 -2.41633 53.9512 3.0717 53.9512 3.0717" fill="#061E33"/>
<path d="M26.9114 42.325C24.6952 42.0901 22.4598 42.1002 20.2457 42.3552C18.0526 42.5865 15.9017 43.1185 13.8536 43.9363L13.0981 44.2519L12.3723 44.6266C12.1337 44.7565 11.8819 44.8634 11.6545 45.0115L10.9691 45.449C10.0648 46.0138 9.24841 46.7084 8.54607 47.5106C7.15147 49.1197 6.24454 51.0931 5.93164 53.1993C5.77228 54.2447 5.75843 55.3071 5.8905 56.3562C6.0271 57.3719 6.31059 58.5056 6.51585 59.5974C6.95735 61.7969 7.39791 63.9968 7.80762 66.2026C8.64056 70.6174 9.3648 75.0352 10.2408 79.4296C11.9482 88.2344 14.0254 96.9629 16.2481 105.653C18.4827 114.341 20.6614 123.042 22.7842 131.756L22.1351 131.147C24.4697 131.518 26.8211 131.861 29.1688 132.189C31.5164 132.526 33.865 132.857 36.2166 133.163C40.9162 133.803 45.623 134.373 50.3371 134.873C55.0504 135.369 59.7763 135.73 64.5034 135.89C66.8634 135.972 69.2261 135.926 71.5811 135.752C72.7535 135.669 73.9178 135.495 75.0631 135.231C75.6305 135.096 76.1851 134.912 76.7208 134.681C77.2587 134.464 77.739 134.126 78.1237 133.692C78.1303 133.683 78.1385 133.676 78.1479 133.671C78.1572 133.666 78.1675 133.662 78.1781 133.661C78.1888 133.66 78.1996 133.66 78.2099 133.663C78.2203 133.666 78.2299 133.671 78.2384 133.678C78.2544 133.691 78.2649 133.71 78.268 133.73C78.271 133.751 78.2663 133.772 78.2549 133.789C77.8854 134.28 77.4069 134.679 76.857 134.954C76.32 135.235 75.7579 135.465 75.1781 135.641C74.0257 135.986 72.848 136.241 71.6558 136.402C69.2827 136.716 66.8926 136.883 64.4991 136.903C59.7199 137.006 54.9538 136.721 50.2017 136.373C45.4477 136.026 40.7126 135.493 35.9886 134.896C33.6286 134.581 31.2704 134.255 28.9166 133.898C26.5631 133.53 24.2173 133.15 21.8646 132.737L21.8556 132.735C21.7011 132.708 21.558 132.636 21.4442 132.528C21.3303 132.42 21.2508 132.281 21.2153 132.128C19.1967 123.387 17.2701 114.625 15.4353 105.843C13.5955 97.0602 11.6035 88.313 9.45918 79.6009C8.92839 77.4222 8.41039 75.2317 7.92225 73.0393C7.43494 70.8507 6.92105 68.6676 6.45572 66.475C5.9761 64.2852 5.52731 62.0893 5.07956 59.8932C4.8622 58.7836 4.61902 57.7329 4.46101 56.5254C4.3262 55.3446 4.35557 54.1508 4.54829 52.978C4.93336 50.6223 5.99804 48.4304 7.61157 46.6714C8.40779 45.8002 9.33799 45.0617 10.367 44.4837L11.1195 44.0488C11.3691 43.9021 11.6406 43.7986 11.8998 43.6719L12.6855 43.3093L13.4953 43.0104C15.6479 42.2357 17.9057 41.7924 20.1914 41.6958C22.452 41.5718 24.7193 41.7292 26.9412 42.1644C26.9617 42.1687 26.9797 42.1806 26.9916 42.1978C27.0035 42.2151 27.0084 42.2362 27.0051 42.2569C27.0019 42.2776 26.9909 42.2962 26.9743 42.309C26.9577 42.3217 26.9368 42.3277 26.916 42.3255L26.9114 42.325Z" fill="#061E33"/>
<path d="M24.7446 118.549C23.5637 114.81 22.5089 111.04 21.5322 107.252C20.5561 103.464 19.6215 99.6654 18.836 95.8327L17.7438 90.064C17.391 88.1386 17.0357 86.214 16.6326 84.3003C15.8401 80.4695 14.8851 76.6766 13.9842 72.8603C13.0557 69.0588 12.1671 65.2506 11.346 61.4292L10.7245 58.5643C10.4782 57.5709 10.3173 56.5584 10.2433 55.5376C10.1348 53.4335 10.5546 51.3357 11.4646 49.4355C12.3927 47.5403 13.8002 45.9208 15.5474 44.7376C17.2562 43.6262 19.1362 42.8036 21.1122 42.3028C24.9881 41.3482 29.0319 41.3 32.9295 42.162C32.9497 42.1663 32.9676 42.1782 32.9794 42.1952C32.9913 42.2122 32.9962 42.2331 32.9932 42.2536C32.9902 42.2741 32.9795 42.2927 32.9633 42.3056C32.9471 42.3185 32.9266 42.3247 32.9059 42.3231L32.8998 42.3226C29.0486 41.9769 25.1669 42.3895 21.4744 43.5371C19.6846 44.1127 17.9919 44.955 16.4534 46.0357C14.9834 47.1107 13.808 48.5387 13.0357 50.188C12.264 51.8384 11.8901 53.6468 11.9441 55.4679C11.9865 56.3996 12.109 57.3259 12.3103 58.2366L12.8511 61.121C13.5796 64.9654 14.2405 68.8231 14.8616 72.6874C15.4802 76.5432 16.2428 80.3755 17.1492 84.1842L17.8639 87.0289L18.6303 89.8618L20.1608 95.5275C21.1312 99.316 21.9649 103.136 22.7649 106.964C23.5644 110.793 24.2938 114.638 24.9036 118.512C24.9068 118.532 24.9022 118.553 24.8907 118.57C24.8791 118.587 24.8615 118.599 24.8414 118.604C24.8213 118.609 24.8002 118.606 24.7822 118.595C24.7643 118.585 24.7508 118.569 24.7446 118.549H24.7446Z" fill="#061E33"/>
<path d="M16.4668 108.429C17.7506 109.9 18.9967 111.353 20.2644 112.776C21.5323 114.198 22.8381 115.566 24.1936 116.865C25.5329 118.165 26.9869 119.34 28.5379 120.377C30.1049 121.43 31.8643 122.163 33.7152 122.534C31.7212 122.793 29.6959 122.429 27.9173 121.491C26.1336 120.6 24.4982 119.439 23.0689 118.049C21.6524 116.686 20.3784 115.183 19.2667 113.562C18.1367 111.966 17.197 110.243 16.4668 108.429Z" fill="#061E33"/>
<path d="M22.0769 131.971C20.3332 137.365 18.5254 142.732 16.6534 148.073L13.8463 156.085C12.915 158.756 11.9595 161.419 10.9796 164.073C9.0138 169.379 6.97865 174.664 5.20459 180.038C4.33538 182.73 3.51239 185.437 2.80306 188.172C2.4568 189.541 2.11048 190.912 1.8592 192.296C1.55414 193.64 1.40505 195.016 1.41488 196.395L0.592711 196.242C2.90387 190.952 5.22032 185.662 7.58806 180.399L14.666 164.597L21.8652 148.856C23.0501 146.227 24.2812 143.615 25.4241 140.969C26.5967 138.333 27.7428 135.691 28.7533 132.989L28.7549 132.985C28.7623 132.965 28.777 132.949 28.7959 132.94C28.8149 132.931 28.8366 132.929 28.8566 132.936C28.8766 132.942 28.8933 132.956 28.9033 132.975C28.9132 132.993 28.9156 133.015 28.91 133.035C28.5224 134.427 28.1296 135.829 27.6438 137.19L26.9471 139.247L26.1942 141.281C25.695 142.639 25.1801 143.99 24.6495 145.335C24.126 146.682 23.6088 148.033 23.053 149.367C20.8955 154.73 18.5887 160.028 16.2594 165.314C13.9074 170.591 11.4372 175.813 8.97477 181.037C6.51431 186.263 3.96761 191.447 1.3749 196.61L1.35711 196.646C1.31431 196.731 1.24405 196.799 1.15767 196.84C1.07128 196.88 0.973794 196.89 0.880902 196.869C0.78801 196.847 0.70512 196.795 0.64559 196.72C0.586061 196.646 0.553352 196.553 0.552734 196.458C0.596799 195.003 0.813779 193.559 1.1991 192.155C1.5282 190.768 1.89655 189.398 2.28174 188.032C3.05165 185.301 3.86997 182.589 4.69275 179.877C6.3204 174.449 7.92937 169.011 9.68677 163.622C11.4733 158.244 13.4358 152.927 15.4694 147.639C17.5055 142.352 19.637 137.102 21.9244 131.913C21.9329 131.894 21.9484 131.878 21.9678 131.87C21.9871 131.862 22.0089 131.862 22.0285 131.869C22.0481 131.877 22.064 131.892 22.0731 131.911C22.0821 131.93 22.0835 131.951 22.077 131.971L22.0769 131.971Z" fill="#061E33"/>
<path d="M35.5546 133.951C35.6021 137.387 35.4933 140.809 35.3623 144.23C35.2935 145.94 35.2103 147.649 35.1125 149.356C35.0271 151.065 34.9101 152.771 34.7617 154.475C34.4727 157.884 34.0231 161.285 33.8147 164.7C33.7107 166.407 33.6505 168.116 33.6448 169.824C33.653 170.678 33.6515 171.532 33.7031 172.38C33.7275 172.804 33.7569 173.227 33.8015 173.642C33.8242 173.849 33.8507 174.056 33.8874 174.249C33.9036 174.339 33.9249 174.428 33.9514 174.515C33.9593 174.543 33.9703 174.57 33.9841 174.596C33.989 174.606 33.9873 174.596 33.9732 174.578C33.9482 174.547 33.9172 174.521 33.8821 174.502C33.8469 174.484 33.8084 174.472 33.7687 174.469L34.1057 174.73C34.119 174.751 34.1713 174.826 34.1954 174.834C34.2269 174.85 34.2171 174.843 34.2124 174.833C34.293 174.777 34.3668 174.712 34.4321 174.639C34.6717 174.326 34.8724 173.985 35.0298 173.623C35.3701 172.833 35.6622 172.023 35.9044 171.198C36.4085 169.53 36.8469 167.828 37.2527 166.117C38.0536 162.689 38.7313 159.223 39.4186 155.758L41.5348 145.359C42.2528 141.891 42.9786 138.421 43.794 134.962C43.7987 134.942 43.8108 134.925 43.8279 134.913C43.845 134.901 43.8659 134.897 43.8863 134.9C43.9068 134.903 43.9252 134.914 43.9381 134.93C43.9509 134.946 43.9571 134.967 43.9555 134.987C43.6734 138.529 43.2931 142.059 42.8148 145.576C42.348 149.095 41.7884 152.601 41.136 156.094C40.4597 159.582 39.6735 163.053 38.7301 166.494C38.2547 168.214 37.7523 169.931 37.1028 171.614C36.7858 172.471 36.4075 173.303 35.9709 174.106C35.7368 174.539 35.4469 174.941 35.1085 175.299C34.8721 175.556 34.5438 175.708 34.1954 175.723C33.978 175.716 33.771 175.628 33.6154 175.476C33.4871 175.355 33.3876 175.206 33.3242 175.042L33.6611 175.303C33.5285 175.282 33.4088 175.212 33.3262 175.106C33.2889 175.059 33.258 175.006 33.2341 174.95C33.2032 174.879 33.179 174.805 33.1618 174.729C33.1349 174.609 33.1148 174.488 33.1019 174.366C33.0756 174.136 33.0643 173.915 33.0561 173.696C33.0414 173.257 33.0432 172.825 33.05 172.393C33.0703 171.531 33.0809 170.673 33.1164 169.815L33.2656 164.677C33.3434 161.252 33.2696 157.818 33.3873 154.393C33.4417 152.68 33.5376 150.97 33.6751 149.263C33.7974 147.555 33.9417 145.849 34.1081 144.144C34.4461 140.735 34.8263 137.329 35.3917 133.939C35.3951 133.919 35.4059 133.9 35.422 133.888C35.4382 133.875 35.4584 133.869 35.4789 133.871C35.4993 133.872 35.5184 133.881 35.5324 133.896C35.5464 133.911 35.5543 133.931 35.5545 133.951L35.5546 133.951Z" fill="#061E33"/>
<path d="M84.3715 172.472C85.2765 174.699 86.0173 176.968 86.7258 179.244C87.4219 181.525 88.094 183.81 88.6141 186.137C89.1233 188.466 89.5062 190.832 90.1384 193.129C90.4456 194.279 90.7932 195.418 91.1813 196.543C91.3676 197.108 91.5897 197.661 91.8057 198.211C91.9153 198.485 92.0278 198.758 92.1459 199.022C92.2045 199.153 92.2651 199.284 92.3278 199.403C92.359 199.465 92.3917 199.516 92.4212 199.565C92.4324 199.578 92.4539 199.607 92.4539 199.607C92.4504 199.598 92.4446 199.59 92.4371 199.584C92.4305 199.578 92.4439 199.592 92.4206 199.57C92.3972 199.549 92.3712 199.531 92.3432 199.517C92.2857 199.487 92.2215 199.474 92.1571 199.478C92.1421 199.479 92.1281 199.486 92.1181 199.497C92.1081 199.508 92.1028 199.523 92.1035 199.538C92.1042 199.553 92.1108 199.567 92.1218 199.577C92.1328 199.588 92.1474 199.593 92.1624 199.593L92.4594 199.586C92.4706 199.586 92.5471 199.596 92.5084 199.58C92.475 199.574 92.4568 199.585 92.4861 199.542C92.5643 199.353 92.6096 199.152 92.6201 198.948C92.6581 198.415 92.6518 197.88 92.6012 197.348C92.5143 196.243 92.3471 195.12 92.1569 194.002C91.7567 191.764 91.2587 189.53 90.7853 187.288C90.3258 185.042 89.8346 182.798 89.3907 180.538C88.941 178.28 88.503 176.014 88.1459 173.723C88.1427 173.703 88.1469 173.682 88.1578 173.665C88.1687 173.648 88.1855 173.635 88.2051 173.63C88.2246 173.625 88.2454 173.627 88.2636 173.636C88.2817 173.645 88.2959 173.66 88.3033 173.679C89.1639 175.832 89.9379 178.013 90.6254 180.222C91.3227 182.427 91.9399 184.657 92.4767 186.911C93.0099 189.175 93.4192 191.467 93.7028 193.775C93.8564 194.945 93.9398 196.124 93.9526 197.304C93.9546 197.924 93.8944 198.543 93.7728 199.151C93.7048 199.519 93.5571 199.868 93.34 200.174C93.2525 200.288 93.1427 200.383 93.0172 200.453C92.8917 200.524 92.7531 200.568 92.6101 200.582C92.4668 200.593 92.323 200.572 92.1892 200.519C92.0672 200.474 91.9539 200.407 91.8542 200.323L92.1564 200.431C92.033 200.424 91.9148 200.379 91.8179 200.302C91.8048 200.292 91.7928 200.28 91.7822 200.268C91.7509 200.233 91.7215 200.197 91.694 200.159C91.6539 200.098 91.6379 200.061 91.61 200.011C91.572 199.927 91.5354 199.845 91.5089 199.77C91.4495 199.617 91.4002 199.471 91.3533 199.324C91.2589 199.032 91.1749 198.742 91.0941 198.451L90.6268 196.714C90.316 195.56 89.991 194.413 89.6391 193.272C88.9547 190.988 88.0662 188.759 87.32 186.49C86.5859 184.217 86.0221 181.899 85.4942 179.572C84.9794 177.241 84.5069 174.9 84.2135 172.513C84.2111 172.493 84.2159 172.473 84.2272 172.456C84.2384 172.44 84.2553 172.428 84.2746 172.423C84.2939 172.418 84.3144 172.42 84.3323 172.429C84.3501 172.438 84.3641 172.453 84.3716 172.472L84.3715 172.472Z" fill="#061E33"/>
<path d="M130.164 96.7245C130.465 105.226 130.599 113.727 130.715 122.229C130.805 130.73 130.857 139.232 130.762 147.733L130.537 160.485C130.453 164.736 130.374 168.987 130.347 173.238C130.315 177.488 130.343 181.739 130.369 185.99L130.387 189.178L130.41 190.772L130.416 191.17C130.417 191.322 130.405 191.474 130.382 191.625C130.333 191.93 130.228 192.223 130.073 192.49C129.757 193.031 129.253 193.437 128.657 193.631C128.366 193.72 128.063 193.763 127.759 193.757L126.962 193.769L123.774 193.816L120.586 193.871L118.992 193.899L118.791 193.902C118.709 193.903 118.627 193.9 118.544 193.894C118.377 193.881 118.211 193.852 118.05 193.807C117.731 193.716 117.43 193.571 117.16 193.378C116.61 192.979 116.229 192.389 116.09 191.724C116.056 191.561 116.037 191.395 116.031 191.228L116.017 190.829L115.989 190.033L115.894 186.846L115.534 174.099C115.317 165.6 115.088 157.101 114.95 148.601C114.712 131.599 114.58 114.596 114.778 97.5862C114.778 97.565 114.787 97.5446 114.802 97.5295C114.816 97.5144 114.837 97.5058 114.858 97.5054C114.879 97.505 114.9 97.5129 114.915 97.5274C114.931 97.5419 114.94 97.5619 114.941 97.5831C115.78 114.573 116.289 131.57 116.692 148.568C116.874 157.067 116.966 165.569 117.07 174.07L117.189 186.822L117.212 190.01L117.214 190.807L117.215 191.206C117.214 191.305 117.222 191.404 117.238 191.501C117.305 191.891 117.515 192.241 117.827 192.484C117.986 192.607 118.166 192.701 118.356 192.764C118.45 192.794 118.546 192.814 118.644 192.825C118.694 192.831 118.744 192.835 118.795 192.836L118.992 192.84L120.586 192.867L123.774 192.922L126.962 192.97L127.759 192.982C127.987 192.996 128.216 192.973 128.436 192.914C128.758 192.819 129.047 192.638 129.272 192.39C129.497 192.142 129.65 191.837 129.713 191.509C129.734 191.397 129.746 191.284 129.749 191.17L129.755 190.772L129.777 189.178L129.795 185.99C129.821 181.739 129.85 177.488 129.817 173.238C129.791 168.987 129.712 164.736 129.628 160.485L129.402 147.733C129.307 139.232 129.359 130.73 129.449 122.229C129.566 113.727 129.699 105.226 130.001 96.7245C130.001 96.7033 130.01 96.6833 130.025 96.6685C130.041 96.6538 130.061 96.6456 130.082 96.6456C130.103 96.6456 130.124 96.6538 130.139 96.6685C130.154 96.6833 130.163 96.7033 130.164 96.7245H130.164Z" fill="#061E33"/>
<path d="M154.822 88.5972H88.6172C87.4145 88.5972 86.4395 89.5722 86.4395 90.775V94.954C86.4395 96.1567 87.4145 97.1317 88.6172 97.1317H154.822C156.025 97.1317 157 96.1567 157 94.954V90.775C157 89.5722 156.025 88.5972 154.822 88.5972Z" fill="#061E33"/>
<path d="M65.5956 20.4163C65.7544 20.4108 65.9048 20.3439 66.0152 20.2296C66.1256 20.1153 66.1873 19.9627 66.1873 19.8038C66.1873 19.6449 66.1256 19.4922 66.0152 19.378C65.9048 19.2637 65.7544 19.1968 65.5956 19.1913C65.4368 19.1968 65.2864 19.2637 65.176 19.378C65.0656 19.4922 65.0039 19.6449 65.0039 19.8038C65.0039 19.9627 65.0656 20.1153 65.176 20.2296C65.2864 20.3439 65.4368 20.4108 65.5956 20.4163Z" fill="#061E33"/>
<path d="M31.3611 81.6239L24.7536 81.7047L24.8821 81.6112C23.7982 85.3597 22.9796 89.1799 22.4323 93.0434C21.8375 96.8898 21.6389 100.787 21.8397 104.674C21.9394 106.606 22.2249 108.523 22.6922 110.399C23.1404 112.263 23.8508 114.054 24.8021 115.719C25.7491 117.369 27.0518 118.788 28.6155 119.872C30.1925 120.932 31.9554 121.684 33.8116 122.089L33.8519 122.1L33.8658 122.104C35.7945 122.687 37.7581 123.148 39.7449 123.484C41.7388 123.841 43.7479 124.121 45.764 124.346C49.7996 124.806 53.856 125.06 57.9174 125.108C58.9329 125.14 59.9489 125.137 60.9652 125.124L64.0137 125.1L67.0619 125.006L68.5862 124.956L70.1088 124.866L73.1546 124.685C74.1699 124.623 75.1843 124.514 76.1993 124.431L79.2443 124.166L82.3046 123.998L82.3096 123.998C82.3487 123.996 82.3878 124.002 82.4248 124.015C82.4617 124.028 82.4958 124.048 82.5249 124.074C82.5541 124.1 82.5778 124.132 82.5947 124.167C82.6117 124.202 82.6215 124.241 82.6236 124.28C82.626 124.326 82.6175 124.373 82.5988 124.416C81.1278 127.755 79.6387 131.084 78.1315 134.404C76.6406 137.732 75.1304 141.051 73.6007 144.362C72.0643 147.67 70.5022 150.966 68.9142 154.25C68.112 155.888 67.2954 157.52 66.434 159.131C66.0022 159.936 65.5606 160.737 65.0875 161.522C64.8491 161.914 64.6039 162.303 64.3365 162.682C64.2013 162.874 64.0562 163.059 63.902 163.237C63.8209 163.331 63.7325 163.418 63.6378 163.498C63.5208 163.608 63.3719 163.678 63.2127 163.697L63.3028 163.32C66.1793 164.754 69.1106 166.089 72.0564 167.378C75.0055 168.661 77.983 169.879 80.9974 170.99C83.996 172.125 87.0634 173.069 90.1811 173.817C91.7226 174.189 93.2962 174.411 94.8801 174.481C95.6461 174.517 96.4131 174.441 97.1572 174.256C97.4967 174.187 97.8183 174.049 98.1017 173.85C98.3851 173.651 98.6241 173.395 98.8038 173.099L98.768 173.191L100.109 167.891C100.134 167.793 100.191 167.706 100.27 167.644C100.35 167.582 100.449 167.548 100.55 167.549L100.558 167.549C102.983 167.556 105.421 167.489 107.839 167.337C109.047 167.256 110.255 167.153 111.438 166.974C112.022 166.89 112.601 166.774 113.171 166.624C113.438 166.553 113.699 166.461 113.95 166.348C114.118 166.288 114.267 166.186 114.382 166.051L114.357 166.354L110.886 150.977L107.443 135.594C107.42 135.494 107.425 135.39 107.458 135.292L107.461 135.283C108.639 131.751 109.572 128.143 110.254 124.483C110.596 122.659 110.838 120.818 110.98 118.968C111.137 117.135 111.108 115.292 110.894 113.465C110.78 112.569 110.585 111.685 110.312 110.825C110.039 109.988 109.638 109.198 109.124 108.484C108.589 107.796 107.913 107.231 107.142 106.825C106.752 106.592 106.348 106.386 105.931 106.207L105.31 105.914L104.665 105.659C101.175 104.345 97.6057 103.254 93.9775 102.392C86.7123 100.595 79.36 99.1112 71.9903 97.7413L69.2244 97.2371C68.7631 97.1533 68.3035 97.077 67.8356 96.9663L67.1372 96.8114L66.4535 96.6014C63.7296 95.7359 61.3158 94.0977 59.5057 91.8858C57.6956 89.674 56.5672 86.9838 56.2576 84.1425C56.3669 84.1362 56.2901 84.1532 56.3155 84.1574L56.3194 84.1789L56.3271 84.2221L56.3425 84.3083L56.3733 84.4807L56.4349 84.8255C56.4696 85.0562 56.5159 85.2851 56.5736 85.5111C56.6805 85.965 56.8103 86.4132 56.9625 86.854L57.1949 87.513C57.2797 87.7297 57.382 87.9396 57.4745 88.153C57.6607 88.5795 57.8711 88.995 58.1047 89.3974C59.0236 91.0162 60.2485 92.4409 61.7112 93.5923C63.1575 94.7513 64.8187 95.6131 66.5991 96.1282L67.2628 96.3211L67.9399 96.4597C68.3862 96.5586 68.853 96.629 69.3156 96.7053L72.0919 97.1662C79.4899 98.4242 86.8785 99.7721 94.1905 101.526C97.8704 102.362 101.493 103.433 105.037 104.73L105.703 104.985L106.357 105.286C106.803 105.473 107.237 105.69 107.655 105.933C108.549 106.4 109.335 107.05 109.962 107.841C110.555 108.643 111.02 109.533 111.339 110.478C111.641 111.403 111.855 112.355 111.978 113.321C112.206 115.221 112.241 117.139 112.082 119.047C111.941 120.937 111.698 122.819 111.353 124.683C110.668 128.401 109.728 132.068 108.538 135.657L108.556 135.346L111.974 150.735L115.362 166.13L115.37 166.165C115.39 166.256 115.378 166.35 115.337 166.433C115.137 166.823 114.797 167.124 114.386 167.275C114.081 167.412 113.765 167.523 113.441 167.607C112.83 167.764 112.211 167.886 111.586 167.972C110.355 168.152 109.128 168.249 107.901 168.325C105.446 168.471 103.001 168.495 100.545 168.463L100.994 168.121L99.5911 173.405L99.5894 173.411C99.5813 173.441 99.5698 173.47 99.5552 173.497C99.3184 173.892 99.0022 174.234 98.6265 174.501C98.2509 174.769 97.8239 174.955 97.3725 175.049C96.55 175.246 95.703 175.322 94.8585 175.274C93.2241 175.184 91.6021 174.936 90.0151 174.535C86.8771 173.743 83.7923 172.754 80.7792 171.573C74.75 169.259 68.8884 166.565 63.1227 163.675C63.085 163.657 63.0544 163.626 63.0352 163.589C63.016 163.551 63.0092 163.509 63.0159 163.467C63.0227 163.425 63.0425 163.387 63.0725 163.358C63.1025 163.328 63.1412 163.309 63.1829 163.303L63.2128 163.299C63.3667 163.22 63.5016 163.109 63.6079 162.973C63.7533 162.807 63.8901 162.633 64.0177 162.453C64.2776 162.089 64.5209 161.707 64.7579 161.322C65.2288 160.548 65.6719 159.754 66.1054 158.954C66.9707 157.354 67.7935 155.728 68.6019 154.096C70.223 150.833 71.7588 147.527 73.2689 144.209C74.7805 140.893 76.2695 137.566 77.7361 134.228C79.1923 130.887 80.6296 127.537 82.048 124.179L82.3421 124.597L79.2995 124.811L76.257 125.122C75.242 125.221 74.2306 125.345 73.2124 125.422L70.1571 125.65L68.6291 125.763L67.0985 125.836L64.0364 125.976C63.0152 126.014 61.9928 126.013 60.9708 126.029C59.9488 126.047 58.9267 126.055 57.9044 126.027C53.8115 125.998 49.7226 125.761 45.6538 125.317C43.6188 125.088 41.5922 124.787 39.574 124.415C37.542 124.059 35.5348 123.575 33.5646 122.963L33.6187 122.979C31.6484 122.537 29.7797 121.726 28.1115 120.589C26.4549 119.425 25.0774 117.908 24.0783 116.147C23.0912 114.409 22.3638 112.536 21.9191 110.588C21.4683 108.66 21.204 106.693 21.1299 104.714C20.983 100.781 21.2402 96.8428 21.8974 92.9619C22.5247 89.0887 23.4364 85.267 24.625 81.5278C24.6337 81.5005 24.6509 81.4767 24.674 81.4599C24.6972 81.443 24.7251 81.434 24.7537 81.4342L31.3612 81.515C31.3755 81.5152 31.3892 81.521 31.3992 81.5312C31.4092 81.5414 31.4149 81.5551 31.4149 81.5694C31.4149 81.5837 31.4092 81.5974 31.3992 81.6076C31.3892 81.6178 31.3755 81.6236 31.3612 81.6238L31.3611 81.6239Z" fill="#061E33"/>
<path d="M56.0725 71.5594C56.3139 69.877 56.5248 68.2153 56.6769 66.5436C56.8353 64.8734 56.9347 63.201 57.0731 61.5255C57.2261 59.8514 57.4008 58.1662 57.4198 56.4773C57.4227 54.788 57.3186 53.1001 57.108 51.424L56.494 46.3991L55.8515 41.3848L55.5577 38.8736L55.4122 37.617L55.3417 36.9879L55.2578 36.391C55.157 35.6152 54.8412 34.883 54.3461 34.2772C54.0818 33.9948 53.7521 33.7817 53.3861 33.6566C52.9958 33.5365 52.5858 33.4942 52.1792 33.5322L52.1572 33.4255C52.5872 33.2769 53.0478 33.2395 53.4962 33.3167C53.9445 33.394 54.3661 33.5833 54.7216 33.8672C55.4036 34.4882 55.8839 35.2994 56.1004 36.1961C56.5051 37.9066 56.7509 39.544 57.006 41.2347C57.2369 42.9161 57.3838 44.6079 57.5106 46.3002C57.6501 47.9915 57.6998 49.6905 57.6979 51.3885C57.7046 53.0863 57.7071 54.7794 57.7739 56.4722C57.8417 58.1646 57.98 59.8625 57.9802 61.5667C57.9577 63.272 57.8014 64.973 57.5127 66.6538C57.2462 68.3418 56.7986 69.9962 56.1775 71.5882L56.0725 71.5594Z" fill="#061E33"/>
<path d="M49.0593 65.9546L49.1444 69.4172H48.8652L48.7952 65.9546L48.998 66.1641C45.9699 66.1384 42.9436 66.0586 39.9163 66.0064C36.8891 65.9538 33.8624 65.8844 30.8362 65.7982L31.2721 65.4483C30.8728 67.818 30.6371 70.2123 30.5667 72.6144C30.531 73.81 30.5576 75.0066 30.6465 76.1994C30.7219 77.3796 30.9044 78.5505 31.1917 79.6977C31.4476 80.814 31.9523 81.8581 32.6681 82.752C33.023 83.1642 33.4616 83.496 33.9547 83.7254C34.4822 83.9403 35.0315 84.0971 35.593 84.1931C37.9669 84.5496 40.367 84.7016 42.7669 84.6474C47.6018 84.6207 52.4462 84.3099 57.2712 83.8579C62.1002 83.4322 66.9132 82.8171 71.7121 82.1475C71.733 82.1446 71.7543 82.1448 71.7751 82.1483L71.7796 82.1491C73.634 82.4663 75.5025 82.734 77.3719 82.9482C79.2347 83.1783 81.1088 83.3056 82.9857 83.3296C83.4515 83.3322 83.9166 83.3167 84.376 83.2867C84.8194 83.2737 85.2594 83.2066 85.6865 83.0869C86.0869 82.9586 86.4562 82.7482 86.7707 82.4692C87.0853 82.1902 87.3383 81.8488 87.5135 81.4666C87.8816 80.6564 88.0841 79.7809 88.1091 78.8914C88.1552 77.9845 88.1019 77.0753 87.95 76.1801L87.9496 76.1772C87.933 76.08 87.9479 75.98 87.9921 75.8918C88.0362 75.8036 88.1074 75.7318 88.1951 75.6868L94.0548 72.691L94.098 72.6719L94.1218 72.6631C94.7073 72.4744 95.2376 72.145 95.6664 71.7039C95.7346 71.6356 95.7838 71.5507 95.8091 71.4576C95.8345 71.3645 95.8351 71.2664 95.811 71.173C95.779 71.071 95.7265 70.9767 95.6567 70.8958C95.587 70.8149 95.5014 70.749 95.4053 70.7023C95.1947 70.5987 94.9545 70.5722 94.7264 70.6275L93.7108 70.897L91.639 71.4297C90.2537 71.7737 88.8658 72.1052 87.4507 72.3791C86.7239 72.5315 85.9872 72.6317 85.2462 72.679C85.1361 72.6824 85.0258 72.6795 84.916 72.6703C84.7857 72.6599 84.6571 72.634 84.533 72.5931C84.3321 72.5317 84.1365 72.4542 83.9482 72.3612C83.8107 72.2937 83.6855 72.2037 83.5778 72.0948C83.4832 71.9985 83.4132 71.8809 83.3736 71.7519C83.3276 71.5966 83.3298 71.431 83.38 71.277C83.4406 71.1059 83.542 70.9521 83.6754 70.8289C83.7567 70.7501 83.843 70.6766 83.9336 70.6087C84.5355 70.1764 85.1648 69.7834 85.8174 69.4322C86.1412 69.2574 86.4767 69.094 86.8069 68.9443C86.9672 68.8708 87.1429 68.7943 87.2474 68.7373C87.2709 68.7249 87.2891 68.7115 87.2754 68.7216C87.2127 68.7777 87.1707 68.8534 87.1565 68.9363C87.1323 69.0303 87.1461 69.13 87.1948 69.2138C87.2128 69.2453 87.2206 69.2494 87.2167 69.2452C87.1253 69.1781 87.0252 69.1235 86.9192 69.0832C86.7755 69.0241 86.6285 68.9733 86.4791 68.9308C86.1612 68.8419 85.8378 68.7737 85.5111 68.7268C83.4923 68.4294 81.431 68.7696 79.6147 69.6998C78.3765 70.2819 77.2331 71.0475 76.2234 71.9707L76.2165 71.977C76.1244 72.0608 76.0055 72.1091 75.8811 72.1133C72.8341 72.2175 69.7882 72.2921 66.7435 72.3371C63.6938 72.3607 60.6532 72.4259 57.5795 72.1906C57.184 72.1604 56.7906 72.106 56.4018 72.0275C56.2898 72.0031 56.1798 71.9702 56.0728 71.9292C55.9153 71.8575 55.8769 71.8264 55.7833 71.7773L55.2929 71.5062C54.6334 71.1587 53.95 70.8582 53.2481 70.607C51.8461 70.0985 50.358 69.87 48.868 69.9344C47.3659 70.0262 45.8862 70.3444 44.479 70.878C43.051 71.382 41.6555 72.0047 40.2024 72.4742C40.1888 72.4786 40.174 72.4775 40.1612 72.4711C40.1484 72.4647 40.1387 72.4535 40.1341 72.44C40.1294 72.4264 40.1303 72.4116 40.1365 72.3987C40.1427 72.3859 40.1537 72.3759 40.1672 72.3711C41.5922 71.8471 42.9559 71.1718 44.3766 70.6054C45.7977 70.0016 47.302 69.616 48.8383 69.4617C50.3954 69.345 51.9601 69.5393 53.4413 70.0333C54.1794 70.2746 54.8995 70.5678 55.5963 70.9108L56.1122 71.1776C56.1873 71.2162 56.3123 71.2835 56.3298 71.2868C56.4016 71.3105 56.4749 71.3294 56.5493 71.3433C56.9085 71.404 57.271 71.4432 57.6349 71.4605C60.6381 71.591 63.6901 71.4956 66.7231 71.4145C69.7598 71.3195 72.7964 71.1924 75.8328 71.0333L75.4907 71.1758C76.5744 70.168 77.8071 69.3334 79.1453 68.7016C81.1559 67.6713 83.4367 67.2905 85.6729 67.6116C86.05 67.6644 86.4232 67.7419 86.7902 67.8436C86.9828 67.8976 87.1721 67.9627 87.3572 68.0385C87.5836 68.1256 87.794 68.2495 87.9798 68.4054C88.0553 68.4736 88.1207 68.5523 88.1739 68.639C88.2692 68.7923 88.304 68.9756 88.2713 69.1531C88.2387 69.3306 88.1411 69.4896 87.9975 69.599C87.9368 69.6482 87.8716 69.6918 87.803 69.7291C87.595 69.8417 87.4428 69.9036 87.281 69.9798C86.9644 70.1247 86.6613 70.274 86.3603 70.4379C85.7624 70.7631 85.1854 71.1254 84.6328 71.5227C84.5812 71.5614 84.5319 71.6031 84.4854 71.6477C84.4501 71.6763 84.4409 71.7176 84.477 71.6314C84.4983 71.5619 84.4984 71.4877 84.4775 71.4182C84.4647 71.3743 84.4427 71.3336 84.413 71.2989C84.3905 71.2791 84.4283 71.3121 84.4782 71.3353C84.6096 71.3976 84.7457 71.4498 84.885 71.4914L84.9429 71.5096L84.9605 71.5118C84.9808 71.517 85.0016 71.5198 85.0226 71.5202C85.0898 71.5262 85.1573 71.5284 85.2248 71.5268C85.9028 71.4864 86.5772 71.3994 87.2433 71.2665C88.6219 71.0136 90.0034 70.6983 91.3799 70.3705L93.4428 69.8613L94.4906 69.5946C94.9615 69.487 95.4552 69.5488 95.885 69.7692C96.1074 69.8828 96.3041 70.0406 96.4632 70.233C96.6223 70.4254 96.7403 70.6483 96.8101 70.888C96.8857 71.1497 96.8876 71.4273 96.8156 71.6901C96.7469 71.9296 96.6296 72.1523 96.4712 72.3446C96.1993 72.6636 95.8719 72.9307 95.5049 73.133C95.1663 73.3285 94.81 73.4913 94.4407 73.6194L94.5075 73.5916L88.6072 76.5065L88.8523 76.0134C89.0023 76.9838 89.0441 77.9678 88.9768 78.9474C88.9293 79.9507 88.6806 80.9342 88.2455 81.8395C88.0128 82.312 87.6844 82.7309 87.2813 83.0697C86.8781 83.4085 86.4089 83.6599 85.9034 83.8078C85.6551 83.8772 85.4015 83.9263 85.1452 83.9544L84.4171 84.0019C83.9346 84.021 83.4545 84.0235 82.9769 84.0094C81.0782 83.9346 79.1847 83.76 77.3044 83.4863C75.4274 83.2285 73.5601 82.919 71.7025 82.5576L71.7699 82.5592C66.9568 83.1989 62.1329 83.7103 57.3074 84.2308C52.4777 84.7024 47.6443 85.1726 42.7784 85.3339C40.3286 85.4547 37.873 85.3635 35.439 85.0612C34.8016 84.9682 34.178 84.7973 33.5821 84.5525C32.9692 84.2746 32.4223 83.8696 31.9778 83.3642C31.1573 82.3693 30.5738 81.2008 30.2713 79.9471C29.6928 77.5386 29.4771 75.0572 29.6313 72.585C29.7285 70.1377 29.9947 67.7 30.4279 65.2894C30.4466 65.1885 30.5009 65.0976 30.5809 65.0334C30.661 64.9692 30.7614 64.9358 30.864 64.9395C33.8895 65.0448 36.9144 65.1707 39.9386 65.317C42.9629 65.4601 45.9882 65.5755 49.0116 65.7451L49.0208 65.7456C49.0738 65.7486 49.1236 65.7721 49.1598 65.8111C49.1959 65.8501 49.2155 65.9015 49.2145 65.9546L49.1444 69.4172L49.1444 69.4235C49.1437 69.4605 49.1282 69.4957 49.1015 69.5213C49.0748 69.547 49.039 69.561 49.002 69.5602C48.965 69.5595 48.9298 69.5441 48.9041 69.5174C48.8785 69.4906 48.8645 69.4548 48.8653 69.4178L48.8652 69.4172L48.9505 65.9546C48.9508 65.9404 48.9567 65.9268 48.9669 65.9169C48.977 65.9069 48.9907 65.9014 49.0049 65.9014C49.0191 65.9014 49.0328 65.9069 49.043 65.9169C49.0531 65.9268 49.059 65.9404 49.0593 65.9546Z" fill="#061E33"/>
<path d="M104.54 167.917L100.552 168.006L99.8866 170.572C99.5721 176.927 92.2178 174.602 92.2178 174.602L92.5741 178.867C92.6939 180.433 92.7243 182.004 92.6652 183.573C92.6061 185.503 92.9681 188.555 95.6722 189.504C99.7283 190.928 110.941 190.392 110.941 190.392L112.086 184.584C110.742 184.514 109.436 184.121 108.276 183.441C107.116 182.76 106.136 181.811 105.419 180.673C104.644 179.433 104.26 177.988 104.318 176.527L104.54 167.917Z" stroke="#061E33" stroke-width="0.96777" stroke-linecap="round" stroke-linejoin="round"/>
<path d="M24.1054 109.238C24.3171 109.231 24.5177 109.142 24.6649 108.99C24.8121 108.837 24.8943 108.634 24.8943 108.422C24.8943 108.21 24.8121 108.006 24.6649 107.854C24.5177 107.702 24.3171 107.612 24.1054 107.605C23.8937 107.612 23.6931 107.702 23.5459 107.854C23.3987 108.006 23.3164 108.21 23.3164 108.422C23.3164 108.634 23.3987 108.837 23.5459 108.99C23.6931 109.142 23.8937 109.231 24.1054 109.238Z" fill="#061E33"/>
<path d="M27.4373 111.199C27.649 111.191 27.8496 111.102 27.9968 110.95C28.1439 110.797 28.2262 110.594 28.2262 110.382C28.2262 110.17 28.1439 109.967 27.9968 109.814C27.8496 109.662 27.649 109.573 27.4373 109.565C27.2256 109.573 27.025 109.662 26.8779 109.814C26.7307 109.967 26.6484 110.17 26.6484 110.382C26.6484 110.594 26.7307 110.797 26.8779 110.95C27.025 111.102 27.2256 111.191 27.4373 111.199Z" fill="#061E33"/>
<path d="M31.3563 112.767C31.568 112.759 31.7686 112.67 31.9158 112.518C32.063 112.365 32.1453 112.162 32.1453 111.95C32.1453 111.738 32.063 111.534 31.9158 111.382C31.7686 111.23 31.568 111.14 31.3563 111.133C31.1446 111.14 30.944 111.23 30.7968 111.382C30.6497 111.534 30.5674 111.738 30.5674 111.95C30.5674 112.162 30.6497 112.365 30.7968 112.518C30.944 112.67 31.1446 112.759 31.3563 112.767Z" fill="#061E33"/>
<path d="M35.866 112.179C36.0777 112.171 36.2783 112.082 36.4255 111.93C36.5726 111.777 36.6549 111.574 36.6549 111.362C36.6549 111.15 36.5726 110.947 36.4255 110.794C36.2783 110.642 36.0777 110.553 35.866 110.545C35.6543 110.553 35.4537 110.642 35.3066 110.794C35.1594 110.947 35.0771 111.15 35.0771 111.362C35.0771 111.574 35.1594 111.777 35.3066 111.93C35.4537 112.082 35.6543 112.171 35.866 112.179Z" fill="#061E33"/>
<path d="M40.1776 109.043C40.3893 109.035 40.59 108.946 40.7371 108.794C40.8843 108.641 40.9666 108.438 40.9666 108.226C40.9666 108.014 40.8843 107.811 40.7371 107.658C40.59 107.506 40.3893 107.417 40.1776 107.409C39.9659 107.417 39.7653 107.506 39.6181 107.658C39.4709 107.811 39.3887 108.014 39.3887 108.226C39.3887 108.438 39.4709 108.641 39.6181 108.794C39.7653 108.946 39.9659 109.035 40.1776 109.043Z" fill="#061E33"/>
<path d="M43.5086 105.318C43.7203 105.311 43.9209 105.221 44.0681 105.069C44.2152 104.917 44.2975 104.713 44.2975 104.501C44.2975 104.289 44.2152 104.086 44.0681 103.934C43.9209 103.781 43.7203 103.692 43.5086 103.685C43.2969 103.692 43.0963 103.781 42.9492 103.934C42.802 104.086 42.7197 104.289 42.7197 104.501C42.7197 104.713 42.802 104.917 42.9492 105.069C43.0963 105.221 43.2969 105.311 43.5086 105.318Z" fill="#061E33"/>
<path d="M45.6658 101.594C45.8775 101.587 46.0781 101.497 46.2253 101.345C46.3725 101.193 46.4547 100.989 46.4547 100.777C46.4547 100.565 46.3725 100.362 46.2253 100.21C46.0781 100.057 45.8775 99.9679 45.6658 99.9606C45.4541 99.9679 45.2535 100.057 45.1064 100.21C44.9592 100.362 44.877 100.565 44.877 100.777C44.877 100.989 44.9592 101.193 45.1064 101.345C45.2535 101.497 45.4541 101.587 45.6658 101.594Z" fill="#061E33"/>
<path d="M47.4295 97.2825C47.6412 97.2752 47.8418 97.1859 47.989 97.0336C48.1361 96.8812 48.2184 96.6777 48.2184 96.4658C48.2184 96.254 48.1361 96.0505 47.989 95.8981C47.8418 95.7458 47.6412 95.6565 47.4295 95.6492C47.2178 95.6565 47.0172 95.7458 46.87 95.8981C46.7229 96.0505 46.6406 96.254 46.6406 96.4658C46.6406 96.6777 46.7229 96.8812 46.87 97.0336C47.0172 97.1859 47.2178 97.2752 47.4295 97.2825Z" fill="#061E33"/>
<path d="M49.5858 92.9709C49.7975 92.9635 49.998 92.8743 50.1452 92.7219C50.2924 92.5696 50.3746 92.366 50.3746 92.1542C50.3746 91.9424 50.2924 91.7388 50.1452 91.5865C49.998 91.4341 49.7975 91.3449 49.5858 91.3375C49.3741 91.3449 49.1735 91.4341 49.0263 91.5865C48.8791 91.7388 48.7969 91.9424 48.7969 92.1542C48.7969 92.366 48.8791 92.5696 49.0263 92.7219C49.1735 92.8743 49.3741 92.9635 49.5858 92.9709Z" fill="#061E33"/>
<path d="M50.7626 88.8547C50.9743 88.8473 51.1749 88.7581 51.3221 88.6057C51.4693 88.4534 51.5516 88.2498 51.5516 88.038C51.5516 87.8261 51.4693 87.6226 51.3221 87.4702C51.1749 87.3179 50.9743 87.2286 50.7626 87.2213C50.5509 87.2286 50.3503 87.3179 50.2031 87.4702C50.0559 87.6226 49.9736 87.8261 49.9736 88.038C49.9736 88.2498 50.0559 88.4534 50.2031 88.6057C50.3503 88.7581 50.5509 88.8473 50.7626 88.8547Z" fill="#061E33"/>
<path d="M54.0936 40.4423C54.3053 40.435 54.5058 40.3457 54.653 40.1934C54.8002 40.041 54.8825 39.8375 54.8825 39.6256C54.8825 39.4138 54.8002 39.2103 54.653 39.0579C54.5058 38.9055 54.3053 38.8163 54.0936 38.809C53.8819 38.8163 53.6813 38.9055 53.5341 39.0579C53.3869 39.2103 53.3047 39.4138 53.3047 39.6256C53.3047 39.8375 53.3869 40.041 53.5341 40.1934C53.6813 40.3457 53.8819 40.435 54.0936 40.4423Z" fill="#061E33"/>
<path d="M54.6815 44.5583C54.8933 44.551 55.0939 44.4617 55.241 44.3094C55.3882 44.157 55.4705 43.9534 55.4705 43.7416C55.4705 43.5298 55.3882 43.3262 55.241 43.1738C55.0939 43.0215 54.8933 42.9322 54.6815 42.9249C54.4698 42.9322 54.2692 43.0215 54.122 43.1738C53.9748 43.3262 53.8926 43.5298 53.8926 43.7416C53.8926 43.9534 53.9748 44.157 54.122 44.3094C54.2692 44.4617 54.4698 44.551 54.6815 44.5583Z" fill="#061E33"/>
<path d="M55.2694 48.87C55.4811 48.8627 55.6817 48.7735 55.8289 48.6211C55.9761 48.4688 56.0584 48.2652 56.0584 48.0534C56.0584 47.8415 55.9761 47.638 55.8289 47.4856C55.6817 47.3332 55.4811 47.244 55.2694 47.2367C55.0577 47.244 54.8571 47.3332 54.7099 47.4856C54.5627 47.638 54.4805 47.8415 54.4805 48.0534C54.4805 48.2652 54.5627 48.4688 54.7099 48.6211C54.8571 48.7735 55.0577 48.8627 55.2694 48.87Z" fill="#061E33"/>
<path d="M55.661 53.3783C55.8727 53.371 56.0734 53.2818 56.2205 53.1294C56.3677 52.9771 56.45 52.7735 56.45 52.5617C56.45 52.3498 56.3677 52.1463 56.2205 51.9939C56.0734 51.8415 55.8727 51.7523 55.661 51.745C55.4493 51.7523 55.2487 51.8415 55.1015 51.9939C54.9543 52.1463 54.8721 52.3498 54.8721 52.5617C54.8721 52.7735 54.9543 52.9771 55.1015 53.1294C55.2487 53.2818 55.4493 53.371 55.661 53.3783Z" fill="#061E33"/>
<path d="M55.8573 57.1021C56.069 57.0948 56.2696 57.0055 56.4168 56.8532C56.564 56.7008 56.6463 56.4973 56.6463 56.2854C56.6463 56.0736 56.564 55.87 56.4168 55.7177C56.2696 55.5653 56.069 55.4761 55.8573 55.4688C55.6456 55.4761 55.445 55.5653 55.2978 55.7177C55.1506 55.87 55.0684 56.0736 55.0684 56.2854C55.0684 56.4973 55.1506 56.7008 55.2978 56.8532C55.445 57.0055 55.6456 57.0948 55.8573 57.1021Z" fill="#061E33"/>
<path d="M55.8573 62.0027C56.069 61.9954 56.2695 61.9061 56.4167 61.7538C56.5639 61.6014 56.6461 61.3979 56.6461 61.1861C56.6461 60.9742 56.5639 60.7707 56.4167 60.6183C56.2695 60.466 56.069 60.3767 55.8573 60.3694C55.6456 60.3767 55.445 60.466 55.2978 60.6183C55.1506 60.7707 55.0684 60.9742 55.0684 61.1861C55.0684 61.3979 55.1506 61.6014 55.2978 61.7538C55.445 61.9061 55.6456 61.9954 55.8573 62.0027Z" fill="#061E33"/>
<path d="M55.0741 67.49C55.2858 67.4827 55.4864 67.3935 55.6336 67.2411C55.7808 67.0888 55.8631 66.8852 55.8631 66.6734C55.8631 66.4615 55.7808 66.258 55.6336 66.1056C55.4864 65.9532 55.2858 65.864 55.0741 65.8567C54.8624 65.864 54.6618 65.9532 54.5146 66.1056C54.3674 66.258 54.2852 66.4615 54.2852 66.6734C54.2852 66.8852 54.3674 67.0888 54.5146 67.2411C54.6618 67.3935 54.8624 67.4827 55.0741 67.49Z" fill="#061E33"/>
<path d="M24.7539 81.5692H31.3615C32.5759 84.2347 33.7155 84.1172 33.7155 84.1172C30.3835 88.6253 24.7539 81.5692 24.7539 81.5692Z" fill="#061E33"/>
<path d="M55.2764 34.7258C55.2764 34.7258 60.1173 56.2229 56.1257 71.574L57.2865 71.9498C57.2865 71.9498 58.9702 64.3005 59.7844 62.95C65.0624 54.1958 61.9404 51.1899 61.9404 51.1899C58.2164 48.2499 55.2764 34.7258 55.2764 34.7258" fill="#061E33"/>
<path d="M32.2461 65.6938C35.5415 65.6594 38.81 65.4616 42.0873 65.3228L51.9099 64.8842L51.6194 64.9515C51.5829 64.9681 51.682 64.9066 51.7244 64.8725C51.784 64.8227 51.8407 64.7696 51.8944 64.7135C52.0128 64.5908 52.1212 64.4589 52.2188 64.319C52.4268 64.0079 52.5941 63.6715 52.7169 63.318C52.9718 62.5481 53.1175 61.7463 53.1499 60.9359C53.1609 60.5174 53.1947 60.0997 53.1699 59.6734L53.1534 59.0361L53.0971 58.3955C53.069 57.9678 53.012 57.5402 52.9448 57.1124L52.759 55.8072C52.4833 54.0407 52.2807 52.2607 52.1697 50.4734C52.029 48.6861 52.0849 46.8888 52.3361 45.1136C52.434 46.8812 52.6525 48.6401 52.9899 50.3779C53.2939 52.1167 53.6572 53.8437 54.0407 55.5655C54.4884 57.3449 54.7148 59.1728 54.7148 61.0077C54.6891 61.9735 54.5266 62.9308 54.2322 63.851C54.0695 64.3388 53.8447 64.8037 53.5632 65.2342C53.4124 65.4621 53.2391 65.6744 53.0459 65.8678C52.9439 65.9698 52.836 66.0657 52.7229 66.1552C52.5819 66.2644 52.4298 66.3586 52.2691 66.436C52.1845 66.477 52.0924 66.4997 51.9985 66.5029L51.9784 66.5033C50.3283 66.5505 48.6864 66.6126 47.039 66.6115C45.3929 66.6183 43.7463 66.6171 42.0992 66.5629C40.4525 66.5282 38.805 66.4363 37.1594 66.3161C35.5108 66.2052 33.8702 65.9974 32.2461 65.6938Z" fill="#061E33"/>
</svg>
