<svg width="231" height="223" viewBox="0 0 231 223" fill="none" xmlns="http://www.w3.org/2000/svg">
<path d="M110.138 185.273C109.073 185.365 108.001 185.292 106.959 185.055C105.906 184.79 104.899 184.367 103.974 183.801C103.053 183.209 102.224 182.488 101.511 181.658C100.813 180.812 100.255 179.861 99.8563 178.84C99.497 177.814 99.2843 176.743 99.2247 175.658C99.1999 174.589 99.2979 173.521 99.5166 172.474C99.7521 171.438 100.109 170.433 100.579 169.48C101.071 168.53 101.678 167.643 102.387 166.841C103.123 166.043 103.97 165.356 104.902 164.8C105.856 164.258 106.885 163.86 107.955 163.618C109.035 163.399 110.14 163.325 111.24 163.398C112.343 163.503 113.424 163.768 114.45 164.186C115.461 164.632 116.403 165.219 117.249 165.928C118.071 166.655 118.784 167.495 119.369 168.422C119.922 169.355 120.337 170.362 120.604 171.413C120.842 172.452 120.92 173.522 120.837 174.585H120.719C120.609 173.562 120.379 172.555 120.035 171.585C119.673 170.644 119.191 169.754 118.6 168.937C117.999 168.145 117.302 167.43 116.526 166.808C115.74 166.213 114.881 165.721 113.969 165.343C113.054 164.984 112.097 164.74 111.122 164.617C110.138 164.515 109.145 164.543 108.169 164.702C107.193 164.889 106.243 165.198 105.343 165.621C104.444 166.075 103.604 166.638 102.842 167.296C102.094 167.99 101.45 168.789 100.931 169.668C100.435 170.568 100.084 171.539 99.8904 172.548C99.7296 173.557 99.7248 174.584 99.8762 175.595C100.043 176.586 100.341 177.551 100.76 178.465C101.186 179.363 101.707 180.212 102.316 180.997C103.582 182.564 105.249 183.76 107.14 184.457C108.11 184.802 109.115 185.037 110.138 185.156V185.273Z" fill="#061E33"/>
<path d="M45.6386 185.214C51.5151 185.214 56.2788 180.455 56.2788 174.584C56.2788 168.714 51.5151 163.955 45.6386 163.955C39.7622 163.955 34.9984 168.714 34.9984 174.584C34.9984 180.455 39.7622 185.214 45.6386 185.214Z" fill="#061E33"/>
<path d="M187.18 189.277C191.241 189.277 194.534 185.988 194.534 181.931C194.534 177.874 191.241 174.584 187.18 174.584C183.119 174.584 179.827 177.874 179.827 181.931C179.827 185.988 183.119 189.277 187.18 189.277Z" fill="#061E33"/>
<path d="M110.67 85.317C107.448 88.3111 104.259 91.3223 101.101 94.3507C97.9447 97.3846 94.8717 100.49 91.828 103.619C90.2905 105.17 88.8021 106.768 87.3628 108.413C85.9124 110.047 84.583 111.784 83.3851 113.611C82.1734 115.42 81.1989 117.376 80.4855 119.432C79.8136 121.467 79.5275 123.694 80.1834 125.633L80.1557 125.561C82.2531 129.186 84.5588 132.686 87.0615 136.044C87.6703 136.897 88.3198 137.722 88.9604 138.552C89.5931 139.389 90.2514 140.206 90.9207 141.014C92.217 142.663 93.5988 144.243 94.937 145.86C96.322 147.437 97.6845 149.035 99.114 150.575C99.8247 151.348 100.522 152.136 101.244 152.899L103.423 155.181L104.508 156.329L105.622 157.448L107.852 159.689C109.353 161.17 110.892 162.614 112.388 164.115C112.397 164.123 112.404 164.132 112.408 164.143C112.413 164.153 112.416 164.165 112.416 164.176C112.416 164.188 112.415 164.2 112.41 164.21C112.406 164.221 112.4 164.231 112.392 164.24C112.377 164.255 112.357 164.264 112.335 164.266C112.314 164.268 112.293 164.262 112.275 164.25C111.426 163.617 110.589 162.969 109.752 162.319C108.922 161.661 108.057 161.041 107.261 160.343L104.842 158.277L103.631 157.242L102.462 156.163L100.133 153.991C99.3695 153.253 98.6338 152.487 97.8825 151.736C96.3579 150.254 94.972 148.641 93.5245 147.084C92.144 145.467 90.7572 143.854 89.4656 142.164C88.8104 141.326 88.1665 140.48 87.5482 139.614C86.9222 138.755 86.288 137.902 85.6941 137.018C84.4756 135.275 83.3066 133.496 82.2283 131.66C81.1187 129.834 80.1135 127.947 79.2172 126.007L79.2061 125.983C79.1992 125.967 79.1936 125.951 79.1894 125.935C78.9123 124.805 78.8553 123.632 79.0213 122.481C79.1931 121.367 79.4845 120.275 79.8905 119.224C80.7058 117.161 81.7177 115.181 82.9123 113.312C85.2591 109.566 87.8837 106 90.7642 102.645C93.6893 99.3387 96.8307 96.2298 100.168 93.3387C103.467 90.4159 106.938 87.6911 110.56 85.1786C110.58 85.1654 110.604 85.1603 110.627 85.1646C110.65 85.1688 110.67 85.182 110.683 85.2013C110.695 85.2191 110.7 85.2405 110.698 85.2617C110.695 85.2829 110.685 85.3025 110.67 85.317Z" fill="#061E33"/>
<path d="M160.061 80.6677C161.069 82.0707 161.684 83.7178 161.84 85.4381C161.941 87.2034 161.533 88.9605 160.664 90.5012C158.963 93.594 156.243 95.874 153.444 97.7897C150.616 99.6777 147.606 101.278 144.459 102.567C141.329 103.847 138.121 104.928 134.854 105.803L135.164 105.475C134.121 109.747 133.742 114.154 134.041 118.541C134.158 120.739 134.386 122.929 134.723 125.103C134.878 126.191 135.077 127.274 135.265 128.356C135.487 129.434 135.678 130.516 135.928 131.586C136.394 133.733 136.896 135.872 137.478 137.984L137.926 139.56C138.097 140.1 138.207 140.642 138.342 141.177L139.122 144.401L140.683 150.851L142.178 157.318L142.18 157.325C142.228 157.534 142.202 157.752 142.108 157.944C142.014 158.136 141.856 158.289 141.662 158.378L137.516 160.278C136.82 160.586 136.145 160.933 135.458 161.256L133.403 162.24L133.784 161.148L135.685 165.44L135.705 165.486C135.741 165.568 135.76 165.657 135.76 165.747C135.761 165.837 135.742 165.926 135.706 166.009C135.529 166.393 135.263 166.729 134.93 166.99C134.67 167.203 134.395 167.397 134.107 167.571C133.568 167.899 133.009 168.193 132.433 168.452C131.304 168.963 130.161 169.399 129.012 169.808C127.863 170.215 126.707 170.592 125.546 170.95C124.38 171.292 123.212 171.618 122.034 171.921L122.014 171.926C121.983 171.934 121.95 171.935 121.918 171.928C121.886 171.921 121.856 171.907 121.831 171.887C121.121 171.315 120.421 170.732 119.721 170.149C119.703 170.134 119.692 170.113 119.69 170.09C119.688 170.066 119.695 170.043 119.71 170.025C119.724 170.009 119.744 169.998 119.766 169.995C119.787 169.992 119.809 169.997 119.827 170.009C120.59 170.507 121.351 171.004 122.103 171.513L121.9 171.479C123.035 171.073 124.165 170.642 125.286 170.198C126.411 169.766 127.529 169.316 128.632 168.84C129.733 168.363 130.821 167.86 131.862 167.302C132.378 167.019 132.889 166.732 133.352 166.413C133.576 166.263 133.788 166.098 133.988 165.919C134.128 165.799 134.244 165.655 134.33 165.492L134.352 166.061L132.279 161.849C132.185 161.659 132.169 161.439 132.236 161.237C132.303 161.035 132.446 160.867 132.635 160.769L132.659 160.757C134.017 160.058 135.358 159.321 136.735 158.664L140.861 156.678L140.345 157.738L138.871 151.289L137.463 144.823L136.759 141.589C136.636 141.05 136.539 140.505 136.387 139.988C136.239 139.447 136.118 138.904 135.987 138.362C135.493 136.19 135.038 134.014 134.703 131.816C134.01 127.429 133.598 123.003 133.47 118.565C133.279 114.118 133.556 109.664 134.296 105.275C134.309 105.203 134.341 105.136 134.389 105.081C134.437 105.026 134.498 104.984 134.567 104.961L134.606 104.948C137.753 103.859 140.841 102.607 143.857 101.195C145.364 100.496 146.863 99.7847 148.323 99.0058C149.793 98.2546 151.224 97.4292 152.61 96.5326C155.353 94.7499 158.003 92.6813 159.71 89.9554C160.582 88.6121 161.073 87.0576 161.131 85.4575C161.118 83.8152 160.698 82.2015 159.91 80.7601C159.905 80.7499 159.901 80.7387 159.9 80.7272C159.899 80.7157 159.9 80.704 159.903 80.6929C159.907 80.6818 159.912 80.6715 159.92 80.6625C159.927 80.6535 159.936 80.646 159.946 80.6405C159.965 80.6307 159.987 80.6281 160.008 80.6331C160.029 80.6381 160.048 80.6504 160.061 80.6677Z" fill="#061E33"/>
<path d="M110.568 85.3215C109.199 84.5633 107.87 83.7346 106.587 82.8388C105.308 81.9225 104.091 80.9231 102.944 79.8469C100.695 77.6651 98.5678 75.3606 96.5732 72.9439C94.554 70.5549 92.6079 68.1036 90.7761 65.5595C88.8621 63.0325 87.1918 60.3301 85.7875 57.4887L86.8811 57.8534C83.2311 59.9745 79.6272 62.1717 76.0694 64.4448C72.5154 66.7223 68.9789 69.0344 65.5326 71.4811C62.0864 73.9259 58.6799 76.4368 55.3966 79.1037C52.1051 81.7602 48.9185 84.5471 45.8276 87.4343C45.785 87.474 45.731 87.4994 45.6732 87.5067C45.6155 87.5141 45.5568 87.5031 45.5056 87.4753C45.4545 87.4476 45.4133 87.4044 45.3881 87.3519C45.3628 87.2995 45.3548 87.2405 45.365 87.1832L45.3665 87.1756C45.7345 85.2868 45.3905 83.3288 44.4007 81.6781C43.9006 80.8751 43.2357 80.1873 42.4499 79.66C41.6673 79.1331 40.7919 78.7591 39.87 78.5577C39.8078 78.544 39.7498 78.5159 39.7007 78.4756C39.6515 78.4353 39.6125 78.384 39.5869 78.3258C39.5612 78.2676 39.5497 78.2043 39.5532 78.1408C39.5567 78.0774 39.5751 78.0156 39.607 77.9606L39.614 77.949C43.3132 71.5683 47.4199 65.4323 51.9086 59.5789C56.4184 53.7298 61.2937 48.1713 66.5053 42.9365C69.1048 40.3121 71.816 37.7992 74.5875 35.357C75.9717 34.1338 77.3907 32.9504 78.8212 31.7821C80.2422 30.6096 81.7319 29.4534 83.2494 28.3964C86.294 26.2681 89.3901 24.3175 92.5011 22.3238C94.0659 21.3427 95.6449 20.3812 97.2711 19.4794C98.0849 19.0291 98.9104 18.5944 99.7704 18.1982C100.208 17.9952 100.657 17.8165 101.114 17.6629C101.36 17.5811 101.61 17.5147 101.863 17.4641C102.193 17.3894 102.537 17.3968 102.864 17.4859C102.957 17.5123 103.04 17.564 103.106 17.6353L103.115 17.6463L105.476 20.2454L105.279 20.1126L113.579 23.5511L121.855 27.0551C121.876 27.0641 121.892 27.0809 121.901 27.102C121.91 27.1231 121.91 27.1469 121.902 27.1682C121.894 27.1896 121.878 27.2068 121.857 27.2163C121.836 27.2259 121.812 27.2269 121.79 27.2193L113.325 24.2036L104.885 21.1225C104.817 21.0979 104.756 21.0585 104.705 21.0073L104.688 20.9896L102.225 18.4865L102.476 18.6468C102.354 18.6476 102.231 18.6622 102.112 18.6903C101.916 18.7386 101.724 18.7987 101.536 18.8701C101.139 19.0166 100.738 19.2071 100.338 19.3995C99.5379 19.7921 98.7459 20.2332 97.9628 20.6922C96.3958 21.6117 94.8573 22.6003 93.3323 23.6093C90.2981 25.6488 87.2378 27.7193 84.2856 29.8433C82.7984 30.905 81.3956 32.0193 79.9945 33.2013C78.5868 34.3679 77.2112 35.5722 75.8337 36.7736C73.0775 39.176 70.4218 41.6901 67.8012 44.2393C62.5797 49.3661 57.6668 54.7975 53.0883 60.5049C48.4859 66.2071 44.2205 72.1727 40.3137 78.3713L40.0577 77.7628C41.0678 78.0166 42.0207 78.4595 42.8657 79.0678C43.7073 79.6774 44.4162 80.4514 44.9494 81.3429C45.4784 82.2296 45.8264 83.2121 45.9735 84.2338C46.1201 85.2479 46.0989 86.2791 45.9108 87.2862L45.4497 87.0276C48.5724 84.1587 51.7535 81.355 54.9929 78.6166C58.2382 75.8863 61.512 73.1833 64.8898 70.6088C68.2703 68.0402 71.6958 65.5201 75.2432 63.1782C78.7799 60.8205 82.4131 58.6074 86.1127 56.5148C86.2919 56.4135 86.504 56.3874 86.7024 56.4424C86.9007 56.4973 87.0692 56.6286 87.1706 56.8076C87.1838 56.831 87.1958 56.855 87.2065 56.8795C87.8384 58.2605 88.5655 59.5961 89.3823 60.8766C90.1918 62.1848 91.0394 63.4752 91.9251 64.7479C93.6959 67.2874 95.538 69.7818 97.4515 72.231C99.3676 74.673 101.345 77.07 103.479 79.3059C104.544 80.4261 105.681 81.4749 106.884 82.4456C108.093 83.4093 109.372 84.2967 110.661 85.172C110.68 85.1848 110.693 85.2044 110.698 85.2267C110.703 85.249 110.699 85.2723 110.687 85.2916C110.675 85.311 110.656 85.3249 110.633 85.3305C110.611 85.336 110.588 85.3328 110.568 85.3215L110.568 85.3215Z" fill="#061E33"/>
<path d="M105.366 32.8065C101.251 30.1137 86.955 26.9639 86.955 26.9639L81.1058 31.1058C81.1058 31.1058 99.4386 34.2239 105.397 40.6017L105.365 32.8065" fill="#061E33"/>
<path d="M90.4694 35.2158C91.2976 35.5174 92.026 36.0422 92.5741 36.7319C93.1418 37.4125 93.577 38.1931 93.8573 39.0336C94.1232 39.8696 94.249 40.7439 94.2294 41.621C94.2245 42.486 94.0558 43.3424 93.7322 44.1448C93.6281 43.7168 93.5871 43.3037 93.5228 42.8958C93.4395 42.4894 93.3993 42.0864 93.3148 41.6936C93.1682 40.9188 92.9765 40.1531 92.7407 39.4006C92.2449 37.8792 91.4751 36.461 90.4694 35.2158Z" fill="#061E33"/>
<path d="M94.4415 25.4365C95.2216 24.8325 96.0479 24.2907 96.9129 23.816C97.7642 23.3362 98.6329 22.895 99.5191 22.4924C100.404 22.088 101.31 21.729 102.232 21.405C103.16 21.0675 104.113 20.8043 105.082 20.6177C104.303 21.223 103.476 21.7654 102.611 22.2398C101.76 22.719 100.892 23.1631 100.004 23.5619C99.1181 23.9643 98.2134 24.3262 97.2903 24.6476C96.3629 24.9848 95.4104 25.2485 94.4415 25.4365Z" fill="#061E33"/>
<path d="M86.4971 57.1839C87.138 56.28 87.8415 55.4221 88.6026 54.6165C89.3494 53.8094 90.1251 53.0333 90.9296 52.2884C91.7329 51.542 92.5699 50.8323 93.4331 50.1507C94.2962 49.4551 95.2076 48.8216 96.1604 48.2549C95.5207 49.1598 94.8175 50.0182 94.0561 50.8236C93.3086 51.6302 92.5352 52.4086 91.7278 53.1504C90.9231 53.8952 90.0883 54.6073 89.2233 55.2868C88.36 55.9821 87.4491 56.616 86.4971 57.1839Z" fill="#061E33"/>
<path d="M132.749 26.9631C126.788 25.0896 105.224 28.6957 103.519 35.2148C101.82 41.7339 118.698 64.1281 118.698 64.1281L124.518 70.7882C129.227 78.2 149.962 69.6018 156.876 66.4597C157.581 66.1483 158.178 65.6327 158.587 64.9795C158.997 64.3262 159.202 63.5653 159.174 62.7949C158.357 46.5675 138.398 28.7426 132.749 26.9631ZM144.524 41.452C143.66 41.8161 142.79 42.1627 141.914 42.5033C141.044 42.8439 140.18 43.1964 139.304 43.5252C137.775 44.1067 136.235 44.6646 134.701 45.2226C135.406 46.0977 136.102 46.9787 136.787 47.8655C137.605 48.9344 138.416 50.015 139.21 51.1074C140.003 52.2057 140.773 53.3157 141.514 54.4551C141.89 55.0248 142.243 55.6062 142.578 56.2111C142.743 56.5165 142.919 56.8043 143.06 57.1391C143.137 57.3036 143.219 57.4562 143.284 57.6325L143.319 57.7558C144.148 57.6736 144.989 57.5679 145.823 57.4269C146.787 57.2566 147.752 57.0745 148.698 56.822C149.646 56.584 150.571 56.2616 151.461 55.8588C152.37 55.4801 153.159 54.8608 153.742 54.0675C153.267 54.966 152.534 55.7022 151.637 56.1818C150.771 56.7025 149.85 57.1278 148.892 57.4504C147.942 57.7844 146.972 58.0609 145.988 58.2785C145.006 58.4958 144.024 58.6896 143.007 58.813L142.625 58.8541L142.461 58.396L142.325 58.0142C142.267 57.885 142.184 57.7382 142.114 57.5972C141.984 57.3153 141.802 57.0334 141.638 56.7515C141.297 56.1936 140.932 55.6356 140.562 55.0777C139.827 53.9676 139.045 52.8811 138.263 51.7946C137.487 50.7022 136.688 49.6157 135.888 48.5409C135.094 47.4544 134.301 46.3737 133.49 45.299L133.06 44.7293L133.725 44.5237C135.512 43.9834 137.305 43.4372 139.104 42.9262C139.997 42.6619 140.903 42.427 141.808 42.1745C142.708 41.9219 143.613 41.6752 144.524 41.452V41.452ZM136.97 38.5625C137.78 38.4563 138.599 38.4268 139.415 38.4744C138.701 38.87 137.951 39.1984 137.176 39.4552C136.417 39.7139 135.646 39.9334 134.865 40.113C134.082 40.2903 133.289 40.4236 132.49 40.5123C131.681 40.6185 130.865 40.648 130.05 40.6004C130.765 40.2066 131.515 39.8802 132.29 39.6255C133.048 39.3641 133.819 39.1445 134.601 38.9677C135.382 38.7885 136.173 38.6532 136.97 38.5624L136.97 38.5625ZM123.401 35.8844C124.424 35.4145 125.461 34.9838 126.511 34.5923C127.564 34.2047 128.632 33.8562 129.715 33.5469C130.801 33.2215 131.91 32.9742 133.031 32.8068C132.069 33.4068 131.067 33.9406 130.033 34.4043C129.01 34.8742 127.975 35.3088 126.923 35.6964C125.871 36.084 124.801 36.4305 123.719 36.7418C122.633 37.0665 121.525 37.3138 120.403 37.4819C121.365 36.8818 122.367 36.348 123.401 35.8843L123.401 35.8844ZM131.273 69.549C130.268 68.9584 129.319 68.2761 128.44 67.511C126.724 65.9409 125.151 64.2233 123.736 62.3779C120.939 58.6918 118.438 54.7896 116.259 50.7081C115.165 48.6701 114.125 46.6028 113.16 44.5061C112.684 43.4489 112.22 42.3918 111.791 41.3111C111.573 40.7708 111.361 40.2305 111.173 39.6784C111.073 39.4023 110.991 39.1204 110.897 38.8385C110.81 38.5436 110.741 38.2434 110.691 37.9399C110.48 36.6989 110.722 35.4234 111.373 34.3456C112.012 33.3257 112.862 32.4545 113.866 31.7908C114.836 31.1398 115.872 30.5945 116.958 30.164C118.026 29.717 119.132 29.3671 120.262 29.1185C118.085 29.8221 116.039 30.8798 114.207 32.2489C113.321 32.9114 112.585 33.7516 112.044 34.7156C111.535 35.6519 111.374 36.7381 111.591 37.7814C111.648 38.0412 111.719 38.298 111.802 38.5507C111.902 38.815 111.985 39.0793 112.096 39.3436C112.302 39.8663 112.514 40.3949 112.737 40.9176C113.184 41.9689 113.672 43.0026 114.166 44.0362C115.153 46.0977 116.188 48.1415 117.287 50.1443C118.375 52.1646 119.515 54.1497 120.709 56.0996C121.891 58.0612 123.154 59.9641 124.471 61.8258C125.79 63.6875 127.248 65.4466 128.833 67.0881C129.63 67.8996 130.502 68.6331 131.438 69.2788C132.369 69.9442 133.452 70.3662 134.589 70.5063C133.418 70.4889 132.273 70.1583 131.273 69.5489L131.273 69.549ZM153.501 63.6113C151.884 64.5785 150.061 65.1481 148.181 65.2733C146.308 65.4275 144.423 65.2587 142.608 64.7741C141.69 64.5344 140.801 64.1957 139.956 63.764C139.522 63.5414 139.109 63.28 138.722 62.9829C138.296 62.675 137.931 62.2906 137.646 61.8493C137.566 61.7282 137.501 61.5981 137.452 61.4617C137.384 61.327 137.338 61.1822 137.317 61.033L137.252 60.6571C137.244 60.5639 137.229 60.4715 137.205 60.3811C137.101 59.9741 136.961 59.5772 136.787 59.1947C136.427 58.3835 136.025 57.5916 135.582 56.822C134.712 55.2538 133.731 53.7327 132.761 52.2057C130.785 49.1752 128.757 46.1623 126.717 43.1553C129.116 45.8863 131.397 48.7288 133.519 51.6947C134.589 53.1748 135.596 54.6998 136.541 56.2699C137.025 57.0643 137.459 57.8881 137.84 58.7366C138.043 59.1799 138.208 59.6397 138.334 60.1109C138.366 60.2406 138.392 60.3719 138.41 60.5044L138.439 60.6982L138.463 60.798C138.471 60.8746 138.495 60.9486 138.534 61.0154C138.561 61.0935 138.601 61.1668 138.651 61.2327C139.131 61.8807 139.763 62.4011 140.491 62.7479C141.262 63.1478 142.072 63.4686 142.907 63.7052C144.602 64.1967 146.364 64.4187 148.128 64.363C149.895 64.3253 151.632 63.8961 153.213 63.1062C154.007 62.709 154.734 62.192 155.371 61.5733C156.004 60.9307 156.553 60.2104 157.005 59.4296C156.308 61.158 155.082 62.6218 153.501 63.6112L153.501 63.6113Z" fill="#061E33"/>
<path d="M89.152 54.731C89.152 54.731 104.373 61.2944 118.701 64.129L123.395 69.5043C123.395 69.5043 104.313 66.4439 86.4971 57.1842L89.152 54.731Z" fill="#061E33"/>
<path d="M110.231 29.8852C110.082 28.7883 110.301 27.6729 110.854 26.7139C111.154 26.1905 111.562 25.7375 112.052 25.3853C112.542 25.0332 113.102 24.7901 113.694 24.6726C114.806 24.4665 115.955 24.6143 116.978 25.0952C118.002 25.5761 118.848 26.3658 119.398 27.353C118.522 26.8922 117.593 26.5378 116.633 26.2973C115.771 26.0841 114.873 26.0567 114 26.217C113.173 26.3895 112.422 26.8177 111.853 27.4407C111.201 28.1766 110.656 28.9993 110.231 29.8852Z" fill="#061E33"/>
<path d="M75.959 14.2451L76.627 16.643C76.7443 17.0386 76.8487 17.4363 76.9758 17.8227C77.0839 18.1869 77.2243 18.5408 77.3954 18.8801C77.4375 18.9519 77.4555 19.0353 77.447 19.1181C77.4385 19.2009 77.4038 19.2788 77.3479 19.3405L77.3298 19.3604C76.9386 19.7917 76.5552 20.2449 76.1804 20.69C75.8142 21.1224 75.4795 21.5806 75.1791 22.0609C75.1181 22.1608 75.066 22.2658 75.0232 22.3747C75.0139 22.4013 75.0066 22.4286 75.0013 22.4562C75.0056 22.4513 75.0112 22.3889 74.9324 22.2778C74.9073 22.2472 74.8755 22.2227 74.8395 22.2062L74.9333 22.2432L75.1204 22.3178C75.2452 22.3551 75.3706 22.4047 75.4936 22.4285C75.722 22.491 75.9588 22.5165 76.1953 22.5041C76.2939 22.4979 76.391 22.477 76.4834 22.4421C76.5223 22.4277 76.5598 22.4094 76.5951 22.3876C76.6209 22.3785 76.671 22.3238 76.6399 22.3632L77.5684 22.6761C77.5863 23.3869 77.6522 24.0956 77.7658 24.7975C77.8788 25.5043 78.0499 26.2007 78.2772 26.8795C78.5009 27.5584 78.8135 28.2048 79.2071 28.8016C79.6155 29.4079 80.1391 29.9281 80.7483 30.3327C80.0245 30.0783 79.3741 29.6508 78.854 29.0873C78.3285 28.5177 77.8977 27.8678 77.5779 27.1622C77.2568 26.4623 77.0107 25.7304 76.844 24.9787C76.6671 24.2255 76.5625 23.4572 76.5316 22.6842L77.46 22.997C77.3761 23.0997 77.2762 23.1882 77.164 23.2591C77.0742 23.3182 76.9788 23.3685 76.8793 23.4091C76.6946 23.4851 76.4998 23.5335 76.301 23.5526C75.9421 23.5878 75.5797 23.5558 75.2325 23.4583C75.0637 23.4196 74.9111 23.3578 74.7523 23.3049L74.5258 23.2099L74.4128 23.1621C74.3092 23.1148 74.2167 23.0462 74.1413 22.9608C74.0726 22.8784 74.0215 22.7829 73.991 22.6802C73.9606 22.5774 73.9515 22.4695 73.9642 22.363C73.9785 22.2431 74.0078 22.1254 74.0514 22.0127C74.1188 21.8447 74.2014 21.6832 74.2982 21.5302C74.645 21.0094 75.0384 20.5211 75.4737 20.0715C75.8857 19.6218 76.319 19.2065 76.7703 18.795L76.7048 19.2751C76.5268 18.8621 76.4026 18.4281 76.3349 17.9837C76.2599 17.5673 76.1934 17.1548 76.1455 16.7392C76.0486 15.9096 75.9776 15.0799 75.959 14.2451Z" fill="#061E33"/>
<path d="M94.0837 0.0114804C85.0244 -0.164706 83.0903 1.59134 75.7064 11.9633C75.7064 11.9633 67.3996 15.7397 67.817 17.3195C68.2403 18.8994 76.018 14.6414 76.018 14.6414L103.402 14.8176C103.402 14.8176 103.149 0.187697 94.0837 0.0114804ZM94.0837 12.2217C95.2824 11.8177 96.5196 11.5382 97.7756 11.3877C99.0274 11.2092 100.295 11.1659 101.556 11.2585C99.1479 12.0463 96.6128 12.3731 94.0837 12.2217V12.2217Z" fill="#061E33"/>
<path d="M80.7483 14.6711C81.2352 15.361 81.7814 16.0071 82.3807 16.6022C82.8944 17.165 83.5552 17.5733 84.2887 17.781C84.6112 17.829 84.9407 17.7939 85.2458 17.6791C85.551 17.5642 85.8217 17.3733 86.0323 17.1245C86.7403 16.406 87.6659 15.941 88.6655 15.8017C88.9574 15.7712 89.2524 15.7889 89.5386 15.8538C89.8574 15.9297 90.1528 16.0823 90.399 16.2983C90.819 16.7003 91.091 17.2321 91.171 17.8077C91.295 18.7309 91.2427 19.6692 91.0166 20.5729C90.972 20.796 90.9145 21.0162 90.8441 21.2326L90.7468 21.5605L90.6027 21.8861C90.4167 22.3527 90.1058 22.7593 89.7039 23.0611C89.4859 23.204 89.234 23.2871 88.9736 23.3019C88.7132 23.3168 88.4535 23.2629 88.2206 23.1457C87.8171 22.9471 87.4683 22.6531 87.2044 22.2892C87.5485 22.5226 87.9351 22.6861 88.3423 22.7706C88.5068 22.8138 88.6798 22.8125 88.8435 22.7667C89.0073 22.721 89.1559 22.6324 89.274 22.5103C89.5051 22.2391 89.6614 21.9123 89.7274 21.5623L89.7994 21.2868L89.8448 20.992C89.8817 20.7962 89.9064 20.5982 89.919 20.3993C90.0154 19.6275 89.9924 18.8455 89.8506 18.0808C89.8053 17.8069 89.6745 17.5544 89.4769 17.3593C89.382 17.291 89.2739 17.2431 89.1596 17.2185C89.0453 17.1939 88.9271 17.1931 88.8125 17.2163C88.1111 17.3256 87.4579 17.64 86.9352 18.1199C86.5455 18.4605 86.09 18.7176 85.5969 18.8754C85.0742 19.0358 84.514 19.0262 83.9971 18.8479C83.1031 18.4972 82.3479 17.8648 81.8462 17.0466C81.3585 16.3169 80.988 15.5153 80.7483 14.6711Z" fill="#061E33"/>
<path d="M84.9741 58.304C85.1486 59.0377 85.2772 59.7816 85.3591 60.5313C85.4452 61.2738 85.4963 62.0162 85.5305 62.7587L85.2281 62.2643C86.349 62.7817 87.4342 63.3729 88.4766 64.034C89.0035 64.3632 89.5133 64.7189 90.0042 65.0996C90.2535 65.2869 90.4912 65.494 90.7262 65.7045C90.9772 65.9055 91.1826 66.1575 91.3287 66.4438C91.0773 66.2699 90.8025 66.1323 90.5126 66.0351L89.6628 65.6798C89.0948 65.4452 88.5363 65.1945 87.9817 64.9351C86.8696 64.4237 85.784 63.8552 84.7202 63.2533L84.678 63.2295C84.5954 63.1826 84.5274 63.1138 84.4814 63.0308C84.4355 62.9477 84.4135 62.8535 84.4178 62.7587C84.452 62.0162 84.503 61.2737 84.5892 60.5313C84.6711 59.7816 84.7997 59.0377 84.9741 58.304Z" fill="#061E33"/>
<path d="M76.2516 72.1632C76.1818 71.3836 76.052 70.4609 75.9876 69.5044C75.9851 69.4661 75.9912 69.4277 76.0056 69.3922C76.02 69.3566 76.0423 69.3248 76.0708 69.2991L76.1017 69.2717C77.4734 68.0486 78.8775 66.8672 80.314 65.7275C81.0275 65.1514 81.7492 64.586 82.4873 64.0416C83.2226 63.4936 83.988 62.9844 84.7425 62.4611L84.7761 62.4377C84.8329 62.3984 84.9001 62.3769 84.9692 62.376C85.0383 62.3751 85.106 62.3949 85.1638 62.4327C86.1887 63.1055 87.2026 63.7977 88.2477 64.4359C89.2955 65.0695 90.359 65.6759 91.4383 66.2553C91.4858 66.2807 91.5217 66.3234 91.5386 66.3745C91.5556 66.4256 91.5523 66.4812 91.5294 66.53L91.5232 66.5433C91.0976 67.4478 90.5969 68.3151 90.0263 69.1361C89.7275 69.5615 89.3862 69.9555 89.0076 70.312C88.5658 70.7502 87.969 70.9967 87.3464 70.9982L87.8767 70.6364C87.728 71.2472 87.5379 71.8472 87.3078 72.4323C87.0806 73.0334 86.798 73.6121 86.4638 74.1611C86.2836 74.4571 86.0706 74.732 85.8289 74.9806C85.5472 75.2808 85.1921 75.5025 84.7985 75.6237C84.5733 75.6827 84.3387 75.6964 84.1082 75.664C83.8777 75.6316 83.656 75.5537 83.4559 75.4348C83.1315 75.2339 82.8435 74.9796 82.6042 74.6826C82.5208 74.5867 82.47 74.4667 82.4592 74.3401C82.4484 74.2136 82.4782 74.0868 82.5441 73.9782L82.5684 73.9387C82.8186 73.5382 83.0223 73.1106 83.1757 72.6641C83.3244 72.2568 83.3751 71.8203 83.3236 71.3899C83.2955 71.1989 83.2246 71.0167 83.1164 70.8568C83.0081 70.6969 82.8652 70.5635 82.6982 70.4663C82.514 70.3424 82.3165 70.2394 82.1094 70.1593C81.8859 70.0853 81.6468 70.0312 81.4141 69.9628L81.6925 69.9188C80.7479 70.3488 79.7882 70.7296 78.8702 71.1064C77.9496 71.4777 77.072 71.8152 76.2516 72.1632ZM76.3133 72.0632C77.2267 71.5415 78.0832 71.0094 78.8964 70.511C79.7123 70.0182 80.4866 69.5295 81.2759 69.0898C81.3593 69.0433 81.4563 69.0274 81.5501 69.045L81.5546 69.0459C81.8393 69.0993 82.126 69.1401 82.4131 69.21C82.7121 69.2933 82.9989 69.4151 83.2663 69.5723C83.5563 69.7396 83.8133 69.9584 84.0246 70.2179C84.1175 70.3635 84.2076 70.5133 84.2935 70.6649C84.3592 70.8226 84.4068 70.9879 84.4589 71.1517C84.5788 71.7748 84.539 72.4179 84.3433 73.0215C84.179 73.5908 83.9341 74.1337 83.6161 74.6339L83.5803 73.8902C83.7214 74.0668 83.8886 74.2209 84.0762 74.3471C84.136 74.3868 84.2033 74.4138 84.2739 74.4265C84.3446 74.4391 84.4171 74.4371 84.4869 74.4205C84.9102 74.2387 85.2615 73.9224 85.4863 73.5206C85.8021 73.0447 86.0733 72.5409 86.2967 72.0154C86.5254 71.4822 86.742 70.9211 86.9221 70.3774L86.9409 70.3202C86.9753 70.2165 87.0459 70.1287 87.1399 70.0727C87.2338 70.0168 87.3447 69.9965 87.4524 70.0156C87.8217 70.0135 88.1771 69.8751 88.4505 69.6271C88.8161 69.3462 89.1539 69.0309 89.4591 68.6854C90.0892 67.959 90.6501 67.1753 91.1342 66.3446L91.2189 66.6325C90.1803 65.9833 89.1257 65.3615 88.0551 64.7669C86.9821 64.1768 85.8777 63.6407 84.7845 63.0852L85.2057 63.0569C84.5115 63.6577 83.8284 64.2727 83.1151 64.8489C82.4045 65.4288 81.6777 65.9876 80.9425 66.5357C79.4793 67.6411 77.9862 68.7082 76.4632 69.7368L76.5771 69.5043C76.5128 70.2871 76.383 71.1035 76.3133 72.0632Z" fill="#061E33"/>
<path d="M39.9681 78.219C38.0421 78.6086 36.17 79.2286 34.3924 80.0657C32.6874 80.9159 31.2233 82.2237 30.9559 84.0365C30.8513 84.9814 30.9731 85.9376 31.3114 86.8261L31.5564 87.5218C31.6526 87.7465 31.7684 87.9621 31.8777 88.181C32.0939 88.6174 32.3599 89.0274 32.6704 89.4026L33.1729 89.9197L33.7527 90.3296C34.1603 90.5472 34.6118 90.67 35.0736 90.6889C35.984 90.6869 36.8622 90.3521 37.5426 89.7478L37.6234 90.5066C36.8677 90.1374 36.1617 89.6744 35.522 89.1286C34.8101 88.5595 34.2733 87.8011 33.9736 86.9408C33.8995 86.6966 33.8622 86.4427 33.8629 86.1875C33.8735 85.9269 33.912 85.6683 33.9778 85.4159C34.0747 85.1833 34.1852 84.9565 34.3086 84.7368L34.7488 84.1951C35.4134 83.5288 36.281 83.1023 37.215 82.9828C37.6547 82.914 38.1014 82.9005 38.5445 82.9427L38.8708 82.9791C38.9862 82.9993 39.1105 83.0323 39.2288 83.0604C39.4633 83.1224 39.6901 83.2102 39.9051 83.3223C40.6218 83.79 41.2538 84.376 41.7741 85.0552C42.2403 85.6579 42.8023 86.1802 43.4376 86.6014C44.1004 86.9948 44.8611 87.1929 45.6318 87.1729L45.6453 87.2895C44.8263 87.4837 43.967 87.4165 43.1882 87.0975C42.4347 86.7319 41.7467 86.2448 41.1518 85.6558C40.6427 85.1169 40.0582 84.6544 39.4164 84.2829C39.2728 84.2218 39.1229 84.1765 38.9694 84.1477L38.7421 84.1097L38.4726 84.0984C38.1201 84.0848 37.7671 84.1103 37.4202 84.1744C36.766 84.2897 36.159 84.5915 35.6723 85.0433C35.4409 85.2316 35.2666 85.4806 35.1692 85.7625C35.0717 86.0443 35.0548 86.3477 35.1205 86.6385C35.3343 87.2943 35.724 87.879 36.2473 88.329C36.8022 88.8408 37.4052 89.298 38.048 89.694L38.6595 90.0759L38.1289 90.453C37.6772 90.7717 37.1727 91.0083 36.6387 91.1519C36.1139 91.3068 35.5619 91.3471 35.0202 91.2701C33.9632 91.0896 33.0187 90.5035 32.3882 89.6369C32.2244 89.4396 32.095 89.2179 31.9466 89.0102C31.7946 88.8058 31.6619 88.5879 31.5502 88.3591L31.185 87.6899L30.878 86.9956C30.3869 86.0615 30.1267 85.0235 30.1191 83.9683C30.1447 82.8505 30.5878 81.7826 31.3614 80.9744C31.7277 80.579 32.1442 80.233 32.6003 79.9454C33.0378 79.6546 33.5023 79.4066 33.9876 79.205C35.8784 78.4219 37.9134 78.046 39.9595 78.1019L39.9681 78.219Z" fill="#061E33"/>
<path d="M110.615 85.2472C115.109 85.3 119.591 85.3362 124.068 85.2916C126.307 85.2807 128.544 85.2431 130.778 85.1788C133.013 85.1261 135.246 85.0441 137.473 84.9103C139.7 84.7963 141.925 84.6466 144.137 84.4132C146.349 84.1867 148.56 83.9428 150.736 83.5456C152.905 83.1839 155.045 82.6646 157.138 81.9916C159.178 81.2798 161.2 80.3657 162.622 78.882L162.47 79.3079C162.447 78.0856 162.343 76.8662 162.161 75.6574C161.98 74.4425 161.699 73.2443 161.323 72.075C160.951 70.9064 160.406 69.8003 159.705 68.7941C158.994 67.773 158.017 66.9666 156.878 66.4629C158.11 66.8296 159.209 67.5449 160.042 68.5222C160.884 69.4995 161.56 70.6066 162.046 71.8006C162.542 72.9835 162.925 74.2103 163.191 75.4649C163.476 76.7204 163.66 77.9965 163.743 79.2811L163.756 79.5176L163.591 79.7071C161.956 81.4278 159.919 82.7147 157.662 83.4516C155.51 84.2302 153.295 84.8232 151.041 85.2242C146.583 86.0088 142.074 86.4678 137.549 86.5976C133.041 86.7519 128.537 86.6962 124.043 86.4764C119.552 86.2384 115.067 85.8756 110.615 85.2472Z" fill="#061E33"/>
<path d="M134.733 105.373C132.481 107.854 130.097 110.211 127.59 112.434C126.353 113.563 125.067 114.636 123.785 115.715C122.489 116.778 121.165 117.807 119.834 118.828C118.481 119.821 117.117 120.802 115.722 121.739C114.31 122.652 112.892 123.562 111.412 124.372C109.939 125.201 108.41 125.929 106.838 126.552C105.273 127.205 103.607 127.584 101.914 127.672C103.523 127.27 105.072 126.657 106.519 125.847C107.981 125.082 109.388 124.214 110.778 123.319C113.543 121.502 116.237 119.568 118.888 117.569C121.553 115.587 124.17 113.536 126.803 111.496C129.431 109.447 132.054 107.389 134.733 105.373Z" fill="#061E33"/>
<path d="M128.585 87.6089C129.569 88.4293 130.32 89.3028 131.127 90.0885C131.508 90.4837 131.919 90.8486 132.357 91.1799C132.811 91.5328 133.329 91.796 133.881 91.9553C133.578 92.0986 133.247 92.1766 132.911 92.1843C132.575 92.1919 132.241 92.1291 131.931 91.9999C131.314 91.7665 130.756 91.3983 130.299 90.9221C129.85 90.4745 129.471 89.9618 129.175 89.4014C128.87 88.8451 128.67 88.2375 128.585 87.6089Z" fill="#061E33"/>
<path d="M123.395 87.6089C123.395 87.6089 88.4419 118.979 88.4625 125.404C88.4831 131.829 126.717 170.114 126.717 170.114" stroke="#061E33" stroke-width="1.93554" stroke-linecap="round" stroke-linejoin="round" stroke-dasharray="2.9 2.9"/>
<path d="M105.397 126.742C108.367 129.003 111.136 131.516 113.673 134.253C116.249 136.951 118.642 139.815 120.948 142.742C123.226 145.691 125.391 148.725 127.412 151.852C128.44 153.404 129.381 155.013 130.348 156.601C131.271 158.218 132.176 159.844 133.03 161.498C131.879 160.029 130.802 158.518 129.701 157.025L126.401 152.552C125.276 151.081 124.216 149.565 123.073 148.111C121.972 146.625 120.842 145.163 119.704 143.707C117.442 140.785 115.126 137.905 112.758 135.067C110.372 132.244 107.965 129.436 105.397 126.742Z" fill="#061E33"/>
<path d="M138.61 182.765C138.61 182.765 137.099 180.586 130.668 186.065C124.236 191.545 108.534 194 105.395 193.812C102.261 193.624 102.479 187.575 105.395 187.575C107.152 187.575 112.996 184.086 117.005 180.774L119.216 183.041L117.94 180.075L118.94 179.276L122.343 180.398L119.616 178.33C120.162 177.72 120.656 177.273 120.656 177.273L123.478 177.279L120.95 176.146C120.975 176.032 120.977 175.915 120.955 175.801C120.934 175.687 120.89 175.579 120.827 175.482C119.128 173.027 121.967 171.7 121.967 171.7C133.125 176.991 136.153 166.978 136.153 166.978L143.719 174.161C143.362 174.938 142.822 175.618 142.143 176.14C141.484 176.674 140.791 177.164 140.068 177.608C138.622 178.536 137.087 179.364 135.583 180.398C136.492 180.319 137.386 180.116 138.24 179.793C139.1 179.485 139.924 179.086 140.697 178.601C141.495 178.115 142.207 177.5 142.802 176.78C143.126 176.429 143.375 176.016 143.533 175.565C143.69 175.115 143.754 174.637 143.719 174.161C144.665 174.161 146.746 175.106 146.746 175.106C149.768 178.125 138.61 182.765 138.61 182.765Z" fill="#061E33"/>
<path d="M89.3871 176.805C89.3729 179.666 89.0803 182.519 88.5134 185.324C87.9596 188.131 87.1373 190.878 86.0577 193.528C83.8966 198.86 80.7408 203.733 76.7583 207.888C72.7476 212.081 67.9472 215.441 62.6329 217.776C57.2567 220.122 51.465 221.369 45.5989 221.444C39.7328 221.519 33.911 220.421 28.4766 218.213C20.2015 214.872 13.1039 209.155 8.08104 201.784C3.05817 194.414 0.335613 185.721 0.257603 176.805C0.127783 167.771 2.70546 158.904 7.65927 151.345C12.6131 143.786 19.7167 137.88 28.0568 134.386C30.8388 133.235 33.7297 132.368 36.6859 131.797C42.5965 130.647 48.6806 130.724 54.5603 132.022C63.3167 133.962 71.2586 138.559 77.2988 145.182C81.2377 149.483 84.321 154.494 86.384 159.947C87.4094 162.637 88.1763 165.419 88.6743 168.254C89.1888 171.075 89.4275 173.938 89.3871 176.805ZM88.9168 176.805C88.872 173.977 88.5521 171.161 87.9615 168.395C86.1421 160.133 81.7936 152.641 75.5195 146.96C69.4083 141.417 61.8423 137.728 53.708 136.326C51.0474 135.854 48.3472 135.641 45.6454 135.69C34.7544 135.817 24.3293 140.123 16.5277 147.716C12.6197 151.496 9.50175 156.014 7.35469 161.008C5.20763 166.001 4.07416 171.371 4.01997 176.805C3.96054 182.29 4.9848 187.732 7.03406 192.821C9.08333 197.909 12.1173 202.544 15.9623 206.459C19.8351 210.412 24.4503 213.563 29.5438 215.731C34.6373 217.899 40.109 219.042 45.6453 219.094C56.9534 219.262 67.8752 214.987 76.06 207.19C82.2489 201.293 86.462 193.629 88.1224 185.247C88.6604 182.465 88.9265 179.638 88.9168 176.805Z" fill="#061E33"/>
<path d="M230.426 176.805C230.467 179.671 230.228 182.535 229.714 185.355C229.216 188.191 228.449 190.972 227.423 193.662C225.36 199.115 222.277 204.126 218.338 208.427C212.298 215.051 204.356 219.648 195.6 221.588C189.72 222.886 183.636 222.962 177.725 221.813C174.769 221.242 171.878 220.374 169.096 219.224C162.193 216.328 156.112 211.772 151.396 205.963C146.68 200.153 143.474 193.269 142.063 185.923C140.652 178.576 141.08 170.996 143.31 163.855C145.539 156.714 149.5 150.234 154.84 144.991C159.043 140.866 164.019 137.61 169.484 135.409C174.948 133.209 180.793 132.106 186.685 132.166C192.533 132.263 198.305 133.509 203.672 135.833C208.987 138.168 213.787 141.529 217.798 145.722C221.78 149.877 224.936 154.75 227.097 160.082C228.177 162.731 228.999 165.479 229.553 168.285C230.12 171.09 230.412 173.943 230.426 176.805ZM229.956 176.805C229.966 173.972 229.7 171.144 229.162 168.363C227.501 159.981 223.288 152.317 217.099 146.42C208.915 138.623 197.993 134.348 186.685 134.515C178.364 134.591 170.252 137.131 163.377 141.814C156.501 146.497 151.171 153.112 148.06 160.822C146.018 165.888 144.999 171.306 145.059 176.767C145.119 182.227 146.258 187.622 148.411 192.641C150.563 197.616 153.674 202.12 157.567 205.894C165.369 213.487 175.794 217.792 186.685 217.919C189.386 217.969 192.087 217.756 194.747 217.283C202.882 215.881 210.448 212.193 216.559 206.65C222.833 200.968 227.181 193.477 229.001 185.215C229.591 182.449 229.911 179.632 229.956 176.805Z" fill="#061E33"/>
<path d="M106.832 163.955L71.8373 126.742V115.084H82.1794L86.4534 108.814L73.7289 107.64L73.918 103.105C76.1879 101.026 75.9988 98.1917 75.0938 97.4358C74.1887 96.6799 75.053 94.4122 75.0938 91.9771C75.1345 89.5419 71.8373 88.1761 67.6758 85.9389C63.5142 83.7018 83.0922 74.2864 83.0922 74.2864C85.5045 69.9144 81.4844 69.5044 81.4844 69.5044L76.2825 72.1132C65.2167 74.7589 62.001 82.1289 62.001 82.1289L51.4576 82.952L46.4224 86.6549C42.6407 88.8017 41.8796 85.2129 39.9639 83.9836C38.0483 82.7543 35.5799 84.2907 35.5799 84.2907C32.3137 87.1038 37.8359 90.1004 37.8359 90.1004C37.8359 90.1004 70.6893 87.6091 67.6285 95.8768C67.6285 95.8768 64.2236 98.5697 67.4866 103.105L64.933 126.742C64.933 126.742 57.0273 126.498 57.5753 134.998C58.1232 143.498 53.4888 166.6 41.1935 174.159C41.1935 174.159 37.9778 181.718 46.4899 175.86C55.0021 170.002 63.7038 145.906 61.7174 136.411L68.4755 132.018L103.401 166.978L106.832 163.955Z" fill="#061E33"/>
<path d="M154.728 95.9775C154.728 95.9775 162.823 101.593 152.987 106.695L146.366 109.734L141.259 157.529V165.079C141.259 165.079 149.014 166.636 150.717 170.114L181.739 180.4L180.415 185.214L136.973 172.21L135.016 165.75L139.651 118.308H119.214L128.585 110.793L140.691 111.797V108.814L132.184 107.67C154.728 95.9775 146.308 101.105 154.728 95.9775Z" fill="#061E33"/>
<path d="M157.172 195.657C157.55 196.675 157.898 197.612 158.279 198.519C158.647 199.403 159.072 200.263 159.551 201.094C159.77 201.513 160.051 201.888 160.298 202.294C160.591 202.659 160.843 203.071 161.168 203.424C161.759 204.199 162.487 204.854 163.225 205.673C162.135 205.527 161.099 205.107 160.216 204.451C159.764 204.125 159.348 203.754 158.973 203.342C158.611 202.919 158.288 202.464 158.008 201.983C157.455 201.027 157.09 199.974 156.931 198.881C156.758 197.802 156.841 196.698 157.172 195.657Z" fill="#061E33"/>
<path d="M210.68 153.845C211.856 153.811 213.016 154.115 214.024 154.721C215.065 155.316 215.953 156.145 216.617 157.143C216.781 157.393 216.932 157.651 217.068 157.917L217.274 158.314C217.33 158.452 217.385 158.59 217.434 158.73C217.531 159.011 217.643 159.285 217.719 159.57C217.783 159.857 217.838 160.146 217.889 160.434C217.948 160.719 217.977 161.01 217.975 161.301C217.984 161.591 217.985 161.88 217.981 162.166C217.931 162.739 217.83 163.305 217.679 163.86C217.436 163.321 217.299 162.793 217.114 162.284C217.012 162.031 216.916 161.782 216.828 161.533L216.699 161.162L216.539 160.805C216.433 160.568 216.332 160.333 216.239 160.096L215.892 159.421L215.727 159.084L215.528 158.767C215.394 158.558 215.29 158.329 215.137 158.133C214.581 157.3 213.932 156.533 213.201 155.847C212.42 155.108 211.577 154.438 210.68 153.845Z" fill="#061E33"/>
<path d="M185.333 179.579L160.198 132.018" stroke="#061E33" stroke-width="6.7744" stroke-miterlimit="10"/>
<path d="M188.738 179.579L203.681 132.018" stroke="#061E33" stroke-width="6.7744" stroke-miterlimit="10"/>
<path d="M154.837 131.492H209.504" stroke="#061E33" stroke-width="6.7744" stroke-miterlimit="10"/>
<path d="M26.6279 155.798C26.7205 154.913 26.9856 154.054 27.4082 153.271C27.8161 152.475 28.3508 151.752 28.9913 151.128C29.6467 150.48 30.4309 149.976 31.2932 149.65C32.1651 149.327 33.1205 149.307 34.0053 149.592C33.2474 149.902 32.5251 150.292 31.851 150.756C31.2296 151.215 30.6409 151.717 30.0891 152.258C28.9531 153.345 27.9307 154.577 26.6279 155.798Z" fill="#061E33"/>
<path d="M55.8531 208.836C57.8348 207.764 59.7678 206.923 61.5442 205.87C62.4214 205.366 63.2425 204.771 63.9938 204.094C64.7675 203.39 65.3784 202.525 65.784 201.561C65.9559 202.739 65.6526 203.938 64.9407 204.893C64.2534 205.847 63.3691 206.642 62.3477 207.224C61.3645 207.796 60.3057 208.227 59.2023 208.505C58.1113 208.796 56.9801 208.908 55.8531 208.836Z" fill="#061E33"/>
<path d="M77.6113 16.6177C77.6838 16.4227 77.8129 16.2538 77.9821 16.1327C78.1443 16.0119 78.3327 15.9309 78.532 15.8964C78.7609 15.8555 78.9968 15.8972 79.1978 16.014C79.3036 16.071 79.3885 16.1603 79.4399 16.269C79.4913 16.3776 79.5066 16.4998 79.4836 16.6177C79.3376 16.5467 79.1743 16.5188 79.013 16.5375C78.8982 16.5565 78.7815 16.5684 78.6425 16.5987C78.3021 16.6612 77.9538 16.6677 77.6113 16.6177Z" fill="#061E33"/>
<path d="M78.5475 19.9259C78.8243 19.9164 79.0867 19.7998 79.2791 19.6007C79.4716 19.4017 79.5792 19.1357 79.5792 18.859C79.5792 18.5822 79.4716 18.3163 79.2791 18.1172C79.0867 17.9182 78.8243 17.8016 78.5475 17.792C78.2706 17.8016 78.0083 17.9182 77.8158 18.1172C77.6233 18.3163 77.5157 18.5822 77.5157 18.859C77.5157 19.1357 77.6233 19.4017 77.8158 19.6007C78.0083 19.7998 78.2706 19.9164 78.5475 19.9259Z" fill="#061E33"/>
<path d="M77.4509 25.5424C77.7738 25.3592 78.1102 25.2008 78.4572 25.0685C78.6103 25.0178 78.7529 24.9542 78.9156 24.8974C79.0816 24.8408 79.2455 24.7661 79.4836 24.6992C79.4883 24.9313 79.4081 25.1572 79.258 25.3344C79.1158 25.5125 78.9286 25.6493 78.7157 25.7309C78.5073 25.8104 78.2828 25.8389 78.0611 25.8139C77.8332 25.7936 77.6185 25.6981 77.4509 25.5424Z" fill="#061E33"/>
<path d="M101.554 14.8049C101.775 15.026 101.946 15.2919 102.055 15.5847C102.17 15.8752 102.239 16.1821 102.258 16.4939C102.271 16.8132 102.224 17.1322 102.118 17.4336C102.01 17.7363 101.813 17.9998 101.554 18.1904C101.606 17.8734 101.652 17.6052 101.67 17.3321C101.68 17.0592 101.687 16.7935 101.671 16.522C101.647 15.9759 101.572 15.4312 101.554 14.8049Z" fill="#061E33"/>
</svg>
