<svg width="35" height="12" viewBox="0 0 35 12" fill="none" xmlns="http://www.w3.org/2000/svg">
<path d="M13.9726 0.901001L12.1992 11.3081H15.0355L16.8104 0.901001H13.9726Z" fill="#141C6A"/>
<path d="M9.82161 0.912711L7.04365 8.01007L6.74747 6.93842C6.19962 5.6472 4.64431 3.7928 2.81836 2.62413L5.3585 11.3031L8.35968 11.2979L12.8264 0.910522L9.82161 0.912711Z" fill="#141C6A"/>
<path d="M5.66971 1.65812C5.50485 1.02418 5.02702 0.835237 4.43393 0.812622H0.0364753L0 1.0198C3.42211 1.84998 5.68649 3.85028 6.62609 6.25546L5.66971 1.65812Z" fill="#141C6A"/>
<path d="M22.559 2.89658C23.487 2.88199 24.1596 3.08479 24.6819 3.29489L24.938 3.41526L25.3217 1.15963C24.76 0.948802 23.8795 0.722656 22.7808 0.722656C19.9781 0.722656 18.0026 2.13425 17.9872 4.15717C17.969 5.65192 19.3945 6.48648 20.4712 6.98473C21.5764 7.49538 21.947 7.82001 21.9419 8.27595C21.9331 8.97263 21.0606 9.29215 20.2458 9.29215C19.1099 9.29215 18.5066 9.13531 17.5751 8.74721L17.2096 8.58088L16.8105 10.9102C17.4744 11.2013 18.6992 11.4515 19.9708 11.4646C22.9523 11.4646 24.8898 10.0698 24.9102 7.90828C24.9226 6.72575 24.1661 5.82336 22.5269 5.08291C21.5348 4.59998 20.9279 4.27899 20.9337 3.79168C20.9337 3.35909 21.4487 2.89658 22.559 2.89658Z" fill="#141C6A"/>
<path d="M32.6008 0.913818H30.4093C29.7287 0.913818 29.2224 1.09911 28.9233 1.77755L24.7119 11.3151H27.6905C27.6905 11.3151 28.1763 10.0326 28.2865 9.75177C28.6126 9.75177 31.5065 9.75615 31.9187 9.75615C32.0033 10.1194 32.2645 11.3151 32.2645 11.3151H34.8958L32.6008 0.913818ZM29.1028 7.62162C29.3362 7.02415 30.2328 4.71308 30.2328 4.71308C30.2175 4.74153 30.4641 4.11124 30.6107 3.71949L30.8018 4.61679C30.8018 4.61679 31.3453 7.10148 31.4591 7.62162H29.1028Z" fill="#141C6A"/>
</svg>
